<?xml version="1.0" encoding="utf-8"?>
<!-- Generator: Adobe Illustrator 19.1.0, SVG Export Plug-In . SVG Version: 6.00 Build 0)  -->
<svg version="1.1" id="Layer_1" xmlns="http://www.w3.org/2000/svg" xmlns:xlink="http://www.w3.org/1999/xlink" x="0px" y="0px"
	 viewBox="0 0 288 288" style="enable-background:new 0 0 288 288;" xml:space="preserve">
<style type="text/css">
	.st0{fill:url(#SVGID_1_);}
	.st1{fill:#595A5C;}
	.st2{fill:url(#SVGID_2_);}
	.st3{fill:url(#SVGID_3_);}
	.st4{fill:url(#SVGID_4_);}
	.st5{fill:url(#SVGID_5_);}
	.st6{fill:url(#SVGID_6_);}
	.st7{fill:url(#SVGID_7_);}
	.st8{fill:url(#SVGID_8_);}
	.st9{fill:#FFFFFF;}
	.st10{fill:url(#SVGID_9_);}
	.st11{fill:url(#SVGID_10_);}
	.st12{fill:url(#SVGID_11_);}
	.st13{fill:url(#SVGID_12_);}
	.st14{fill:url(#SVGID_13_);}
	.st15{fill:url(#SVGID_14_);}
	.st16{fill:url(#SVGID_15_);}
	.st17{fill:url(#SVGID_16_);}
	.st18{fill:url(#SVGID_17_);}
	.st19{fill:url(#SVGID_18_);}
	.st20{fill:url(#SVGID_19_);}
	.st21{fill:url(#SVGID_20_);}
	.st22{fill:url(#SVGID_21_);}
	.st23{fill:url(#SVGID_22_);}
	.st24{fill:url(#SVGID_23_);}
	.st25{fill:url(#SVGID_24_);}
	.st26{fill:url(#SVGID_25_);}
	.st27{fill:#BCBEC0;}
	.st28{fill:url(#SVGID_26_);}
	.st29{fill:url(#SVGID_27_);}
	.st30{fill:url(#SVGID_28_);}
	.st31{fill:url(#SVGID_29_);}
	.st32{fill:url(#SVGID_30_);}
	.st33{fill:url(#SVGID_31_);}
	.st34{fill:url(#SVGID_32_);}
	.st35{fill:url(#SVGID_33_);}
	.st36{fill:url(#SVGID_34_);}
	.st37{fill:url(#SVGID_35_);}
	.st38{fill:url(#SVGID_36_);}
	.st39{fill:url(#SVGID_37_);}
	.st40{fill:url(#SVGID_38_);}
	.st41{fill:url(#SVGID_39_);}
	.st42{fill:url(#SVGID_40_);}
	.st43{fill:url(#SVGID_41_);}
	.st44{fill:url(#SVGID_42_);}
	.st45{fill:url(#SVGID_43_);}
	.st46{fill:url(#SVGID_44_);}
	.st47{fill:url(#SVGID_45_);}
	.st48{fill:url(#SVGID_46_);}
	.st49{fill:url(#SVGID_47_);}
	.st50{fill:url(#SVGID_48_);}
	.st51{fill:url(#SVGID_49_);}
	.st52{fill:url(#SVGID_50_);}
	.st53{fill:url(#SVGID_51_);}
	.st54{fill:url(#SVGID_52_);}
	.st55{fill:url(#SVGID_53_);}
	.st56{fill:url(#SVGID_54_);}
	.st57{fill:#9FBEE4;}
	.st58{fill:url(#SVGID_55_);}
	.st59{fill:url(#SVGID_56_);}
	.st60{fill:url(#SVGID_57_);}
	.st61{fill:url(#SVGID_58_);}
	.st62{fill:url(#SVGID_59_);}
	.st63{fill:url(#SVGID_60_);}
	.st64{fill:url(#SVGID_61_);}
	.st65{fill:url(#SVGID_62_);}
	.st66{fill:url(#SVGID_63_);}
	.st67{fill:url(#SVGID_64_);}
	.st68{fill:#A7A9AC;}
	.st69{fill:#58595B;}
	.st70{fill:#F1F2F2;}
	.st71{fill:#702FB7;}
	.st72{fill:#939598;}
	.st73{fill:#010101;}
	.st74{fill:url(#SVGID_65_);}
	.st75{fill:url(#SVGID_66_);}
	.st76{opacity:0.39;fill:url(#SVGID_67_);}
	.st77{fill:url(#SVGID_68_);}
	.st78{fill:url(#SVGID_69_);}
	.st79{fill:url(#SVGID_70_);}
	.st80{opacity:0.39;fill:url(#SVGID_71_);}
	.st81{fill:url(#SVGID_72_);}
	.st82{fill:url(#SVGID_73_);}
	.st83{opacity:0.5;fill:url(#SVGID_74_);}
	.st84{fill:url(#SVGID_75_);}
	.st85{fill:url(#SVGID_76_);}
	.st86{opacity:0.5;fill:url(#SVGID_77_);}
	.st87{fill:url(#SVGID_78_);}
	.st88{fill:url(#SVGID_79_);}
	.st89{opacity:0.5;fill:url(#SVGID_80_);}
	.st90{fill:url(#SVGID_81_);}
	.st91{fill:url(#SVGID_82_);}
	.st92{fill:url(#SVGID_83_);}
	.st93{fill:url(#SVGID_84_);}
	.st94{fill:url(#XMLID_10_);}
	.st95{fill:url(#SVGID_85_);}
	.st96{fill:url(#SVGID_86_);}
	.st97{fill:url(#SVGID_87_);}
	.st98{fill:url(#SVGID_88_);}
	.st99{fill:url(#SVGID_89_);}
	.st100{fill:url(#SVGID_90_);}
	.st101{fill:url(#SVGID_91_);}
	.st102{fill:url(#SVGID_92_);}
	.st103{fill:url(#SVGID_93_);}
	.st104{fill:url(#SVGID_94_);}
</style>
<g>
	<linearGradient id="SVGID_1_" gradientUnits="userSpaceOnUse" x1="145.3657" y1="31.2546" x2="145.3657" y2="240.2546">
		<stop  offset="0" style="stop-color:#2767B2"/>
		<stop  offset="1" style="stop-color:#21599C"/>
	</linearGradient>
	<circle class="st0" cx="145.4" cy="135.8" r="104.5"/>
	<path class="st1" d="M145.4,243.3c-59.3,0-107.5-48.2-107.5-107.5S86.1,28.3,145.4,28.3c59.3,0,107.5,48.2,107.5,107.5
		S204.6,243.3,145.4,243.3z M145.4,34.3c-56,0-101.5,45.5-101.5,101.5s45.5,101.5,101.5,101.5s101.5-45.5,101.5-101.5
		S201.3,34.3,145.4,34.3z"/>
</g>
<linearGradient id="SVGID_2_" gradientUnits="userSpaceOnUse" x1="145.3657" y1="40.2546" x2="145.3657" y2="231.2546">
	<stop  offset="0" style="stop-color:#FFFFFF;stop-opacity:0.75"/>
	<stop  offset="1" style="stop-color:#FFFFFF;stop-opacity:0"/>
</linearGradient>
<circle class="st2" cx="145.4" cy="135.8" r="95.5"/>
<g>
	<g>
		<g>
			<linearGradient id="SVGID_3_" gradientUnits="userSpaceOnUse" x1="121.4165" y1="117.0188" x2="209.0849" y2="117.0188">
				<stop  offset="0" style="stop-color:#FECB7D"/>
				<stop  offset="1" style="stop-color:#C49A6C"/>
			</linearGradient>
			<path class="st3" d="M166.2,136.9c-0.4,0-0.8-0.1-1.2-0.2l-41.8-17.7c-1.1-0.5-1.8-1.6-1.8-2.8s0.8-2.3,1.9-2.8l41.4-16
				c0.3-0.1,0.7-0.2,1.1-0.2c0.3,0,0.7,0.1,1,0.2l40.3,14.3c1.1,0.4,1.9,1.5,2,2.7c0.1,1.2-0.6,2.3-1.7,2.9l-39.9,19.5
				C167.1,136.8,166.7,136.9,166.2,136.9z"/>
			<path class="st1" d="M165.8,100.1l40.3,14.3l-39.9,19.5l-41.8-17.7L165.8,100.1 M165.8,94.1c-0.7,0-1.5,0.1-2.2,0.4l-41.4,16
				c-2.3,0.9-3.8,3.1-3.8,5.5c0,2.4,1.4,4.7,3.7,5.6l41.8,17.7c0.8,0.3,1.5,0.5,2.3,0.5c0.9,0,1.8-0.2,2.6-0.6l39.9-19.5
				c2.2-1.1,3.5-3.3,3.4-5.7c-0.1-2.4-1.7-4.5-4-5.3l-40.3-14.3C167.2,94.3,166.5,94.1,165.8,94.1L165.8,94.1z"/>
		</g>
		<g>
			<g>
				<polygon class="st9" points="122.3,116.9 122,160.8 165.8,181.8 165.8,135.1 				"/>
				<path class="st1" d="M165.8,184.8c-0.4,0-0.9-0.1-1.3-0.3l-43.7-21.1c-1-0.5-1.7-1.6-1.7-2.7l0.3-43.9c0-1,0.5-1.9,1.3-2.5
					c0.8-0.6,1.9-0.6,2.8-0.3l43.4,18.3c1.1,0.5,1.8,1.6,1.8,2.8v46.7c0,1-0.5,2-1.4,2.5C166.9,184.7,166.3,184.8,165.8,184.8z
					 M125,158.9l37.7,18.2v-39.9l-37.5-15.8L125,158.9z"/>
			</g>
			<g>
				<polygon class="st9" points="209.7,115.2 210,160.8 166.3,181.8 166.3,135.1 				"/>
				<path class="st1" d="M166.3,184.8c-0.6,0-1.1-0.2-1.6-0.5c-0.9-0.5-1.4-1.5-1.4-2.5v-46.7c0-1.2,0.7-2.2,1.7-2.7l43.4-20
					c0.9-0.4,2-0.4,2.9,0.2c0.9,0.5,1.4,1.5,1.4,2.5l0.3,45.6c0,1.2-0.7,2.2-1.7,2.7l-43.7,21.1
					C167.1,184.7,166.7,184.8,166.3,184.8z M169.3,137.1v40l37.7-18.2l-0.3-39L169.3,137.1z"/>
			</g>
		</g>
	</g>
	<g>
		<g>
			<linearGradient id="SVGID_4_" gradientUnits="userSpaceOnUse" x1="80.6226" y1="136.7805" x2="167.7541" y2="136.7805">
				<stop  offset="0" style="stop-color:#FECB7D"/>
				<stop  offset="1" style="stop-color:#C49A6C"/>
			</linearGradient>
			<path class="st4" d="M124.9,156.2c-0.3,0-0.7-0.1-1-0.2l-41.8-17.7c-0.9-0.4-1.5-1.3-1.5-2.3c0-1,0.6-1.9,1.6-2.3l41.4-16
				c0.3-0.1,0.6-0.2,0.9-0.2c0.3,0,0.5,0,0.8,0.1l40.8,13.8c1,0.3,1.6,1.2,1.7,2.2s-0.5,2-1.4,2.4L126,155.9
				C125.7,156.1,125.3,156.2,124.9,156.2z"/>
			<path class="st1" d="M124.5,119.9l40.8,13.8l-40.3,19.9l-41.8-17.7L124.5,119.9 M124.5,114.9c-0.6,0-1.2,0.1-1.8,0.3l-41.4,16
				c-1.9,0.7-3.2,2.5-3.2,4.6c0,2,1.2,3.9,3,4.7l41.8,17.7c0.6,0.3,1.3,0.4,2,0.4c0.8,0,1.5-0.2,2.2-0.5l40.3-19.9
				c1.8-0.9,2.9-2.8,2.8-4.8c-0.1-2-1.5-3.8-3.4-4.4l-40.8-13.8C125.6,115,125,114.9,124.5,114.9L124.5,114.9z"/>
		</g>
		<g>
			<g>
				<linearGradient id="SVGID_5_" gradientUnits="userSpaceOnUse" x1="80.7386" y1="169.112" x2="124.4746" y2="169.112">
					<stop  offset="0" style="stop-color:#FECB7D"/>
					<stop  offset="1" style="stop-color:#C49A6C"/>
				</linearGradient>
				<polygon class="st5" points="81,136.6 80.7,180.5 124.5,201.6 124.5,154.9 				"/>
				<path class="st1" d="M124.5,204.6c-0.4,0-0.9-0.1-1.3-0.3l-43.7-21.1c-1-0.5-1.7-1.6-1.7-2.7l0.3-43.9c0-1,0.5-1.9,1.3-2.5
					c0.8-0.6,1.9-0.7,2.8-0.3l43.4,18.3c1.1,0.5,1.8,1.6,1.8,2.8v46.7c0,1-0.5,2-1.4,2.5C125.6,204.4,125,204.6,124.5,204.6z
					 M83.8,178.6l37.7,18.2v-39.9L84,141.1L83.8,178.6z"/>
			</g>
			<g>
				<polygon class="st9" points="168.3,134.6 168.7,180.5 125,201.6 125,154.9 				"/>
				<path class="st1" d="M125,204.6c-0.6,0-1.1-0.2-1.6-0.5c-0.9-0.5-1.4-1.5-1.4-2.5v-46.7c0-1.2,0.7-2.2,1.7-2.7l43.3-20.3
					c0.9-0.4,2-0.4,2.9,0.2c0.9,0.5,1.4,1.5,1.4,2.5l0.4,45.9c0,1.2-0.7,2.2-1.7,2.7l-43.7,21.1C125.9,204.5,125.4,204.6,125,204.6z
					 M128,156.8v40l37.7-18.2l-0.4-39.3L128,156.8z"/>
			</g>
		</g>
	</g>
	<g>
		<g>
			<linearGradient id="SVGID_6_" gradientUnits="userSpaceOnUse" x1="102.3255" y1="83.4561" x2="186.2884" y2="83.4561">
				<stop  offset="0" style="stop-color:#FECB7D"/>
				<stop  offset="1" style="stop-color:#C49A6C"/>
			</linearGradient>
			<path class="st6" d="M144.5,102c-0.3,0-0.7-0.1-1-0.2l-39.7-16.8c-0.9-0.4-1.5-1.3-1.5-2.3c0-1,0.6-1.9,1.6-2.3l39.3-15.2
				c0.3-0.1,0.6-0.2,0.9-0.2c0.3,0,0.6,0.1,0.9,0.2l39.7,15.2c1,0.4,1.6,1.3,1.6,2.3s-0.6,1.9-1.5,2.3l-39.3,16.8
				C145.2,101.9,144.8,102,144.5,102z"/>
			<path class="st1" d="M144.1,67.4l39.7,15.2l-39.3,16.8l-39.7-16.8L144.1,67.4 M144.1,62.4c-0.6,0-1.2,0.1-1.8,0.3L103,78
				c-1.9,0.7-3.2,2.5-3.2,4.6c0,2,1.2,3.9,3,4.7l39.7,16.8c0.6,0.3,1.3,0.4,2,0.4c0.7,0,1.3-0.1,2-0.4l39.3-16.8
				c1.9-0.8,3.1-2.7,3-4.7c0-2-1.3-3.8-3.2-4.6l-39.7-15.2C145.3,62.5,144.7,62.4,144.1,62.4L144.1,62.4z"/>
		</g>
		<g>
			<g>
				<linearGradient id="SVGID_7_" gradientUnits="userSpaceOnUse" x1="102.5621" y1="113.8976" x2="145.772" y2="113.8976">
					<stop  offset="0" style="stop-color:#FECB7D"/>
					<stop  offset="1" style="stop-color:#C49A6C"/>
				</linearGradient>
				<polygon class="st7" points="102.8,83.3 102.6,125 145.8,144.5 144.1,100.7 				"/>
				<path class="st1" d="M145.8,147.5c-0.4,0-0.8-0.1-1.2-0.3l-43.2-19.5c-1.1-0.5-1.8-1.6-1.8-2.8l0.3-41.7c0-1,0.5-1.9,1.3-2.5
					c0.8-0.6,1.9-0.7,2.8-0.3l41.2,17.3c1.1,0.5,1.8,1.5,1.8,2.7l1.7,43.8c0,1-0.5,2-1.3,2.6C146.9,147.3,146.4,147.5,145.8,147.5z
					 M105.6,123.1l37,16.7l-1.4-37.1l-35.4-14.9L105.6,123.1z"/>
			</g>
			<g>
				<linearGradient id="SVGID_8_" gradientUnits="userSpaceOnUse" x1="144.5505" y1="114.1531" x2="186.0754" y2="114.1531">
					<stop  offset="0" style="stop-color:#FECB7D"/>
					<stop  offset="1" style="stop-color:#C49A6C"/>
				</linearGradient>
				<polygon class="st8" points="185.8,83.3 186.1,125 144.6,145 144.6,100.7 				"/>
				<path class="st1" d="M144.6,148c-0.6,0-1.1-0.2-1.6-0.5c-0.9-0.5-1.4-1.5-1.4-2.5v-44.3c0-1.2,0.7-2.3,1.8-2.8l41.2-17.3
					c0.9-0.4,2-0.3,2.8,0.3c0.8,0.6,1.3,1.5,1.3,2.5l0.3,41.7c0,1.2-0.7,2.2-1.7,2.7l-41.5,20C145.4,147.9,145,148,144.6,148z
					 M147.6,102.7v37.6l35.5-17.1l-0.2-35.3L147.6,102.7z"/>
			</g>
		</g>
	</g>
	<g>
		<linearGradient id="SVGID_9_" gradientUnits="userSpaceOnUse" x1="124.8752" y1="158.2786" x2="209.2489" y2="158.2786">
			<stop  offset="0" style="stop-color:#FECB7D"/>
			<stop  offset="1" style="stop-color:#C49A6C"/>
		</linearGradient>
		<polygon class="st10" points="209.2,160.8 124.9,201.7 124.9,155.7 209.2,114.9 		"/>
		<path class="st1" d="M124.9,204.7c-0.6,0-1.1-0.2-1.6-0.5c-0.9-0.5-1.4-1.5-1.4-2.5v-46c0-1.2,0.7-2.2,1.7-2.7l84.4-40.8
			c0.9-0.5,2-0.4,2.9,0.2c0.9,0.5,1.4,1.5,1.4,2.5v46c0,1.2-0.7,2.2-1.7,2.7l-84.4,40.8C125.8,204.6,125.3,204.7,124.9,204.7z
			 M127.9,157.6v39.3l78.4-37.9v-39.3L127.9,157.6z"/>
	</g>
	<g>
		<path class="st1" d="M168.6,181.3c-1.7,0-3-1.3-3-3v-42.9c0-1.7,1.3-3,3-3s3,1.3,3,3v42.9C171.6,179.9,170.3,181.3,168.6,181.3z"
			/>
	</g>
</g>
</svg>
