<?xml version="1.0" encoding="utf-8"?>
<!-- Generator: Adobe Illustrator 19.1.0, SVG Export Plug-In . SVG Version: 6.00 Build 0)  -->
<svg version="1.1" id="Layer_1" xmlns="http://www.w3.org/2000/svg" xmlns:xlink="http://www.w3.org/1999/xlink" x="0px" y="0px"
	 viewBox="0 0 288 288" style="enable-background:new 0 0 288 288;" xml:space="preserve">
<style type="text/css">
	.st0{fill:url(#SVGID_1_);}
	.st1{fill:#595A5C;}
	.st2{fill:url(#SVGID_2_);}
	.st3{fill:url(#SVGID_3_);}
	.st4{fill:url(#SVGID_4_);}
	.st5{fill:url(#SVGID_5_);}
	.st6{fill:url(#SVGID_6_);}
	.st7{fill:url(#SVGID_7_);}
	.st8{fill:url(#SVGID_8_);}
	.st9{fill:#FFFFFF;}
	.st10{fill:url(#SVGID_9_);}
	.st11{fill:url(#SVGID_10_);}
	.st12{fill:url(#SVGID_11_);}
	.st13{fill:url(#SVGID_12_);}
	.st14{fill:url(#SVGID_13_);}
	.st15{fill:url(#SVGID_14_);}
	.st16{fill:url(#SVGID_15_);}
	.st17{fill:url(#SVGID_16_);}
	.st18{fill:url(#SVGID_17_);}
	.st19{fill:url(#SVGID_18_);}
	.st20{fill:url(#SVGID_19_);}
	.st21{fill:url(#SVGID_20_);}
	.st22{fill:url(#SVGID_21_);}
	.st23{fill:url(#SVGID_22_);}
	.st24{fill:url(#SVGID_23_);}
	.st25{fill:url(#SVGID_24_);}
	.st26{fill:url(#SVGID_25_);}
	.st27{fill:#BCBEC0;}
	.st28{fill:url(#SVGID_26_);}
	.st29{fill:url(#SVGID_27_);}
	.st30{fill:url(#SVGID_28_);}
	.st31{fill:url(#SVGID_29_);}
	.st32{fill:url(#SVGID_30_);}
	.st33{fill:url(#SVGID_31_);}
	.st34{fill:url(#SVGID_32_);}
	.st35{fill:url(#SVGID_33_);}
	.st36{fill:url(#SVGID_34_);}
	.st37{fill:url(#SVGID_35_);}
	.st38{fill:url(#SVGID_36_);}
	.st39{fill:url(#SVGID_37_);}
	.st40{fill:url(#SVGID_38_);}
	.st41{fill:url(#SVGID_39_);}
	.st42{fill:url(#SVGID_40_);}
	.st43{fill:url(#SVGID_41_);}
	.st44{fill:url(#SVGID_42_);}
	.st45{fill:url(#SVGID_43_);}
	.st46{fill:url(#SVGID_44_);}
	.st47{fill:url(#SVGID_45_);}
	.st48{fill:url(#SVGID_46_);}
	.st49{fill:url(#SVGID_47_);}
	.st50{fill:url(#SVGID_48_);}
	.st51{fill:url(#SVGID_49_);}
	.st52{fill:url(#SVGID_50_);}
	.st53{fill:url(#SVGID_51_);}
	.st54{fill:url(#SVGID_52_);}
	.st55{fill:url(#SVGID_53_);}
	.st56{fill:url(#SVGID_54_);}
	.st57{fill:#9FBEE4;}
	.st58{fill:url(#SVGID_55_);}
	.st59{fill:url(#SVGID_56_);}
	.st60{fill:url(#SVGID_57_);}
	.st61{fill:url(#SVGID_58_);}
	.st62{fill:url(#SVGID_59_);}
	.st63{fill:url(#SVGID_60_);}
	.st64{fill:url(#SVGID_61_);}
	.st65{fill:url(#SVGID_62_);}
	.st66{fill:url(#SVGID_63_);}
	.st67{fill:url(#SVGID_64_);}
	.st68{fill:#A7A9AC;}
	.st69{fill:#58595B;}
	.st70{fill:#F1F2F2;}
	.st71{fill:#702FB7;}
	.st72{fill:#939598;}
	.st73{fill:#010101;}
	.st74{fill:url(#SVGID_65_);}
	.st75{opacity:0.5;fill:url(#SVGID_66_);}
	.st76{fill:url(#SVGID_67_);}
	.st77{fill:url(#SVGID_68_);}
	.st78{opacity:0.5;fill:url(#SVGID_69_);}
	.st79{fill:url(#SVGID_70_);}
	.st80{fill:url(#SVGID_71_);}
	.st81{opacity:0.5;fill:url(#SVGID_72_);}
	.st82{fill:url(#SVGID_73_);}
	.st83{fill:url(#SVGID_74_);}
	.st84{fill:url(#SVGID_75_);}
	.st85{fill:url(#SVGID_76_);}
	.st86{fill:url(#XMLID_10_);}
	.st87{fill:url(#SVGID_77_);}
	.st88{fill:url(#SVGID_78_);}
	.st89{fill:url(#SVGID_79_);}
	.st90{fill:url(#SVGID_80_);}
	.st91{fill:url(#SVGID_81_);}
	.st92{fill:url(#SVGID_82_);}
	.st93{fill:url(#SVGID_83_);}
	.st94{fill:url(#SVGID_84_);}
	.st95{opacity:0.39;fill:url(#SVGID_85_);}
	.st96{fill:url(#SVGID_86_);}
	.st97{fill:url(#SVGID_87_);}
	.st98{fill:url(#SVGID_88_);}
	.st99{fill:url(#SVGID_89_);}
	.st100{fill:url(#SVGID_90_);}
	.st101{fill:url(#SVGID_91_);}
	.st102{opacity:0.39;fill:url(#SVGID_92_);}
	.st103{fill:url(#SVGID_93_);}
	.st104{fill:url(#SVGID_94_);}
</style>
<g>
	<path class="st1" d="M55.4,239.7c-10.7,0-19.4-8.7-19.4-19.4V51.6c0-7.8,6.4-14.2,14.2-14.2h10.1c3.6-5.3,9.6-8.5,16-8.5h39.1
		c6.4,0,12.4,3.2,16,8.5h105.7c7.8,0,14.2,6.4,14.2,14.2v168.7c0,10.7-8.7,19.4-19.4,19.4H55.4z"/>
	<path class="st1" d="M115.5,31.9c6.1,0,11.5,3.4,14.3,8.5h107.4c6.2,0,11.2,5.1,11.2,11.2v12.5V80v12.5v97.2v2.2v26.2v2.2
		c0,9-7.4,16.4-16.4,16.4H55.4c-9,0-16.4-7.4-16.4-16.4v-28.4V92.5V64.1l0,0V51.6c0-6.2,5.1-11.2,11.2-11.2H62
		c2.8-5,8.2-8.5,14.3-8.5H115.5 M115.5,25.9H76.3c-6.9,0-13.3,3.2-17.5,8.5h-8.6c-9.5,0-17.2,7.7-17.2,17.2v11.9l0,0.6v28.4v99.4
		v28.4c0,12.3,10,22.4,22.4,22.4H232c12.3,0,22.4-10,22.4-22.4v-2.2v-26.2v-2.2V92.5V80V64.1V51.6c0-9.5-7.7-17.2-17.2-17.2H132.9
		C128.7,29,122.3,25.9,115.5,25.9L115.5,25.9z"/>
</g>
<g>
	<g>
		<g>
			<path class="st1" d="M236.7,200.9H50.8c-6.5,0-11.8-5.3-11.8-11.8V52.1c0-6.5,5.3-11.8,11.8-11.8h185.9c6.5,0,11.8,5.3,11.8,11.8
				v137.1C248.4,195.6,243.1,200.9,236.7,200.9z"/>
			
				<linearGradient id="SVGID_1_" gradientUnits="userSpaceOnUse" x1="141.0926" y1="31.8623" x2="141.0926" y2="208.2842" gradientTransform="matrix(-1 0 0 1 284.8134 0)">
				<stop  offset="0" style="stop-color:#2767B2"/>
				<stop  offset="2.789861e-02" style="stop-color:#2763AC"/>
				<stop  offset="0.1689" style="stop-color:#255191"/>
				<stop  offset="0.3225" style="stop-color:#23437B"/>
				<stop  offset="0.4931" style="stop-color:#223A6C"/>
				<stop  offset="0.6939" style="stop-color:#213464"/>
				<stop  offset="1" style="stop-color:#213261"/>
			</linearGradient>
			<path class="st0" d="M55.4,47.7H60c0.3-8.8,7.5-15.9,16.4-15.9h39.1c8.8,0,16.1,7.1,16.4,15.9H232c9,0,16.4,7.4,16.4,16.4v127.8
				c0,9-7.4,16.4-16.4,16.4H55.4c-9,0-16.4-7.4-16.4-16.4V64.1C39,55.1,46.4,47.7,55.4,47.7z"/>
		</g>
		<g>
			<path class="st9" d="M96.2,59.2c0,0.9-0.2,1.7-0.5,2.5c-0.3,0.8-0.8,1.5-1.4,2c-0.6,0.6-1.3,1-2,1.4c-0.8,0.3-1.6,0.5-2.5,0.5H80
				V42.7h8.9c0.8,0,1.5,0.2,2.2,0.5c0.7,0.3,1.3,0.7,1.8,1.2c0.5,0.5,0.9,1.1,1.2,1.8c0.3,0.7,0.5,1.4,0.5,2.2c0,1-0.2,1.9-0.5,2.7
				c-0.3,0.8-0.8,1.5-1.6,2c1.2,0.5,2.1,1.2,2.7,2.3C95.9,56.6,96.2,57.8,96.2,59.2z M83.4,52c0.9,0,1.6,0,2.4,0H89
				c0.8,0,1.5-0.3,2.1-0.9c0.6-0.6,0.8-1.3,0.8-2.2c0-0.9-0.3-1.6-0.8-2.2c-0.6-0.6-1.2-0.9-2.1-0.9h-5.6V52z M83.4,62.4
				c0.2,0,0.5,0,1,0h5.4c0.4,0,0.9-0.1,1.3-0.3c0.4-0.2,0.7-0.5,1-0.8c0.3-0.3,0.5-0.7,0.7-1.2c0.2-0.4,0.3-0.9,0.3-1.4
				c0-0.5-0.1-1-0.3-1.4c-0.2-0.4-0.4-0.8-0.7-1.2c-0.3-0.3-0.6-0.6-1-0.8c-0.4-0.2-0.8-0.3-1.3-0.3h-6.4V62.4z"/>
			<path class="st9" d="M100.6,65.6v-2.3l6.6-7.5c1-1.2,1.8-2.1,2.4-2.8c0.6-0.7,1-1.2,1.3-1.6c0.3-0.4,0.5-0.8,0.6-1.1
				c0.1-0.3,0.1-0.7,0.1-1.2c0-1.2-0.4-2.1-1.1-2.7c-0.7-0.6-1.6-0.9-2.6-0.9c-0.5,0-1,0.1-1.4,0.3c-0.4,0.2-0.8,0.5-1.2,0.8
				c-0.3,0.3-0.6,0.7-0.8,1.2c-0.2,0.4-0.3,0.9-0.3,1.4h-3.3c0-0.9,0.2-1.8,0.5-2.6c0.4-0.8,0.9-1.6,1.5-2.2
				c0.6-0.6,1.4-1.1,2.2-1.5c0.8-0.4,1.7-0.5,2.7-0.5s1.9,0.2,2.7,0.5c0.8,0.4,1.6,0.9,2.2,1.5c0.6,0.6,1.1,1.3,1.5,2.2
				c0.4,0.8,0.5,1.7,0.5,2.6c0,0.7-0.1,1.4-0.3,2c-0.2,0.7-0.5,1.2-0.9,1.7l-8.1,9.5h9.7v3.1H100.6z"/>
		</g>
	</g>
	<g>
		<g>
			
				<linearGradient id="SVGID_2_" gradientUnits="userSpaceOnUse" x1="159.8543" y1="39.8673" x2="159.8543" y2="200.6246" gradientTransform="matrix(-1 0 0 1 303.4228 0)">
				<stop  offset="0" style="stop-color:#FFFFFF;stop-opacity:0.75"/>
				<stop  offset="1" style="stop-color:#FFFFFF;stop-opacity:0"/>
			</linearGradient>
			<path style="opacity:0.39;fill:url(#SVGID_2_);" d="M60.2,54.3h6.7c0.3-8,1.4-14.4,9.4-14.4h39.6c8,0,8.4,6.5,8.6,14.4H227
				c8.2,0,14.9,6.7,14.9,14.9v116.5c0,8.2-6.7,14.9-14.9,14.9H60.2c-8.2,0-14.9-6.7-14.9-14.9V69.2C45.2,61,51.9,54.3,60.2,54.3z"/>
			<path class="st1" d="M236.7,229.3H50.8c-6.5,0-11.8-5.3-11.8-11.8V80.5c0-6.5,5.3-11.8,11.8-11.8h185.9c6.5,0,11.8,5.3,11.8,11.8
				v137.1C248.4,224,243.1,229.3,236.7,229.3z"/>
			<linearGradient id="SVGID_3_" gradientUnits="userSpaceOnUse" x1="143.7207" y1="60.2597" x2="143.7207" y2="236.6815">
				<stop  offset="0" style="stop-color:#FECB7D"/>
				<stop  offset="1" style="stop-color:#C49A6C"/>
			</linearGradient>
			<path class="st3" d="M232,76.1h-4.5c-0.3-8.8-7.5-15.9-16.4-15.9H172c-8.8,0-16.1,7.1-16.4,15.9H55.4c-9,0-16.4,7.4-16.4,16.4
				v127.8c0,9,7.4,16.4,16.4,16.4H232c9,0,16.4-7.4,16.4-16.4V92.5C248.4,83.5,241,76.1,232,76.1z"/>
			<linearGradient id="SVGID_4_" gradientUnits="userSpaceOnUse" x1="143.8644" y1="68.799" x2="143.8644" y2="229.5563">
				<stop  offset="0" style="stop-color:#FFFFFF;stop-opacity:0.75"/>
				<stop  offset="1" style="stop-color:#FFFFFF;stop-opacity:0"/>
			</linearGradient>
			<path class="st4" d="M227.3,83.2h-6.7c-0.3-8-1.4-14.4-9.4-14.4h-39.6c-8,0-8.4,6.5-8.6,14.4H60.5c-8.2,0-14.9,6.7-14.9,14.9
				v116.5c0,8.2,6.7,14.9,14.9,14.9h166.8c8.2,0,14.9-6.7,14.9-14.9V98.2C242.2,90,235.5,83.2,227.3,83.2z"/>
		</g>
		<g>
			<path class="st1" d="M177.8,94.8h-3.7l9.5-22.9h3.7l9.5,22.9h-3.6l-3-7.2h-9.4L177.8,94.8z M182.1,84.5h6.9l-3.4-8.3L182.1,84.5z
				"/>
			<path class="st1" d="M203,75h-3.1v-3h6.4v22.9H203V75z"/>
		</g>
	</g>
</g>
</svg>
