<?xml version="1.0" encoding="utf-8"?>
<!-- Generator: Adobe Illustrator 19.1.0, SVG Export Plug-In . SVG Version: 6.00 Build 0)  -->
<svg version="1.1" id="Layer_1" xmlns="http://www.w3.org/2000/svg" xmlns:xlink="http://www.w3.org/1999/xlink" x="0px" y="0px"
	 viewBox="0 0 288 288" style="enable-background:new 0 0 288 288;" xml:space="preserve">
<style type="text/css">
	.st0{fill:url(#SVGID_1_);}
	.st1{fill:#595A5C;}
	.st2{fill:url(#SVGID_2_);}
	.st3{fill:url(#SVGID_3_);}
	.st4{fill:url(#SVGID_4_);}
	.st5{fill:url(#SVGID_5_);}
	.st6{fill:url(#SVGID_6_);}
	.st7{fill:url(#SVGID_7_);}
	.st8{fill:url(#SVGID_8_);}
	.st9{fill:#FFFFFF;}
	.st10{fill:url(#SVGID_9_);}
	.st11{fill:url(#SVGID_10_);}
	.st12{fill:url(#SVGID_11_);}
	.st13{fill:url(#SVGID_12_);}
	.st14{fill:url(#SVGID_13_);}
	.st15{fill:url(#SVGID_14_);}
	.st16{fill:url(#SVGID_15_);}
	.st17{fill:url(#SVGID_16_);}
	.st18{fill:url(#SVGID_17_);}
	.st19{fill:url(#SVGID_18_);}
	.st20{fill:url(#SVGID_19_);}
	.st21{fill:url(#SVGID_20_);}
	.st22{fill:url(#SVGID_21_);}
	.st23{fill:url(#SVGID_22_);}
	.st24{fill:url(#SVGID_23_);}
	.st25{fill:url(#SVGID_24_);}
	.st26{fill:url(#SVGID_25_);}
	.st27{fill:#BCBEC0;}
	.st28{fill:url(#SVGID_26_);}
	.st29{fill:url(#SVGID_27_);}
	.st30{fill:url(#SVGID_28_);}
	.st31{fill:url(#SVGID_29_);}
	.st32{fill:url(#SVGID_30_);}
	.st33{fill:url(#SVGID_31_);}
	.st34{fill:url(#SVGID_32_);}
	.st35{fill:url(#SVGID_33_);}
	.st36{fill:url(#SVGID_34_);}
	.st37{fill:url(#SVGID_35_);}
	.st38{fill:url(#SVGID_36_);}
	.st39{fill:url(#SVGID_37_);}
	.st40{fill:url(#SVGID_38_);}
	.st41{fill:url(#SVGID_39_);}
	.st42{fill:url(#SVGID_40_);}
	.st43{fill:url(#SVGID_41_);}
	.st44{fill:url(#SVGID_42_);}
	.st45{fill:url(#SVGID_43_);}
	.st46{fill:url(#SVGID_44_);}
	.st47{fill:url(#SVGID_45_);}
	.st48{fill:url(#SVGID_46_);}
	.st49{fill:url(#SVGID_47_);}
	.st50{fill:url(#SVGID_48_);}
	.st51{fill:url(#SVGID_49_);}
	.st52{fill:url(#SVGID_50_);}
	.st53{fill:url(#SVGID_51_);}
	.st54{fill:url(#SVGID_52_);}
	.st55{fill:url(#SVGID_53_);}
	.st56{fill:url(#SVGID_54_);}
	.st57{fill:#9FBEE4;}
	.st58{fill:url(#SVGID_55_);}
	.st59{fill:url(#SVGID_56_);}
	.st60{fill:url(#SVGID_57_);}
	.st61{fill:url(#SVGID_58_);}
	.st62{fill:url(#SVGID_59_);}
	.st63{fill:url(#SVGID_60_);}
	.st64{fill:url(#SVGID_61_);}
	.st65{fill:url(#SVGID_62_);}
	.st66{fill:url(#SVGID_63_);}
	.st67{fill:url(#SVGID_64_);}
	.st68{fill:#A7A9AC;}
	.st69{fill:#58595B;}
	.st70{fill:#F1F2F2;}
	.st71{fill:#702FB7;}
	.st72{fill:#939598;}
	.st73{fill:#010101;}
	.st74{fill:url(#SVGID_65_);}
	.st75{fill:url(#SVGID_66_);}
	.st76{opacity:0.39;fill:url(#SVGID_67_);}
	.st77{fill:url(#SVGID_68_);}
	.st78{fill:url(#SVGID_69_);}
	.st79{fill:url(#SVGID_70_);}
	.st80{opacity:0.39;fill:url(#SVGID_71_);}
	.st81{fill:url(#SVGID_72_);}
	.st82{fill:url(#SVGID_73_);}
	.st83{opacity:0.5;fill:url(#SVGID_74_);}
	.st84{fill:url(#SVGID_75_);}
	.st85{fill:url(#SVGID_76_);}
	.st86{opacity:0.5;fill:url(#SVGID_77_);}
	.st87{fill:url(#SVGID_78_);}
	.st88{fill:url(#SVGID_79_);}
	.st89{opacity:0.5;fill:url(#SVGID_80_);}
	.st90{fill:url(#SVGID_81_);}
	.st91{fill:url(#SVGID_82_);}
	.st92{fill:url(#SVGID_83_);}
	.st93{fill:url(#SVGID_84_);}
	.st94{fill:url(#XMLID_10_);}
	.st95{fill:url(#SVGID_85_);}
	.st96{fill:url(#SVGID_86_);}
	.st97{fill:url(#SVGID_87_);}
	.st98{fill:url(#SVGID_88_);}
	.st99{fill:url(#SVGID_89_);}
	.st100{fill:url(#SVGID_90_);}
	.st101{fill:url(#SVGID_91_);}
	.st102{fill:url(#SVGID_92_);}
	.st103{fill:url(#SVGID_93_);}
	.st104{fill:url(#SVGID_94_);}
</style>
<g>
	<linearGradient id="SVGID_1_" gradientUnits="userSpaceOnUse" x1="142.3999" y1="29.0946" x2="142.3999" y2="238.0946">
		<stop  offset="0" style="stop-color:#FBB040"/>
		<stop  offset="1" style="stop-color:#F7941E"/>
	</linearGradient>
	<circle class="st0" cx="142.4" cy="133.6" r="104.5"/>
	<path class="st1" d="M142.4,241.1c-59.3,0-107.5-48.2-107.5-107.5c0-59.3,48.2-107.5,107.5-107.5s107.5,48.2,107.5,107.5
		C249.9,192.9,201.7,241.1,142.4,241.1z M142.4,32.1c-56,0-101.5,45.5-101.5,101.5c0,56,45.5,101.5,101.5,101.5
		s101.5-45.5,101.5-101.5C243.9,77.6,198.4,32.1,142.4,32.1z"/>
</g>
<linearGradient id="SVGID_2_" gradientUnits="userSpaceOnUse" x1="142.3999" y1="38.0946" x2="142.3999" y2="229.0946">
	<stop  offset="0" style="stop-color:#FFFFFF;stop-opacity:0.75"/>
	<stop  offset="1" style="stop-color:#FFFFFF;stop-opacity:0"/>
</linearGradient>
<circle class="st2" cx="142.4" cy="133.6" r="95.5"/>
<g>
	<g>
		<g>
			<linearGradient id="SVGID_3_" gradientUnits="userSpaceOnUse" x1="142.3999" y1="86.3333" x2="142.3999" y2="173">
				<stop  offset="0" style="stop-color:#A7A9AC"/>
				<stop  offset="1" style="stop-color:#595A5C"/>
			</linearGradient>
			<path class="st3" d="M189,98.6h-7.4c-1.6-7-7.9-12.3-15.4-12.3h-47.4c-7.5,0-13.8,5.3-15.4,12.3h-7.4c-8.7,0-15.8,7.1-15.8,15.8
				v42.7c0,8.7,7.1,15.8,15.8,15.8H189c8.7,0,15.8-7.1,15.8-15.8v-42.7C204.8,105.7,197.6,98.6,189,98.6z M142.4,160.1
				c-14.4,0-26.1-11.7-26.1-26.1S128,108,142.4,108s26.1,11.7,26.1,26.1S156.8,160.1,142.4,160.1z"/>
			<path class="st1" d="M189,176H95.8c-10.4,0-18.8-8.4-18.8-18.8v-42.7c0-10.4,8.4-18.8,18.8-18.8h5.2c2.7-7.2,9.8-12.3,17.6-12.3
				h47.4c7.9,0,14.9,5,17.6,12.3h5.2c10.4,0,18.8,8.4,18.8,18.8v42.7C207.8,167.6,199.3,176,189,176z M95.8,101.6
				c-7.1,0-12.8,5.7-12.8,12.8v42.7c0,7.1,5.7,12.8,12.8,12.8H189c7.1,0,12.8-5.7,12.8-12.8v-42.7c0-7.1-5.7-12.8-12.8-12.8h-7.4
				c-1.4,0-2.6-1-2.9-2.3c-1.3-5.8-6.6-10-12.5-10h-47.4c-5.9,0-11.2,4.2-12.5,10c-0.3,1.4-1.5,2.3-2.9,2.3H95.8z M142.4,163.1
				c-16,0-29.1-13-29.1-29.1c0-16,13-29.1,29.1-29.1s29.1,13,29.1,29.1C171.5,150.1,158.4,163.1,142.4,163.1z M142.4,111
				c-12.7,0-23.1,10.3-23.1,23.1c0,12.7,10.3,23.1,23.1,23.1s23.1-10.3,23.1-23.1C165.5,121.3,155.1,111,142.4,111z"/>
		</g>
		<g>
			<path class="st57" d="M142.4,158.3c-13.2,0-23.9-10.7-23.9-23.9c0-13.2,10.7-23.9,23.9-23.9s23.9,10.7,23.9,23.9
				C166.3,147.5,155.6,158.3,142.4,158.3z"/>
			<path class="st1" d="M142.4,114.4c11,0,19.9,8.9,19.9,19.9c0,11-8.9,19.9-19.9,19.9c-11,0-19.9-8.9-19.9-19.9
				C122.5,123.4,131.4,114.4,142.4,114.4 M142.4,106.4c-15.4,0-27.9,12.5-27.9,27.9c0,15.4,12.5,27.9,27.9,27.9s27.9-12.5,27.9-27.9
				C170.3,119,157.8,106.4,142.4,106.4L142.4,106.4z"/>
		</g>
	</g>
	<circle class="st1" cx="189.4" cy="113.7" r="5.3"/>
</g>
<g>
	<linearGradient id="SVGID_4_" gradientUnits="userSpaceOnUse" x1="142.3999" y1="110.4414" x2="142.3999" y2="158.2617">
		<stop  offset="0" style="stop-color:#FFFFFF;stop-opacity:0.75"/>
		<stop  offset="1" style="stop-color:#FFFFFF;stop-opacity:0"/>
	</linearGradient>
	<path class="st4" d="M142.4,158.3c-13.2,0-23.9-10.7-23.9-23.9c0-13.2,10.7-23.9,23.9-23.9s23.9,10.7,23.9,23.9
		C166.3,147.5,155.6,158.3,142.4,158.3z"/>
	<path class="st1" d="M142.4,114.4c11,0,19.9,8.9,19.9,19.9c0,11-8.9,19.9-19.9,19.9c-11,0-19.9-8.9-19.9-19.9
		C122.5,123.4,131.4,114.4,142.4,114.4 M142.4,106.4c-15.4,0-27.9,12.5-27.9,27.9c0,15.4,12.5,27.9,27.9,27.9s27.9-12.5,27.9-27.9
		C170.3,119,157.8,106.4,142.4,106.4L142.4,106.4z"/>
</g>
</svg>
