<?xml version="1.0" encoding="utf-8"?>
<!-- Generator: Adobe Illustrator 19.1.0, SVG Export Plug-In . SVG Version: 6.00 Build 0)  -->
<svg version="1.1" id="Layer_1" xmlns="http://www.w3.org/2000/svg" xmlns:xlink="http://www.w3.org/1999/xlink" x="0px" y="0px"
	 viewBox="0 0 288 288" style="enable-background:new 0 0 288 288;" xml:space="preserve">
<style type="text/css">
	.st0{fill:url(#SVGID_1_);}
	.st1{fill:#595A5C;}
	.st2{fill:url(#SVGID_2_);}
	.st3{fill:url(#SVGID_3_);}
	.st4{fill:url(#SVGID_4_);}
	.st5{fill:url(#SVGID_5_);}
	.st6{fill:url(#SVGID_6_);}
	.st7{fill:url(#SVGID_7_);}
	.st8{fill:url(#SVGID_8_);}
	.st9{fill:#FFFFFF;}
	.st10{fill:url(#SVGID_9_);}
	.st11{fill:url(#SVGID_10_);}
	.st12{fill:url(#SVGID_11_);}
	.st13{fill:url(#SVGID_12_);}
	.st14{fill:url(#SVGID_13_);}
	.st15{fill:url(#SVGID_14_);}
	.st16{fill:url(#SVGID_15_);}
	.st17{fill:url(#SVGID_16_);}
	.st18{fill:url(#SVGID_17_);}
	.st19{fill:url(#SVGID_18_);}
	.st20{fill:url(#SVGID_19_);}
	.st21{fill:url(#SVGID_20_);}
	.st22{fill:url(#SVGID_21_);}
	.st23{fill:url(#SVGID_22_);}
	.st24{fill:url(#SVGID_23_);}
	.st25{fill:url(#SVGID_24_);}
	.st26{fill:url(#SVGID_25_);}
	.st27{fill:#BCBEC0;}
	.st28{fill:url(#SVGID_26_);}
	.st29{fill:url(#SVGID_27_);}
	.st30{fill:url(#SVGID_28_);}
	.st31{fill:url(#SVGID_29_);}
	.st32{fill:url(#SVGID_30_);}
	.st33{fill:url(#SVGID_31_);}
	.st34{fill:url(#SVGID_32_);}
	.st35{fill:url(#SVGID_33_);}
	.st36{fill:url(#SVGID_34_);}
	.st37{fill:url(#SVGID_35_);}
	.st38{fill:url(#SVGID_36_);}
	.st39{fill:url(#SVGID_37_);}
	.st40{fill:url(#SVGID_38_);}
	.st41{fill:url(#SVGID_39_);}
	.st42{fill:url(#SVGID_40_);}
	.st43{fill:url(#SVGID_41_);}
	.st44{fill:url(#SVGID_42_);}
	.st45{fill:url(#SVGID_43_);}
	.st46{fill:url(#SVGID_44_);}
	.st47{fill:url(#SVGID_45_);}
	.st48{fill:url(#SVGID_46_);}
	.st49{fill:url(#SVGID_47_);}
	.st50{fill:url(#SVGID_48_);}
	.st51{fill:url(#SVGID_49_);}
	.st52{fill:url(#SVGID_50_);}
	.st53{fill:url(#SVGID_51_);}
	.st54{fill:url(#SVGID_52_);}
	.st55{fill:url(#SVGID_53_);}
	.st56{fill:url(#SVGID_54_);}
	.st57{fill:#9FBEE4;}
	.st58{fill:url(#SVGID_55_);}
	.st59{fill:url(#SVGID_56_);}
	.st60{fill:url(#SVGID_57_);}
	.st61{fill:url(#SVGID_58_);}
	.st62{fill:url(#SVGID_59_);}
	.st63{fill:url(#SVGID_60_);}
	.st64{fill:url(#SVGID_61_);}
	.st65{fill:url(#SVGID_62_);}
	.st66{fill:url(#SVGID_63_);}
	.st67{fill:url(#SVGID_64_);}
	.st68{fill:#A7A9AC;}
	.st69{fill:#58595B;}
	.st70{fill:#F1F2F2;}
	.st71{fill:#702FB7;}
	.st72{fill:#939598;}
	.st73{fill:#010101;}
	.st74{fill:url(#SVGID_65_);}
	.st75{fill:url(#SVGID_66_);}
	.st76{opacity:0.39;fill:url(#SVGID_67_);}
	.st77{fill:url(#SVGID_68_);}
	.st78{fill:url(#SVGID_69_);}
	.st79{fill:url(#SVGID_70_);}
	.st80{opacity:0.39;fill:url(#SVGID_71_);}
	.st81{fill:url(#SVGID_72_);}
	.st82{fill:url(#SVGID_73_);}
	.st83{opacity:0.5;fill:url(#SVGID_74_);}
	.st84{fill:url(#SVGID_75_);}
	.st85{fill:url(#SVGID_76_);}
	.st86{opacity:0.5;fill:url(#SVGID_77_);}
	.st87{fill:url(#SVGID_78_);}
	.st88{fill:url(#SVGID_79_);}
	.st89{opacity:0.5;fill:url(#SVGID_80_);}
	.st90{fill:url(#SVGID_81_);}
	.st91{fill:url(#SVGID_82_);}
	.st92{fill:url(#SVGID_83_);}
	.st93{fill:url(#SVGID_84_);}
	.st94{fill:url(#XMLID_10_);}
	.st95{fill:url(#SVGID_85_);}
	.st96{fill:url(#SVGID_86_);}
	.st97{fill:url(#SVGID_87_);}
	.st98{fill:url(#SVGID_88_);}
	.st99{fill:url(#SVGID_89_);}
	.st100{fill:url(#SVGID_90_);}
	.st101{fill:url(#SVGID_91_);}
	.st102{fill:url(#SVGID_92_);}
	.st103{fill:url(#SVGID_93_);}
	.st104{fill:url(#SVGID_94_);}
</style>
<g>
	<linearGradient id="SVGID_1_" gradientUnits="userSpaceOnUse" x1="141.3984" y1="30.1432" x2="141.3984" y2="240.6329">
		<stop  offset="0" style="stop-color:#2767B2"/>
		<stop  offset="1" style="stop-color:#21599C"/>
	</linearGradient>
	<path class="st0" d="M227.6,240.6H55.2c-10.3,0-18.7-8.4-18.7-18.7v-173c0-10.3,8.4-18.7,18.7-18.7h172.5
		c10.3,0,18.7,8.4,18.7,18.7v173C246.4,232.2,238,240.6,227.6,240.6z"/>
	<path class="st1" d="M227.6,243.6H55.2c-12,0-21.7-9.8-21.7-21.7v-173c0-12,9.8-21.7,21.7-21.7h172.5c12,0,21.7,9.8,21.7,21.7v173
		C249.4,233.9,239.6,243.6,227.6,243.6z M55.2,33.1c-8.7,0-15.7,7.1-15.7,15.7v173c0,8.7,7.1,15.7,15.7,15.7h172.5
		c8.7,0,15.7-7.1,15.7-15.7v-173c0-8.7-7.1-15.7-15.7-15.7H55.2z"/>
</g>
<linearGradient id="SVGID_2_" gradientUnits="userSpaceOnUse" x1="141.3984" y1="40.2677" x2="141.3984" y2="230.5084">
	<stop  offset="0" style="stop-color:#FFFFFF;stop-opacity:0.75"/>
	<stop  offset="1" style="stop-color:#FFFFFF;stop-opacity:0"/>
</linearGradient>
<path class="st2" d="M216.8,230.5H66c-10.3,0-18.7-8.4-18.7-18.7V59c0-10.3,8.4-18.7,18.7-18.7h150.7c10.3,0,18.7,8.4,18.7,18.7
	v152.7C235.5,222.1,227.1,230.5,216.8,230.5z"/>
<g id="R3L6lI_1_">
	<g>
		<g>
			<path class="st9" d="M95.3,186.7c-1.4,0-2.6-1-2.9-2.3l-0.7-3.3c-1.8-8.2-8.3-13.7-16.1-13.7c-3.9,0-7.7,1.4-11,4
				c-0.4,0.3-0.8,0.6-1.3,0.9l-0.5,0.4c-0.5,0.4-1.1,0.6-1.8,0.6c-0.5,0-0.9-0.1-1.4-0.3c-1-0.5-1.6-1.5-1.6-2.7v-31.5
				c0-1.2,0.8-2.4,1.9-2.8l7.7-2.9v-1.4c0-3.3,0-6.7,0-10c0-8.3,0-16.8,0-25.2c0-3.1,0.8-5.4,2.4-7.1c1.6-1.6,3.8-2.4,6.7-2.4l2.3,0
				c3.3,0,6.5,0,9.8,0c3.3,0,6.6,0,9.8,0c6.8,0,15.6,0,24.5,0.2c3.1,0.1,7.2,2.8,8.5,5.8c7.2,16.2,14.8,33.8,23.2,54
				c0.9,2.2,1.1,4.4,1.2,6.6c0.1,0.9,0.1,1.8,0.2,2.7c0.1,1-0.2,2-1,2.6c-0.6,0.5-1.3,0.8-2,0.8c-0.2,0-0.4,0-0.7-0.1
				c-2.4-0.6-4.8-0.8-7.1-0.8c-6.5,0-12.1,2.3-16.1,6.7c-4.2,4.6-6.2,11.1-5.5,17.9c0.1,0.8-0.2,1.7-0.8,2.3c-0.6,0.6-1.4,1-2.2,1
				H95.3z M137,144.5l-17.8-41.6H83.4v30.6h24.5c1.1,0,2.2,0.6,2.7,1.7l4.6,9.3H137z"/>
			<path class="st1" d="M98.7,90c8.1,0,16.3,0,24.4,0.2c2,0,5,2.1,5.8,4c8,17.9,15.7,35.9,23.2,53.9c1.1,2.5,0.8,5.6,1.3,8.6
				c-2.7-0.6-5.3-0.9-7.7-0.9c-16.4,0-26,13.3-24.6,27.9c-8.5,0-17,0-25.8,0c-0.2-0.9-0.5-2.1-0.7-3.3c-2.2-10.1-10.3-16-19-16
				c-4.4,0-8.9,1.5-12.9,4.7c-0.5,0.4-1.1,0.8-1.7,1.2c0-10.5,0-21,0-31.5c3-1.1,5.9-2.2,9.7-3.7c0-0.6,0-2,0-3.5
				c0-11.7,0.1-23.5,0-35.2c0-4.3,1.8-6.5,6.1-6.5c0,0,0,0,0,0c0.8,0,1.5,0,2.3,0C85.6,90,92.1,90,98.7,90 M80.4,136.5
				c9.3,0,18.4,0,27.5,0c1.9,3.9,3.8,7.6,5.4,11c9.5,0,18.7,0,28.3,0c-6.9-16.2-13.7-32-20.4-47.6c-13.8,0-27.1,0-40.8,0
				C80.4,112.3,80.4,124.2,80.4,136.5 M98.7,84c-3.3,0-6.6,0-9.8,0c-3.3,0-6.5,0-9.8,0l-2.3,0c-3.7,0-6.7,1.1-8.9,3.3
				c-2.2,2.2-3.3,5.3-3.3,9.2c0.1,8.4,0.1,16.9,0,25.2c0,3.1,0,6.2,0,9.3l-4.5,1.7l-1.3,0.5c-2.3,0.9-3.9,3.1-3.9,5.6v31.5
				c0,2.3,1.3,4.3,3.3,5.3c0.9,0.4,1.8,0.7,2.7,0.7c1.2,0,2.5-0.4,3.5-1.1c0.2-0.1,0.3-0.2,0.5-0.3c0.4-0.3,0.9-0.6,1.4-1
				c2.8-2.2,5.9-3.4,9.1-3.4c6.4,0,11.7,4.5,13.2,11.3c0.2,0.8,0.4,1.7,0.5,2.5l0.2,0.8c0.6,2.7,3,4.7,5.9,4.7h25.8
				c1.7,0,3.3-0.7,4.4-2c1.1-1.3,1.7-2.9,1.5-4.6c-0.6-5.9,1.2-11.6,4.8-15.6c3.4-3.7,8.2-5.7,13.9-5.7c2,0,4.2,0.3,6.4,0.8
				c0.4,0.1,0.9,0.2,1.3,0.2c1.5,0,2.9-0.5,4-1.6c1.5-1.3,2.2-3.3,1.9-5.2c-0.1-0.8-0.2-1.6-0.2-2.5c-0.2-2.3-0.3-5-1.4-7.6
				c-8.4-20.2-16-37.9-23.3-54.1c-1.8-4.1-6.8-7.5-11.2-7.6C114.4,84,105.4,84,98.7,84L98.7,84z M86.4,105.9h30.8l12.9,30.2l2.3,5.4
				h-15.4l-3.8-7.7c-1-2-3.1-3.3-5.4-3.3H86.4V105.9L86.4,105.9z"/>
		</g>
		<g>
			<path class="st9" d="M172.3,175.8c-3.1,0-5.5-1.9-7-5.5c-4-9.3-7.9-18.5-11.9-27.8c-9.8-22.8-19.9-46.4-29.7-69.7
				c-0.9-2.2-0.3-4.4,0.2-6.4c0.2-0.7,0.4-1.3,0.4-1.9c0.2-1.5,1.5-2.6,3-2.6h3.3c1,0,2,0.5,2.5,1.4c0.3,0.5,0.7,1,1,1.5
				c0.9,1.2,1.8,2.5,2.5,4.1c9.8,22.8,19.8,46,29.4,68.4l8.8,20.6c0.3,0.7,0.6,1.4,1,2.2c1.7-0.7,3.4-1.3,5-2
				c11.9-5.1,24.6-10.5,37.3-15.9c1.3-0.6,3-1.2,4.6-1.2c2.5,0,4.6,1.4,5.7,3.8c0.9,1.9,1,3.7,0.4,5.3c-1,2.5-3.5,3.9-5.3,4.6
				l-7.1,3c-13.2,5.6-26.8,11.3-40.1,17.1C174.9,175.5,173.6,175.8,172.3,175.8z"/>
			<path class="st1" d="M130.6,65c1.1,1.7,2.5,3.3,3.3,5.1c12.8,29.6,25.5,59.3,38.3,89c0.6,1.5,1.3,3,2.2,4.9
				c2.7-1.1,5.2-2.1,7.7-3.1c12.4-5.3,24.9-10.6,37.3-15.9c1.2-0.5,2.3-0.9,3.4-0.9c1.2,0,2.3,0.5,3,2.1c1.5,3.2-0.7,4.8-3.4,5.9
				c-15.8,6.7-31.5,13.3-47.2,20.1c-1.1,0.5-2,0.7-2.9,0.7c-1.9,0-3.2-1.3-4.3-3.7c-13.9-32.5-27.9-64.9-41.6-97.4
				c-0.8-1.8,0.5-4.4,0.9-6.7C128.4,65,129.5,65,130.6,65 M130.6,59h-3.3c-3,0-5.5,2.2-5.9,5.1c-0.1,0.4-0.2,1-0.4,1.6
				c-0.6,2.2-1.4,5.2-0.1,8.3c9.8,23.3,20,46.9,29.8,69.8c4,9.2,7.9,18.4,11.9,27.7c2.6,6.1,6.8,7.3,9.8,7.3c1.7,0,3.4-0.4,5.2-1.2
				c13.4-5.8,27.1-11.6,40.3-17.2l6.9-2.9c2.3-1,5.6-2.7,6.9-6.3c0.6-1.7,1.1-4.4-0.5-7.7c-1.7-3.5-4.7-5.6-8.4-5.6
				c-2.2,0-4.2,0.7-5.8,1.4c-12.6,5.4-25.3,10.8-37.3,15.9c-0.7,0.3-1.5,0.6-2.3,0.9l-8.6-20c-9.6-22.5-19.6-45.7-29.5-68.5
				c-0.8-1.8-1.8-3.3-2.8-4.6c-0.3-0.5-0.7-1-1-1.4C134.6,60,132.7,59,130.6,59L130.6,59z"/>
		</g>
		<g>
			<path class="st9" d="M75.2,201.3c-6.4,0-12.1-3.5-15.3-9.4c-0.3-0.6-0.7-1.2-1-1.8l-0.5-0.9c-0.3-0.4-0.4-1-0.4-1.5v-7.5
				c0-0.5,0.1-1,0.4-1.4c4.5-8.3,10-12.3,16.6-12.3c1.4,0,2.8,0.2,4.2,0.5c8,1.9,13.6,8.9,13.6,16.9c0,7.9-5.4,14.8-13.1,16.8
				C78.2,201.1,76.7,201.3,75.2,201.3z"/>
			<path class="st1" d="M74.9,169.5c1.1,0,2.3,0.1,3.5,0.4c6.7,1.6,11.3,7.3,11.3,14c0,6.5-4.5,12.3-10.8,13.9
				c-1.2,0.3-2.5,0.5-3.7,0.5c-5.2,0-10-2.9-12.6-7.8c-0.5-0.9-1-1.9-1.6-2.8c0-2.5,0-5,0-7.5C65,173,69.5,169.5,74.9,169.5
				 M74.9,163.5L74.9,163.5c-7.7,0-14.2,4.7-19.2,13.9c-0.5,0.9-0.7,1.9-0.7,2.9v7.5c0,1,0.3,2,0.8,2.9c0.2,0.3,0.3,0.6,0.5,0.9
				c0.3,0.6,0.7,1.2,1,1.8c3.7,6.9,10.4,10.9,17.9,10.9c1.7,0,3.5-0.2,5.2-0.7c9-2.4,15.3-10.5,15.3-19.7c0-9.4-6.6-17.5-15.9-19.8
				C78.2,163.7,76.5,163.5,74.9,163.5L74.9,163.5z"/>
		</g>
		<g>
			<linearGradient id="SVGID_3_" gradientUnits="userSpaceOnUse" x1="188.7147" y1="94.7231" x2="188.7147" y2="158.5605">
				<stop  offset="0" style="stop-color:#FECB7D"/>
				<stop  offset="1" style="stop-color:#C49A6C"/>
			</linearGradient>
			<path class="st3" d="M179.6,158.6c-1.7,0-4.8-0.6-6.6-4.9c-1.2-2.9-2.4-5.7-3.6-8.6c-3.6-8.5-7.4-17.4-10.9-26.2
				c-1.1-2.7,0.4-7.9,3.2-9.2c8.7-4,17.7-7.8,26.3-11.4c2.3-1,4.5-1.9,6.8-2.9c0.6-0.2,1.1-0.3,1.6-0.4c0.3,0,0.6-0.1,1.1-0.2
				c0.2,0,0.4-0.1,0.6-0.1c0.8,0,1.5,0.3,2.1,0.8c0.2,0.2,0.4,0.3,0.6,0.5c1,0.8,2.4,1.8,3.1,3.5c4.6,10.5,9.1,21.2,13.5,31.5
				l1.3,3.1c0.9,2.2,1.1,4.3,0.3,6.1c-0.7,1.8-2.3,3.2-4.5,4.2c-8.8,3.7-17.8,7.6-26.5,11.3l-4.7,2
				C181.9,158.3,180.7,158.6,179.6,158.6z"/>
			<path class="st1" d="M197.9,97.7c0.8,0.8,2.5,1.7,3.1,3.1c5.1,11.5,9.9,23,14.8,34.6c1.2,2.9,0.5,5-2.6,6.3
				c-10.4,4.4-20.8,8.8-31.2,13.3c-0.9,0.4-1.7,0.6-2.5,0.6c-1.7,0-3-1-3.9-3.1c-4.9-11.5-9.9-23-14.5-34.7
				c-0.6-1.4,0.5-4.8,1.6-5.4c10.9-5,22-9.6,33-14.2C196.2,98,196.6,98,197.9,97.7 M197.9,91.7c-0.4,0-0.8,0-1.1,0.1
				c-0.4,0.1-0.8,0.1-1,0.2c-0.7,0.1-1.4,0.2-2.3,0.6c-2.3,1-4.5,1.9-6.8,2.9c-8.7,3.7-17.6,7.4-26.4,11.4c-4.4,2-6.3,9-4.7,13.1
				c3.5,8.8,7.3,17.7,10.9,26.3c1.2,2.9,2.4,5.7,3.6,8.6c2.6,6.1,7.4,6.7,9.4,6.7c1.6,0,3.2-0.4,4.8-1.1l4.6-2
				c8.7-3.7,17.7-7.6,26.6-11.3c3.8-1.6,5.4-4,6.1-5.8c0.7-1.8,1.2-4.6-0.3-8.4l-1.3-3c-4.4-10.4-8.9-21.1-13.6-31.6
				c-1-2.4-2.9-3.8-4-4.7c-0.2-0.1-0.3-0.2-0.4-0.3C201,92.3,199.5,91.7,197.9,91.7L197.9,91.7z"/>
		</g>
		<g>
			<path class="st9" d="M144.9,201.4c-11.8,0-21.5-9.7-21.6-21.7c0-5.9,2.2-11.4,6.2-15.5c4-4.1,9.5-6.3,15.3-6.3
				c12,0,21.8,9.6,21.9,21.5c0.1,11.8-9.8,21.8-21.6,21.9L144.9,201.4z"/>
			<path class="st1" d="M144.9,161c10.3,0,18.8,8.3,18.8,18.5c0.1,10.2-8.5,18.8-18.7,18.9c-0.1,0-0.1,0-0.2,0
				c-10.1,0-18.5-8.4-18.6-18.7C126.2,169.2,134.4,161,144.9,161C144.8,161,144.9,161,144.9,161 M144.9,155L144.9,155l-0.1,0
				c-6.6,0-12.8,2.6-17.4,7.2c-4.6,4.6-7.1,10.9-7.1,17.6c0.1,13.6,11.1,24.6,24.6,24.6l0.2,0c13.4-0.1,24.7-11.6,24.6-25
				C169.6,165.9,158.5,155,144.9,155L144.9,155z"/>
		</g>
	</g>
</g>
</svg>
