<?xml version="1.0" encoding="utf-8"?>
<!-- Generator: Adobe Illustrator 19.1.0, SVG Export Plug-In . SVG Version: 6.00 Build 0)  -->
<svg version="1.1" id="Layer_1" xmlns="http://www.w3.org/2000/svg" xmlns:xlink="http://www.w3.org/1999/xlink" x="0px" y="0px"
	 viewBox="0 0 288 288" style="enable-background:new 0 0 288 288;" xml:space="preserve">
<style type="text/css">
	.st0{fill:url(#SVGID_1_);}
	.st1{fill:#595A5C;}
	.st2{fill:url(#SVGID_2_);}
	.st3{fill:url(#SVGID_3_);}
	.st4{fill:url(#SVGID_4_);}
	.st5{fill:url(#SVGID_5_);}
	.st6{fill:url(#SVGID_6_);}
	.st7{fill:url(#SVGID_7_);}
	.st8{fill:url(#SVGID_8_);}
	.st9{fill:#FFFFFF;}
	.st10{fill:url(#SVGID_9_);}
	.st11{fill:url(#SVGID_10_);}
	.st12{fill:url(#SVGID_11_);}
	.st13{fill:url(#SVGID_12_);}
	.st14{fill:url(#SVGID_13_);}
	.st15{fill:url(#SVGID_14_);}
	.st16{fill:url(#SVGID_15_);}
	.st17{fill:url(#SVGID_16_);}
	.st18{fill:url(#SVGID_17_);}
	.st19{fill:url(#SVGID_18_);}
	.st20{fill:url(#SVGID_19_);}
	.st21{fill:url(#SVGID_20_);}
	.st22{fill:url(#SVGID_21_);}
	.st23{fill:url(#SVGID_22_);}
	.st24{fill:url(#SVGID_23_);}
	.st25{fill:url(#SVGID_24_);}
	.st26{fill:url(#SVGID_25_);}
	.st27{fill:#BCBEC0;}
	.st28{fill:url(#SVGID_26_);}
	.st29{fill:url(#SVGID_27_);}
	.st30{fill:url(#SVGID_28_);}
	.st31{fill:url(#SVGID_29_);}
	.st32{fill:url(#SVGID_30_);}
	.st33{fill:url(#SVGID_31_);}
	.st34{fill:url(#SVGID_32_);}
	.st35{fill:url(#SVGID_33_);}
	.st36{fill:url(#SVGID_34_);}
	.st37{fill:url(#SVGID_35_);}
	.st38{fill:url(#SVGID_36_);}
	.st39{fill:url(#SVGID_37_);}
	.st40{fill:url(#SVGID_38_);}
	.st41{fill:url(#SVGID_39_);}
	.st42{fill:url(#SVGID_40_);}
	.st43{fill:url(#SVGID_41_);}
	.st44{fill:url(#SVGID_42_);}
	.st45{fill:url(#SVGID_43_);}
	.st46{fill:url(#SVGID_44_);}
	.st47{fill:url(#SVGID_45_);}
	.st48{fill:url(#SVGID_46_);}
	.st49{fill:url(#SVGID_47_);}
	.st50{fill:url(#SVGID_48_);}
	.st51{fill:url(#SVGID_49_);}
	.st52{fill:url(#SVGID_50_);}
	.st53{fill:url(#SVGID_51_);}
	.st54{fill:url(#SVGID_52_);}
	.st55{fill:url(#SVGID_53_);}
	.st56{fill:url(#SVGID_54_);}
	.st57{fill:#9FBEE4;}
	.st58{fill:url(#SVGID_55_);}
	.st59{fill:url(#SVGID_56_);}
	.st60{fill:url(#SVGID_57_);}
	.st61{fill:url(#SVGID_58_);}
	.st62{fill:url(#SVGID_59_);}
	.st63{fill:url(#SVGID_60_);}
	.st64{fill:url(#SVGID_61_);}
	.st65{fill:url(#SVGID_62_);}
	.st66{fill:url(#SVGID_63_);}
	.st67{fill:url(#SVGID_64_);}
	.st68{fill:#A7A9AC;}
	.st69{fill:#58595B;}
	.st70{fill:#F1F2F2;}
	.st71{fill:#702FB7;}
	.st72{fill:#939598;}
	.st73{fill:#010101;}
	.st74{fill:url(#SVGID_65_);}
	.st75{opacity:0.5;fill:url(#SVGID_66_);}
	.st76{fill:url(#SVGID_67_);}
	.st77{fill:url(#SVGID_68_);}
	.st78{opacity:0.5;fill:url(#SVGID_69_);}
	.st79{fill:url(#SVGID_70_);}
	.st80{fill:url(#SVGID_71_);}
	.st81{opacity:0.5;fill:url(#SVGID_72_);}
	.st82{fill:url(#SVGID_73_);}
	.st83{fill:url(#SVGID_74_);}
	.st84{fill:url(#SVGID_75_);}
	.st85{fill:url(#SVGID_76_);}
	.st86{fill:url(#XMLID_10_);}
	.st87{fill:url(#SVGID_77_);}
	.st88{fill:url(#SVGID_78_);}
	.st89{fill:url(#SVGID_79_);}
	.st90{fill:url(#SVGID_80_);}
	.st91{fill:url(#SVGID_81_);}
	.st92{fill:url(#SVGID_82_);}
	.st93{fill:url(#SVGID_83_);}
	.st94{fill:url(#SVGID_84_);}
	.st95{opacity:0.39;fill:url(#SVGID_85_);}
	.st96{fill:url(#SVGID_86_);}
	.st97{fill:url(#SVGID_87_);}
	.st98{fill:url(#SVGID_88_);}
	.st99{fill:url(#SVGID_89_);}
	.st100{fill:url(#SVGID_90_);}
	.st101{fill:url(#SVGID_91_);}
	.st102{opacity:0.39;fill:url(#SVGID_92_);}
	.st103{fill:url(#SVGID_93_);}
	.st104{fill:url(#SVGID_94_);}
</style>
<g>
	<path class="st1" d="M57.2,239.7c-10.7,0-19.4-8.7-19.4-19.4V51.6c0-7.8,6.4-14.2,14.2-14.2h10.1c3.6-5.3,9.6-8.5,16-8.5h39.1
		c6.4,0,12.4,3.2,16,8.5H239c7.8,0,14.2,6.4,14.2,14.2v168.7c0,10.7-8.7,19.4-19.4,19.4H57.2z"/>
	<path class="st1" d="M117.3,31.9c6.1,0,11.5,3.4,14.3,8.5H239c6.2,0,11.2,5.1,11.2,11.2v12.5V80v12.5v97.2v2.2v26.2v2.2
		c0,9-7.4,16.4-16.4,16.4H57.2c-9,0-16.4-7.4-16.4-16.4v-28.4V92.5V64.1l0,0V51.6c0-6.2,5.1-11.2,11.2-11.2h11.8
		c2.8-5,8.2-8.5,14.3-8.5H117.3 M117.3,25.9H78.1c-6.9,0-13.3,3.2-17.5,8.5h-8.6c-9.5,0-17.2,7.7-17.2,17.2v12l0,0.5v28.4v99.4v28.4
		c0,12.3,10,22.4,22.4,22.4h176.6c12.3,0,22.4-10,22.4-22.4v-2.2v-26.2v-2.2V92.5V80V64.1V51.6c0-9.5-7.7-17.2-17.2-17.2H134.8
		C130.6,29,124.1,25.9,117.3,25.9L117.3,25.9z"/>
</g>
<g>
	<g>
		<g>
			<path class="st1" d="M238.5,200.9H52.6c-6.5,0-11.8-5.3-11.8-11.8V52.1c0-6.5,5.3-11.8,11.8-11.8h185.9c6.5,0,11.8,5.3,11.8,11.8
				v137.1C250.2,195.6,244.9,200.9,238.5,200.9z"/>
			
				<linearGradient id="SVGID_1_" gradientUnits="userSpaceOnUse" x1="-2682.8457" y1="31.8623" x2="-2682.8457" y2="208.2842" gradientTransform="matrix(-1 0 0 1 -2537.303 0)">
				<stop  offset="0" style="stop-color:#2767B2"/>
				<stop  offset="2.789861e-02" style="stop-color:#2763AC"/>
				<stop  offset="0.1689" style="stop-color:#255191"/>
				<stop  offset="0.3225" style="stop-color:#23437B"/>
				<stop  offset="0.4931" style="stop-color:#223A6C"/>
				<stop  offset="0.6939" style="stop-color:#213464"/>
				<stop  offset="1" style="stop-color:#213261"/>
			</linearGradient>
			<path class="st0" d="M57.2,47.7h4.5c0.3-8.8,7.5-15.9,16.4-15.9h39.1c8.8,0,16.1,7.1,16.4,15.9h100.2c9,0,16.4,7.4,16.4,16.4
				v127.8c0,9-7.4,16.4-16.4,16.4H57.2c-9,0-16.4-7.4-16.4-16.4V64.1C40.9,55.1,48.2,47.7,57.2,47.7z"/>
		</g>
		<g>
			<path class="st9" d="M98,59.2c0,0.9-0.2,1.7-0.5,2.5c-0.3,0.8-0.8,1.5-1.4,2c-0.6,0.6-1.3,1-2,1.4c-0.8,0.3-1.6,0.5-2.5,0.5h-9.8
				V42.7h8.9c0.8,0,1.5,0.2,2.2,0.5c0.7,0.3,1.3,0.7,1.8,1.2c0.5,0.5,0.9,1.1,1.2,1.8c0.3,0.7,0.5,1.4,0.5,2.2c0,1-0.2,1.9-0.5,2.7
				c-0.3,0.8-0.8,1.5-1.6,2c1.2,0.5,2.1,1.2,2.7,2.3C97.7,56.6,98,57.8,98,59.2z M85.2,52c0.9,0,1.6,0,2.4,0h3.2
				c0.8,0,1.5-0.3,2.1-0.9c0.6-0.6,0.8-1.3,0.8-2.2c0-0.9-0.3-1.6-0.8-2.2c-0.6-0.6-1.2-0.9-2.1-0.9h-5.6V52z M85.2,62.4
				c0.2,0,0.5,0,1,0h5.4c0.4,0,0.9-0.1,1.3-0.3c0.4-0.2,0.7-0.5,1-0.8c0.3-0.3,0.5-0.7,0.7-1.2c0.2-0.4,0.3-0.9,0.3-1.4
				c0-0.5-0.1-1-0.3-1.4c-0.2-0.4-0.4-0.8-0.7-1.2c-0.3-0.3-0.6-0.6-1-0.8c-0.4-0.2-0.8-0.3-1.3-0.3h-6.4V62.4z"/>
			<path class="st9" d="M102.4,65.6v-2.3l6.6-7.5c1-1.2,1.8-2.1,2.4-2.8c0.6-0.7,1-1.2,1.3-1.6c0.3-0.4,0.5-0.8,0.6-1.1
				c0.1-0.3,0.1-0.7,0.1-1.2c0-1.2-0.4-2.1-1.1-2.7c-0.7-0.6-1.6-0.9-2.6-0.9c-0.5,0-1,0.1-1.4,0.3c-0.4,0.2-0.8,0.5-1.2,0.8
				c-0.3,0.3-0.6,0.7-0.8,1.2c-0.2,0.4-0.3,0.9-0.3,1.4h-3.3c0-0.9,0.2-1.8,0.5-2.6c0.4-0.8,0.9-1.6,1.5-2.2
				c0.6-0.6,1.4-1.1,2.2-1.5c0.8-0.4,1.7-0.5,2.7-0.5s1.9,0.2,2.7,0.5c0.8,0.4,1.6,0.9,2.2,1.5c0.6,0.6,1.1,1.3,1.5,2.2
				c0.4,0.8,0.5,1.7,0.5,2.6c0,0.7-0.1,1.4-0.3,2c-0.2,0.7-0.5,1.2-0.9,1.7l-8.1,9.5h9.7v3.1H102.4z"/>
		</g>
	</g>
	<g>
		<g>
			
				<linearGradient id="SVGID_2_" gradientUnits="userSpaceOnUse" x1="-2664.084" y1="39.8673" x2="-2664.084" y2="200.6246" gradientTransform="matrix(-1 0 0 1 -2518.6936 0)">
				<stop  offset="0" style="stop-color:#FFFFFF;stop-opacity:0.75"/>
				<stop  offset="1" style="stop-color:#FFFFFF;stop-opacity:0"/>
			</linearGradient>
			<path style="opacity:0.39;fill:url(#SVGID_2_);" d="M62,54.3h6.7c0.3-8,1.4-14.4,9.4-14.4h39.6c8,0,8.4,6.5,8.6,14.4h102.6
				c8.2,0,14.9,6.7,14.9,14.9v116.5c0,8.2-6.7,14.9-14.9,14.9H62c-8.2,0-14.9-6.7-14.9-14.9V69.2C47,61,53.8,54.3,62,54.3z"/>
			<path class="st1" d="M238.5,229.3H52.6c-6.5,0-11.8-5.3-11.8-11.8V80.5c0-6.5,5.3-11.8,11.8-11.8h185.9c6.5,0,11.8,5.3,11.8,11.8
				v137.1C250.2,224,244.9,229.3,238.5,229.3z"/>
			<linearGradient id="SVGID_3_" gradientUnits="userSpaceOnUse" x1="145.5427" y1="60.2597" x2="145.5427" y2="236.6815">
				<stop  offset="0" style="stop-color:#FECB7D"/>
				<stop  offset="1" style="stop-color:#C49A6C"/>
			</linearGradient>
			<path class="st3" d="M233.8,76.1h-4.5c-0.3-8.8-7.5-15.9-16.4-15.9h-39.1c-8.8,0-16.1,7.1-16.4,15.9H57.2
				c-9,0-16.4,7.4-16.4,16.4v127.8c0,9,7.4,16.4,16.4,16.4h176.6c9,0,16.4-7.4,16.4-16.4V92.5C250.2,83.5,242.9,76.1,233.8,76.1z"/>
			<linearGradient id="SVGID_4_" gradientUnits="userSpaceOnUse" x1="145.6864" y1="68.799" x2="145.6864" y2="229.5563">
				<stop  offset="0" style="stop-color:#FFFFFF;stop-opacity:0.75"/>
				<stop  offset="1" style="stop-color:#FFFFFF;stop-opacity:0"/>
			</linearGradient>
			<path class="st4" d="M229.1,83.2h-6.7c-0.3-8-1.4-14.4-9.4-14.4h-39.6c-8,0-8.4,6.5-8.6,14.4H62.3c-8.2,0-14.9,6.7-14.9,14.9
				v116.5c0,8.2,6.7,14.9,14.9,14.9h166.8c8.2,0,14.9-6.7,14.9-14.9V98.2C244,90,237.3,83.2,229.1,83.2z"/>
		</g>
		<g>
			<path class="st1" d="M179.6,94.8H176l9.5-22.9h3.7l9.5,22.9h-3.6l-3-7.2h-9.4L179.6,94.8z M183.9,84.5h6.9l-3.4-8.3L183.9,84.5z"
				/>
			<path class="st1" d="M204.8,75h-3.1v-3h6.4v22.9h-3.4V75z"/>
		</g>
	</g>
</g>
<g id="XMLID_24_">
	<linearGradient id="SVGID_5_" gradientUnits="userSpaceOnUse" x1="145.5426" y1="206.9727" x2="145.5426" y2="114.77">
		<stop  offset="0" style="stop-color:#2F9E41"/>
		<stop  offset="1" style="stop-color:#39B54A"/>
	</linearGradient>
	<path class="st5" d="M145.5,207c-1.9,0-3.7-0.7-5-2.1c0,0-0.1-0.1-0.1-0.2l-31.8-36.5c-2-2-2.5-5-1.5-7.6c1.1-2.7,3.7-4.4,6.5-4.4
		h15v-32.8c0-4.8,3.9-8.7,8.7-8.7h16.4c4.8,0,8.7,3.9,8.7,8.7v32.8h15c2.9,0,5.4,1.7,6.5,4.4c1.1,2.6,0.5,5.6-1.5,7.6l-31.8,36.5
		c0,0.1-0.1,0.1-0.1,0.2C149.2,206.2,147.4,207,145.5,207z"/>
	<linearGradient id="SVGID_6_" gradientUnits="userSpaceOnUse" x1="145.5426" y1="114.77" x2="145.5426" y2="206.9727">
		<stop  offset="0" style="stop-color:#FFFFFF;stop-opacity:0.75"/>
		<stop  offset="1" style="stop-color:#FFFFFF;stop-opacity:0"/>
	</linearGradient>
	<path class="st6" d="M145.5,207c-1.9,0-3.7-0.7-5-2.1c0,0-0.1-0.1-0.1-0.2l-31.8-36.5c-2-2-2.5-5-1.5-7.6c1.1-2.7,3.7-4.4,6.5-4.4
		h15v-32.8c0-4.8,3.9-8.7,8.7-8.7h16.4c4.8,0,8.7,3.9,8.7,8.7v32.8h15c2.9,0,5.4,1.7,6.5,4.4c1.1,2.6,0.5,5.6-1.5,7.6l-31.8,36.5
		c0,0.1-0.1,0.1-0.1,0.2C149.2,206.2,147.4,207,145.5,207z"/>
	<path class="st1" d="M153.7,117.8c3.1,0,5.7,2.5,5.7,5.7v34.3c0,0.5-0.1,1-0.2,1.4h18.2c3.6,0,5.5,4.4,2.9,7l-31.9,36.6
		c-0.8,0.8-1.8,1.2-2.9,1.2c-1,0-2.1-0.4-2.9-1.2l-31.9-36.6c-2.6-2.6-0.8-7,2.9-7h18.2c-0.1-0.5-0.2-0.9-0.2-1.4v-34.3
		c0-3.1,2.5-5.7,5.7-5.7H153.7 M153.7,111.8h-16.4c-6.4,0-11.7,5.2-11.7,11.7v29.8h-12c-4.1,0-7.7,2.4-9.3,6.2
		c-1.5,3.7-0.7,7.9,2,10.8l31.8,36.5c0.1,0.1,0.2,0.2,0.3,0.3c1.9,1.9,4.4,3,7.1,3c2.7,0,5.2-1,7.1-3c0.1-0.1,0.2-0.2,0.3-0.3
		l31.8-36.5c2.8-2.9,3.5-7.1,2-10.8c-1.6-3.8-5.2-6.2-9.3-6.2h-12v-29.8C165.4,117,160.1,111.8,153.7,111.8L153.7,111.8z"/>
	<linearGradient id="SVGID_7_" gradientUnits="userSpaceOnUse" x1="145.5428" y1="203.9725" x2="145.5428" y2="117.7702">
		<stop  offset="0" style="stop-color:#2F9E41"/>
		<stop  offset="1" style="stop-color:#39B54A"/>
	</linearGradient>
	<path class="st7" d="M153.4,123.8v33.9c-0.5,1.8-0.1,3.7,1.1,5.2c1.1,1.5,2.9,2.3,4.7,2.3h14L145.5,197l-27.7-31.8h14
		c1.9,0,3.6-0.9,4.7-2.3c1.1-1.5,1.5-3.4,1.1-5.2v-33.9H153.4 M153.7,117.8h-16.4c-3.1,0-5.7,2.5-5.7,5.7v34.3c0,0.5,0.1,1,0.2,1.4
		h-18.2c-3.6,0-5.5,4.4-2.9,7l31.9,36.6c0.8,0.8,1.8,1.2,2.9,1.2c1,0,2.1-0.4,2.9-1.2l31.9-36.6c2.6-2.6,0.8-7-2.9-7h-18.2
		c0.1-0.5,0.2-0.9,0.2-1.4v-34.3C159.4,120.3,156.8,117.8,153.7,117.8L153.7,117.8z"/>
</g>
</svg>
