<?xml version="1.0" encoding="UTF-8" standalone="no"?>
<!-- Generator: Adobe Illustrator 13.0.2, SVG Export Plug-In . SVG Version: 6.00 Build 14948)  -->

<svg
   xmlns:dc="http://purl.org/dc/elements/1.1/"
   xmlns:cc="http://creativecommons.org/ns#"
   xmlns:rdf="http://www.w3.org/1999/02/22-rdf-syntax-ns#"
   xmlns:svg="http://www.w3.org/2000/svg"
   xmlns="http://www.w3.org/2000/svg"
   xmlns:xlink="http://www.w3.org/1999/xlink"
   xmlns:sodipodi="http://sodipodi.sourceforge.net/DTD/sodipodi-0.dtd"
   xmlns:inkscape="http://www.inkscape.org/namespaces/inkscape"
   version="1.1"
   id="Layer_1"
   x="0px"
   y="0px"
   width="165.34375"
   height="165.34"
   viewBox="0 0 165.34374 165.34001"
   xml:space="preserve"
   inkscape:version="0.48.2 r9819"
   sodipodi:docname="checkout-to-truck.svg"
   inkscape:export-filename="C:\project\RentalWorks\Web\RentalWorksQuikScan\theme\images\icons\128\checkout-to-truck.001.png"
   inkscape:export-xdpi="69.669998"
   inkscape:export-ydpi="69.669998"><metadata
   id="metadata3761"><rdf:RDF><cc:Work
       rdf:about=""><dc:format>image/svg+xml</dc:format><dc:type
         rdf:resource="http://purl.org/dc/dcmitype/StillImage" /><dc:title></dc:title></cc:Work></rdf:RDF></metadata><defs
   id="defs3759"><linearGradient
   id="linearGradient4334"><stop
     style="stop-color:#555753;stop-opacity:1;"
     offset="0"
     id="stop4336" /><stop
     style="stop-color:#acaeaa;stop-opacity:1;"
     offset="1"
     id="stop4338" /></linearGradient><linearGradient
   inkscape:collect="always"
   id="linearGradient4298"><stop
     style="stop-color:#d3d7cf;stop-opacity:1;"
     offset="0"
     id="stop4300" /><stop
     style="stop-color:#d3d7cf;stop-opacity:0;"
     offset="1"
     id="stop4302" /></linearGradient>
	
	
	
	
	
	
	
		
	
	
	
	
	
	
	
	
	
		
	
		
	
		
	
		
	
		
	
		
	
		
	
	
	
		
	
		
	
		
	
		
	
		
	
		
	
		
	
		
	
		
	
		
	
		
	
		
	
		
	
		
	
		
	
		
	
		
	
		
	
		
	
		
	
		
	
		
	
		
	
		
	
		
	
		
	
		
	
		
	
	
	
	
	
	
	
	
	
	
	
	
	
	
	
	
	
	
	
	
	
	
	
		
	
	
	
	
	
	
	<pattern
   patternTransform="matrix(1 0 0 -1 211.3735 -182.0957)"
   xlink:href="#Unnamed_Pattern"
   id="SVGID_1_">
	</pattern>
	
	
	
	
	
	
	
	
	
		
	
		
	
		
	
		
	
		
	
	
	
	
	
	
	
	
	
	
	
		
	
		
	
		
	
		
	
		
	
	
	
		
	
		
	
	
	
	
	
		
	
	
	
	
	
	
	
	
	
	
	
	
	
	
	
	
	
	
	
	
	
	
	
	
	
	
	
	
	
	
	
	
	
	
	
	
		
	
		
	
		
	
		
	
	
	
	
	
	
	
	
	
	
	
	
	
	
	
	
	
	
	
	
	
	
	
	
	
	
	
	
	
<linearGradient
   inkscape:collect="always"
   xlink:href="#linearGradient7996"
   id="linearGradient7839"
   gradientUnits="userSpaceOnUse"
   gradientTransform="translate(-311.75644,336.17783)"
   x1="888.80151"
   y1="-58.10173"
   x2="925.3866"
   y2="221.66631" /><linearGradient
   id="linearGradient7996"><stop
     style="stop-color:#4d4d4d;stop-opacity:1;"
     offset="0"
     id="stop7998" /><stop
     style="stop-color:#4d4d4d;stop-opacity:0;"
     offset="1"
     id="stop8000" /></linearGradient><linearGradient
   inkscape:collect="always"
   xlink:href="#linearGradient7518"
   id="linearGradient7841"
   gradientUnits="userSpaceOnUse"
   x1="1187.0065"
   y1="-211.25635"
   x2="1177.0199"
   y2="-187.90303" /><linearGradient
   id="linearGradient7518"><stop
     style="stop-color:#151515;stop-opacity:1;"
     offset="0"
     id="stop7520" /><stop
     style="stop-color:#000000;stop-opacity:1;"
     offset="1"
     id="stop7522" /></linearGradient><linearGradient
   inkscape:collect="always"
   xlink:href="#linearGradient7287"
   id="linearGradient7843"
   gradientUnits="userSpaceOnUse"
   gradientTransform="matrix(1.053471,-0.07952468,0.07952468,1.053471,-707.63855,617.55394)"
   x1="753.75964"
   y1="-223.27248"
   x2="843.29309"
   y2="-229.15242" /><linearGradient
   inkscape:collect="always"
   id="linearGradient7287"><stop
     style="stop-color:#989783;stop-opacity:1;"
     offset="0"
     id="stop7289" /><stop
     style="stop-color:#6f6f6c;stop-opacity:1"
     offset="1"
     id="stop7291" /></linearGradient><linearGradient
   inkscape:collect="always"
   xlink:href="#linearGradient7179"
   id="linearGradient7845"
   gradientUnits="userSpaceOnUse"
   gradientTransform="matrix(1.053471,-0.07952468,0.07952468,1.053471,-707.63855,617.55394)"
   x1="772.0921"
   y1="-185.13579"
   x2="785.81915"
   y2="-188.90189" /><linearGradient
   inkscape:collect="always"
   id="linearGradient7179"><stop
     style="stop-color:#71736a;stop-opacity:1;"
     offset="0"
     id="stop7181" /><stop
     style="stop-color:#4d4d4d;stop-opacity:1"
     offset="1"
     id="stop7183" /></linearGradient><linearGradient
   inkscape:collect="always"
   xlink:href="#linearGradient6942"
   id="linearGradient7847"
   gradientUnits="userSpaceOnUse"
   gradientTransform="translate(-479.72358,235.65621)"
   x1="933.17145"
   y1="-216.64195"
   x2="1007.2269"
   y2="125.79257" /><linearGradient
   id="linearGradient6942"><stop
     style="stop-color:#ffffff;stop-opacity:1;"
     offset="0"
     id="stop6944" /><stop
     style="stop-color:#ffffff;stop-opacity:0;"
     offset="1"
     id="stop6946" /></linearGradient><linearGradient
   inkscape:collect="always"
   xlink:href="#linearGradient6942"
   id="linearGradient7849"
   gradientUnits="userSpaceOnUse"
   gradientTransform="translate(-100.43468,-83.978166)"
   x1="933.17145"
   y1="-216.64195"
   x2="1007.2269"
   y2="125.79257" /><linearGradient
   id="linearGradient3753"><stop
     style="stop-color:#ffffff;stop-opacity:1;"
     offset="0"
     id="stop3755" /><stop
     style="stop-color:#ffffff;stop-opacity:0;"
     offset="1"
     id="stop3757" /></linearGradient><linearGradient
   inkscape:collect="always"
   xlink:href="#linearGradient7030"
   id="linearGradient7851"
   gradientUnits="userSpaceOnUse"
   gradientTransform="matrix(1.053471,-0.07952468,0.07952468,1.053471,-707.63855,617.55394)"
   x1="783.69482"
   y1="-142.5822"
   x2="832.3905"
   y2="-82.473572" /><linearGradient
   id="linearGradient7030"><stop
     style="stop-color:#a0a193;stop-opacity:1;"
     offset="0"
     id="stop7032" /><stop
     style="stop-color:#a0938d;stop-opacity:1;"
     offset="1"
     id="stop7034" /></linearGradient><linearGradient
   inkscape:collect="always"
   xlink:href="#linearGradient7112"
   id="linearGradient7853"
   gradientUnits="userSpaceOnUse"
   gradientTransform="matrix(1.053471,-0.07952468,0.07952468,1.053471,-707.63855,617.55394)"
   x1="959.85767"
   y1="-95.76281"
   x2="798.37695"
   y2="-55.411659" /><linearGradient
   inkscape:collect="always"
   id="linearGradient7112"><stop
     style="stop-color:#5a564a;stop-opacity:1;"
     offset="0"
     id="stop7114" /><stop
     style="stop-color:#784421;stop-opacity:1"
     offset="1"
     id="stop7116" /></linearGradient><radialGradient
   inkscape:collect="always"
   xlink:href="#linearGradient7130"
   id="radialGradient7855"
   gradientUnits="userSpaceOnUse"
   gradientTransform="matrix(1.6156062,0.89574398,-1.0361836,1.8689101,-1267.9946,-62.519876)"
   cx="782.40796"
   cy="-110.29653"
   fx="782.40796"
   fy="-110.29653"
   r="43.10865" /><linearGradient
   id="linearGradient7130"><stop
     style="stop-color:#ffffff;stop-opacity:1;"
     offset="0"
     id="stop7132" /><stop
     style="stop-color:#ffffff;stop-opacity:0;"
     offset="1"
     id="stop7135" /></linearGradient><linearGradient
   inkscape:collect="always"
   xlink:href="#linearGradient7624"
   id="linearGradient7857"
   gradientUnits="userSpaceOnUse"
   gradientTransform="matrix(1.053471,-0.07952468,0.07952468,1.053471,-1202.607,126.19511)"
   x1="1394.574"
   y1="402.32809"
   x2="1283.9167"
   y2="320.8649" /><linearGradient
   id="linearGradient7624"><stop
     style="stop-color:#aa895c;stop-opacity:1;"
     offset="0"
     id="stop7626" /><stop
     style="stop-color:#dbb77e;stop-opacity:1"
     offset="1"
     id="stop7628" /></linearGradient><radialGradient
   inkscape:collect="always"
   xlink:href="#linearGradient7624"
   id="radialGradient7859"
   gradientUnits="userSpaceOnUse"
   gradientTransform="matrix(1.9982437,0.97636171,-0.65626936,1.3431355,-2091.4205,-1278.4751)"
   cx="1225.0118"
   cy="365.5177"
   fx="1225.0118"
   fy="365.5177"
   r="43.489101" /><linearGradient
   id="linearGradient3780"><stop
     style="stop-color:#aa895c;stop-opacity:1;"
     offset="0"
     id="stop3782" /><stop
     style="stop-color:#dbb77e;stop-opacity:1"
     offset="1"
     id="stop3784" /></linearGradient><radialGradient
   inkscape:collect="always"
   xlink:href="#linearGradient7624"
   id="radialGradient7861"
   gradientUnits="userSpaceOnUse"
   gradientTransform="matrix(2.0006712,0.73470734,-0.58181614,1.5843353,-2164.5796,-1031.4815)"
   cx="1223.0815"
   cy="297.60547"
   fx="1223.0815"
   fy="297.60547"
   r="29.603251" /><linearGradient
   id="linearGradient3787"><stop
     style="stop-color:#aa895c;stop-opacity:1;"
     offset="0"
     id="stop3789" /><stop
     style="stop-color:#dbb77e;stop-opacity:1"
     offset="1"
     id="stop3791" /></linearGradient><linearGradient
   inkscape:collect="always"
   xlink:href="#linearGradient6913"
   id="linearGradient7863"
   gradientUnits="userSpaceOnUse"
   gradientTransform="translate(-727.00593,-156.86513)"
   x1="1287.5962"
   y1="332.56702"
   x2="1310.761"
   y2="418.91849" /><linearGradient
   id="linearGradient6913"><stop
     style="stop-color:#e6c487;stop-opacity:1;"
     offset="0"
     id="stop6915" /><stop
     id="stop6921"
     offset="0.5"
     style="stop-color:#ffffea;stop-opacity:1;" /><stop
     style="stop-color:#e6c487;stop-opacity:1;"
     offset="1"
     id="stop6917" /></linearGradient><linearGradient
   inkscape:collect="always"
   xlink:href="#linearGradient7624"
   id="linearGradient7865"
   gradientUnits="userSpaceOnUse"
   gradientTransform="matrix(1.053471,-0.07952468,0.07952468,1.053471,-1202.607,126.19511)"
   x1="1331.0929"
   y1="317.69299"
   x2="1263.6876"
   y2="262.81543" /><linearGradient
   id="linearGradient3801"><stop
     style="stop-color:#aa895c;stop-opacity:1;"
     offset="0"
     id="stop3803" /><stop
     style="stop-color:#dbb77e;stop-opacity:1"
     offset="1"
     id="stop3805" /></linearGradient><radialGradient
   inkscape:collect="always"
   xlink:href="#linearGradient7624"
   id="radialGradient7867"
   gradientUnits="userSpaceOnUse"
   gradientTransform="matrix(1.7195112,0.19293515,-0.19079549,1.7004418,-1949.2341,-373.1185)"
   cx="1224.3215"
   cy="254.83046"
   fx="1224.3215"
   fy="254.83046"
   r="17.6618" /><linearGradient
   id="linearGradient3808"><stop
     style="stop-color:#aa895c;stop-opacity:1;"
     offset="0"
     id="stop3810" /><stop
     style="stop-color:#dbb77e;stop-opacity:1"
     offset="1"
     id="stop3812" /></linearGradient><linearGradient
   inkscape:collect="always"
   xlink:href="#linearGradient7624"
   id="linearGradient7869"
   gradientUnits="userSpaceOnUse"
   gradientTransform="matrix(1.053471,-0.07952468,0.07952468,1.053471,-1202.607,126.19511)"
   x1="1306.0706"
   y1="267.66663"
   x2="1258.1112"
   y2="235.3857" /><linearGradient
   id="linearGradient3815"><stop
     style="stop-color:#aa895c;stop-opacity:1;"
     offset="0"
     id="stop3817" /><stop
     style="stop-color:#dbb77e;stop-opacity:1"
     offset="1"
     id="stop3819" /></linearGradient><linearGradient
   inkscape:collect="always"
   xlink:href="#linearGradient6913"
   id="linearGradient7871"
   gradientUnits="userSpaceOnUse"
   gradientTransform="translate(-727.00593,-156.86513)"
   x1="1262.8256"
   y1="288.51498"
   x2="1280.9177"
   y2="288.51498" /><linearGradient
   id="linearGradient3822"><stop
     style="stop-color:#e6c487;stop-opacity:1;"
     offset="0"
     id="stop3824" /><stop
     id="stop3826"
     offset="0.5"
     style="stop-color:#ffffea;stop-opacity:1;" /><stop
     style="stop-color:#e6c487;stop-opacity:1;"
     offset="1"
     id="stop3828" /></linearGradient><linearGradient
   inkscape:collect="always"
   xlink:href="#linearGradient6913"
   id="linearGradient7873"
   gradientUnits="userSpaceOnUse"
   gradientTransform="translate(-294.83247,342.17783)"
   x1="816.50171"
   y1="-254.10545"
   x2="827.12006"
   y2="-254.10545" /><linearGradient
   id="linearGradient3833"><stop
     style="stop-color:#e6c487;stop-opacity:1;"
     offset="0"
     id="stop3835" /><stop
     id="stop3837"
     offset="0.5"
     style="stop-color:#ffffea;stop-opacity:1;" /><stop
     style="stop-color:#e6c487;stop-opacity:1;"
     offset="1"
     id="stop3839" /></linearGradient><linearGradient
   inkscape:collect="always"
   xlink:href="#linearGradient7155"
   id="linearGradient7875"
   gradientUnits="userSpaceOnUse"
   gradientTransform="matrix(1.053471,-0.07952468,0.07952468,1.053471,-707.63855,617.55394)"
   x1="844.83356"
   y1="-82.239365"
   x2="851.94403"
   y2="-41.350193" /><linearGradient
   id="linearGradient7155"><stop
     style="stop-color:#9c9d9f;stop-opacity:1;"
     offset="0"
     id="stop7157" /><stop
     style="stop-color:#8a9d9f;stop-opacity:1;"
     offset="1"
     id="stop7159" /></linearGradient><linearGradient
   inkscape:collect="always"
   xlink:href="#linearGradient7147"
   id="linearGradient7877"
   gradientUnits="userSpaceOnUse"
   gradientTransform="matrix(1.053471,-0.07952468,0.07952468,1.053471,-707.63855,617.55394)"
   x1="844.83356"
   y1="-82.239365"
   x2="851.94403"
   y2="-41.350193" /><linearGradient
   id="linearGradient7147"><stop
     style="stop-color:#ffffff;stop-opacity:1;"
     offset="0"
     id="stop7149" /><stop
     style="stop-color:#969799;stop-opacity:0;"
     offset="1"
     id="stop7151" /></linearGradient><linearGradient
   inkscape:collect="always"
   xlink:href="#linearGradient7518"
   id="linearGradient7879"
   gradientUnits="userSpaceOnUse"
   x1="1187.0065"
   y1="-211.25635"
   x2="1177.0199"
   y2="-187.90303" /><linearGradient
   id="linearGradient3854"><stop
     style="stop-color:#151515;stop-opacity:1;"
     offset="0"
     id="stop3856" /><stop
     style="stop-color:#000000;stop-opacity:1;"
     offset="1"
     id="stop3858" /></linearGradient><linearGradient
   inkscape:collect="always"
   xlink:href="#linearGradient7562"
   id="linearGradient7881"
   gradientUnits="userSpaceOnUse"
   x1="1185.3912"
   y1="-183.13069"
   x2="1183.8555"
   y2="-218.05084" /><linearGradient
   id="linearGradient7562"><stop
     style="stop-color:#ffffff;stop-opacity:1;"
     offset="0"
     id="stop7564" /><stop
     id="stop7570"
     offset="0.37223497"
     style="stop-color:#999999;stop-opacity:1;" /><stop
     style="stop-color:#333333;stop-opacity:1"
     offset="1"
     id="stop7566" /></linearGradient><linearGradient
   inkscape:collect="always"
   xlink:href="#linearGradient7562"
   id="linearGradient7883"
   gradientUnits="userSpaceOnUse"
   x1="1185.3912"
   y1="-183.13069"
   x2="1162.3606"
   y2="-219.55624" /><linearGradient
   id="linearGradient3868"><stop
     style="stop-color:#ffffff;stop-opacity:1;"
     offset="0"
     id="stop3870" /><stop
     id="stop3872"
     offset="0.37223497"
     style="stop-color:#999999;stop-opacity:1;" /><stop
     style="stop-color:#333333;stop-opacity:1"
     offset="1"
     id="stop3874" /></linearGradient><radialGradient
   inkscape:collect="always"
   xlink:href="#linearGradient7682"
   id="radialGradient7885"
   gradientUnits="userSpaceOnUse"
   gradientTransform="matrix(1.5351039,0,0,2.3521687,-547.17939,275.03955)"
   cx="1022.5666"
   cy="-203.40625"
   fx="1022.5666"
   fy="-203.40625"
   r="6.5354285" /><linearGradient
   inkscape:collect="always"
   id="linearGradient7682"><stop
     style="stop-color:#333333;stop-opacity:1;"
     offset="0"
     id="stop7684" /><stop
     style="stop-color:#333333;stop-opacity:0;"
     offset="1"
     id="stop7686" /></linearGradient><linearGradient
   inkscape:collect="always"
   xlink:href="#linearGradient7667"
   id="linearGradient7887"
   gradientUnits="userSpaceOnUse"
   x1="1010.2083"
   y1="-197.53375"
   x2="1023.2929"
   y2="-181.9313" /><linearGradient
   id="linearGradient7667"><stop
     style="stop-color:#5e6262;stop-opacity:0.3316583;"
     offset="0"
     id="stop7669" /><stop
     id="stop7695"
     offset="0.5"
     style="stop-color:#484a4a;stop-opacity:1;" /><stop
     style="stop-color:#333333;stop-opacity:1"
     offset="1"
     id="stop7671" /></linearGradient><radialGradient
   inkscape:collect="always"
   xlink:href="#linearGradient7638"
   id="radialGradient7889"
   gradientUnits="userSpaceOnUse"
   gradientTransform="matrix(1,0,0,1.7537688,0,101.88222)"
   cx="1027.7435"
   cy="-135.16374"
   fx="1027.7435"
   fy="-135.16374"
   r="4.5423865" /><linearGradient
   id="linearGradient7638"><stop
     style="stop-color:#000000;stop-opacity:1;"
     offset="0"
     id="stop7640" /><stop
     style="stop-color:#333333;stop-opacity:1;"
     offset="1"
     id="stop7642" /></linearGradient><linearGradient
   inkscape:collect="always"
   xlink:href="#linearGradient7659"
   id="linearGradient7891"
   gradientUnits="userSpaceOnUse"
   x1="1023.4377"
   y1="-135.16374"
   x2="1032.0493"
   y2="-135.16374" /><linearGradient
   id="linearGradient7659"><stop
     style="stop-color:#666666;stop-opacity:1"
     offset="0"
     id="stop7661" /><stop
     style="stop-color:#999999;stop-opacity:1;"
     offset="1"
     id="stop7663" /></linearGradient><linearGradient
   inkscape:collect="always"
   xlink:href="#linearGradient4298"
   id="linearGradient4304"
   x1="-5.9715433"
   y1="106.80223"
   x2="47.561942"
   y2="106.80223"
   gradientUnits="userSpaceOnUse" /><linearGradient
   inkscape:collect="always"
   xlink:href="#linearGradient4298"
   id="linearGradient4306"
   x1="-6.9107261"
   y1="93.793825"
   x2="46.622756"
   y2="93.793825"
   gradientUnits="userSpaceOnUse" /><linearGradient
   inkscape:collect="always"
   xlink:href="#linearGradient4298"
   id="linearGradient4308"
   x1="-5.971539"
   y1="80.785432"
   x2="47.561939"
   y2="80.785432"
   gradientUnits="userSpaceOnUse" /><linearGradient
   inkscape:collect="always"
   xlink:href="#linearGradient4298"
   id="linearGradient4310"
   x1="6.6761603"
   y1="64.376976"
   x2="6.6761603"
   y2="70.417358"
   gradientUnits="userSpaceOnUse" /><linearGradient
   inkscape:collect="always"
   xlink:href="#linearGradient4298"
   id="linearGradient4312"
   x1="14.255102"
   y1="54.678463"
   x2="14.255102"
   y2="48.075623"
   gradientUnits="userSpaceOnUse"
   gradientTransform="translate(-83.599883,0)" /><linearGradient
   inkscape:collect="always"
   xlink:href="#linearGradient4298"
   id="linearGradient4320"
   gradientUnits="userSpaceOnUse"
   x1="14.255102"
   y1="54.678463"
   x2="14.255102"
   y2="48.075623"
   gradientTransform="translate(-83.599883,14.000001)" /><linearGradient
   inkscape:collect="always"
   xlink:href="#linearGradient4298"
   id="linearGradient4324"
   gradientUnits="userSpaceOnUse"
   gradientTransform="translate(-83.599883,42.000001)"
   x1="14.255102"
   y1="54.678463"
   x2="14.255102"
   y2="48.075623" /><linearGradient
   inkscape:collect="always"
   xlink:href="#linearGradient4298"
   id="linearGradient4328"
   gradientUnits="userSpaceOnUse"
   x1="14.255102"
   y1="54.678463"
   x2="14.255102"
   y2="48.075623"
   gradientTransform="translate(-83.599883,28.000001)" /><linearGradient
   inkscape:collect="always"
   xlink:href="#linearGradient4298"
   id="linearGradient4332"
   gradientUnits="userSpaceOnUse"
   gradientTransform="translate(-83.599883,56.000001)"
   x1="14.255102"
   y1="54.678463"
   x2="14.255102"
   y2="48.075623" /></defs><sodipodi:namedview
   pagecolor="#ffffff"
   bordercolor="#666666"
   borderopacity="1"
   objecttolerance="10"
   gridtolerance="10"
   guidetolerance="10"
   inkscape:pageopacity="0"
   inkscape:pageshadow="2"
   inkscape:window-width="1858"
   inkscape:window-height="953"
   id="namedview3757"
   showgrid="false"
   fit-margin-top="0"
   fit-margin-left="0"
   fit-margin-right="0"
   fit-margin-bottom="0"
   inkscape:zoom="1.2299749"
   inkscape:cx="-257.87577"
   inkscape:cy="131.66116"
   inkscape:window-x="54"
   inkscape:window-y="-8"
   inkscape:window-maximized="1"
   inkscape:current-layer="Layer_1"
   showguides="true"
   inkscape:guide-bbox="true" />
<pattern
   x="-225"
   y="356"
   width="8"
   height="8"
   patternUnits="userSpaceOnUse"
   id="Unnamed_Pattern"
   viewBox="0.05 -8.05 8 8">
	<g
   id="g3376">
		<polygon
   style="fill:none;"
   points="0.05,-8.05 8.05,-8.05 8.05,-0.05 0.05,-0.05   "
   id="polygon3378" />
		<path
   style="fill:none;stroke:#000000;stroke-width:0.1;stroke-linecap:square;stroke-miterlimit:10;"
   d="M0.05-8.05h8 M8.05-0.05    h-8"
   id="path3380" />
	</g>
</pattern>
<path
   inkscape:connector-curvature="0"
   style="fill:#204a87;fill-opacity:1;fill-rule:nonzero;stroke:#eeeeec;stroke-width:2.76298904;stroke-miterlimit:4;stroke-dasharray:none"
   d="m 170.41127,-80.314047 56.78669,0 -22.71467,25.871359 34.07201,-2e-5 34.07201,-38.807029 -34.07201,-38.807023 -34.07201,0 22.71467,25.87136 -56.78669,0 0,25.871353 z"
   id="path15815"
   inkscape:export-filename="/home/andre/data/projekte_privat/wiesenschluempfe/bilder/logout_mini_icon.png"
   inkscape:export-xdpi="52.360001"
   inkscape:export-ydpi="52.360001"
   sodipodi:nodetypes="cccccccccc" /><polygon
   id="polygon3428"
   points="340.277,0.182 340.277,59.455 111.937,59.455 111.937,59.455 111.937,0.182 "
   style="fill:#e0e0e0;fill-rule:evenodd"
   transform="matrix(0.21447257,0,0,1.2521769,-23.985964,50.652882)" /><polyline
   id="polyline3430"
   points="   111.937,59.455 340.277,59.455 340.277,0.182 111.937,0.182 111.937,59.455  "
   style="fill:#a40000;fill-opacity:1;stroke:#2e3436;stroke-width:3.99894571;stroke-linecap:square;stroke-miterlimit:10;stroke-dasharray:none"
   transform="matrix(0.23432676,0,0,1.8408127,-30.7419,15.655533)" /><line
   id="line3462"
   y2="149.68005"
   x2="-7.1209011"
   y1="149.69406"
   x1="-7.1209011"
   style="fill:none;stroke:#000000;stroke-width:0.1212;stroke-linecap:square;stroke-miterlimit:10" /><line
   id="line3466"
   y2="149.69406"
   x2="-14.878897"
   y1="149.70107"
   x1="-14.878897"
   style="fill:none;stroke:#000000;stroke-width:0.1212;stroke-linecap:square;stroke-miterlimit:10" /><polygon
   id="polygon3474"
   points="296.645,72.304 295.676,73.516 294.707,74.85 293.979,76.183 293.252,77.758 292.768,79.213 292.404,80.91 292.16,82.485 292.039,84.062 292.16,85.637 292.404,87.213 292.768,88.91 293.252,90.364 293.979,91.94 294.707,93.273 295.676,94.607 296.645,95.818 297.857,96.91 299.068,97.88 300.402,98.729 301.736,99.455 303.189,100.062 304.645,100.426 306.221,100.668 307.674,100.789 309.129,100.668 310.705,100.426 312.158,100.062 313.613,99.455 314.947,98.729 316.279,97.88 317.492,96.91 318.703,95.818 319.674,94.607 320.643,93.273 321.369,91.94 322.098,90.364 322.582,88.91 322.945,87.213 323.188,85.637 323.309,84.062 323.309,84.062 323.188,82.485 322.945,80.91 322.582,79.213 322.098,77.758 321.369,76.183 320.643,74.85 319.674,73.516 318.703,72.304 317.492,71.213 316.279,70.243 314.947,69.395 313.613,68.668 312.158,68.061 310.705,67.697 309.129,67.455 307.674,67.334 306.221,67.455 304.645,67.697 303.189,68.061 301.736,68.668 300.402,69.395 299.068,70.243 297.857,71.213 "
   style="fill-rule:evenodd;stroke:#ffffff;stroke-width:0.1212;stroke-linecap:square;stroke-miterlimit:10"
   transform="translate(-291.28288,65.646057)" /><line
   id="line3476"
   y2="149.68005"
   x2="32.026112"
   y1="149.69406"
   x1="32.026112"
   style="fill:none;stroke:#000000;stroke-width:0.1212;stroke-linecap:square;stroke-miterlimit:10" /><polygon
   id="polygon3478"
   points="300.16,86.364 300.523,87.455 301.129,88.547 301.736,89.516 302.584,90.364 303.432,91.092 304.402,91.576 305.492,92.062 306.584,92.304 307.674,92.426 308.766,92.304 309.855,92.062 310.947,91.576 311.916,91.092 312.766,90.364 313.613,89.516 314.219,88.547 314.826,87.455 315.189,86.364 315.432,85.152 315.553,84.062 315.553,84.062 315.432,82.971 315.189,81.758 314.826,80.668 314.219,79.576 313.613,78.607 312.766,77.758 311.916,77.031 310.947,76.546 309.855,76.062 308.766,75.818 307.674,75.697 306.584,75.818 305.492,76.062 304.402,76.546 303.432,77.031 302.584,77.758 301.736,78.607 301.129,79.576 300.523,80.668 300.16,81.758 299.918,82.971 299.797,84.062 299.918,85.152 "
   style="fill:#c1c1c1;fill-rule:evenodd;stroke:#ffffff;stroke-width:0.1212;stroke-linecap:square;stroke-miterlimit:10"
   transform="translate(-291.28288,65.646057)" /><line
   id="line3480"
   y2="149.69406"
   x2="24.270128"
   y1="149.70107"
   x1="24.270128"
   style="fill:none;stroke:#000000;stroke-width:0.1212;stroke-linecap:square;stroke-miterlimit:10" /><polygon
   id="polygon3482"
   points="307.674,88.183 308.402,88.062 309.129,87.818 309.734,87.455 310.342,86.971 310.826,86.243 311.189,85.637 311.432,84.789 311.553,84.062 311.553,84.062 311.432,83.334 311.189,82.485 310.826,81.879 310.342,81.152 309.734,80.668 309.129,80.304 308.402,80.062 307.674,79.939 306.947,80.062 306.221,80.304 305.613,80.668 305.008,81.152 304.523,81.879 304.16,82.485 303.918,83.334 303.797,84.062 303.918,84.789 304.16,85.637 304.523,86.243 305.008,86.971 305.613,87.455 306.221,87.818 306.947,88.062 "
   style="fill:#ededed;fill-rule:evenodd;stroke:#ffffff;stroke-width:0.12120000000000000;stroke-linecap:square;stroke-miterlimit:10;fill-opacity:1"
   transform="translate(-291.28288,65.646057)" /><line
   id="line3484"
   y2="149.70107"
   x2="20.270128"
   y1="149.70506"
   x1="20.270128"
   style="fill:none;stroke:#000000;stroke-width:2.18179989;stroke-linecap:square;stroke-miterlimit:10" /><line
   id="line3486"
   y2="149.69106"
   x2="25.602129"
   y1="149.69907"
   x1="25.602129"
   style="fill:none;stroke:#ffffff;stroke-width:0.1212;stroke-linecap:square;stroke-miterlimit:10" /><polygon
   id="polygon3488"
   points="239.197,66.485 239.197,59.455 337.127,59.455 337.127,66.485 239.197,66.485 "
   style="fill-rule:evenodd"
   transform="matrix(0.4599166,0,0,1,-109.20617,65.646057)" /><polyline
   id="polyline3490"
   points="   239.197,66.485 337.127,66.485 337.127,59.455 239.197,59.455 239.197,66.485  "
   style="fill:#2e3436;stroke:#000000;stroke-width:0.12120000000000000;stroke-linecap:square;stroke-miterlimit:10"
   transform="matrix(0.46667329,0,0,1,-111.48403,65.646057)" /><polygon
   id="polygon3496"
   points="323.674,77.395 322.098,73.758 320.037,70.971 318.219,69.516 315.916,67.818 315.916,67.818 315.916,67.818 330.703,67.818 330.703,73.758 324.521,81.152 "
   style="fill-rule:evenodd"
   transform="translate(-291.28288,65.646057)" /><polyline
   id="polyline3498"
   points="   315.916,67.818 330.703,67.818 330.703,73.758 324.521,81.152 323.674,77.395 322.098,73.758 320.037,70.971 318.219,69.516    315.916,67.818  "
   style="fill:#2e3436;stroke:#000000;stroke-width:0.12120000000000000;stroke-linecap:square;stroke-miterlimit:10"
   transform="translate(-291.28288,65.646057)" /><polygon
   id="polygon3500"
   points="328.158,55.213 328.035,54.364 328.035,54.364 328.035,52.304 328.158,51.334 329.006,51.213 334.58,51.213 335.43,51.334 335.672,52.304 335.672,54.364 335.43,55.213 334.58,55.455 329.006,55.455 "
   style="fill:#a3a3a3;fill-rule:evenodd"
   transform="translate(-291.28288,65.646057)" /><polyline
   id="polyline3502"
   points="   328.035,54.364 328.035,52.304 328.158,51.334 329.006,51.213 334.58,51.213 335.43,51.334 335.672,52.304 335.672,54.364    335.43,55.213 334.58,55.455 329.006,55.455 328.158,55.213 328.035,54.364  "
   style="fill:none;stroke:#000000;stroke-width:0.1212;stroke-linecap:square;stroke-miterlimit:10"
   transform="translate(-291.28288,65.646057)" /><polyline
   id="polyline3504"
   points="   328.035,54.364 328.035,52.304 328.158,51.334 329.006,51.213 334.58,51.213 335.43,51.334 335.672,52.304 335.672,54.364    335.43,55.213 334.58,55.455 329.006,55.455 328.158,55.213 328.035,54.364  "
   style="fill:none;stroke:#000000;stroke-width:0.1212;stroke-linecap:square;stroke-miterlimit:10"
   transform="translate(-291.28288,65.646057)" /><polyline
   id="polyline3506"
   points="   328.035,54.364 328.035,52.304 328.158,51.334 329.006,51.213 334.58,51.213 335.43,51.334 335.672,52.304 335.672,54.364    335.43,55.213 334.58,55.455 329.006,55.455 328.158,55.213 328.035,54.364  "
   style="fill:none;stroke:#000000;stroke-width:0.1212;stroke-linecap:square;stroke-miterlimit:10"
   transform="translate(-291.28288,65.646057)" /><polygon
   id="polygon3508"
   points="335.066,89.031 335.066,89.031 335.066,66.122 336.398,66.122 336.398,89.031 "
   style="fill-rule:evenodd"
   transform="translate(-291.28288,65.646057)" /><polyline
   id="polyline3510"
   points="   335.066,89.031 336.398,89.031 336.398,66.122 335.066,66.122 335.066,89.031  "
   style="fill:none;stroke:#000000;stroke-width:0.1212;stroke-linecap:square;stroke-miterlimit:10"
   transform="translate(-291.28288,65.646057)" />
<rect
   style="fill:#2e3436;stroke:#2e3436;stroke-width:0.78316289;stroke-miterlimit:4;stroke-opacity:1;stroke-dasharray:none"
   id="rect4017"
   width="8.5004072"
   height="31.82443"
   x="-83.050919"
   y="14.151009" /><rect
   style="fill:#000000;stroke:#2e3436;stroke-width:0.64317089000000005;stroke-miterlimit:4;stroke-opacity:1;stroke-dasharray:none;fill-opacity:1"
   id="rect4017-1"
   width="12.694631"
   height="14.372382"
   x="48.600113"
   y="127.10947" /><rect
   style="fill:#d3d7cf;fill-opacity:1;stroke:#2e3436;stroke-width:4.00498581;stroke-miterlimit:4;stroke-opacity:1;stroke-dasharray:none"
   id="rect4877"
   width="112.29363"
   height="45.802933"
   x="61.513786"
   y="126.55199" /><rect
   style="fill:#babdb6;fill-opacity:1;stroke:none"
   id="rect4877-7"
   width="11.497906"
   height="36.861778"
   x="-73.586624"
   y="5.3840928" /><rect
   style="fill:url(#linearGradient4312);fill-opacity:1;stroke:none"
   id="rect4897"
   width="53.53347"
   height="6.5041976"
   x="-90.041016"
   y="48.264439" /><rect
   y="62.264439"
   x="-90.041016"
   height="6.5041976"
   width="53.53347"
   id="rect4318"
   style="fill:url(#linearGradient4320);fill-opacity:1;stroke:none" /><rect
   style="fill:url(#linearGradient4324);fill-opacity:1;stroke:none"
   id="rect4322"
   width="53.53347"
   height="6.5041976"
   x="-90.041016"
   y="90.264442" /><rect
   y="76.264442"
   x="-90.041016"
   height="6.5041976"
   width="53.53347"
   id="rect4326"
   style="fill:url(#linearGradient4328);fill-opacity:1;stroke:none" /><rect
   y="104.26444"
   x="-90.041016"
   height="6.5041976"
   width="53.53347"
   id="rect4330"
   style="fill:url(#linearGradient4332);fill-opacity:1;stroke:none" /><path
   inkscape:connector-curvature="0"
   style="fill:#ef2929;fill-opacity:1;fill-rule:nonzero;stroke:#2e3436;stroke-width:2.51145911000000010;stroke-miterlimit:4;stroke-dasharray:none"
   d="m 153.36812,84.229856 -51.61709,0 20.64683,23.516144 -30.970247,-10e-6 -30.97024,-35.274219 30.97024,-35.274208 30.970247,0 -20.64683,23.516153 51.61709,0 0,23.51614 z"
   id="path15815-1"
   inkscape:export-filename="/home/andre/data/projekte_privat/wiesenschluempfe/bilder/logout_mini_icon.png"
   inkscape:export-xdpi="52.360001"
   inkscape:export-ydpi="52.360001"
   sodipodi:nodetypes="cccccccccc" /><path
   sodipodi:nodetypes="ccccccccc"
   inkscape:export-ydpi="52.360001"
   inkscape:export-xdpi="52.360001"
   inkscape:export-filename="/home/andre/data/projekte_privat/wiesenschluempfe/bilder/logout_mini_icon.png"
   id="path3061"
   d="m 117.02236,103.82365 -27.603316,-2e-5 m -27.60332,-31.439382 29.71631,-34.005155 27.754256,0.150914 -20.666136,23.374447 52.948236,0 0,9.164706 z"
   style="opacity:0.30530976;fill:#ffffff;fill-opacity:1;fill-rule:nonzero;stroke:none"
   inkscape:connector-curvature="0" /></svg>