<?xml version="1.0" encoding="UTF-8" standalone="no"?>
<!-- Created with Inkscape (http://www.inkscape.org/) -->

<svg
   xmlns:dc="http://purl.org/dc/elements/1.1/"
   xmlns:cc="http://creativecommons.org/ns#"
   xmlns:rdf="http://www.w3.org/1999/02/22-rdf-syntax-ns#"
   xmlns:svg="http://www.w3.org/2000/svg"
   xmlns="http://www.w3.org/2000/svg"
   xmlns:xlink="http://www.w3.org/1999/xlink"
   xmlns:sodipodi="http://sodipodi.sourceforge.net/DTD/sodipodi-0.dtd"
   xmlns:inkscape="http://www.inkscape.org/namespaces/inkscape"
   height="695.66998"
   id="svg2"
   version="1.0"
   width="695.66998"
   x="0.00000000"
   y="0.00000000"
   sodipodi:version="0.32"
   inkscape:version="0.48.3.1 r9886"
   sodipodi:docname="package-truck.svg"
   inkscape:output_extension="org.inkscape.output.svg.inkscape"
   inkscape:export-filename="C:\project\RentalWorks\Web\RentalWorksQuikScan\theme\images\icons\128\package-truck.png"
   inkscape:export-xdpi="16.559999"
   inkscape:export-ydpi="16.559999">
  <sodipodi:namedview
     inkscape:window-height="914"
     inkscape:window-width="1920"
     inkscape:pageshadow="2"
     inkscape:pageopacity="0.0"
     guidetolerance="10.0"
     gridtolerance="10.0"
     objecttolerance="10.0"
     borderopacity="1.0"
     bordercolor="#666666"
     pagecolor="#ffffff"
     id="base"
     showgrid="false"
     inkscape:zoom="0.51313132"
     inkscape:cx="414.41877"
     inkscape:cy="470.82465"
     inkscape:window-x="-8"
     inkscape:window-y="32"
     inkscape:current-layer="svg2"
     inkscape:window-maximized="1" />
  <metadata
     id="metadata3">
    <rdf:RDF>
      <cc:Work
         rdf:about="">
        <dc:title>Truck1</dc:title>
        <dc:description>truck</dc:description>
        <dc:subject>
          <rdf:Bag>
            <rdf:li>transport</rdf:li>
          </rdf:Bag>
        </dc:subject>
        <dc:publisher>
          <cc:Agent
             rdf:about="http://www.openclipart.org/">
            <dc:title>Open Clip Art Library</dc:title>
          </cc:Agent>
        </dc:publisher>
        <dc:creator>
          <cc:Agent>
            <dc:title>Jarno Vasamaa</dc:title>
          </cc:Agent>
        </dc:creator>
        <dc:rights>
          <cc:Agent>
            <dc:title>Jarno Vasamaa</dc:title>
          </cc:Agent>
        </dc:rights>
        <dc:date />
        <dc:format>image/svg+xml</dc:format>
        <dc:type
           rdf:resource="http://purl.org/dc/dcmitype/StillImage" />
        <cc:license
           rdf:resource="http://web.resource.org/cc/PublicDomain" />
        <dc:language>en</dc:language>
      </cc:Work>
      <cc:License
         rdf:about="http://web.resource.org/cc/PublicDomain">
        <cc:permits
           rdf:resource="http://web.resource.org/cc/Reproduction" />
        <cc:permits
           rdf:resource="http://web.resource.org/cc/Distribution" />
        <cc:permits
           rdf:resource="http://web.resource.org/cc/DerivativeWorks" />
      </cc:License>
    </rdf:RDF>
  </metadata>
  <defs
     id="defs3">
    <inkscape:perspective
       sodipodi:type="inkscape:persp3d"
       inkscape:vp_x="0 : 372.04724 : 1"
       inkscape:vp_y="0 : 1000 : 0"
       inkscape:vp_z="1052.3622 : 372.04724 : 1"
       inkscape:persp3d-origin="526.18109 : 248.03149 : 1"
       id="perspective106" />
    <linearGradient
       id="linearGradient2801">
      <stop
         id="stop2803"
         offset="0.00000000"
         style="stop-color:#e9f3ff;stop-opacity:1.0000000;" />
      <stop
         id="stop2809"
         offset="1.0000000"
         style="stop-color:#364978;stop-opacity:1.0000000;" />
      <stop
         id="stop2805"
         offset="1.0000000"
         style="stop-color:#e9f3ff;stop-opacity:0.00000000;" />
    </linearGradient>
    <linearGradient
       id="linearGradient2793">
      <stop
         id="stop2795"
         offset="0.00000000"
         style="stop-color:#000000;stop-opacity:0.43877551;" />
      <stop
         id="stop2797"
         offset="1.0000000"
         style="stop-color:#000000;stop-opacity:0.00000000;" />
    </linearGradient>
    <linearGradient
       id="linearGradient2645">
      <stop
         id="stop2647"
         offset="0.00000000"
         style="stop-color:#8dabd6;stop-opacity:1.0000000;" />
      <stop
         id="stop2653"
         offset="1.0000000"
         style="stop-color:#b1cef8;stop-opacity:1.0000000;" />
      <stop
         id="stop2649"
         offset="1.0000000"
         style="stop-color:#8dabd6;stop-opacity:0.00000000;" />
    </linearGradient>
    <linearGradient
       id="linearGradient2182">
      <stop
         id="stop2184"
         offset="0.00000000"
         style="stop-color:#000000;stop-opacity:1.0000000;" />
      <stop
         id="stop2186"
         offset="1.0000000"
         style="stop-color:#000000;stop-opacity:0.00000000;" />
    </linearGradient>
    <linearGradient
       id="linearGradient2168">
      <stop
         id="stop2170"
         offset="0.00000000"
         style="stop-color:#9c0002;stop-opacity:1.0000000;" />
      <stop
         id="stop2176"
         offset="0.47826087"
         style="stop-color:#db1c1c;stop-opacity:1.0000000;" />
      <stop
         id="stop2178"
         offset="1.0000000"
         style="stop-color:#c30200;stop-opacity:1.0000000;" />
      <stop
         id="stop2172"
         offset="1.0000000"
         style="stop-color:#edbebe;stop-opacity:1.0000000;" />
      <stop
         id="stop2174"
         offset="1.0000000"
         style="stop-color:#591702;stop-opacity:0.00000000;" />
    </linearGradient>
    <linearGradient
       id="linearGradient2142">
      <stop
         id="stop2144"
         offset="0.00000000"
         style="stop-color:#591702;stop-opacity:1.0000000;" />
      <stop
         id="stop2150"
         offset="1.0000000"
         style="stop-color:#edbebe;stop-opacity:1.0000000;" />
      <stop
         id="stop2146"
         offset="1.0000000"
         style="stop-color:#591702;stop-opacity:0.00000000;" />
    </linearGradient>
    <linearGradient
       gradientTransform="matrix(1.53164,0,0,0.649517,2.995039,0)"
       gradientUnits="userSpaceOnUse"
       id="linearGradient2148"
       spreadMethod="pad"
       x1="283.96664"
       x2="304.58871"
       xlink:href="#linearGradient2142"
       y1="322.99158"
       y2="537.73578" />
    <linearGradient
       gradientTransform="scale(0.574952,1.739275)"
       gradientUnits="userSpaceOnUse"
       id="linearGradient2158"
       x1="547.8728"
       x2="553.06183"
       xlink:href="#linearGradient2142"
       y1="136.16307"
       y2="187.17781" />
    <linearGradient
       gradientTransform="scale(0.911548,1.097034)"
       gradientUnits="userSpaceOnUse"
       id="linearGradient2166"
       x1="435.98782"
       x2="441.1926"
       xlink:href="#linearGradient2168"
       y1="111.34908"
       y2="172.83257" />
    <linearGradient
       gradientTransform="matrix(1.000163,0,0,1.463408,-78.53683,-17.95278)"
       gradientUnits="userSpaceOnUse"
       id="linearGradient2188"
       x1="423.21365"
       x2="356.2851"
       xlink:href="#linearGradient2182"
       y1="116.83797"
       y2="117.17261" />
    <linearGradient
       gradientTransform="matrix(1.552479,0,0,0.644131,-2,-4)"
       gradientUnits="userSpaceOnUse"
       id="linearGradient2200"
       x1="295.31308"
       x2="207.39342"
       xlink:href="#linearGradient2168"
       y1="826.63483"
       y2="693.72699" />
    <linearGradient
       gradientTransform="scale(1.022945,0.97757)"
       gradientUnits="userSpaceOnUse"
       id="linearGradient2208"
       x1="702.12286"
       x2="277.36771"
       xlink:href="#linearGradient2168"
       y1="411.40411"
       y2="150.40488" />
    <linearGradient
       gradientTransform="scale(0.657801,1.520216)"
       gradientUnits="userSpaceOnUse"
       id="linearGradient2226"
       x1="892.2536"
       x2="957.26489"
       xlink:href="#linearGradient2168"
       y1="148.36475"
       y2="167.23521" />
    <linearGradient
       gradientTransform="scale(0.640513,1.561249)"
       gradientUnits="userSpaceOnUse"
       id="linearGradient2641"
       x1="440.70517"
       x2="475.83563"
       xlink:href="#linearGradient2168"
       y1="155.82439"
       y2="180.4323" />
    <linearGradient
       gradientTransform="scale(0.858864,1.164329)"
       gradientUnits="userSpaceOnUse"
       id="linearGradient2651"
       spreadMethod="reflect"
       x1="397.94455"
       x2="421.63489"
       xlink:href="#linearGradient2645"
       y1="406.19302"
       y2="412.11569" />
    <linearGradient
       gradientTransform="scale(0.702671,1.423141)"
       gradientUnits="userSpaceOnUse"
       id="linearGradient2661"
       spreadMethod="reflect"
       x1="815.75031"
       x2="850.07312"
       xlink:href="#linearGradient2645"
       y1="314.55432"
       y2="312.96539" />
    <linearGradient
       gradientTransform="scale(0.911548,1.097034)"
       gradientUnits="userSpaceOnUse"
       id="linearGradient2706"
       x1="435.98782"
       x2="441.1926"
       xlink:href="#linearGradient2168"
       y1="111.34908"
       y2="172.83257" />
    <linearGradient
       gradientTransform="matrix(1.000163,0,0,1.463408,-78.53683,-17.95278)"
       gradientUnits="userSpaceOnUse"
       id="linearGradient2708"
       x1="423.21365"
       x2="356.2851"
       xlink:href="#linearGradient2182"
       y1="116.83797"
       y2="117.17261" />
    <linearGradient
       gradientTransform="scale(1.022945,0.97757)"
       gradientUnits="userSpaceOnUse"
       id="linearGradient2710"
       x1="702.12286"
       x2="277.36771"
       xlink:href="#linearGradient2168"
       y1="411.40411"
       y2="150.40488" />
    <linearGradient
       gradientTransform="matrix(1.552479,0,0,0.644131,-2,-4)"
       gradientUnits="userSpaceOnUse"
       id="linearGradient2712"
       x1="295.31308"
       x2="207.39342"
       xlink:href="#linearGradient2168"
       y1="826.63483"
       y2="693.72699" />
    <linearGradient
       gradientTransform="matrix(1.53164,0,0,0.649517,2.995039,0)"
       gradientUnits="userSpaceOnUse"
       id="linearGradient2714"
       spreadMethod="pad"
       x1="283.96664"
       x2="304.58871"
       xlink:href="#linearGradient2142"
       y1="322.99158"
       y2="537.73578" />
    <linearGradient
       gradientTransform="scale(0.574952,1.739275)"
       gradientUnits="userSpaceOnUse"
       id="linearGradient2716"
       x1="547.8728"
       x2="553.06183"
       xlink:href="#linearGradient2142"
       y1="136.16307"
       y2="187.17781" />
    <linearGradient
       gradientTransform="scale(0.858864,1.164329)"
       gradientUnits="userSpaceOnUse"
       id="linearGradient2718"
       spreadMethod="reflect"
       x1="397.94455"
       x2="421.63489"
       xlink:href="#linearGradient2645"
       y1="406.19302"
       y2="412.11569" />
    <linearGradient
       gradientTransform="scale(0.702671,1.423141)"
       gradientUnits="userSpaceOnUse"
       id="linearGradient2720"
       spreadMethod="reflect"
       x1="815.75031"
       x2="850.07312"
       xlink:href="#linearGradient2645"
       y1="314.55432"
       y2="312.96539" />
    <linearGradient
       gradientTransform="scale(0.657801,1.520216)"
       gradientUnits="userSpaceOnUse"
       id="linearGradient2722"
       x1="892.2536"
       x2="957.26489"
       xlink:href="#linearGradient2168"
       y1="148.36475"
       y2="167.23521" />
    <linearGradient
       gradientTransform="scale(0.640513,1.561249)"
       gradientUnits="userSpaceOnUse"
       id="linearGradient2724"
       x1="440.70517"
       x2="475.83563"
       xlink:href="#linearGradient2168"
       y1="155.82439"
       y2="180.4323" />
    <linearGradient
       gradientTransform="matrix(0.895345,0,0,2.182401,-5.0134,-117.8085)"
       gradientUnits="userSpaceOnUse"
       id="linearGradient2733"
       x1="440.70517"
       x2="475.83563"
       xlink:href="#linearGradient2168"
       y1="155.82439"
       y2="180.4323" />
    <linearGradient
       gradientTransform="matrix(0.919511,0,0,2.125043,-5.0134,-117.8085)"
       gradientUnits="userSpaceOnUse"
       id="linearGradient2746"
       x1="892.2536"
       x2="957.26489"
       xlink:href="#linearGradient2168"
       y1="148.36475"
       y2="167.23521" />
    <linearGradient
       gradientTransform="matrix(0.982233,0,0,1.989346,-5.0134,-111.8085)"
       gradientUnits="userSpaceOnUse"
       id="linearGradient2754"
       spreadMethod="reflect"
       x1="815.75031"
       x2="850.07312"
       xlink:href="#linearGradient2645"
       y1="314.55432"
       y2="312.96539" />
    <linearGradient
       gradientTransform="matrix(1.200568,0,0,1.627564,-5.0134,-111.8085)"
       gradientUnits="userSpaceOnUse"
       id="linearGradient2757"
       spreadMethod="reflect"
       x1="397.94455"
       x2="421.63489"
       xlink:href="#linearGradient2645"
       y1="406.19302"
       y2="412.11569" />
    <linearGradient
       gradientTransform="matrix(0.8037,0,0,2.431256,-5.0134,-117.8085)"
       gradientUnits="userSpaceOnUse"
       id="linearGradient2765"
       x1="547.8728"
       x2="553.06183"
       xlink:href="#linearGradient2142"
       y1="136.16307"
       y2="187.17781" />
    <linearGradient
       gradientTransform="matrix(2.141012,0,0,0.907931,-0.826767,-117.8085)"
       gradientUnits="userSpaceOnUse"
       id="linearGradient2768"
       spreadMethod="pad"
       x1="283.96664"
       x2="304.58871"
       xlink:href="#linearGradient2142"
       y1="322.99158"
       y2="537.73578" />
    <linearGradient
       gradientTransform="matrix(2.170142,0,0,0.900402,-7.809112,-123.3999)"
       gradientUnits="userSpaceOnUse"
       id="linearGradient2771"
       x1="295.31308"
       x2="207.39342"
       xlink:href="#linearGradient2168"
       y1="826.63483"
       y2="693.72699" />
    <linearGradient
       gradientTransform="matrix(1.42993,0,0,1.366502,-5.0134,-117.8085)"
       gradientUnits="userSpaceOnUse"
       id="linearGradient2775"
       x1="702.12286"
       x2="277.36771"
       xlink:href="#linearGradient2168"
       y1="411.40411"
       y2="150.40488" />
    <linearGradient
       gradientTransform="matrix(1.398084,0,0,2.045634,-114.7966,-142.9039)"
       gradientUnits="userSpaceOnUse"
       id="linearGradient2778"
       x1="423.21365"
       x2="356.2851"
       xlink:href="#linearGradient2182"
       y1="116.83797"
       y2="117.17261" />
    <linearGradient
       gradientTransform="matrix(1.274213,0,0,1.533496,-5.0134,-117.8085)"
       gradientUnits="userSpaceOnUse"
       id="linearGradient2781"
       x1="435.98782"
       x2="441.1926"
       xlink:href="#linearGradient2168"
       y1="111.34908"
       y2="172.83257" />
    <linearGradient
       gradientTransform="scale(0.732933,1.364382)"
       gradientUnits="userSpaceOnUse"
       id="linearGradient2799"
       x1="322.9686"
       x2="535.81213"
       xlink:href="#linearGradient2793"
       y1="328.82394"
       y2="166.69693" />
    <linearGradient
       gradientTransform="scale(0.610229,1.63873)"
       gradientUnits="userSpaceOnUse"
       id="linearGradient2807"
       x1="760.59979"
       x2="54.555111"
       xlink:href="#linearGradient2801"
       y1="59.34037"
       y2="524.57349" />
    <linearGradient
       gradientTransform="scale(0.905855,1.10393)"
       gradientUnits="userSpaceOnUse"
       id="linearGradient2817"
       x1="392.88693"
       x2="777.47778"
       xlink:href="#linearGradient2645"
       y1="230.42949"
       y2="230.42949" />
    <linearGradient
       inkscape:collect="always"
       xlink:href="#linearGradient2168"
       id="linearGradient3152"
       gradientUnits="userSpaceOnUse"
       gradientTransform="matrix(0.895345,0,0,2.182401,-175.81184,-146.88932)"
       x1="440.70517"
       y1="155.82439"
       x2="475.83563"
       y2="180.4323" />
    <linearGradient
       inkscape:collect="always"
       xlink:href="#linearGradient2168"
       id="linearGradient3165"
       gradientUnits="userSpaceOnUse"
       gradientTransform="matrix(0.919511,0,0,2.125043,-175.81184,-146.88932)"
       x1="892.2536"
       y1="148.36475"
       x2="957.26489"
       y2="167.23521" />
    <linearGradient
       inkscape:collect="always"
       xlink:href="#linearGradient2142"
       id="linearGradient3184"
       gradientUnits="userSpaceOnUse"
       gradientTransform="matrix(0.8037,0,0,2.431256,-175.81184,-146.88932)"
       x1="547.8728"
       y1="136.16307"
       x2="553.06183"
       y2="187.17781" />
    <linearGradient
       inkscape:collect="always"
       xlink:href="#linearGradient2142"
       id="linearGradient3187"
       gradientUnits="userSpaceOnUse"
       gradientTransform="matrix(2.141012,0,0,0.907931,-171.62521,-146.88932)"
       spreadMethod="pad"
       x1="283.96664"
       y1="322.99158"
       x2="304.58871"
       y2="537.73578" />
    <linearGradient
       inkscape:collect="always"
       xlink:href="#linearGradient2182"
       id="linearGradient3197"
       gradientUnits="userSpaceOnUse"
       gradientTransform="matrix(1.398084,0,0,2.045634,-285.59504,-171.98472)"
       x1="423.21365"
       y1="116.83797"
       x2="356.2851"
       y2="117.17261" />
  </defs>
  <path
     d="m 613.42563,149.87382 c 0,0 13.3769,-1.91098 28.66479,7.64395 15.28789,9.55494 13.37691,38.21973 13.37691,38.21973 0,0 7.64394,21.02085 0,30.57578 -7.64395,9.55495 -19.10986,22.93186 -19.10986,22.93186"
     id="path2216"
     style="fill:none;stroke:#000000;stroke-width:10.20435047;stroke-linecap:butt;stroke-linejoin:miter;stroke-miterlimit:4;stroke-opacity:1"
     inkscape:connector-curvature="0" />
  <path
     d="m 84.967056,390.19802 c 3.82198,63.06255 1.91099,103.19328 1.91099,103.19328 0,0 0,24.84283 17.198874,32.48676 17.19889,7.64396 87.9054,84.08343 166.25584,126.12513 49.68564,11.46592 91.72737,5.73294 217.85247,-7.64395 133.76906,-21.02085 164.34484,-9.55493 175.81077,-30.57578 11.46592,-21.02086 5.73296,-107.01527 5.73296,-107.01527 L 289.44263,386.37604 84.967056,390.19802 z"
     id="path2236"
     style="fill:#000000;fill-opacity:1;fill-rule:evenodd;stroke:none"
     inkscape:connector-curvature="0" />
  <path
     d="M 86.165936,395.30402 218.08382,432.464 186.49786,38.568333 73.159936,176.06023 l 13.006,219.2438 z"
     id="path1358"
     style="fill:#eeeeec;fill-opacity:1;fill-rule:evenodd;stroke:#000000;stroke-width:2.79571199;stroke-linecap:butt;stroke-linejoin:miter;stroke-miterlimit:4;stroke-opacity:1"
     inkscape:connector-curvature="0" />
  <path
     d="M 186.49786,40.426321 532.08556,14.414346 286.82977,421.31602 218.08382,436.18 186.49786,40.426321 z"
     id="path1360"
     style="fill:#729fcf;fill-opacity:1;fill-rule:evenodd;stroke:#000000;stroke-width:2.79571199;stroke-linecap:butt;stroke-linejoin:miter;stroke-miterlimit:4;stroke-opacity:1"
     inkscape:connector-curvature="0" />
  <path
     d="M 223.89892,430.606 201.36917,19.988339 539.31542,1.4083582 c 0,0 14.90294,9.2899978 22.41285,24.1539878 7.50993,14.863975 13.08393,39.017963 13.08393,39.017963 L 240.79623,125.89426 281.7696,462.19199 223.89892,430.60601 z"
     id="path1366"
     style="fill:#cc0000;fill-opacity:1;fill-rule:evenodd;stroke:#000000;stroke-width:2.80969048;stroke-linecap:butt;stroke-linejoin:miter;stroke-miterlimit:4;stroke-opacity:1"
     inkscape:connector-curvature="0" />
  <path
     d="m 217.57992,112.88826 45.09587,-30.780972 c 0,0 -2.37347,-7.69527 -21.36121,-28.215895 C 222.32686,33.370727 212.833,30.805633 212.833,30.805633 c 0,0 -18.98773,-15.390478 -4.74695,5.130174 14.24081,20.520652 11.86735,14.134127 11.86735,26.95954 0,12.825411 4.74692,19.211941 -2.37348,29.472271 -7.12039,10.260332 0,20.520642 0,20.520642 z"
     id="path2180"
     style="fill:url(#linearGradient3197);fill-opacity:1;fill-rule:evenodd;stroke:none"
     inkscape:connector-curvature="0" />
  <path
     d="m 236.66382,434.322 52.02395,33.44398 c 0,0 3.71599,5.57399 16.72198,5.57399 13.00598,0 353.0197,-33.44397 353.0197,-33.44397 0,0 -1.85799,-144.92388 -9.28999,-156.07186 -3.04036,-9.1211 -7.93872,-20.43799 -10.30344,-20.77581 l 0.50671,-18.24216 c 0,0 -2.36471,-21.11362 -6.92526,-40.87598 C 623.12749,164.91223 597.2461,84.002778 580.39352,53.432323 405.88618,61.313519 281.25577,72.012308 264.53378,77.586298 c -16.72198,5.57399 -35.30196,22.29598 -35.30196,22.29598 0,0 -5.574,0 -9.28999,3.716002 -3.71601,3.71601 3.71599,161.64586 3.71599,161.64586 0,0 -3.71599,-5.57399 1.858,3.71601 5.57399,9.28999 9.29,63.17195 9.29,96.61592 0,33.44397 1.858,68.74593 1.858,68.74593 z"
     id="path1364"
     style="fill:#cc0000;fill-opacity:1;fill-rule:evenodd;stroke:#000000;stroke-width:2.79571199;stroke-linecap:butt;stroke-linejoin:round;stroke-miterlimit:4;stroke-opacity:1"
     inkscape:connector-curvature="0" />
  <path
     d="m 101.88286,485.88888 c -3.821964,11.46591 -40.130714,1.91098 -51.596624,9.55493 -11.46593,7.64396 -28.6648,21.02085 -26.75382,34.39776 1.91098,13.37691 82.172424,137.59104 116.570184,154.78992 34.39777,17.19887 59.24059,11.46591 189.18767,1.91098 129.9471,-9.55493 292.38094,-47.77466 311.49081,-66.88453 19.10987,-19.10986 26.75382,-32.48677 26.75382,-32.48677 L 396.1748,579.52723 140.1026,499.26579 101.88286,485.88888 z"
     id="path2242"
     style="fill:#000000;fill-opacity:0.21081082;fill-rule:evenodd;stroke:none"
     inkscape:connector-curvature="0" />
  <path
     d="m 243.15809,439.87856 46.44996,22.296 c 0,0 -9.28999,1.85798 13.00599,3.71598 22.29598,1.858 340.01371,-35.30197 340.01371,-35.30197 0,0 16.72199,3.71601 16.72199,-7.432 0,-11.14799 -3.71601,-14.86398 -3.71601,-14.86398 0,0 11.148,5.574 13.00601,18.57998 1.85798,13.00599 5.57399,104.04792 3.71599,111.47992 -1.85801,7.43198 -3.71599,11.14798 -13.00599,13.00599 -9.29,1.85798 -312.14373,40.87597 -312.14373,40.87597 0,0 -9.29,1.85799 -35.30198,-1.858 -26.01197,-3.71601 -33.44397,-14.86399 -33.44397,-14.86399 0,0 3.71599,-42.73397 -3.716,-65.02994 -7.43198,-22.29599 -3.71599,-52.02397 -26.01198,-59.45596 -22.29597,-7.432 -22.29597,1.858 -22.29597,1.858 l 0,-22.29598 16.72198,9.28999 z"
     id="path1362"
     style="fill:#cc0000;fill-opacity:1;fill-rule:evenodd;stroke:#000000;stroke-width:1.397856px;stroke-linecap:butt;stroke-linejoin:miter;stroke-opacity:1"
     inkscape:connector-curvature="0" />
  <path
     d="m 277.53237,176.06021 9.24192,111.47991 c 9.24193,5.57399 62.8451,-1.85798 160.80952,-9.28998 173.74819,-13.006 182.9901,-18.58 182.9901,-18.58 0,0 5.54517,-16.72197 -5.54516,-52.02395 -11.09029,-35.30196 -18.48383,-65.02995 -25.87739,-68.74594 -11.09029,1.858 -64.69346,1.858 -147.8708,7.43199 -107.20633,14.86399 -175.52019,8.35332 -173.74819,29.72797 z"
     id="path1368"
     style="fill:url(#linearGradient3187);fill-opacity:1;fill-rule:evenodd;stroke:#000000;stroke-width:2.78847003;stroke-linecap:butt;stroke-linejoin:miter;stroke-miterlimit:4;stroke-opacity:1"
     inkscape:connector-curvature="0" />
  <path
     d="m 255.2438,177.91821 -16.72199,13.00599 3.716,76.17795 c 0,0 7.432,3.716 16.72198,11.14799 9.29,7.43198 14.86399,9.28998 14.86399,9.28998 0,0 -1.858,-39.01796 -5.57399,-70.60392 -3.71601,-31.586 -13.00599,-39.01799 -13.00599,-39.01799 z"
     id="path1370"
     style="fill:url(#linearGradient3184);fill-opacity:1;fill-rule:evenodd;stroke:#000000;stroke-width:2.79571199;stroke-linecap:butt;stroke-linejoin:miter;stroke-miterlimit:4;stroke-opacity:1"
     inkscape:connector-curvature="0" />
  <path
     d="m 276.06419,284.34801 c 0,0 -38.05622,-12.01774 -40.05918,-38.05622 -2.00296,-26.03848 4.00592,-42.06216 6.00888,-52.07693 2.00294,-10.01481 4.0059,-10.01481 24.0355,-12.01777 20.02959,-2.00296 -8.01184,0 -8.01184,0"
     id="path2643"
     style="fill:none;stroke:#000000;stroke-width:12.02156258;stroke-linecap:round;stroke-linejoin:miter;stroke-miterlimit:4;stroke-opacity:1"
     inkscape:connector-curvature="0" />
  <path
     d="m 335.13773,382.29805 c 0,0 0,22.29597 1.858,35.30196 1.85799,13.00599 1.85799,14.86399 1.85799,14.86399 0,0 89.18392,-1.858 167.21986,-11.14798 78.03593,-9.28999 115.1959,-18.58 115.1959,-18.58 0,0 1.85801,-16.72197 0,-31.58596 -1.858,-14.86399 -5.57399,-16.72199 -5.57399,-16.72199 0,0 -48.30796,11.148 -118.9119,16.72199 -70.60393,5.57398 -161.64586,11.14799 -161.64586,11.14799 z"
     id="path1372"
     style="fill:#888a85;fill-opacity:0.98918918000000000;fill-rule:evenodd;stroke:#ffffff;stroke-width:4.33335352000000020;stroke-linecap:butt;stroke-linejoin:miter;stroke-miterlimit:4;stroke-opacity:0.81081082000000004"
     inkscape:connector-curvature="0" />
  <path
     d="m 363.0077,486.0458 1.85801,18.98396 c 0,0 48.30796,0 120.76989,-6.32798 72.46193,-6.328 126.34389,-17.40198 126.34389,-17.40198 l 1.96399,-18.89373 c 0,0 -74.42593,4.65576 -120.87588,7.81975 -46.44996,3.16402 -130.0599,15.81998 -130.0599,15.81998 z"
     id="path1374"
     style="fill:#2e3436;fill-opacity:0.5243243;fill-rule:evenodd;stroke:#000000;stroke-width:1.28986001px;stroke-linecap:butt;stroke-linejoin:miter;stroke-opacity:1"
     inkscape:connector-curvature="0" />
  <path
     d="m 115.89243,485.91709 c -23.904894,-2.16263 -36.065484,6.99105 -61.962464,9.15365 -25.89696,2.1626 3.98416,34.60172 9.96038,49.73999 19.92075,17.30086 107.572004,131.91904 157.373864,140.56945 49.80185,8.65045 129.4848,15.13828 185.26288,4.32522 55.77807,-10.81303 239.0489,-30.27651 247.0172,-49.73997 7.96828,-19.46348 -0.26752,-49.63799 -0.26752,-49.63799 L 213.2959,601.03851 115.89243,485.91709 z"
     id="path2240"
     style="fill:#000000;fill-opacity:0.21081082;fill-rule:evenodd;stroke:none"
     inkscape:connector-curvature="0" />
  <path
     d="m 376.01369,528.19244 1.858,23.2786 c 0,0 55.73995,1.66276 118.9119,-4.98826 63.17195,-6.65105 109.6219,-19.95308 109.6219,-19.95308 l -3.71599,-21.61585 c 0,0 -52.02396,-3.32551 -115.1959,3.32551 -63.17195,6.65102 -111.47991,19.95308 -111.47991,19.95308 z"
     id="path1376"
     style="fill:#2e3436;fill-opacity:0.59459462;fill-rule:evenodd;stroke:#000000;stroke-width:1.32237363px;stroke-linecap:butt;stroke-linejoin:miter;stroke-opacity:1"
     inkscape:connector-curvature="0" />
  <path
     d="m 303.55176,497.91994 3.71599,53.88197 50.16596,5.57399 c 0,0 -5.57399,-20.43799 -13.00599,-42.73396 -7.43199,-22.29598 -7.43199,-31.58599 -16.72199,-31.58599 -9.29,0 -11.14798,0 -18.57998,5.57401 -7.43199,5.57399 -5.57399,9.28998 -5.57399,9.28998 z"
     id="path1378"
     style="fill:#729fcf;fill-opacity:1;fill-rule:evenodd;stroke:#000000;stroke-width:2.79571199;stroke-linecap:butt;stroke-linejoin:miter;stroke-miterlimit:4;stroke-opacity:1"
     inkscape:connector-curvature="0" />
  <path
     d="m 626.84348,523.93192 37.15997,-7.43199 c 0,0 0,-29.72797 -3.716,-50.16595 -3.71599,-20.43799 -3.71599,-20.43799 -9.28999,-20.43799 -5.574,0 -13.006,-1.858 -16.72199,11.14799 -3.71599,13.00599 -7.43199,66.88794 -7.43199,66.88794 z"
     id="path1380"
     style="fill:#729fcf;fill-opacity:1;fill-rule:evenodd;stroke:#000000;stroke-width:2.79571199;stroke-linecap:butt;stroke-linejoin:miter;stroke-miterlimit:4;stroke-opacity:1"
     inkscape:connector-curvature="0" />
  <path
     d="M 593.39951,98.024278 578.53552,57.148314 433.61164,68.296299 c 0,0 104.04791,-1.857988 117.0539,-1.857988 13.00599,0 20.43798,1.857988 27.86998,11.147987 7.43199,9.29 14.86399,20.43798 14.86399,20.43798 z"
     id="path2190"
     style="fill:#000000;fill-opacity:0.34054051;fill-rule:evenodd;stroke:none"
     inkscape:connector-curvature="0" />
  <path
     d="m 277.53977,294.97211 c 0,0 11.148,20.43799 11.148,50.16597 0,29.72796 9.28998,81.75194 7.43199,94.75791 -1.858,13.00599 -1.858,26.01198 -1.858,26.01198 0,0 13.00599,-16.72199 11.14799,-55.73996 -1.85799,-39.01796 -3.71599,-83.60993 -11.14799,-96.61592 -7.43199,-13.00598 -16.72199,-18.57998 -16.72199,-18.57998 z"
     id="path2192"
     style="fill:#000000;fill-opacity:0.12972969;fill-rule:evenodd;stroke:none"
     inkscape:connector-curvature="0" />
  <path
     d="m 225.9746,111.41859 25.97535,-21.147892 c 0,0 7.22145,-2.55681 12.77015,-3.08725 5.54871,-0.53045 7.67047,21.664342 7.23542,36.637702 -0.43506,14.97334 -0.33967,35.49538 -0.33967,35.49538 0,0 -2.13573,-61.389322 -11.56038,-62.354822 -9.42464,-0.96548 -34.08087,14.456882 -34.08087,14.456882 z"
     id="path2210"
     style="fill:#000002;fill-opacity:0.21081082;fill-rule:evenodd;stroke:none"
     inkscape:connector-curvature="0" />
  <path
     d="m 275.68178,468.04998 c 0,0 3.71599,7.43199 20.43798,7.43199 16.72198,0 44.59196,-3.71599 44.59196,-3.71599 0,0 -35.30197,7.432 -39.01796,11.14799 -3.71601,3.71599 -3.71601,57.59795 -3.71601,74.31993 0,16.72199 0,27.86998 0,27.86998 0,0 -3.71599,-89.18393 -7.43198,-100.33191 -3.716,-11.148 -14.86399,-16.72199 -14.86399,-16.72199 z"
     id="path2212"
     style="fill:#000002;fill-opacity:0.21081082;fill-rule:evenodd;stroke:none"
     inkscape:connector-curvature="0" />
  <path
     d="m 349.70947,365.81531 c 0,0 179.63274,-3.82196 227.4074,-13.37689 47.77467,-9.55494 59.2406,-13.37691 63.06256,-22.93185 3.82197,-9.55493 -1.91098,-51.59664 -11.46591,-55.41861 -9.55494,-3.82198 3.82197,17.19888 1.91098,38.21972 -1.91098,21.02086 -5.73296,36.30876 -280.91503,53.50762 z"
     id="path2214"
     style="fill:#000000;fill-opacity:0.14594595;fill-rule:evenodd;stroke:none"
     inkscape:connector-curvature="0" />
  <path
     d="m 666.93325,224.4023 c 0,0 -15.28789,9.55495 -15.28789,-1.91099 0,-11.46592 -11.46593,-53.50762 -9.55494,-59.24058 1.91098,-5.73296 5.73296,-11.46592 17.19887,-5.73296 11.46593,5.73296 13.37691,26.75382 13.37691,38.21974 0,11.46591 0,24.84282 -5.73295,28.6648 z"
     id="path2218"
     style="fill:url(#linearGradient3165);fill-opacity:1;fill-rule:evenodd;stroke:#000000;stroke-width:2.93549752;stroke-linecap:butt;stroke-linejoin:miter;stroke-miterlimit:4;stroke-opacity:1"
     inkscape:connector-curvature="0" />
  <path
     d="m 137.58996,434.61084 3.82198,66.88452 26.7538,26.75382 -3.82197,-82.17243 -26.75381,-11.46591 z"
     id="path2230"
     style="fill:#ffffff;fill-opacity:0.45945943;fill-rule:evenodd;stroke:#000000;stroke-width:1.397856px;stroke-linecap:butt;stroke-linejoin:miter;stroke-opacity:1"
     inkscape:connector-curvature="0" />
  <path
     d="m 93.637276,404.91976 133.769064,43.9527"
     id="path2232"
     style="fill:none;stroke:#00002c;stroke-width:22.22591019;stroke-linecap:round;stroke-linejoin:miter;stroke-miterlimit:4;stroke-opacity:1"
     inkscape:connector-curvature="0" />
  <path
     d="m 84.082336,407.85701 c 0,0.637 0,1.274 0,0 z"
     id="path2234"
     style="fill:none;stroke:#000000;stroke-width:1.397856px;stroke-linecap:butt;stroke-linejoin:miter;stroke-opacity:1"
     inkscape:connector-curvature="0" />
  <path
     d="m 235.05027,562.64693 c 1.911,-57.3296 -5.73295,-61.15157 5.73297,-76.43946 11.46592,-15.28791 21.02085,-5.73296 21.02085,-5.73296 0,0 -5.73296,-15.2879 -15.28789,7.64394 -9.55493,22.93184 -11.46593,74.52848 -11.46593,74.52848 z"
     id="path2617"
     style="fill:#ffffff;fill-opacity:0.4756757;fill-rule:evenodd;stroke:none"
     inkscape:connector-curvature="0" />
  <path
     d="m 166.25476,474.74154 3.82198,51.59664 22.93184,-5.73296 c 0,0 -3.82198,3.82198 -19.10988,-13.37691 -3.82198,-19.10986 -7.64394,-32.48677 -7.64394,-32.48677 z"
     id="path2621"
     style="fill:#ffffff;fill-opacity:0.3243243;fill-rule:evenodd;stroke:#000000;stroke-width:1.397856px;stroke-linecap:butt;stroke-linejoin:miter;stroke-opacity:1"
     inkscape:connector-curvature="0" />
  <path
     d="m 92.611006,489.56933 c -22.93184,-1.91099 5.73296,9.55494 -19.10986,11.46592 -24.84284,1.91099 3.82197,30.57579 9.55493,43.9527 19.109864,15.28789 103.193264,116.57018 150.967944,124.21411 47.77467,7.64396 124.21412,13.37691 177.72175,3.82198 53.50762,-9.55493 229.31839,-26.75382 236.96234,-43.95269 7.64394,-17.19888 -141.41301,-28.6648 -141.41301,-28.6648 L 226.38007,594.67359 92.611006,489.56933 z"
     id="path2238"
     style="fill:#000000;fill-opacity:0.21081082;fill-rule:evenodd;stroke:none"
     inkscape:connector-curvature="0" />
  <path
     d="m 256.07113,531.32795 c 5.73296,19.10987 7.64394,28.6648 3.82198,34.39776 -3.82198,5.73295 -7.64395,-9.55494 -7.64395,-9.55494 0,0 -5.73296,19.10987 -1.91098,21.02086 3.82196,1.91099 13.37689,11.46592 13.37689,-11.46592 0,-22.93184 3.82198,1.91099 1.911,-15.28789 -1.911,-17.19889 -9.55494,-19.10987 -9.55494,-19.10987 z"
     id="path2623"
     style="fill:#ffffff;fill-opacity:0.3243243;fill-rule:evenodd;stroke:#000000;stroke-width:1.397856px;stroke-linecap:butt;stroke-linejoin:miter;stroke-opacity:1"
     inkscape:connector-curvature="0" />
  <path
     d="m 346.13276,658.14518 c 0,0 65.81151,-8.51258 67.7225,-27.62245 1.91098,-19.10986 -16.37113,-26.7538 29.49255,-19.10986 45.86369,7.64395 59.2406,-3.82199 82.17242,3.82196 22.93185,7.64396 80.987,15.64557 39.53801,19.33469 -78.50373,10.19875 -218.92548,23.57566 -218.92548,23.57566 z"
     id="path2625"
     style="fill:#808080;fill-opacity:0.45945943;fill-rule:evenodd;stroke:none"
     inkscape:connector-curvature="0" />
  <path
     d="m 108.60837,488.64986 c 4.00592,4.0059 8.01184,6.00887 4.00592,14.02071 -4.00592,8.01184 -2.00296,18.02664 4.00592,6.00887 6.00888,-12.01775 -8.01184,-20.02958 -8.01184,-20.02958 z"
     id="path2627"
     style="fill:#ffffff;fill-opacity:0.42162158;fill-rule:evenodd;stroke:none"
     inkscape:connector-curvature="0" />
  <path
     d="m 109.81858,530.37886 110.16275,90.13317 c 0,0 -14.02072,-22.03256 -46.06806,-54.07992 -32.04735,-32.04734 -64.09469,-36.05326 -64.09469,-36.05326 z"
     id="path2629"
     style="fill:#ffffff;fill-opacity:0.34054051;fill-rule:evenodd;stroke:none"
     inkscape:connector-curvature="0" />
  <rect
     height="78.11541"
     id="rect2633"
     rx="7.8279934"
     ry="24.462481"
     style="fill:url(#linearGradient3152);fill-opacity:1;fill-rule:nonzero;stroke:#000000;stroke-width:4.05378246;stroke-linecap:round;stroke-linejoin:round;stroke-miterlimit:4;stroke-opacity:1;stroke-dashoffset:0"
     width="32.047348"
     x="218.77112"
     y="182.19707" />
  <path
     d="M 404.87363,429.72611 C 566.33253,363.3857 566.33253,363.3857 566.33253,363.3857"
     id="path2663"
     style="fill:#2e3436;stroke:#ffffff;stroke-width:2.8499999;stroke-linecap:butt;stroke-linejoin:miter;stroke-miterlimit:4;stroke-opacity:0.79459456"
     inkscape:connector-curvature="0" />
  <rect
     height="14.019836"
     id="rect2665"
     style="fill:#d7dae0;fill-opacity:0.76216215;fill-rule:nonzero;stroke:#ffffff;stroke-width:1.76422298;stroke-linecap:round;stroke-linejoin:round;stroke-miterlimit:4;stroke-opacity:0.79459456;stroke-dashoffset:0"
     transform="matrix(0.99588768,-0.09059654,0.02822131,0.9996017,0,0)"
     width="17.265583"
     x="470.01468"
     y="433.54309" />
  <path
     d="m 263.20156,453.01365 c 0,0 16,10 26,12 10,2 36,0 36,0 l 330,-32 c 0,0 -84,22 -214,32 -130,10 -142,10 -154,6 -12,-4 -24,-18 -24,-18 z"
     id="path2728"
     style="fill:#ffffa4;fill-opacity:0.29729728;fill-rule:evenodd;stroke:none"
     inkscape:connector-curvature="0" />
  <path
     d="m 315.20156,347.01365 c 0,0 -12,-30 -8,-40 4,-10 302,-32 302,-32 0,0 -270,28 -286,38 -16,10 -8,34 -8,34 z"
     id="path2787"
     style="fill:#ffffff;fill-opacity:0.2756757;fill-rule:evenodd;stroke:none"
     inkscape:connector-curvature="0" />
  <path
     d="M 553.04771,50.831832 539.20156,5.0136502 c 0,0 6.92308,15.2727268 13.84615,28.3636358 6.92308,13.090909 16.15385,19.636364 16.15385,19.636364 l -16.15385,-2.181818 z"
     id="path2789"
     style="fill:#ffffff;fill-opacity:0.4162162;fill-rule:evenodd;stroke:none"
     inkscape:connector-curvature="0" />
</svg>
