<?xml version="1.0" encoding="utf-8"?>
<!-- Generator: Adobe Illustrator 19.1.0, SVG Export Plug-In . SVG Version: 6.00 Build 0)  -->
<svg version="1.1" id="Layer_1" xmlns="http://www.w3.org/2000/svg" xmlns:xlink="http://www.w3.org/1999/xlink" x="0px" y="0px"
	 viewBox="0 0 288 288" style="enable-background:new 0 0 288 288;" xml:space="preserve">
<style type="text/css">
	.st0{fill:url(#SVGID_1_);}
	.st1{fill:#595A5C;}
	.st2{fill:url(#SVGID_2_);}
	.st3{fill:url(#SVGID_3_);}
	.st4{fill:url(#SVGID_4_);}
	.st5{fill:url(#SVGID_5_);}
	.st6{fill:url(#SVGID_6_);}
	.st7{fill:url(#SVGID_7_);}
	.st8{fill:url(#SVGID_8_);}
	.st9{fill:#FFFFFF;}
	.st10{fill:url(#SVGID_9_);}
	.st11{fill:url(#SVGID_10_);}
	.st12{fill:url(#SVGID_11_);}
	.st13{fill:url(#SVGID_12_);}
	.st14{fill:url(#SVGID_13_);}
	.st15{fill:url(#SVGID_14_);}
	.st16{fill:url(#SVGID_15_);}
	.st17{fill:url(#SVGID_16_);}
	.st18{fill:url(#SVGID_17_);}
	.st19{fill:url(#SVGID_18_);}
	.st20{fill:url(#SVGID_19_);}
	.st21{fill:url(#SVGID_20_);}
	.st22{fill:url(#SVGID_21_);}
	.st23{fill:url(#SVGID_22_);}
	.st24{fill:url(#SVGID_23_);}
	.st25{fill:url(#SVGID_24_);}
	.st26{fill:url(#SVGID_25_);}
	.st27{fill:#BCBEC0;}
	.st28{fill:url(#SVGID_26_);}
	.st29{fill:url(#SVGID_27_);}
	.st30{fill:url(#SVGID_28_);}
	.st31{fill:url(#SVGID_29_);}
	.st32{fill:url(#SVGID_30_);}
	.st33{fill:url(#SVGID_31_);}
	.st34{fill:url(#SVGID_32_);}
	.st35{fill:url(#SVGID_33_);}
	.st36{fill:url(#SVGID_34_);}
	.st37{fill:url(#SVGID_35_);}
	.st38{fill:url(#SVGID_36_);}
	.st39{fill:url(#SVGID_37_);}
	.st40{fill:url(#SVGID_38_);}
	.st41{fill:url(#SVGID_39_);}
	.st42{fill:url(#SVGID_40_);}
	.st43{fill:url(#SVGID_41_);}
	.st44{fill:url(#SVGID_42_);}
	.st45{fill:url(#SVGID_43_);}
	.st46{fill:url(#SVGID_44_);}
	.st47{fill:url(#SVGID_45_);}
	.st48{fill:url(#SVGID_46_);}
	.st49{fill:url(#SVGID_47_);}
	.st50{fill:url(#SVGID_48_);}
	.st51{fill:url(#SVGID_49_);}
	.st52{fill:url(#SVGID_50_);}
	.st53{fill:url(#SVGID_51_);}
	.st54{fill:url(#SVGID_52_);}
	.st55{fill:url(#SVGID_53_);}
	.st56{fill:url(#SVGID_54_);}
	.st57{fill:#9FBEE4;}
	.st58{fill:url(#SVGID_55_);}
	.st59{fill:url(#SVGID_56_);}
	.st60{fill:url(#SVGID_57_);}
	.st61{fill:url(#SVGID_58_);}
	.st62{fill:url(#SVGID_59_);}
	.st63{fill:url(#SVGID_60_);}
	.st64{fill:url(#SVGID_61_);}
	.st65{fill:url(#SVGID_62_);}
	.st66{fill:url(#SVGID_63_);}
	.st67{fill:url(#SVGID_64_);}
	.st68{fill:#A7A9AC;}
	.st69{fill:#58595B;}
	.st70{fill:#F1F2F2;}
	.st71{fill:#702FB7;}
	.st72{fill:#939598;}
	.st73{fill:#010101;}
	.st74{fill:url(#SVGID_65_);}
	.st75{fill:url(#SVGID_66_);}
	.st76{opacity:0.39;fill:url(#SVGID_67_);}
	.st77{fill:url(#SVGID_68_);}
	.st78{fill:url(#SVGID_69_);}
	.st79{fill:url(#SVGID_70_);}
	.st80{opacity:0.39;fill:url(#SVGID_71_);}
	.st81{fill:url(#SVGID_72_);}
	.st82{fill:url(#SVGID_73_);}
	.st83{opacity:0.5;fill:url(#SVGID_74_);}
	.st84{fill:url(#SVGID_75_);}
	.st85{fill:url(#SVGID_76_);}
	.st86{opacity:0.5;fill:url(#SVGID_77_);}
	.st87{fill:url(#SVGID_78_);}
	.st88{fill:url(#SVGID_79_);}
	.st89{opacity:0.5;fill:url(#SVGID_80_);}
	.st90{fill:url(#SVGID_81_);}
	.st91{fill:url(#SVGID_82_);}
	.st92{fill:url(#SVGID_83_);}
	.st93{fill:url(#SVGID_84_);}
	.st94{fill:url(#XMLID_10_);}
	.st95{fill:url(#SVGID_85_);}
	.st96{fill:url(#SVGID_86_);}
	.st97{fill:url(#SVGID_87_);}
	.st98{fill:url(#SVGID_88_);}
	.st99{fill:url(#SVGID_89_);}
	.st100{fill:url(#SVGID_90_);}
	.st101{fill:url(#SVGID_91_);}
	.st102{fill:url(#SVGID_92_);}
	.st103{fill:url(#SVGID_93_);}
	.st104{fill:url(#SVGID_94_);}
</style>
<g>
	<linearGradient id="SVGID_1_" gradientUnits="userSpaceOnUse" x1="145.0703" y1="30.0268" x2="145.0703" y2="239.0268">
		<stop  offset="0" style="stop-color:#A7A9AC"/>
		<stop  offset="1" style="stop-color:#595A5C"/>
	</linearGradient>
	<circle class="st0" cx="145.1" cy="134.5" r="104.5"/>
	<path class="st1" d="M145.1,242c-59.3,0-107.5-48.2-107.5-107.5S85.8,27,145.1,27s107.5,48.2,107.5,107.5S204.3,242,145.1,242z
		 M145.1,33c-56,0-101.5,45.5-101.5,101.5S89.1,236,145.1,236s101.5-45.5,101.5-101.5S201,33,145.1,33z"/>
</g>
<linearGradient id="SVGID_2_" gradientUnits="userSpaceOnUse" x1="145.0702" y1="39.0268" x2="145.0702" y2="230.0268">
	<stop  offset="0" style="stop-color:#FFFFFF;stop-opacity:0.75"/>
	<stop  offset="1" style="stop-color:#FFFFFF;stop-opacity:0"/>
</linearGradient>
<circle class="st2" cx="145.1" cy="134.5" r="95.5"/>
<g>
	<path class="st9" d="M104.8,193.3c-1.1,0-2.1-0.1-3.2-0.2c-2.4-0.2-4.7-0.9-6.9-1.6c-1-0.3-2-0.6-2.9-0.9l-1.2-0.3l-2.4-1l2.8-2.7
		c0.2-0.2,0.5-0.4,0.7-0.6c0.5-0.5,1.1-0.9,1.7-1.4c1.4-1,2.8-1.9,4.1-2.9c3-2.1,6.1-4.3,9.1-6.5c0.5-0.4,1-1.5,1-2
		c-0.2-2.8-0.6-5.6-0.9-8.4c-0.1-0.8-0.2-1.6-0.3-2.4c-0.7-0.4-1.4-0.7-2.1-1c-2.5-1.2-5.1-2.5-7.7-3.5c0,0-0.1-0.1-0.4-0.1
		c-0.6,0-1.5,0.2-2,0.6c-3.1,2-6.1,4.2-9.1,6.3c-1.3,0.9-2.5,1.8-3.8,2.7c-0.5,0.4-1.1,0.7-1.8,1.2c-0.4,0.2-0.7,0.5-1.2,0.7
		l-1.9,1.2l-0.7-2.1c-1.3-3.9-0.9-7.5-0.4-10.5c2.7-14.1,15.1-24.4,29.5-24.4c4.3,0,8.5,0.9,12.5,2.8c0.6,0.3,1.1,0.4,1.5,0.4
		c0.3,0,0.7-0.1,1.5-0.6c10.1-7.4,20.9-15.2,34-24.6c1.1-0.8,1.3-1.2,1.2-2.5c-1-8.8,1.6-17.2,7.3-23.6c5.6-6.4,13.8-9.9,22.2-9.9
		c3.4,0,6.8,0.6,10.1,1.7c0.8,0.3,1.5,0.6,2.4,1.1c0.4,0.2,0.9,0.5,1.4,0.7l2.5,1.2l-2.2,1.7c-0.8,0.6-1.6,1.2-2.4,1.8
		c-1.5,1.2-3,2.4-4.5,3.5c-1.1,0.8-2.1,1.6-3.2,2.3c-1.9,1.4-3.8,2.8-5.6,4.2c-0.6,0.5-1.1,1.5-1.1,1.9c0.2,2.8,0.5,5.7,0.9,8.5
		c0.1,0.8,0.2,1.5,0.3,2.4c0.7,0.4,1.5,0.7,2.2,1.1c2.8,1.3,5.6,2.7,8.4,3.9c0.4,0,1-0.2,1.5-0.6c3-2.1,5.9-4.4,8.9-6.5
		c1.4-1,2.6-2,4-3c0.9-0.6,1.9-1.3,3.6-2.6c0.5-0.4,2.5-1.5,2.5-1.5l0.2,3.9c0,0.9,0,1.9,0,2.9c0.1,2.2,0.1,4.4-0.4,6.6
		c-2.5,14.3-14.9,24.6-29.4,24.6c-3.9,0-7.8-0.8-11.5-2.4c-1-0.4-1.8-0.6-2.5-0.6c-0.9,0-1.8,0.4-3,1.2
		c-11.2,8.3-22.5,16.4-32.1,23.3c-1.4,1-1.8,1.8-1.6,3.5c0.8,8.8-1.9,17.1-7.6,23.3C121.4,189.9,113.5,193.3,104.8,193.3z"/>
	<linearGradient id="SVGID_3_" gradientUnits="userSpaceOnUse" x1="145.0703" y1="75.483" x2="145.0703" y2="193.3482">
		<stop  offset="0" style="stop-color:#FFFFFF;stop-opacity:0.75"/>
		<stop  offset="1" style="stop-color:#FFFFFF;stop-opacity:0"/>
	</linearGradient>
	<path class="st3" d="M104.8,193.3c-1.1,0-2.1-0.1-3.2-0.2c-2.4-0.2-4.7-0.9-6.9-1.6c-1-0.3-2-0.6-2.9-0.9l-1.2-0.3l-2.4-1l2.8-2.7
		c0.2-0.2,0.5-0.4,0.7-0.6c0.5-0.5,1.1-0.9,1.7-1.4c1.4-1,2.8-1.9,4.1-2.9c3-2.1,6.1-4.3,9.1-6.5c0.5-0.4,1-1.5,1-2
		c-0.2-2.8-0.6-5.6-0.9-8.4c-0.1-0.8-0.2-1.6-0.3-2.4c-0.7-0.4-1.4-0.7-2.1-1c-2.5-1.2-5.1-2.5-7.7-3.5c0,0-0.1-0.1-0.4-0.1
		c-0.6,0-1.5,0.2-2,0.6c-3.1,2-6.1,4.2-9.1,6.3c-1.3,0.9-2.5,1.8-3.8,2.7c-0.5,0.4-1.1,0.7-1.8,1.2c-0.4,0.2-0.7,0.5-1.2,0.7
		l-1.9,1.2l-0.7-2.1c-1.3-3.9-0.9-7.5-0.4-10.5c2.7-14.1,15.1-24.4,29.5-24.4c4.3,0,8.5,0.9,12.5,2.8c0.6,0.3,1.1,0.4,1.5,0.4
		c0.3,0,0.7-0.1,1.5-0.6c10.1-7.4,20.9-15.2,34-24.6c1.1-0.8,1.3-1.2,1.2-2.5c-1-8.8,1.6-17.2,7.3-23.6c5.6-6.4,13.8-9.9,22.2-9.9
		c3.4,0,6.8,0.6,10.1,1.7c0.8,0.3,1.5,0.6,2.4,1.1c0.4,0.2,0.9,0.5,1.4,0.7l2.5,1.2l-2.2,1.7c-0.8,0.6-1.6,1.2-2.4,1.8
		c-1.5,1.2-3,2.4-4.5,3.5c-1.1,0.8-2.1,1.6-3.2,2.3c-1.9,1.4-3.8,2.8-5.6,4.2c-0.6,0.5-1.1,1.5-1.1,1.9c0.2,2.8,0.5,5.7,0.9,8.5
		c0.1,0.8,0.2,1.5,0.3,2.4c0.7,0.4,1.5,0.7,2.2,1.1c2.8,1.3,5.6,2.7,8.4,3.9c0.4,0,1-0.2,1.5-0.6c3-2.1,5.9-4.4,8.9-6.5
		c1.4-1,2.6-2,4-3c0.9-0.6,1.9-1.3,3.6-2.6c0.5-0.4,2.5-1.5,2.5-1.5l0.2,3.9c0,0.9,0,1.9,0,2.9c0.1,2.2,0.1,4.4-0.4,6.6
		c-2.5,14.3-14.9,24.6-29.4,24.6c-3.9,0-7.8-0.8-11.5-2.4c-1-0.4-1.8-0.6-2.5-0.6c-0.9,0-1.8,0.4-3,1.2
		c-11.2,8.3-22.5,16.4-32.1,23.3c-1.4,1-1.8,1.8-1.6,3.5c0.8,8.8-1.9,17.1-7.6,23.3C121.4,189.9,113.5,193.3,104.8,193.3z"/>
	<g>
		<path class="st1" d="M104.8,196.3c-1.2,0-2.3-0.1-3.5-0.2c-2.8-0.3-5.4-1.1-7.5-1.8c-0.3-0.1-0.7-0.2-1.1-0.3
			c-0.6-0.2-1.1-0.4-1.7-0.5l-1.2-0.3c-0.1,0-0.3-0.1-0.4-0.1l-2.4-1c-0.9-0.4-1.6-1.2-1.8-2.2s0.1-2,0.9-2.7l2.8-2.7
			c0.1-0.1,0.2-0.2,0.3-0.2c0.1,0,0.1-0.1,0.2-0.2c0.1-0.1,0.3-0.2,0.4-0.3c0.5-0.5,1.1-1,1.7-1.4c0,0,0.1,0,0.1-0.1
			c1-0.7,2-1.4,3-2.1l2.4-1.7c2.5-1.8,5.1-3.6,7.5-5.4c0,0,0,0,0,0c-0.1-2.1-0.4-4.2-0.7-6.3l-0.2-1.5c0-0.2-0.1-0.5-0.1-0.8
			c-0.2-0.1-0.3-0.1-0.5-0.2c-0.1,0-0.1,0-0.2-0.1c-2.2-1.1-4.6-2.2-7-3.2c-0.1,0-0.1,0-0.1,0.1c-3.1,2-6.2,4.3-8.9,6.2
			c-0.7,0.5-1.3,0.9-1.9,1.4c-0.6,0.5-1.3,0.9-1.9,1.3c-0.4,0.3-0.8,0.6-1.2,0.8c-0.2,0.1-0.4,0.3-0.6,0.4c-0.4,0.2-0.8,0.5-1.4,0.8
			l-1.8,1.1c-0.8,0.5-1.7,0.6-2.6,0.3c-0.9-0.3-1.5-1-1.8-1.9l-0.7-2.1c-1.5-4.5-1.1-8.6-0.5-12c3-15.6,16.6-26.9,32.4-26.9
			c4.7,0,9.4,1,13.8,3c0,0,0,0,0.1,0c10-7.3,20.8-15.1,33.9-24.6c-1-9.5,1.8-18.7,8.1-25.7c6.2-7,15.1-10.9,24.5-10.9
			c3.7,0,7.4,0.6,11,1.9c1,0.4,1.8,0.8,2.9,1.3c0.4,0.2,0.8,0.4,1.2,0.6c0,0,0.1,0,0.1,0.1l2.5,1.2c0.9,0.5,1.5,1.4,1.6,2.4
			c0.1,1-0.3,2-1.1,2.7l-2.2,1.7c-0.8,0.6-1.5,1.2-2.2,1.7l-0.1,0.1c-1.5,1.2-3,2.3-4.4,3.4c0,0-0.1,0.1-0.1,0.1
			c-0.3,0.2-0.7,0.5-1,0.8c-0.7,0.5-1.4,1.1-2.2,1.6c-1.8,1.3-3.6,2.6-5.4,4c0.2,2.6,0.5,5.2,0.8,7.8c0,0.2,0.1,0.5,0.1,0.7
			c0.2,0.1,0.5,0.2,0.7,0.4c0.7,0.3,1.5,0.7,2.2,1.1c1.6,0.8,3.2,1.5,4.9,2.3c2.1-1.5,4.1-3,6.2-4.5c0.8-0.6,1.6-1.2,2.4-1.8
			c0.7-0.5,1.3-1,2-1.5c0.7-0.5,1.3-1,2-1.5c0.3-0.2,0.7-0.5,1-0.7c0.7-0.5,1.5-1,2.6-1.9c0.5-0.4,1.9-1.2,2.9-1.7
			c0.9-0.5,2-0.5,2.9,0c0.9,0.5,1.5,1.4,1.5,2.5l0.2,3.9c0,0,0,0.1,0,0.1v2.9c0.1,2.1,0.1,4.6-0.4,7.2
			c-2.8,15.7-16.4,27.1-32.4,27.1c-4.4,0-8.7-0.9-12.7-2.6c-0.6-0.2-1-0.3-1.3-0.3c-0.2,0-0.6,0.2-1.2,0.6
			c-10.2,7.6-20.5,14.9-29.5,21.4l-2.6,1.9c-0.2,0.1-0.3,0.2-0.4,0.3c0,0.1,0,0.3,0,0.5c0.8,9.7-2.1,18.8-8.4,25.7
			C123,192.6,114.4,196.3,104.8,196.3z M93.9,188.1c0.2,0.1,0.4,0.1,0.6,0.2c0.4,0.1,0.7,0.2,1.1,0.3c2.4,0.8,4.4,1.3,6.4,1.5
			c1,0.1,1.9,0.2,2.9,0.2c7.8,0,14.9-3,20-8.6c5.1-5.6,7.6-13.1,6.9-21.1c-0.3-2.8,0.5-4.6,2.8-6.2l2.6-1.9
			c9-6.5,19.3-13.8,29.5-21.4c1.1-0.8,2.7-1.8,4.8-1.8c1.1,0,2.3,0.3,3.6,0.8c3.3,1.4,6.8,2.1,10.4,2.1c13.1,0,24.2-9.3,26.5-22.2
			c0.4-2.1,0.4-4.2,0.3-6l0-1.4c-0.2,0.1-0.4,0.3-0.6,0.4c-0.3,0.2-0.6,0.4-0.9,0.7c-0.7,0.5-1.3,1-2,1.5c-0.7,0.5-1.3,1-2,1.5
			c-0.8,0.6-1.6,1.2-2.4,1.8c-2.1,1.6-4.4,3.2-6.6,4.8c-0.9,0.7-2.8,1.5-4.4,0.9c-2.1-0.9-4.2-1.9-6.3-2.9c-0.8-0.4-1.5-0.7-2.3-1.1
			c-0.4-0.2-0.8-0.4-1.1-0.5c-0.4-0.2-0.8-0.4-1.1-0.6c-0.9-0.4-1.5-1.3-1.6-2.3c-0.1-0.4-0.1-0.8-0.2-1.2c0-0.4-0.1-0.7-0.1-1.1
			c-0.4-2.8-0.7-5.8-0.9-8.7c-0.1-1.7,0.9-3.5,2.1-4.5c1.9-1.6,3.9-3,5.8-4.3c0,0,0.1,0,0.1-0.1c0.7-0.4,1.3-0.9,2-1.4
			c0.4-0.3,0.7-0.5,1.1-0.8c1.4-1.1,2.9-2.2,4.3-3.4l0.2-0.1c0.2-0.2,0.4-0.3,0.6-0.5c-0.6-0.3-1.2-0.6-1.7-0.8c-3-1-6-1.5-9-1.5
			c-7.7,0-14.9,3.3-20,8.9c-5.1,5.8-7.5,13.3-6.6,21.3c0.2,2.4-0.5,3.9-2.5,5.3c-13.1,9.5-23.9,17.3-33.9,24.6
			c-1.9,1.5-3.7,1.6-6,0.5c-3.6-1.7-7.4-2.5-11.3-2.5c-12.9,0-24.1,9.2-26.5,22c-0.4,2.3-0.7,4.8-0.2,7.4c0.1-0.1,0.3-0.2,0.4-0.3
			c0.3-0.2,0.6-0.4,0.8-0.6c0.1,0,0.1-0.1,0.2-0.1c0.6-0.4,1.2-0.9,1.8-1.3c0.7-0.5,1.3-0.9,2-1.4c2.7-1.9,5.9-4.2,9.1-6.3
			c1-0.7,2.4-1.1,3.6-1.1c0.6,0,1.1,0.1,1.5,0.3c2.7,1.1,5.5,2.4,7.8,3.5c0.8,0.3,1.5,0.7,2.2,1.1c0.9,0.5,1.6,1.4,1.6,2.5
			c0.1,0.7,0.2,1.5,0.3,2.1l0.2,1.5c0.3,2.3,0.6,4.7,0.8,7.1c0,0.1,0,0.1,0,0.2c0,1.5-1,3.5-2.2,4.4c-2.6,2-5.3,3.9-7.9,5.7
			l-2.5,1.7c-0.9,0.6-1.9,1.3-2.8,2C94.8,187.4,94.4,187.8,93.9,188.1z"/>
	</g>
	<g>
		<path class="st1" d="M104.8,195.8c-1.1,0-2.3-0.1-3.5-0.2c-2.7-0.3-5.3-1.1-7.4-1.7c-0.3-0.1-0.7-0.2-1.1-0.3
			c-0.6-0.2-1.1-0.4-1.7-0.5l-1.5-0.4l-5.9-2.4l5.8-5.6c0.1-0.1,0.1-0.1,0.2-0.2c0.1-0.1,0.3-0.2,0.4-0.3c0.5-0.5,1.1-1,1.7-1.4
			c1.1-0.8,2.1-1.5,3.1-2.2l2.5-1.7c2.5-1.8,5.1-3.6,7.6-5.5c0-0.1,0.1-0.2,0.1-0.3c-0.1-2.1-0.4-4.3-0.7-6.5l-0.2-1.5
			c0-0.3-0.1-0.7-0.1-1c-0.3-0.1-0.5-0.2-0.7-0.3l-0.1-0.1c-2.3-1.1-4.7-2.3-7.2-3.2c-0.2,0-0.3,0.1-0.4,0.1c-3.1,2.1-6.3,4.3-9,6.2
			c-0.7,0.5-1.3,0.9-1.9,1.4c-0.6,0.5-1.3,0.9-1.9,1.3c-0.4,0.3-0.8,0.6-1.2,0.8c-0.2,0.1-0.4,0.3-0.6,0.4c-0.3,0.2-0.8,0.5-1.3,0.8
			l-4.5,2.8l-1.7-5.1c-1.5-4.4-1-8.4-0.4-11.7c2.9-15.3,16.4-26.5,31.9-26.5c4.6,0,9.2,1,13.6,3c0.1,0.1,0.3,0.1,0.3,0.1
			c0,0,0.1,0,0.1-0.1c10-7.4,20.9-15.2,34.1-24.7c0.1,0,0.1-0.1,0.2-0.1c0,0,0-0.1,0-0.1c-1.1-9.5,1.7-18.5,7.9-25.5
			C167.2,76.9,176,73,185.2,73c3.6,0,7.3,0.6,10.9,1.8c1,0.4,1.8,0.7,2.8,1.3c0.4,0.2,0.8,0.4,1.2,0.6l0.1,0l6,3l-5.3,4.1
			c-0.8,0.6-1.5,1.2-2.2,1.7l-0.1,0.1c-1.5,1.2-3,2.3-4.4,3.4l-0.1,0.1c-0.3,0.2-0.7,0.5-1,0.8c-0.7,0.5-1.5,1.1-2.2,1.6
			c-1.7,1.3-3.7,2.6-5.5,4.1c0,0-0.1,0.1-0.1,0.2c0.2,2.6,0.5,5.4,0.8,8c0,0.3,0.1,0.7,0.1,1c0.3,0.2,0.7,0.3,1,0.5
			c0.7,0.3,1.5,0.7,2.3,1.1c1.7,0.8,3.4,1.6,5.1,2.4c2.2-1.5,4.3-3.1,6.4-4.7c0.8-0.6,1.6-1.2,2.4-1.8c0.7-0.5,1.3-1,2-1.5
			c0.7-0.5,1.3-1,2-1.5c0.3-0.2,0.7-0.5,1-0.7c0.7-0.5,1.5-1,2.6-1.9c0.6-0.4,2-1.2,2.8-1.7l3.5-1.9l0.3,8v2.9
			c0.1,2.1,0.1,4.5-0.4,7.1c-2.7,15.5-16.1,26.7-31.9,26.7c-4.3,0-8.6-0.9-12.5-2.6c-0.8-0.3-1.3-0.4-1.5-0.4c-0.2,0-0.5,0-1.5,0.7
			c-10.2,7.6-20.5,14.9-29.5,21.4l-2.6,1.9c-0.5,0.3-0.6,0.5-0.6,0.5l0,0c0,0,0,0.2,0,0.8c0.8,9.5-2.1,18.5-8.3,25.3
			C122.7,192.2,114.2,195.8,104.8,195.8z M92.9,188.4c0.5,0.1,1,0.3,1.4,0.4c0.4,0.1,0.7,0.2,1.1,0.3c2.4,0.8,4.4,1.4,6.5,1.6
			c1,0.1,2,0.2,2.9,0.2c8,0,15.2-3.1,20.3-8.7c5.2-5.8,7.7-13.4,7-21.4c-0.3-2.6,0.5-4.3,2.6-5.8l2.6-1.9c9-6.5,19.3-13.8,29.5-21.4
			c2.7-2,4.8-2.2,7.9-1c3.4,1.4,6.9,2.2,10.6,2.2c13.3,0,24.6-9.5,26.9-22.6c0.4-2.1,0.4-4.3,0.3-6.1l0-2.4c-0.5,0.4-1,0.7-1.4,1
			c-0.3,0.2-0.6,0.5-0.9,0.7c-0.7,0.5-1.3,1-2,1.5c-0.7,0.5-1.3,1-2,1.5c-0.8,0.6-1.6,1.2-2.4,1.8c-2.1,1.6-4.3,3.2-6.6,4.8
			c-0.6,0.5-1.8,1-2.9,1H194l-0.5-0.2c-2.1-0.9-4.2-1.9-6.2-2.8c-0.8-0.4-1.5-0.7-2.3-1.1c-0.4-0.2-0.7-0.4-1.1-0.5
			c-0.4-0.2-0.8-0.4-1.1-0.6l-1.2-0.6l-0.2-1.3c-0.1-0.4-0.1-0.8-0.1-1.2c0-0.4-0.1-0.8-0.1-1.1c-0.4-2.8-0.7-5.8-0.9-8.6
			c-0.1-1.5,0.9-3.2,2-4.1c1.9-1.5,3.9-3,5.8-4.3c0.7-0.5,1.4-1,2.1-1.5c0.4-0.3,0.7-0.5,1.1-0.8c1.4-1.1,2.9-2.2,4.4-3.4l0.2-0.1
			c0.4-0.3,0.8-0.6,1.2-1c-0.2-0.1-0.3-0.2-0.5-0.2c-0.8-0.4-1.4-0.7-2-0.9c-3-1-6.2-1.6-9.2-1.6c-7.8,0-15.2,3.3-20.4,9.1
			c-5.2,5.9-7.6,13.6-6.7,21.6c0.2,2.2-0.4,3.6-2.2,4.8c-13.1,9.5-23.9,17.3-33.9,24.6c-1.8,1.4-3.3,1.5-5.5,0.5
			c-3.7-1.7-7.6-2.5-11.5-2.5c-13.2,0-24.5,9.4-27,22.4c-0.5,2.5-0.8,5.3,0,8.3c0.1-0.1,0.2-0.1,0.3-0.2c0.3-0.2,0.5-0.3,0.7-0.5
			c0.3-0.2,0.6-0.4,0.9-0.6l0.1-0.1c0.6-0.4,1.2-0.9,1.9-1.3c0.6-0.5,1.3-0.9,2-1.4c2.7-1.9,5.9-4.2,9.1-6.3c0.9-0.6,2.2-1,3.4-1
			c0.6,0,1,0.1,1.3,0.2c2.7,1,5.3,2.3,7.8,3.5c0.8,0.3,1.5,0.7,2.2,1l1.3,0.6l0.1,1.4c0.1,0.7,0.2,1.5,0.3,2.2l0.2,1.5
			c0.3,2.3,0.6,4.7,0.8,7.1l0,0.2c0,1.4-0.9,3.2-2,4c-2.6,1.9-5.3,3.8-7.9,5.7l-2.5,1.7c-0.9,0.7-1.9,1.3-2.8,2
			c-0.5,0.4-1,0.8-1.5,1.3l-0.2,0.1c-0.1,0.1-0.1,0.1-0.2,0.2C93,188.3,93,188.3,92.9,188.4z"/>
	</g>
</g>
</svg>
