<?xml version="1.0" encoding="utf-8"?>
<!-- Generator: Adobe Illustrator 19.1.0, SVG Export Plug-In . SVG Version: 6.00 Build 0)  -->
<svg version="1.1" id="Layer_1" xmlns="http://www.w3.org/2000/svg" xmlns:xlink="http://www.w3.org/1999/xlink" x="0px" y="0px"
	 viewBox="0 0 288 288" style="enable-background:new 0 0 288 288;" xml:space="preserve">
<style type="text/css">
	.st0{fill:url(#SVGID_1_);}
	.st1{fill:#595A5C;}
	.st2{fill:url(#SVGID_2_);}
	.st3{fill:url(#SVGID_3_);}
	.st4{fill:url(#SVGID_4_);}
	.st5{fill:url(#SVGID_5_);}
	.st6{fill:url(#SVGID_6_);}
	.st7{fill:url(#SVGID_7_);}
	.st8{fill:url(#SVGID_8_);}
	.st9{fill:#FFFFFF;}
	.st10{fill:url(#SVGID_9_);}
	.st11{fill:url(#SVGID_10_);}
	.st12{fill:url(#SVGID_11_);}
	.st13{fill:url(#SVGID_12_);}
	.st14{fill:url(#SVGID_13_);}
	.st15{fill:url(#SVGID_14_);}
	.st16{fill:url(#SVGID_15_);}
	.st17{fill:url(#SVGID_16_);}
	.st18{fill:url(#SVGID_17_);}
	.st19{fill:url(#SVGID_18_);}
	.st20{fill:url(#SVGID_19_);}
	.st21{fill:url(#SVGID_20_);}
	.st22{fill:url(#SVGID_21_);}
	.st23{fill:url(#SVGID_22_);}
	.st24{fill:url(#SVGID_23_);}
	.st25{fill:url(#SVGID_24_);}
	.st26{fill:url(#SVGID_25_);}
	.st27{fill:#BCBEC0;}
	.st28{fill:url(#SVGID_26_);}
	.st29{fill:url(#SVGID_27_);}
	.st30{fill:url(#SVGID_28_);}
	.st31{fill:url(#SVGID_29_);}
	.st32{fill:url(#SVGID_30_);}
	.st33{fill:url(#SVGID_31_);}
	.st34{fill:url(#SVGID_32_);}
	.st35{fill:url(#SVGID_33_);}
	.st36{fill:url(#SVGID_34_);}
	.st37{fill:url(#SVGID_35_);}
	.st38{fill:url(#SVGID_36_);}
	.st39{fill:url(#SVGID_37_);}
	.st40{fill:url(#SVGID_38_);}
	.st41{fill:url(#SVGID_39_);}
	.st42{fill:url(#SVGID_40_);}
	.st43{fill:url(#SVGID_41_);}
	.st44{fill:url(#SVGID_42_);}
	.st45{fill:url(#SVGID_43_);}
	.st46{fill:url(#SVGID_44_);}
	.st47{fill:url(#SVGID_45_);}
	.st48{fill:url(#SVGID_46_);}
	.st49{fill:url(#SVGID_47_);}
	.st50{fill:url(#SVGID_48_);}
	.st51{fill:url(#SVGID_49_);}
	.st52{fill:url(#SVGID_50_);}
	.st53{fill:url(#SVGID_51_);}
	.st54{fill:url(#SVGID_52_);}
	.st55{fill:url(#SVGID_53_);}
	.st56{fill:url(#SVGID_54_);}
	.st57{fill:#9FBEE4;}
	.st58{fill:url(#SVGID_55_);}
	.st59{fill:url(#SVGID_56_);}
	.st60{fill:url(#SVGID_57_);}
	.st61{fill:url(#SVGID_58_);}
	.st62{fill:url(#SVGID_59_);}
	.st63{fill:url(#SVGID_60_);}
	.st64{fill:url(#SVGID_61_);}
	.st65{fill:url(#SVGID_62_);}
	.st66{fill:url(#SVGID_63_);}
	.st67{fill:url(#SVGID_64_);}
	.st68{fill:#A7A9AC;}
	.st69{fill:#58595B;}
	.st70{fill:#F1F2F2;}
	.st71{fill:#702FB7;}
	.st72{fill:#939598;}
	.st73{fill:#010101;}
	.st74{fill:url(#SVGID_65_);}
	.st75{fill:url(#SVGID_66_);}
	.st76{opacity:0.39;fill:url(#SVGID_67_);}
	.st77{fill:url(#SVGID_68_);}
	.st78{fill:url(#SVGID_69_);}
	.st79{fill:url(#SVGID_70_);}
	.st80{opacity:0.39;fill:url(#SVGID_71_);}
	.st81{fill:url(#SVGID_72_);}
	.st82{fill:url(#SVGID_73_);}
	.st83{opacity:0.5;fill:url(#SVGID_74_);}
	.st84{fill:url(#SVGID_75_);}
	.st85{fill:url(#SVGID_76_);}
	.st86{opacity:0.5;fill:url(#SVGID_77_);}
	.st87{fill:url(#SVGID_78_);}
	.st88{fill:url(#SVGID_79_);}
	.st89{opacity:0.5;fill:url(#SVGID_80_);}
	.st90{fill:url(#SVGID_81_);}
	.st91{fill:url(#SVGID_82_);}
	.st92{fill:url(#SVGID_83_);}
	.st93{fill:url(#SVGID_84_);}
	.st94{fill:url(#XMLID_10_);}
	.st95{fill:url(#SVGID_85_);}
	.st96{fill:url(#SVGID_86_);}
	.st97{fill:url(#SVGID_87_);}
	.st98{fill:url(#SVGID_88_);}
	.st99{fill:url(#SVGID_89_);}
	.st100{fill:url(#SVGID_90_);}
	.st101{fill:url(#SVGID_91_);}
	.st102{fill:url(#SVGID_92_);}
	.st103{fill:url(#SVGID_93_);}
	.st104{fill:url(#SVGID_94_);}
</style>
<g>
	<linearGradient id="SVGID_1_" gradientUnits="userSpaceOnUse" x1="14.0959" y1="140.0449" x2="266.0956" y2="140.0449">
		<stop  offset="0" style="stop-color:#39B54A"/>
		<stop  offset="1" style="stop-color:#2F9E41"/>
	</linearGradient>
	<path class="st0" d="M266.1,37H95.6v56c-3.1,0-6.2,0-7.7,0H67.5c-19.9,0.2-24.9,13.8-26.1,28.8v18.8H19.1c-2.8,0-5,2.1-5,4.6v54.7
		c0,2.6,2.2,4.6,5,4.6h16.1c-0.7,2.6-1.1,5.3-1.1,8.1c0,16.8,13.7,30.5,30.5,30.5c16.8,0,30.5-13.7,30.5-30.5c0-1.6-0.1-3.2-0.4-4.7
		h0.9v0.1h98.3c-0.2,1.5-0.3,3-0.3,4.6c0,16.8,13.7,30.5,30.5,30.5c16.8,0,30.5-13.7,30.5-30.5c0-1.6-0.1-3.1-0.3-4.6h11.8V37z"/>
	<linearGradient id="SVGID_2_" gradientUnits="userSpaceOnUse" x1="140.0957" y1="36.9949" x2="140.0957" y2="243.0949">
		<stop  offset="0" style="stop-color:#FFFFFF;stop-opacity:0.75"/>
		<stop  offset="1" style="stop-color:#FFFFFF;stop-opacity:0"/>
	</linearGradient>
	<path class="st2" d="M266.1,37H95.6v56c-3.1,0-6.2,0-7.7,0H67.5c-19.9,0.2-24.9,13.8-26.1,28.8v18.8H19.1c-2.8,0-5,2.1-5,4.6v54.7
		c0,2.6,2.2,4.6,5,4.6h16.1c-0.7,2.6-1.1,5.3-1.1,8.1c0,16.8,13.7,30.5,30.5,30.5c16.8,0,30.5-13.7,30.5-30.5c0-1.6-0.1-3.2-0.4-4.7
		h0.9v0.1h98.3c-0.2,1.5-0.3,3-0.3,4.6c0,16.8,13.7,30.5,30.5,30.5c16.8,0,30.5-13.7,30.5-30.5c0-1.6-0.1-3.1-0.3-4.6h11.8V37z"/>
	<linearGradient id="SVGID_3_" gradientUnits="userSpaceOnUse" x1="140.0958" y1="36.9949" x2="140.0958" y2="243.0949">
		<stop  offset="0" style="stop-color:#39B54A"/>
		<stop  offset="1" style="stop-color:#2F9E41"/>
	</linearGradient>
	<path class="st3" d="M257.1,46v153h-2.8h-10.5l1.6,10.4c0.2,1.1,0.2,2.2,0.2,3.2c0,11.9-9.6,21.5-21.5,21.5s-21.5-9.6-21.5-21.5
		c0-1.1,0.1-2.2,0.2-3.2l1.6-10.4h-10.5h-89.3v-0.1h-9h-0.9H84.2l1.6,10.4c0.2,1.1,0.3,2.2,0.3,3.3c0,11.9-9.6,21.5-21.5,21.5
		s-21.5-9.6-21.5-21.5c0-1.9,0.3-3.8,0.8-5.7l3.2-11.4H35.2H23.1v-45.9h18.3h9v-9v-18.4c1.4-16.7,7.4-20.1,17.1-20.2h20.4l2.5,0
		l5.2,0h9v-9V46H257.1 M266.1,37H95.6v56c-3.1,0-6.2,0-7.7,0H67.5c-19.9,0.2-24.9,13.8-26.1,28.8v18.8H19.1c-2.8,0-5,2.1-5,4.6v54.7
		c0,2.6,2.2,4.6,5,4.6h16.1c-0.7,2.6-1.1,5.3-1.1,8.1c0,16.8,13.7,30.5,30.5,30.5s30.5-13.7,30.5-30.5c0-1.6-0.1-3.2-0.4-4.7h0.9
		v0.1h98.3c-0.2,1.5-0.3,3-0.3,4.6c0,16.8,13.7,30.5,30.5,30.5s30.5-13.7,30.5-30.5c0-1.6-0.1-3.1-0.3-4.6h11.8V37L266.1,37z"/>
	<g>
		<path class="st1" d="M224.1,246.1c-18.5,0-33.5-15-33.5-33.5c0-0.5,0-1.1,0-1.6H98.1c0,0.5,0,1.1,0,1.6c0,18.5-15,33.5-33.5,33.5
			s-33.5-15-33.5-33.5c0-1.7,0.1-3.4,0.4-5.1H19.1c-4.5,0-8-3.3-8-7.6v-54.7c0-4.2,3.6-7.6,8-7.6h19.3v-15.8c0-0.1,0-0.2,0-0.2
			c1.1-13.4,5.3-31.3,29.1-31.6h25.1V37c0-1.7,1.3-3,3-3h170.5c1.7,0,3,1.3,3,3v171c0,1.7-1.3,3-3,3h-8.5c0,0.5,0,1.1,0,1.6
			C257.6,231.1,242.6,246.1,224.1,246.1z M96.4,205h97.6c0.9,0,1.7,0.4,2.3,1s0.8,1.5,0.7,2.4c-0.2,1.4-0.3,2.8-0.3,4.1
			c0,15.2,12.3,27.5,27.5,27.5s27.5-12.3,27.5-27.5c0-1.4-0.1-2.8-0.3-4.1c-0.1-0.9,0.1-1.7,0.7-2.4s1.4-1,2.3-1h8.8V40H98.6v53
			c0,1.7-1.3,3-3,3H67.5c-14.7,0.1-21.6,7.9-23.1,25.9v18.7c0,1.7-1.3,3-3,3H19.1c-1.2,0-2,0.8-2,1.6v54.7c0,0.9,0.9,1.6,2,1.6h16.1
			c0.9,0,1.8,0.4,2.4,1.2c0.6,0.7,0.8,1.7,0.5,2.6c-0.7,2.4-1,4.8-1,7.3c0,15.2,12.3,27.5,27.5,27.5s27.5-12.3,27.5-27.5
			c0-1.4-0.1-2.8-0.3-4.2c-0.1-0.9,0.1-1.7,0.7-2.4c0.6-0.7,1.4-1,2.3-1h0.9C95.9,204.9,96.1,204.9,96.4,205z"/>
	</g>
</g>
<g id="XMLID_17_">
	<linearGradient id="SVGID_4_" gradientUnits="userSpaceOnUse" x1="73.9315" y1="109" x2="73.9315" y2="140.1424">
		<stop  offset="0" style="stop-color:#B6D1E4"/>
		<stop  offset="1" style="stop-color:#9FBEE4"/>
	</linearGradient>
	<path class="st4" d="M86.5,109H73.2c-12.9,0.1-15.1,1.6-15.1,18.8v7.9c0,1.6-0.4,4.4,1.4,4.4h27c1.8,0,3.2-1.3,3.2-2.9v-21.7
		C89.8,114,90.5,109,86.5,109z"/>
	<path class="st1" d="M86.5,143.1h-27c-1.2,0-2.2-0.4-3-1.3c-1.5-1.6-1.4-3.9-1.4-5.5c0-0.2,0-0.5,0-0.6v-7.9
		c0-18.2,2.9-21.7,18.1-21.8h13.3c2.3,0,3.7,1,4.5,1.9c2.1,2.3,1.9,5.8,1.7,7.5l0,0.3v21.6C92.7,140.5,89.9,143.1,86.5,143.1z
		 M61.1,137.1h25.4c0.1,0,0.2,0,0.2,0l0-22.2c0.1-1.8,0-2.6-0.1-2.9c0,0-0.1,0-0.1,0H73.2c-11,0.1-12.1,0.1-12.1,15.8v7.9
		c0,0.3,0,0.5,0,0.8C61.1,136.7,61.1,136.9,61.1,137.1z"/>
</g>
<g id="XMLID_16_">
	<circle class="st27" cx="224.1" cy="212.6" r="21.7"/>
	<path class="st1" d="M224.1,245.8c-18.3,0-33.2-14.9-33.2-33.2s14.9-33.2,33.2-33.2s33.2,14.9,33.2,33.2S242.4,245.8,224.1,245.8z
		 M224.1,202.4c-5.6,0-10.2,4.6-10.2,10.2s4.6,10.2,10.2,10.2s10.2-4.6,10.2-10.2S229.7,202.4,224.1,202.4z"/>
</g>
<g id="XMLID_15_">
	<circle class="st27" cx="64.5" cy="212.6" r="21.7"/>
	<path class="st1" d="M64.5,245.8c-18.3,0-33.2-14.9-33.2-33.2s14.9-33.2,33.2-33.2s33.2,14.9,33.2,33.2S82.8,245.8,64.5,245.8z
		 M64.5,202.4c-5.6,0-10.2,4.6-10.2,10.2s4.6,10.2,10.2,10.2s10.2-4.6,10.2-10.2S70.1,202.4,64.5,202.4z"/>
</g>
<g id="XMLID_12_">
	<path class="st9" d="M179.7,176c-2.1,0-4.1-0.8-5.6-2.3l-0.1-0.1l-39-44.7c-2.3-2.3-2.9-5.6-1.7-8.6c1.3-3,4.1-4.9,7.4-4.9h19V74.6
		c0-5.5,4.4-9.9,9.9-9.9h20c5.5,0,9.9,4.4,9.9,9.9v40.7h19c3.3,0,6.1,1.9,7.4,4.9c1.2,3,0.6,6.3-1.7,8.6l-39,44.7l-0.1,0.1
		C183.8,175.2,181.8,176,179.7,176z"/>
	<path class="st1" d="M189.7,67.7c3.8,0,6.9,3.1,6.9,6.9v42c0,0.6-0.1,1.2-0.2,1.7h22.3c4.4,0,6.7,5.4,3.5,8.5l-39,44.7
		c-1,1-2.2,1.5-3.5,1.5s-2.6-0.5-3.5-1.5l-39-44.7c-3.1-3.1-0.9-8.5,3.5-8.5H163c-0.1-0.6-0.2-1.1-0.2-1.7v-42
		c0-3.8,3.1-6.9,6.9-6.9H189.7 M189.7,61.7h-20c-7.1,0-12.9,5.8-12.9,12.9v37.7h-16c-4.5,0-8.4,2.7-10.2,6.8
		c-1.7,4-0.8,8.6,2.2,11.8l38.8,44.6l0.1,0.2l0.1,0.1c2.1,2.1,4.8,3.2,7.8,3.2s5.7-1.1,7.8-3.2l0.1-0.1l0.1-0.2l38.8-44.6
		c3-3.2,3.9-7.8,2.2-11.8c-1.7-4.1-5.7-6.8-10.2-6.8h-16V74.6C202.6,67.5,196.8,61.7,189.7,61.7L189.7,61.7z"/>
</g>
</svg>
