<?xml version="1.0" encoding="utf-8"?>
<!-- Generator: Adobe Illustrator 19.1.0, SVG Export Plug-In . SVG Version: 6.00 Build 0)  -->
<svg version="1.1" id="Layer_1" xmlns="http://www.w3.org/2000/svg" xmlns:xlink="http://www.w3.org/1999/xlink" x="0px" y="0px"
	 viewBox="0 0 288 288" style="enable-background:new 0 0 288 288;" xml:space="preserve">
<style type="text/css">
	.st0{fill:url(#SVGID_1_);}
	.st1{fill:#595A5C;}
	.st2{fill:url(#SVGID_2_);}
	.st3{fill:url(#SVGID_3_);}
	.st4{fill:url(#SVGID_4_);}
	.st5{fill:url(#SVGID_5_);}
	.st6{fill:url(#SVGID_6_);}
	.st7{fill:url(#SVGID_7_);}
	.st8{fill:url(#SVGID_8_);}
	.st9{fill:#FFFFFF;}
	.st10{fill:url(#SVGID_9_);}
	.st11{fill:url(#SVGID_10_);}
	.st12{fill:url(#SVGID_11_);}
	.st13{fill:url(#SVGID_12_);}
	.st14{fill:url(#SVGID_13_);}
	.st15{fill:url(#SVGID_14_);}
	.st16{fill:url(#SVGID_15_);}
	.st17{fill:url(#SVGID_16_);}
	.st18{fill:url(#SVGID_17_);}
	.st19{fill:url(#SVGID_18_);}
	.st20{fill:url(#SVGID_19_);}
	.st21{fill:url(#SVGID_20_);}
	.st22{fill:url(#SVGID_21_);}
	.st23{fill:url(#SVGID_22_);}
	.st24{fill:url(#SVGID_23_);}
	.st25{fill:url(#SVGID_24_);}
	.st26{fill:url(#SVGID_25_);}
	.st27{fill:#BCBEC0;}
	.st28{fill:url(#SVGID_26_);}
	.st29{fill:url(#SVGID_27_);}
	.st30{fill:url(#SVGID_28_);}
	.st31{fill:url(#SVGID_29_);}
	.st32{fill:url(#SVGID_30_);}
	.st33{fill:url(#SVGID_31_);}
	.st34{fill:url(#SVGID_32_);}
	.st35{fill:url(#SVGID_33_);}
	.st36{fill:url(#SVGID_34_);}
	.st37{fill:url(#SVGID_35_);}
	.st38{fill:url(#SVGID_36_);}
	.st39{fill:url(#SVGID_37_);}
	.st40{fill:url(#SVGID_38_);}
	.st41{fill:url(#SVGID_39_);}
	.st42{fill:url(#SVGID_40_);}
	.st43{fill:url(#SVGID_41_);}
	.st44{fill:url(#SVGID_42_);}
	.st45{fill:url(#SVGID_43_);}
	.st46{fill:url(#SVGID_44_);}
	.st47{fill:url(#SVGID_45_);}
	.st48{fill:url(#SVGID_46_);}
	.st49{fill:url(#SVGID_47_);}
	.st50{fill:url(#SVGID_48_);}
	.st51{fill:url(#SVGID_49_);}
	.st52{fill:url(#SVGID_50_);}
	.st53{fill:url(#SVGID_51_);}
	.st54{fill:url(#SVGID_52_);}
	.st55{fill:url(#SVGID_53_);}
	.st56{fill:url(#SVGID_54_);}
	.st57{fill:#9FBEE4;}
	.st58{fill:url(#SVGID_55_);}
	.st59{fill:url(#SVGID_56_);}
	.st60{fill:url(#SVGID_57_);}
	.st61{fill:url(#SVGID_58_);}
	.st62{fill:url(#SVGID_59_);}
	.st63{fill:url(#SVGID_60_);}
	.st64{fill:url(#SVGID_61_);}
	.st65{fill:url(#SVGID_62_);}
	.st66{fill:url(#SVGID_63_);}
	.st67{fill:url(#SVGID_64_);}
	.st68{fill:#A7A9AC;}
	.st69{fill:#58595B;}
	.st70{fill:#F1F2F2;}
	.st71{fill:#702FB7;}
	.st72{fill:#939598;}
	.st73{fill:#010101;}
	.st74{fill:url(#SVGID_65_);}
	.st75{fill:url(#SVGID_66_);}
	.st76{opacity:0.39;fill:url(#SVGID_67_);}
	.st77{fill:url(#SVGID_68_);}
	.st78{fill:url(#SVGID_69_);}
	.st79{fill:url(#SVGID_70_);}
	.st80{opacity:0.39;fill:url(#SVGID_71_);}
	.st81{fill:url(#SVGID_72_);}
	.st82{fill:url(#SVGID_73_);}
	.st83{opacity:0.5;fill:url(#SVGID_74_);}
	.st84{fill:url(#SVGID_75_);}
	.st85{fill:url(#SVGID_76_);}
	.st86{opacity:0.5;fill:url(#SVGID_77_);}
	.st87{fill:url(#SVGID_78_);}
	.st88{fill:url(#SVGID_79_);}
	.st89{opacity:0.5;fill:url(#SVGID_80_);}
	.st90{fill:url(#SVGID_81_);}
	.st91{fill:url(#SVGID_82_);}
	.st92{fill:url(#SVGID_83_);}
	.st93{fill:url(#SVGID_84_);}
	.st94{fill:url(#XMLID_10_);}
	.st95{fill:url(#SVGID_85_);}
	.st96{fill:url(#SVGID_86_);}
	.st97{fill:url(#SVGID_87_);}
	.st98{fill:url(#SVGID_88_);}
	.st99{fill:url(#SVGID_89_);}
	.st100{fill:url(#SVGID_90_);}
	.st101{fill:url(#SVGID_91_);}
	.st102{fill:url(#SVGID_92_);}
	.st103{fill:url(#SVGID_93_);}
	.st104{fill:url(#SVGID_94_);}
</style>
<g>
	<linearGradient id="SVGID_1_" gradientUnits="userSpaceOnUse" x1="144.047" y1="29.6835" x2="144.047" y2="238.6835">
		<stop  offset="0" style="stop-color:#FBB040"/>
		<stop  offset="1" style="stop-color:#F7941E"/>
	</linearGradient>
	<circle class="st0" cx="144" cy="134.2" r="104.5"/>
	<path class="st1" d="M144,241.7c-59.3,0-107.5-48.2-107.5-107.5C36.5,74.9,84.8,26.7,144,26.7s107.5,48.2,107.5,107.5
		C251.5,193.5,203.3,241.7,144,241.7z M144,32.7c-56,0-101.5,45.5-101.5,101.5c0,56,45.5,101.5,101.5,101.5s101.5-45.5,101.5-101.5
		C245.5,78.2,200,32.7,144,32.7z"/>
</g>
<linearGradient id="SVGID_2_" gradientUnits="userSpaceOnUse" x1="144.047" y1="38.6835" x2="144.047" y2="229.6835">
	<stop  offset="0" style="stop-color:#FFFFFF;stop-opacity:0.75"/>
	<stop  offset="1" style="stop-color:#FFFFFF;stop-opacity:0"/>
</linearGradient>
<circle class="st2" cx="144" cy="134.2" r="95.5"/>
<g>
	<path class="st9" d="M86.1,197.1c-0.8,0-1.6-0.3-2.2-1l-0.6-0.7c-1.1-1.1-1.1-2.9,0-4.1l15-16.5c0,0,4.7-5.1,4.8-5.1l27.2-27.1H101
		c-1.5,0-2.8-1.1-3-2.6l-0.1-0.7c-0.1-1.1,0.4-2.3,1.3-2.9l65.6-42.3l16-10.2c0.1-0.1,0.2-0.1,0.2-0.1l19.2-12.1
		c0.5-0.3,1-0.5,1.6-0.5c0.8,0,1.6,0.3,2.1,0.9c0.3,0.3,0.4,0.5,0.7,0.9c0.1,0.1,0.1,0.2,0.2,0.3c1,1.1,0.9,2.9-0.1,4l-18.7,20.2
		c0,0-0.1,0.1-0.1,0.1l-23.5,23h26.4c1.5,0,2.8,1.1,3,2.6l0.1,0.8c0.1,1.1-0.4,2.2-1.3,2.8l-78.4,53.3l-5.2,3.4l-19.4,13
		C87.2,196.9,86.6,197.1,86.1,197.1z"/>
	<path class="st1" d="M202,74.3c0.1,0.1,0.6,0.9,0.7,1l-18.7,20.2c-9.7,9.5-19,18.6-28.8,28.2c11.4,0,22.6,0,33.7,0
		c0,0.3,0.1,0.5,0.1,0.8c-26.2,17.8-52.5,35.7-78.4,53.3l-5.2,3.4c-6.5,4.4-13,8.7-19.4,13c-0.2-0.2-0.4-0.5-0.7-0.7l15-16.5l4.7-5
		c10.4-10.4,21.3-21.2,32.4-32.2c-12,0-24.2,0-36.4,0c0-0.2-0.1-0.5-0.1-0.7c21.9-14.1,43.8-28.3,65.6-42.3l16-10.2c0,0,0,0,0,0
		C189,82.5,195.5,78.4,202,74.3 M202,68.3c-1.1,0-2.2,0.3-3.2,0.9l-19.1,12c-0.1,0.1-0.2,0.1-0.3,0.2l-16,10.2l-38.2,24.6
		l-27.4,17.7c-1.9,1.3-3,3.5-2.7,5.8l0,0.2l0.1,0.5c0.4,3,2.9,5.2,5.9,5.2h21.9l-22.1,22c-0.1,0.1-0.1,0.1-0.2,0.2l-4.7,5
		c0,0,0,0-0.1,0.1l-15,16.5c-2.1,2.3-2.1,5.8,0.1,8.1l0.3,0.3l0.4,0.4c1.2,1.3,2.8,1.9,4.4,1.9c1.2,0,2.3-0.3,3.3-1l3.4-2.3
		l15.9-10.7l5.1-3.4c0,0,0.1,0,0.1-0.1l78.4-53.3c1.9-1.3,2.8-3.4,2.6-5.7l-0.1-0.7l0-0.1c-0.4-3-2.9-5.3-6-5.3h-19l5.4-5.3
		l12.9-12.6c0.1-0.1,0.1-0.1,0.2-0.2l18.7-20.2c2-2.2,2.1-5.5,0.3-7.8c0,0-0.1-0.1-0.1-0.1c-0.3-0.5-0.6-0.9-1-1.3
		C205.1,68.9,203.5,68.3,202,68.3L202,68.3z"/>
</g>
</svg>
