<?xml version="1.0" encoding="utf-8"?>
<!-- Generator: Adobe Illustrator 19.1.0, SVG Export Plug-In . SVG Version: 6.00 Build 0)  -->
<svg version="1.1" id="Layer_1" xmlns="http://www.w3.org/2000/svg" xmlns:xlink="http://www.w3.org/1999/xlink" x="0px" y="0px"
	 viewBox="0 0 288 288" style="enable-background:new 0 0 288 288;" xml:space="preserve">
<style type="text/css">
	.st0{fill:url(#SVGID_1_);}
	.st1{fill:#595A5C;}
	.st2{fill:url(#SVGID_2_);}
	.st3{fill:url(#SVGID_3_);}
	.st4{fill:url(#SVGID_4_);}
	.st5{fill:url(#SVGID_5_);}
	.st6{fill:url(#SVGID_6_);}
	.st7{fill:url(#SVGID_7_);}
	.st8{fill:url(#SVGID_8_);}
	.st9{fill:#FFFFFF;}
	.st10{fill:url(#SVGID_9_);}
	.st11{fill:url(#SVGID_10_);}
	.st12{fill:url(#SVGID_11_);}
	.st13{fill:url(#SVGID_12_);}
	.st14{fill:url(#SVGID_13_);}
	.st15{fill:url(#SVGID_14_);}
	.st16{fill:url(#SVGID_15_);}
	.st17{fill:url(#SVGID_16_);}
	.st18{fill:url(#SVGID_17_);}
	.st19{fill:url(#SVGID_18_);}
	.st20{fill:url(#SVGID_19_);}
	.st21{fill:url(#SVGID_20_);}
	.st22{fill:url(#SVGID_21_);}
	.st23{fill:url(#SVGID_22_);}
	.st24{fill:url(#SVGID_23_);}
	.st25{fill:url(#SVGID_24_);}
	.st26{fill:url(#SVGID_25_);}
	.st27{fill:#BCBEC0;}
	.st28{fill:url(#SVGID_26_);}
	.st29{fill:url(#SVGID_27_);}
	.st30{fill:url(#SVGID_28_);}
	.st31{fill:url(#SVGID_29_);}
	.st32{fill:url(#SVGID_30_);}
	.st33{fill:url(#SVGID_31_);}
	.st34{fill:url(#SVGID_32_);}
	.st35{fill:url(#SVGID_33_);}
	.st36{fill:url(#SVGID_34_);}
	.st37{fill:url(#SVGID_35_);}
	.st38{fill:url(#SVGID_36_);}
	.st39{fill:url(#SVGID_37_);}
	.st40{fill:url(#SVGID_38_);}
	.st41{fill:url(#SVGID_39_);}
	.st42{fill:url(#SVGID_40_);}
	.st43{fill:url(#SVGID_41_);}
	.st44{fill:url(#SVGID_42_);}
	.st45{fill:url(#SVGID_43_);}
	.st46{fill:url(#SVGID_44_);}
	.st47{fill:url(#SVGID_45_);}
	.st48{fill:url(#SVGID_46_);}
	.st49{fill:url(#SVGID_47_);}
	.st50{fill:url(#SVGID_48_);}
	.st51{fill:url(#SVGID_49_);}
	.st52{fill:url(#SVGID_50_);}
	.st53{fill:url(#SVGID_51_);}
	.st54{fill:url(#SVGID_52_);}
	.st55{fill:url(#SVGID_53_);}
	.st56{fill:url(#SVGID_54_);}
	.st57{fill:#9FBEE4;}
	.st58{fill:url(#SVGID_55_);}
	.st59{fill:url(#SVGID_56_);}
	.st60{fill:url(#SVGID_57_);}
	.st61{fill:url(#SVGID_58_);}
	.st62{fill:url(#SVGID_59_);}
	.st63{fill:url(#SVGID_60_);}
	.st64{fill:url(#SVGID_61_);}
	.st65{fill:url(#SVGID_62_);}
	.st66{fill:url(#SVGID_63_);}
	.st67{fill:url(#SVGID_64_);}
	.st68{fill:#A7A9AC;}
	.st69{fill:#58595B;}
	.st70{fill:#F1F2F2;}
	.st71{fill:#702FB7;}
	.st72{fill:#939598;}
	.st73{fill:#010101;}
	.st74{fill:url(#SVGID_65_);}
	.st75{fill:url(#SVGID_66_);}
	.st76{opacity:0.39;fill:url(#SVGID_67_);}
	.st77{fill:url(#SVGID_68_);}
	.st78{fill:url(#SVGID_69_);}
	.st79{fill:url(#SVGID_70_);}
	.st80{opacity:0.39;fill:url(#SVGID_71_);}
	.st81{fill:url(#SVGID_72_);}
	.st82{fill:url(#SVGID_73_);}
	.st83{opacity:0.5;fill:url(#SVGID_74_);}
	.st84{fill:url(#SVGID_75_);}
	.st85{fill:url(#SVGID_76_);}
	.st86{opacity:0.5;fill:url(#SVGID_77_);}
	.st87{fill:url(#SVGID_78_);}
	.st88{fill:url(#SVGID_79_);}
	.st89{opacity:0.5;fill:url(#SVGID_80_);}
	.st90{fill:url(#SVGID_81_);}
	.st91{fill:url(#SVGID_82_);}
	.st92{fill:url(#SVGID_83_);}
	.st93{fill:url(#SVGID_84_);}
	.st94{fill:url(#XMLID_10_);}
	.st95{fill:url(#SVGID_85_);}
	.st96{fill:url(#SVGID_86_);}
	.st97{fill:url(#SVGID_87_);}
	.st98{fill:url(#SVGID_88_);}
	.st99{fill:url(#SVGID_89_);}
	.st100{fill:url(#SVGID_90_);}
	.st101{fill:url(#SVGID_91_);}
	.st102{fill:url(#SVGID_92_);}
	.st103{fill:url(#SVGID_93_);}
	.st104{fill:url(#SVGID_94_);}
</style>
<g>
	<linearGradient id="SVGID_1_" gradientUnits="userSpaceOnUse" x1="143.4472" y1="30.1615" x2="143.4472" y2="239.1615">
		<stop  offset="0" style="stop-color:#39B54A"/>
		<stop  offset="1" style="stop-color:#2F9E41"/>
	</linearGradient>
	<circle class="st0" cx="143.4" cy="134.7" r="104.5"/>
	<path class="st1" d="M143.4,242.2c-59.3,0-107.5-48.2-107.5-107.5S84.2,27.2,143.4,27.2s107.5,48.2,107.5,107.5
		S202.7,242.2,143.4,242.2z M143.4,33.2c-56,0-101.5,45.5-101.5,101.5s45.5,101.5,101.5,101.5s101.5-45.5,101.5-101.5
		S199.4,33.2,143.4,33.2z"/>
</g>
<linearGradient id="SVGID_2_" gradientUnits="userSpaceOnUse" x1="143.4471" y1="39.1615" x2="143.4471" y2="230.1615">
	<stop  offset="0" style="stop-color:#FFFFFF;stop-opacity:0.75"/>
	<stop  offset="1" style="stop-color:#FFFFFF;stop-opacity:0"/>
</linearGradient>
<circle class="st2" cx="143.4" cy="134.7" r="95.5"/>
<g id="MPN3WO_2_">
	<g>
		<g>
			<path class="st9" d="M78.7,176.9c0-14.9-0.8-27.1-0.8-41.9c1.2-0.2,15.2-1.9,16.3-2.2c3.6-0.8,6.2-3.1,7.8-6.2
				c3.9-7.6,9.7-13.6,15.4-19.8c7.1-7.8,13.4-16.1,17.9-25.7c1.5-3.1,2.6-6.4,3.5-9.8c1.7-5.8,5.3-7.3,10.3-4c4.7,3,6.5,7.6,6.1,13
				c-0.3,5-2.2,9.5-4.2,13.9c-1.6,3.6-3.1,7.3-4.5,11c-0.4,1.1-0.5,2.4-0.5,3.6c-0.2,5.5,3,8.6,8.4,8c4.3-0.4,8.5-1.1,12.7-1.5
				c6.2-0.6,12.4-1.2,18.6-1.6c2.5-0.2,4.9,0.4,7.1,1.6c2.5,1.4,3.9,3.6,3.7,6.4c-0.2,2.3-0.7,4.6-1.5,6.7c-0.9,2.6-0.9,3.1,1.7,4.1
				c2,0.8,4,1.5,5,3.6c1.8,3.6,0.6,8.8-2.7,11.2c-0.6,0.5-1.3,0.9-2,1.4c-1.1,0.9-1.1,1.7-0.1,2.7c0.9,0.9,1.9,1.7,2.8,2.5
				c3,2.9,4.1,8.6-0.9,11.9c-1.1,0.7-2.2,1.4-3.3,2.2c-1.8,1.2-2,2.2-0.9,4.1c0.3,0.6,0.7,1.1,1,1.7c1.6,3,1.3,5.2-1.1,7.6
				c-2.4,2.5-5.5,3.9-8.7,5.1c-6.5,2.4-13.3,3.3-20.1,3.6c-12.1,0.5-24.2,0.2-36.2-1.7c-6-1-11.9-2.6-17.5-5
				c-4.4-1.8-8.8-3.8-13.6-4.5C96.3,178.4,81.6,177.2,78.7,176.9z"/>
			<path class="st1" d="M156.4,193.2c-9.9,0-18.5-0.6-26.8-2c-6.3-1-12.4-2.7-18.2-5.2l-1.3-0.5c-3.9-1.7-7.6-3.2-11.5-3.8
				c-1.7-0.2-8.7-0.8-13.8-1.3c-2.8-0.2-5.3-0.4-6.2-0.5c-1.5-0.2-2.7-1.4-2.7-3c0-7.4-0.2-14.3-0.4-20.9c-0.2-6.7-0.4-13.6-0.4-21
				c0-1.5,1.1-2.7,2.5-3c0.5-0.1,2.2-0.3,5.3-0.7c3.8-0.5,10.1-1.3,10.9-1.4c2.5-0.5,4.4-2.1,5.7-4.6c3.7-7.2,9.1-13.1,14.2-18.7
				l1.6-1.8c7.8-8.5,13.5-16.7,17.5-24.9c1.4-2.9,2.5-6.2,3.4-9.3c1.2-3.9,3.1-6.4,5.8-7.4c2.7-1,5.7-0.4,9,1.7
				c5.3,3.4,7.9,8.9,7.5,15.7c-0.4,5.6-2.5,10.6-4.4,14.9c-1.7,4-3.2,7.5-4.4,10.9c-0.3,0.7-0.3,1.7-0.3,2.6c0,1.3,0.1,3,1.2,4
				c1,1,2.7,1,3.9,0.9c2.1-0.2,4.2-0.5,6.2-0.8c2.1-0.3,4.3-0.6,6.5-0.8c5.9-0.6,12.3-1.2,18.7-1.6c3-0.2,6.1,0.5,8.8,2
				c3.7,2,5.6,5.4,5.3,9.3c-0.2,2.4-0.8,4.9-1.7,7.4c0,0.1-0.1,0.2-0.1,0.3c0,0,0,0,0,0c2.2,0.9,5,1.9,6.6,5
				c2.5,4.9,0.8,11.7-3.6,14.9c-0.2,0.2-0.5,0.3-0.7,0.5c0.1,0.1,0.2,0.2,0.3,0.3c0.5,0.4,0.9,0.8,1.3,1.2c2.4,2.3,3.8,5.7,3.5,8.9
				c-0.3,3.1-2,5.9-4.8,7.7c-0.4,0.3-0.8,0.5-1.2,0.8c-0.7,0.4-1.4,0.9-2.1,1.4c0,0,0,0-0.1,0c0,0,0,0.1,0.1,0.1
				c0.1,0.2,0.3,0.4,0.4,0.7c0.2,0.4,0.4,0.7,0.6,1.1c2.3,4.2,1.7,7.8-1.6,11.2c-3,3.1-6.8,4.7-9.8,5.8c-6.1,2.2-13,3.4-21,3.7
				C162.9,193.1,159.6,193.2,156.4,193.2z M81.7,174.2c1,0.1,2.2,0.2,3.5,0.3c5.5,0.5,12.3,1,14.2,1.3c4.7,0.7,8.9,2.5,13,4.2
				l1.3,0.5c5.4,2.3,11,3.9,16.8,4.8c10.5,1.7,21.9,2.2,35.6,1.7c7.4-0.3,13.7-1.4,19.2-3.4c3.5-1.3,5.8-2.6,7.5-4.4
				c1.5-1.5,1.6-2.3,0.6-4.1c-0.2-0.3-0.3-0.6-0.5-0.8c-0.2-0.3-0.3-0.5-0.5-0.8c-1.8-3.2-1.2-5.9,1.8-8c0.7-0.5,1.5-1,2.2-1.5
				c0.4-0.2,0.8-0.5,1.1-0.7c1.3-0.9,2-1.9,2.1-3.2c0.1-1.4-0.5-3-1.6-4c-0.4-0.3-0.8-0.7-1.1-1c-0.6-0.5-1.2-1-1.7-1.6
				c-1.1-1.1-1.7-2.3-1.6-3.6s0.7-2.5,1.9-3.5c0.5-0.4,1-0.7,1.4-1c0.2-0.2,0.5-0.3,0.7-0.5c2.1-1.5,2.9-5.1,1.8-7.4
				c-0.5-1-1.6-1.5-3.4-2.2c-4.6-1.8-4.7-4.2-3.4-7.9c0.7-2.1,1.2-4.1,1.3-6c0.1-1-0.1-2.4-2.2-3.5c-1.7-0.9-3.6-1.4-5.5-1.2
				c-6.3,0.4-12.6,1-18.5,1.6c-2.1,0.2-4.3,0.5-6.3,0.8c-2.1,0.3-4.2,0.6-6.4,0.8c-4.5,0.5-7.2-1.1-8.7-2.5c-1.5-1.4-3.2-4-3.1-8.6
				c0-1.3,0.1-2.9,0.7-4.5c1.3-3.5,2.8-7.1,4.5-11.1c1.8-4.1,3.6-8.4,3.9-13c0.3-4.6-1.2-8-4.7-10.3c-1.5-1-2.9-1.4-3.6-1.1
				c-0.8,0.3-1.6,1.6-2.2,3.5c-1,3.3-2.1,6.9-3.7,10.2c-4.2,8.8-10.3,17.4-18.4,26.4l-1.6,1.8c-5.1,5.6-10,10.9-13.3,17.4
				c-2.1,4.2-5.5,6.8-9.8,7.8c-0.7,0.2-4.1,0.6-11.4,1.5c-0.9,0.1-1.8,0.2-2.6,0.3c0,6.4,0.2,12.4,0.4,18.2
				C81.5,161.7,81.7,167.8,81.7,174.2z"/>
		</g>
	</g>
</g>
</svg>
