<?xml version="1.0" encoding="UTF-8" standalone="no"?>
<!-- Created with Inkscape (http://www.inkscape.org/) -->

<svg
   xmlns:dc="http://purl.org/dc/elements/1.1/"
   xmlns:cc="http://creativecommons.org/ns#"
   xmlns:rdf="http://www.w3.org/1999/02/22-rdf-syntax-ns#"
   xmlns:svg="http://www.w3.org/2000/svg"
   xmlns="http://www.w3.org/2000/svg"
   xmlns:xlink="http://www.w3.org/1999/xlink"
   xmlns:sodipodi="http://sodipodi.sourceforge.net/DTD/sodipodi-0.dtd"
   xmlns:inkscape="http://www.inkscape.org/namespaces/inkscape"
   width="128"
   height="128"
   id="svg4684"
   version="1.1"
   inkscape:version="0.91 r13725"
   viewBox="0 0 128 128"
   sodipodi:docname="visible-false.002.svg"
   inkscape:export-filename="C:\project\lib.net\dbworks\Fw.Json\Content\theme\fwimages\icons\128\visible-false.002.png"
   inkscape:export-xdpi="90"
   inkscape:export-ydpi="90">
  <defs
     id="defs4686">
    <linearGradient
       inkscape:collect="always"
       id="linearGradient5415">
      <stop
         style="stop-color:#ffffff;stop-opacity:0.66071427"
         offset="0"
         id="stop5417" />
      <stop
         style="stop-color:#ffffff;stop-opacity:0.07738096"
         offset="1"
         id="stop5419" />
    </linearGradient>
    <linearGradient
       inkscape:collect="always"
       id="linearGradient5393">
      <stop
         style="stop-color:#7c7c7c;stop-opacity:1"
         offset="0"
         id="stop5395" />
      <stop
         style="stop-color:#020000;stop-opacity:1"
         offset="1"
         id="stop5397" />
    </linearGradient>
    <linearGradient
       inkscape:collect="always"
       xlink:href="#linearGradient5393"
       id="linearGradient5399"
       x1="463.86539"
       y1="-314.36783"
       x2="466.68808"
       y2="-385.07852"
       gradientUnits="userSpaceOnUse"
       gradientTransform="matrix(0.97753617,0,0,0.97753617,-406.7258,347.23009)" />
    <linearGradient
       inkscape:collect="always"
       xlink:href="#linearGradient5415"
       id="linearGradient5421"
       x1="466.69049"
       y1="-336.22244"
       x2="467.20474"
       y2="-318.22336"
       gradientUnits="userSpaceOnUse"
       gradientTransform="matrix(0.97753617,0,0,0.97753617,-406.7258,347.23009)" />
  </defs>
  <sodipodi:namedview
     id="base"
     pagecolor="#ffffff"
     bordercolor="#666666"
     borderopacity="1.0"
     inkscape:pageopacity="0.0"
     inkscape:pageshadow="2"
     inkscape:zoom="1.375"
     inkscape:cx="358.23288"
     inkscape:cy="151.29095"
     inkscape:current-layer="layer1"
     showgrid="true"
     inkscape:document-units="px"
     inkscape:grid-bbox="true"
     inkscape:window-width="1904"
     inkscape:window-height="897"
     inkscape:window-x="-8"
     inkscape:window-y="-8"
     inkscape:window-maximized="1" />
  <metadata
     id="metadata4689">
    <rdf:RDF>
      <cc:Work
         rdf:about="">
        <dc:format>image/svg+xml</dc:format>
        <dc:type
           rdf:resource="http://purl.org/dc/dcmitype/StillImage" />
        <dc:title></dc:title>
      </cc:Work>
    </rdf:RDF>
  </metadata>
  <g
     id="layer1"
     inkscape:label="Layer 1"
     inkscape:groupmode="layer"
     transform="translate(0,64)">
    <g
       id="g5483"
       style="opacity:0.606">
      <path
         sodipodi:nodetypes="aaaaaaaaaaaaaaa"
         inkscape:connector-curvature="0"
         id="path5383"
         d="m 22.837533,-15.749275 c -2.010812,5.102621 -4.74325,10.1255738 -5.278422,15.58393049 -0.750425,7.65369761 0.280827,15.68570151 3.016247,22.87317351 2.016842,5.29936 4.865637,10.882969 9.551437,14.075807 5.039248,3.433674 11.765733,3.559913 17.846106,4.021652 4.773719,0.36252 10.033734,1.112691 14.327151,-1.005415 5.216573,-2.57353 8.253191,-8.286486 11.562268,-13.070382 2.857006,-4.130354 5.550246,-8.524956 7.037899,-13.321746 1.723944,-5.5586712 2.838413,-11.5826792 2.010831,-17.3433976 -0.763436,-5.3141897 -3.47389,-10.2551854 -6.283837,-14.8298594 -1.836028,-2.98911 -3.814336,-6.180062 -6.786555,-8.043324 -3.443498,-2.158703 -7.759906,-2.724452 -11.813612,-3.016236 -6.303183,-0.453704 -12.6762,0.668712 -18.851521,2.010831 -4.401396,0.956577 -9.475229,1.255332 -12.819038,4.273006 -2.115721,1.909362 -2.474086,5.14051 -3.518954,7.79196 z"
         style="opacity:1;fill:url(#linearGradient5399);fill-opacity:1;fill-rule:evenodd;stroke:#000000;stroke-width:0.97753614px;stroke-linecap:butt;stroke-linejoin:miter;stroke-opacity:1" />
      <path
         sodipodi:nodetypes="acaaaacccccccaaacsaccaaaaaaaaaacaaaca"
         inkscape:connector-curvature="0"
         id="path5277"
         d="m 26.105133,-20.524989 c 8.948386,-4.081653 29.15702,-4.52437 29.15702,-4.52437 0,0 14.657608,0.915551 21.113706,4.021662 6.96084,3.348951 13.961837,8.264277 17.594752,15.0812134 1.180365,2.2148916 0.877329,4.96799518 0.879734,7.4777704 0.002,2.551389 -0.13362,5.1635905 -0.879734,7.6034523 C 92.48025,14.008363 86.932712,22.707829 86.932712,22.707829 l 8.546022,-8.043314 -2.513539,6.032483 10.902465,-15.8981108 3.51894,-7.5406065 10.21125,-3.2047643 10.01346,-6.2101994 c 0,0 -8.01178,4.5162309 -12.42166,5.6075483 -1.41163,0.3493364 -2.91912,0.4999927 -4.35448,0.2666034 -1.79715,-0.292216 -3.5843,-0.9849661 -5.06541,-2.0439401 -3.05801,-2.1864266 -7.375964,-8.5312316 -7.375964,-8.5312316 0,0 2.273144,-0.954102 3.439784,-1.353638 1.95056,-0.667999 4.41562,-1.492937 6.42445,-2.645365 2.03505,-1.167472 5.59861,-4.265616 5.59861,-4.265616 l -4.53221,2.577137 c 0,0 -4.64725,2.524427 -7.20901,2.937079 -2.169082,0.3494 -4.531004,0.358418 -6.576147,-0.444339 -1.272957,-0.499661 -2.079872,-1.780865 -3.18843,-2.581607 -3.423765,-2.473084 -7.017145,-4.71236 -10.66403,-6.842754 -2.459999,-1.437046 -4.819165,-3.199583 -7.553686,-3.999012 -6.354454,-1.8577 -13.17749,-1.833359 -19.794667,-1.625633 -4.938122,0.155018 -9.861346,0.989628 -14.666757,2.137285 -3.58267,0.855637 -7.06878,2.117197 -10.47475,3.519707 -2.95345,1.216163 -5.803945,2.682086 -8.598516,4.228802 -4.436675,2.455581 -8.939666,4.883331 -12.9377693,8.002492 -2.3123031,1.803975 -6.3095463,6.131821 -6.3095463,6.131821 0,0 5.6351265,-5.739506 9.3310226,-6.842753 0.540055,-0.16121 1.336829,-0.351593 1.688469,0.08886 0.543882,0.681245 -0.113757,1.770535 -0.444329,2.577147 C 9.4180471,-9.1378851 0.60513426,1.0380807 0.60513426,1.0380807 c 0,0 15.37221574,-16.9434487 25.49999874,-21.5630697 z"
         style="opacity:1;fill:#000000;fill-opacity:1;fill-rule:evenodd;stroke:none;stroke-width:1px;stroke-linecap:butt;stroke-linejoin:miter;stroke-opacity:1" />
      <path
         sodipodi:nodetypes="caaacaaaac"
         inkscape:connector-curvature="0"
         id="path5401"
         d="m 15.748669,32.561351 c 0,0 8.287809,5.701012 12.935771,7.501437 5.495284,2.128642 11.389041,3.516002 17.27763,3.747916 5.576146,0.219609 11.135715,-1.068288 16.589336,-2.251354 4.076134,-0.884245 11.98187,-3.60633 11.98187,-3.60633 0,0 -8.141139,0.660908 -12.221673,0.765613 -5.197109,0.133356 -10.406307,0.141181 -15.595472,-0.17552 C 42.92967,38.31202 39.146345,37.914561 35.405217,37.286344 32.779268,36.84539 30.203707,36.14299 27.613256,35.526867 23.64736,34.583602 15.748669,32.561351 15.748669,32.561351 Z"
         style="fill:#000000;fill-opacity:1;fill-rule:evenodd;stroke:none;stroke-width:1px;stroke-linecap:butt;stroke-linejoin:miter;stroke-opacity:1" />
      <path
         sodipodi:nodetypes="aaaaaaaa"
         inkscape:connector-curvature="0"
         id="path5405"
         d="m 55.262153,-19.016866 c -1.308393,1.124509 -2.777209,2.8194 -2.513539,4.52436 0.317035,2.05004 2.773515,3.160502 4.52437,4.273016 2.508182,1.5937361 5.323183,3.2321943 8.294668,3.2675909 2.676983,0.031868 5.912589,-0.639602 7.540607,-2.7648829 1.739046,-2.27021 2.040186,-5.991808 0.754061,-8.546022 -1.370046,-2.720884 -4.759877,-4.481251 -7.79196,-4.775724 -3.826057,-0.37159 -7.89291,1.5161 -10.808207,4.021662 z"
         style="fill:#ffffff;fill-rule:evenodd;stroke:none;stroke-width:1px;stroke-linecap:butt;stroke-linejoin:miter;stroke-opacity:1" />
      <path
         sodipodi:nodetypes="aaaaa"
         inkscape:connector-curvature="0"
         id="path5407"
         d="m 68.835253,-5.6951298 c 0.09326,1.1959862 2.118037,1.8510332 3.26759,1.5081233 0.757444,-0.2259477 1.346214,-1.2254882 1.25677,-2.010831 -0.08045,-0.7063677 -0.800651,-1.438073 -1.508124,-1.5081233 -1.202477,-0.1190639 -3.110148,0.8061252 -3.016236,2.010831 z"
         style="fill:#ffffff;fill-rule:evenodd;stroke:none;stroke-width:1px;stroke-linecap:butt;stroke-linejoin:miter;stroke-opacity:1" />
      <path
         sodipodi:nodetypes="sssssssssscssscsss"
         inkscape:connector-curvature="0"
         id="path5409"
         d="m 27.86461,19.691592 c -1.629514,1.978699 0.393703,5.876615 1.508123,8.546022 0.949335,2.273964 2.182526,4.727854 4.273006,6.032483 3.09661,1.932531 7.178733,1.371376 10.808207,1.759477 4.838413,0.517381 10.080559,2.610491 14.578515,0.754062 3.344621,-1.380418 5.229418,-5.068574 7.289253,-8.043314 1.877231,-2.71104 4.50563,-5.499892 4.52436,-8.797376 0.0049,-0.936724 -0.422022,-2.088467 -1.256769,-2.513539 -2.270749,-1.156318 -5.488045,2.766858 -7.540607,1.25677 -1.975679,-1.453518 0.724755,-5.550715 -1.005415,-7.289263 -0.835813,-0.83987 -3.518945,-0.502708 -3.518945,-0.502708 0,0 -2.114655,3.969032 -4.084498,5.341268 -1.322391,0.92121 -2.472883,1.816096 -4.084498,1.822313 -1.694422,0.0068 -4.398688,-0.125672 -5.15275,-0.879734 -0.754061,-0.754061 -5.341257,-7.037908 -5.341257,-7.037908 0,0 -0.772459,6.780826 -3.204764,7.540616 -1.53832,0.480537 -2.692712,-2.578398 -4.273016,-2.262185 -1.809303,0.362031 -3.518945,4.273016 -3.518945,4.273016 z"
         style="fill:url(#linearGradient5421);fill-opacity:1;fill-rule:evenodd;stroke:none;stroke-width:1px;stroke-linecap:butt;stroke-linejoin:miter;stroke-opacity:1" />
      <path
         sodipodi:nodetypes="aaaaaaaaa"
         inkscape:connector-curvature="0"
         id="path5411"
         d="m 26.607841,-14.241152 c -0.06872,1.563716 0.234413,3.339156 1.256769,4.52437 1.077959,1.2496725 2.879157,2.1411855 4.52436,2.0108212 1.992326,-0.1578721 3.905355,-1.6134918 5.027078,-3.2675902 0.959129,-1.414329 1.351737,-3.353663 1.005415,-5.027078 -0.26848,-1.297259 -1.232116,-2.434573 -2.262185,-3.26759 -0.846918,-0.684901 -1.927154,-1.272049 -3.016246,-1.25677 -1.837358,0.02581 -3.770025,0.921895 -5.027068,2.262185 -0.979423,1.044282 -1.445277,2.591321 -1.508123,4.021652 z"
         style="fill:#ffffff;fill-opacity:0.13095242;fill-rule:evenodd;stroke:none;stroke-width:1px;stroke-linecap:butt;stroke-linejoin:miter;stroke-opacity:1" />
      <path
         sodipodi:nodetypes="caaaaaacaaaaac"
         inkscape:connector-curvature="0"
         id="path5413"
         d="m 40.432284,0.08600937 c 0,0 -2.552092,6.74544923 -1.759467,10.05414563 0.780758,3.259164 2.950028,6.727931 6.032483,8.043314 2.561644,1.09313 5.811844,0.256544 8.294668,-1.005416 1.532523,-0.77894 2.65447,-2.284365 3.518955,-3.770308 0.70626,-1.213992 0.972404,-2.646259 1.256769,-4.021652 C 58.099784,7.8185453 58.498306,6.1958939 58.2784,4.6103693 58.154429,3.7165396 57.272984,2.0968306 57.272984,2.0968306 c 0,0 -0.211656,3.5858764 -0.754061,5.2784314 -0.77766,2.4266455 -1.546169,5.17363 -3.518955,6.786545 -1.416665,1.158243 -3.483215,1.862685 -5.278421,1.508123 -1.989775,-0.392989 -3.5927,-2.122857 -4.775724,-3.770308 C 42.219318,10.887901 41.993224,9.5885114 41.689054,8.3806775 41.006157,5.6688944 40.432284,0.08600937 40.432284,0.08600937 Z"
         style="fill:#190106;fill-opacity:1;fill-rule:evenodd;stroke:none;stroke-width:1px;stroke-linecap:butt;stroke-linejoin:miter;stroke-opacity:1" />
      <path
         sodipodi:nodetypes="aaaaaaa"
         inkscape:connector-curvature="0"
         id="path5423"
         d="m 45.710716,3.1022461 c -1.356019,1.2286945 -2.302166,3.6298069 -1.508124,5.2784314 0.472639,0.9813094 1.927047,1.2567694 3.016247,1.2567694 1.0892,0 2.305851,-0.431113 3.016237,-1.2567694 C 50.910993,7.5950708 51.241938,6.3694848 50.989137,5.364431 50.685309,4.1565091 49.655328,2.9990965 48.475608,2.5995383 47.588377,2.2990437 46.404884,2.4732602 45.710716,3.1022461 Z"
         style="fill:#ffffff;fill-rule:evenodd;stroke:none;stroke-width:1px;stroke-linecap:butt;stroke-linejoin:miter;stroke-opacity:1;fill-opacity:0.65584415" />
    </g>
  </g>
</svg>
