<?xml version="1.0" encoding="utf-8"?>
<!-- Generator: Adobe Illustrator 19.1.0, SVG Export Plug-In . SVG Version: 6.00 Build 0)  -->
<svg version="1.1" id="Layer_1" xmlns="http://www.w3.org/2000/svg" xmlns:xlink="http://www.w3.org/1999/xlink" x="0px" y="0px"
	 viewBox="0 0 288 288" style="enable-background:new 0 0 288 288;" xml:space="preserve">
<style type="text/css">
	.st0{fill:url(#SVGID_1_);}
	.st1{fill:#595A5C;}
	.st2{fill:url(#SVGID_2_);}
	.st3{fill:url(#SVGID_3_);}
	.st4{fill:url(#SVGID_4_);}
	.st5{fill:url(#SVGID_5_);}
	.st6{fill:url(#SVGID_6_);}
	.st7{fill:url(#SVGID_7_);}
	.st8{fill:url(#SVGID_8_);}
	.st9{fill:#FFFFFF;}
	.st10{fill:url(#SVGID_9_);}
	.st11{fill:url(#SVGID_10_);}
	.st12{fill:url(#SVGID_11_);}
	.st13{fill:url(#SVGID_12_);}
	.st14{fill:url(#SVGID_13_);}
	.st15{fill:url(#SVGID_14_);}
	.st16{fill:url(#SVGID_15_);}
	.st17{fill:url(#SVGID_16_);}
	.st18{fill:url(#SVGID_17_);}
	.st19{fill:url(#SVGID_18_);}
	.st20{fill:url(#SVGID_19_);}
	.st21{fill:url(#SVGID_20_);}
	.st22{fill:url(#SVGID_21_);}
	.st23{fill:url(#SVGID_22_);}
	.st24{fill:url(#SVGID_23_);}
	.st25{fill:url(#SVGID_24_);}
	.st26{fill:url(#SVGID_25_);}
	.st27{fill:#BCBEC0;}
	.st28{fill:url(#SVGID_26_);}
	.st29{fill:url(#SVGID_27_);}
	.st30{fill:url(#SVGID_28_);}
	.st31{fill:url(#SVGID_29_);}
	.st32{fill:url(#SVGID_30_);}
	.st33{fill:url(#SVGID_31_);}
	.st34{fill:url(#SVGID_32_);}
	.st35{fill:url(#SVGID_33_);}
	.st36{fill:url(#SVGID_34_);}
	.st37{fill:url(#SVGID_35_);}
	.st38{fill:url(#SVGID_36_);}
	.st39{fill:url(#SVGID_37_);}
	.st40{fill:url(#SVGID_38_);}
	.st41{fill:url(#SVGID_39_);}
	.st42{fill:url(#SVGID_40_);}
	.st43{fill:url(#SVGID_41_);}
	.st44{fill:url(#SVGID_42_);}
	.st45{fill:url(#SVGID_43_);}
	.st46{fill:url(#SVGID_44_);}
	.st47{fill:url(#SVGID_45_);}
	.st48{fill:url(#SVGID_46_);}
	.st49{fill:url(#SVGID_47_);}
	.st50{fill:url(#SVGID_48_);}
	.st51{fill:url(#SVGID_49_);}
	.st52{fill:url(#SVGID_50_);}
	.st53{fill:url(#SVGID_51_);}
	.st54{fill:url(#SVGID_52_);}
	.st55{fill:url(#SVGID_53_);}
	.st56{fill:url(#SVGID_54_);}
	.st57{fill:#9FBEE4;}
	.st58{fill:url(#SVGID_55_);}
	.st59{fill:url(#SVGID_56_);}
	.st60{fill:url(#SVGID_57_);}
	.st61{fill:url(#SVGID_58_);}
	.st62{fill:url(#SVGID_59_);}
	.st63{fill:url(#SVGID_60_);}
	.st64{fill:url(#SVGID_61_);}
	.st65{fill:url(#SVGID_62_);}
	.st66{fill:url(#SVGID_63_);}
	.st67{fill:url(#SVGID_64_);}
	.st68{fill:#A7A9AC;}
	.st69{fill:#58595B;}
	.st70{fill:#F1F2F2;}
	.st71{fill:#702FB7;}
	.st72{fill:#939598;}
	.st73{fill:#010101;}
	.st74{fill:url(#SVGID_65_);}
	.st75{fill:url(#SVGID_66_);}
	.st76{opacity:0.39;fill:url(#SVGID_67_);}
	.st77{fill:url(#SVGID_68_);}
	.st78{fill:url(#SVGID_69_);}
	.st79{fill:url(#SVGID_70_);}
	.st80{opacity:0.39;fill:url(#SVGID_71_);}
	.st81{fill:url(#SVGID_72_);}
	.st82{fill:url(#SVGID_73_);}
	.st83{opacity:0.5;fill:url(#SVGID_74_);}
	.st84{fill:url(#SVGID_75_);}
	.st85{fill:url(#SVGID_76_);}
	.st86{opacity:0.5;fill:url(#SVGID_77_);}
	.st87{fill:url(#SVGID_78_);}
	.st88{fill:url(#SVGID_79_);}
	.st89{opacity:0.5;fill:url(#SVGID_80_);}
	.st90{fill:url(#SVGID_81_);}
	.st91{fill:url(#SVGID_82_);}
	.st92{fill:url(#SVGID_83_);}
	.st93{fill:url(#SVGID_84_);}
	.st94{fill:url(#XMLID_10_);}
	.st95{fill:url(#SVGID_85_);}
	.st96{fill:url(#SVGID_86_);}
	.st97{fill:url(#SVGID_87_);}
	.st98{fill:url(#SVGID_88_);}
	.st99{fill:url(#SVGID_89_);}
	.st100{fill:url(#SVGID_90_);}
	.st101{fill:url(#SVGID_91_);}
	.st102{fill:url(#SVGID_92_);}
	.st103{fill:url(#SVGID_93_);}
	.st104{fill:url(#SVGID_94_);}
</style>
<g>
	<linearGradient id="SVGID_1_" gradientUnits="userSpaceOnUse" x1="145.8835" y1="30.1431" x2="145.8835" y2="240.6329">
		<stop  offset="0" style="stop-color:#A7A9AC"/>
		<stop  offset="1" style="stop-color:#595A5C"/>
	</linearGradient>
	<path class="st0" d="M232.1,240.6H59.6c-10.3,0-18.7-8.4-18.7-18.7v-173c0-10.3,8.4-18.7,18.7-18.7h172.5
		c10.3,0,18.7,8.4,18.7,18.7v173C250.9,232.2,242.4,240.6,232.1,240.6z"/>
	<path class="st1" d="M232.1,243.6H59.6c-12,0-21.7-9.8-21.7-21.7v-173c0-12,9.8-21.7,21.7-21.7h172.5c12,0,21.7,9.8,21.7,21.7v173
		C253.9,233.9,244.1,243.6,232.1,243.6z M59.6,33.1c-8.7,0-15.7,7.1-15.7,15.7v173c0,8.7,7.1,15.7,15.7,15.7h172.5
		c8.7,0,15.7-7.1,15.7-15.7v-173c0-8.7-7.1-15.7-15.7-15.7H59.6z"/>
</g>
<linearGradient id="SVGID_2_" gradientUnits="userSpaceOnUse" x1="145.8835" y1="40.2676" x2="145.8835" y2="230.5084">
	<stop  offset="0" style="stop-color:#FFFFFF;stop-opacity:0.75"/>
	<stop  offset="1" style="stop-color:#FFFFFF;stop-opacity:0"/>
</linearGradient>
<path class="st2" d="M221.3,230.5H70.5c-10.3,0-18.7-8.4-18.7-18.7V59c0-10.3,8.4-18.7,18.7-18.7h150.7c10.3,0,18.7,8.4,18.7,18.7
	v152.7C240,222.1,231.6,230.5,221.3,230.5z"/>
<g>
	<g id="XMLID_32_">
		<polygon class="st68" points="201.7,95 166.3,59.8 146,75.5 150.5,110.2 195.5,114.7 		"/>
		<path class="st69" d="M197.7,117.9l-49.8-5l-5.1-38.7l23.8-18.4l38.5,38.4L197.7,117.9z M153.2,107.4l40.2,4l4.9-15.6l-32.2-32.1
			l-16.9,13.1L153.2,107.4z"/>
	</g>
	<g id="XMLID_30_">
		<g id="XMLID_31_">
			<polygon class="st70" points="164.3,96.4 164.3,59.2 89.8,59.2 89.8,210.6 202,210.6 201.9,96.4 			"/>
			<path class="st69" d="M205,213.6H86.8V56.2h80.5v37.2h37.6L205,213.6z M92.8,207.6H199l-0.1-108.2h-37.7V62.2H92.8V207.6z"/>
		</g>
	</g>
	<g id="XMLID_29_">
		<rect x="90" y="59.1" class="st71" width="74.2" height="26.1"/>
		<path class="st69" d="M167.2,88.2H87V56.1h80.2V88.2z M93,82.2h68.2V62.1H93V82.2z"/>
	</g>
</g>
<g>
	<path class="st1" d="M108.1,119c-1.2,0-2.3-0.3-3.3-0.8c-1-0.6-2-1.4-2.8-2.4c-0.8-1-1.3-2.2-1.8-3.5c-0.4-1.3-0.7-2.7-0.7-4.2v-3
		c0-1.6,0.2-3.1,0.6-4.5c0.4-1.3,1-2.5,1.7-3.5c0.7-1,1.6-1.8,2.7-2.3c1.1-0.5,2.2-0.8,3.5-0.8c1.3,0,2.4,0.3,3.5,0.8
		c1.1,0.5,2,1.3,2.7,2.3c0.7,1,1.3,2.2,1.7,3.5c0.4,1.4,0.7,2.9,0.7,4.5v3c0,1.6-0.2,3-0.7,4.3c-0.4,1.3-1,2.5-1.8,3.4
		c-0.8,1-1.7,1.7-2.7,2.3C110.4,118.7,109.3,119,108.1,119z M103,108.1c0,1.1,0.1,2.2,0.4,3.1c0.3,1,0.7,1.8,1.2,2.5
		c0.5,0.6,1,1.1,1.6,1.4c0.6,0.3,1.2,0.5,1.9,0.5c0.8,0,1.4-0.2,2.1-0.5c0.6-0.4,1.1-0.9,1.6-1.5c0.4-0.7,0.8-1.4,1-2.3
		c0.3-0.9,0.4-1.9,0.4-3v-3c0-2.6-0.5-4.6-1.6-6c-0.9-1.1-2.1-1.7-3.5-1.7c-1.5,0-2.6,0.6-3.5,1.7c-1,1.3-1.5,3.3-1.5,6V108.1z"/>
	<path class="st1" d="M124.1,97.6h-3.3v-3.2h6.8v24.3h-3.6V97.6z"/>
</g>
<rect x="104.6" y="130.1" class="st1" width="7" height="7"/>
<rect x="104.6" y="149.3" class="st1" width="7" height="7"/>
<rect x="104.6" y="168.6" class="st1" width="7" height="7"/>
<rect x="104.6" y="187.8" class="st1" width="7" height="7"/>
<linearGradient id="SVGID_3_" gradientUnits="userSpaceOnUse" x1="97.0367" y1="72.0291" x2="160.5899" y2="72.0291">
	<stop  offset="0" style="stop-color:#FFFFFF;stop-opacity:0.75"/>
	<stop  offset="1" style="stop-color:#FFFFFF;stop-opacity:0"/>
</linearGradient>
<rect x="97" y="65.7" style="opacity:0.5;fill:url(#SVGID_3_);" width="63.6" height="12.7"/>
<g id="XMLID_33_">
	<linearGradient id="SVGID_4_" gradientUnits="userSpaceOnUse" x1="155.2069" y1="194.7578" x2="155.2069" y2="116.9849">
		<stop  offset="0" style="stop-color:#2F9E41"/>
		<stop  offset="1" style="stop-color:#39B54A"/>
	</linearGradient>
	<path class="st4" d="M155.2,194.8c-1.7,0-3.3-0.7-4.5-1.9c0,0-0.1-0.1-0.1-0.2l-26.5-30.4c-1.8-1.8-2.3-4.5-1.3-6.9
		c1-2.4,3.3-4,5.9-4h12v-26.8c0-4.3,3.5-7.7,7.7-7.7H162c4.3,0,7.7,3.5,7.7,7.7v26.8h12c2.6,0,4.9,1.6,5.9,4c1,2.4,0.5,5.1-1.3,6.9
		l-26.5,30.4c0,0.1-0.1,0.1-0.1,0.2C158.5,194.1,156.9,194.8,155.2,194.8z"/>
	<linearGradient id="SVGID_5_" gradientUnits="userSpaceOnUse" x1="155.2069" y1="116.9849" x2="155.2069" y2="194.7578">
		<stop  offset="0" style="stop-color:#FFFFFF;stop-opacity:0.75"/>
		<stop  offset="1" style="stop-color:#FFFFFF;stop-opacity:0"/>
	</linearGradient>
	<path class="st5" d="M155.2,194.8c-1.7,0-3.3-0.7-4.5-1.9c0,0-0.1-0.1-0.1-0.2l-26.5-30.4c-1.8-1.8-2.3-4.5-1.3-6.9
		c1-2.4,3.3-4,5.9-4h12v-26.8c0-4.3,3.5-7.7,7.7-7.7H162c4.3,0,7.7,3.5,7.7,7.7v26.8h12c2.6,0,4.9,1.6,5.9,4c1,2.4,0.5,5.1-1.3,6.9
		l-26.5,30.4c0,0.1-0.1,0.1-0.1,0.2C158.5,194.1,156.9,194.8,155.2,194.8z"/>
	<path class="st1" d="M162,120c2.6,0,4.7,2.1,4.7,4.7v28.6c0,0.4-0.1,0.8-0.2,1.2h15.2c3,0,4.5,3.7,2.4,5.8l-26.5,30.5
		c-0.7,0.7-1.5,1-2.4,1s-1.7-0.3-2.4-1l-26.5-30.5c-2.1-2.1-0.6-5.8,2.4-5.8h15.2c-0.1-0.4-0.2-0.8-0.2-1.2v-28.6
		c0-2.6,2.1-4.7,4.7-4.7H162 M162,114h-13.6c-5.9,0-10.7,4.8-10.7,10.7v23.8h-9c-3.8,0-7.2,2.3-8.7,5.8c-1.4,3.4-0.7,7.4,1.9,10.1
		l26.4,30.4c0.1,0.1,0.2,0.2,0.3,0.3c1.8,1.8,4.1,2.8,6.6,2.8c2.5,0,4.9-1,6.6-2.8c0.1-0.1,0.2-0.2,0.3-0.3l26.4-30.4
		c2.6-2.7,3.3-6.6,1.9-10.1c-1.5-3.5-4.9-5.8-8.7-5.8h-9v-23.8C172.7,118.8,167.9,114,162,114L162,114z"/>
	<linearGradient id="SVGID_6_" gradientUnits="userSpaceOnUse" x1="155.207" y1="191.7577" x2="155.207" y2="119.985">
		<stop  offset="0" style="stop-color:#2F9E41"/>
		<stop  offset="1" style="stop-color:#39B54A"/>
	</linearGradient>
	<path class="st6" d="M160.7,126v27.1c-0.4,1.8,0,3.6,1.1,5c1.1,1.5,2.9,2.3,4.7,2.3h9.5l-20.8,23.9l-20.8-23.9h9.5
		c1.9,0,3.6-0.9,4.7-2.3c1.1-1.4,1.5-3.3,1.1-5V126H160.7 M162,120h-13.6c-2.6,0-4.7,2.1-4.7,4.7v28.6c0,0.4,0.1,0.8,0.2,1.2h-15.2
		c-3,0-4.5,3.7-2.4,5.8l26.5,30.5c0.7,0.7,1.5,1,2.4,1s1.7-0.3,2.4-1l26.5-30.5c2.1-2.1,0.6-5.8-2.4-5.8h-15.2
		c0.1-0.4,0.2-0.8,0.2-1.2v-28.6C166.7,122.1,164.6,120,162,120L162,120z"/>
</g>
</svg>
