<?xml version="1.0" encoding="utf-8"?>
<!-- Generator: Adobe Illustrator 19.1.0, SVG Export Plug-In . SVG Version: 6.00 Build 0)  -->
<svg version="1.1" id="Layer_1" xmlns="http://www.w3.org/2000/svg" xmlns:xlink="http://www.w3.org/1999/xlink" x="0px" y="0px"
	 viewBox="0 0 288 288" style="enable-background:new 0 0 288 288;" xml:space="preserve">
<style type="text/css">
	.st0{fill:url(#SVGID_1_);}
	.st1{fill:#595A5C;}
	.st2{fill:url(#SVGID_2_);}
	.st3{fill:url(#SVGID_3_);}
	.st4{fill:url(#SVGID_4_);}
	.st5{fill:url(#SVGID_5_);}
	.st6{fill:url(#SVGID_6_);}
	.st7{fill:url(#SVGID_7_);}
	.st8{fill:url(#SVGID_8_);}
	.st9{fill:#FFFFFF;}
	.st10{fill:url(#SVGID_9_);}
	.st11{fill:url(#SVGID_10_);}
	.st12{fill:url(#SVGID_11_);}
	.st13{fill:url(#SVGID_12_);}
	.st14{fill:url(#SVGID_13_);}
	.st15{fill:url(#SVGID_14_);}
	.st16{fill:url(#SVGID_15_);}
	.st17{fill:url(#SVGID_16_);}
	.st18{fill:url(#SVGID_17_);}
	.st19{fill:url(#SVGID_18_);}
	.st20{fill:url(#SVGID_19_);}
	.st21{fill:url(#SVGID_20_);}
	.st22{fill:url(#SVGID_21_);}
	.st23{fill:url(#SVGID_22_);}
	.st24{fill:url(#SVGID_23_);}
	.st25{fill:url(#SVGID_24_);}
	.st26{fill:url(#SVGID_25_);}
	.st27{fill:#BCBEC0;}
	.st28{fill:url(#SVGID_26_);}
	.st29{fill:url(#SVGID_27_);}
	.st30{fill:url(#SVGID_28_);}
	.st31{fill:url(#SVGID_29_);}
	.st32{fill:url(#SVGID_30_);}
	.st33{fill:url(#SVGID_31_);}
	.st34{fill:url(#SVGID_32_);}
	.st35{fill:url(#SVGID_33_);}
	.st36{fill:url(#SVGID_34_);}
	.st37{fill:url(#SVGID_35_);}
	.st38{fill:url(#SVGID_36_);}
	.st39{fill:url(#SVGID_37_);}
	.st40{fill:url(#SVGID_38_);}
	.st41{fill:url(#SVGID_39_);}
	.st42{fill:url(#SVGID_40_);}
	.st43{fill:url(#SVGID_41_);}
	.st44{fill:url(#SVGID_42_);}
	.st45{fill:url(#SVGID_43_);}
	.st46{fill:url(#SVGID_44_);}
	.st47{fill:url(#SVGID_45_);}
	.st48{fill:url(#SVGID_46_);}
	.st49{fill:url(#SVGID_47_);}
	.st50{fill:url(#SVGID_48_);}
	.st51{fill:url(#SVGID_49_);}
	.st52{fill:url(#SVGID_50_);}
	.st53{fill:url(#SVGID_51_);}
	.st54{fill:url(#SVGID_52_);}
	.st55{fill:url(#SVGID_53_);}
	.st56{fill:url(#SVGID_54_);}
	.st57{fill:#9FBEE4;}
	.st58{fill:url(#SVGID_55_);}
	.st59{fill:url(#SVGID_56_);}
	.st60{fill:url(#SVGID_57_);}
	.st61{fill:url(#SVGID_58_);}
	.st62{fill:url(#SVGID_59_);}
	.st63{fill:url(#SVGID_60_);}
	.st64{fill:url(#SVGID_61_);}
	.st65{fill:url(#SVGID_62_);}
	.st66{fill:url(#SVGID_63_);}
	.st67{fill:url(#SVGID_64_);}
	.st68{fill:#A7A9AC;}
	.st69{fill:#58595B;}
	.st70{fill:#F1F2F2;}
	.st71{fill:#702FB7;}
	.st72{fill:#939598;}
	.st73{fill:#010101;}
	.st74{fill:url(#SVGID_65_);}
	.st75{fill:url(#SVGID_66_);}
	.st76{opacity:0.39;fill:url(#SVGID_67_);}
	.st77{fill:url(#SVGID_68_);}
	.st78{fill:url(#SVGID_69_);}
	.st79{fill:url(#SVGID_70_);}
	.st80{opacity:0.39;fill:url(#SVGID_71_);}
	.st81{fill:url(#SVGID_72_);}
	.st82{fill:url(#SVGID_73_);}
	.st83{opacity:0.5;fill:url(#SVGID_74_);}
	.st84{fill:url(#SVGID_75_);}
	.st85{fill:url(#SVGID_76_);}
	.st86{opacity:0.5;fill:url(#SVGID_77_);}
	.st87{fill:url(#SVGID_78_);}
	.st88{fill:url(#SVGID_79_);}
	.st89{opacity:0.5;fill:url(#SVGID_80_);}
	.st90{fill:url(#SVGID_81_);}
	.st91{fill:url(#SVGID_82_);}
	.st92{fill:url(#SVGID_83_);}
	.st93{fill:url(#SVGID_84_);}
	.st94{fill:url(#XMLID_10_);}
	.st95{fill:url(#SVGID_85_);}
	.st96{fill:url(#SVGID_86_);}
	.st97{fill:url(#SVGID_87_);}
	.st98{fill:url(#SVGID_88_);}
	.st99{fill:url(#SVGID_89_);}
	.st100{fill:url(#SVGID_90_);}
	.st101{fill:url(#SVGID_91_);}
	.st102{fill:url(#SVGID_92_);}
	.st103{fill:url(#SVGID_93_);}
	.st104{fill:url(#SVGID_94_);}
</style>
<g>
	<linearGradient id="SVGID_1_" gradientUnits="userSpaceOnUse" x1="144.4958" y1="30.1615" x2="144.4958" y2="239.1615">
		<stop  offset="0" style="stop-color:#702FB7"/>
		<stop  offset="1" style="stop-color:#5E3A88"/>
	</linearGradient>
	<circle class="st0" cx="144.5" cy="134.7" r="104.5"/>
	<path class="st1" d="M144.5,242.2C85.2,242.2,37,193.9,37,134.7S85.2,27.2,144.5,27.2S252,75.4,252,134.7S203.8,242.2,144.5,242.2z
		 M144.5,33.2C88.5,33.2,43,78.7,43,134.7s45.5,101.5,101.5,101.5S246,190.6,246,134.7S200.5,33.2,144.5,33.2z"/>
</g>
<linearGradient id="SVGID_2_" gradientUnits="userSpaceOnUse" x1="144.4955" y1="39.1615" x2="144.4955" y2="230.1615">
	<stop  offset="0" style="stop-color:#FFFFFF;stop-opacity:0.75"/>
	<stop  offset="1" style="stop-color:#FFFFFF;stop-opacity:0"/>
</linearGradient>
<circle class="st2" cx="144.5" cy="134.7" r="95.5"/>
<g>
	<path class="st9" d="M144.7,109.1c0.5-4.4,1.1-8.7,1.6-13.1c1.1-9.5,2.3-19.1,3.3-28.6c0.8-7.4,8.9-9.1,12.8-5.5
		c1.4,1.3,2.6,3.7,2.7,5.6c0.7,14.8,1.1,29.6,1.7,44.4c0.2,4.6,0.6,9.1,0.9,13.7c0,0.6,0.3,1.2,0.5,1.8c0.9,2.4,1.9,5,4.7,5.6
		c2.8,0.6,4.2-1.8,5.7-3.6c4.6-5.6,10-10,17.4-11.2c4.2-0.7,8.3-0.5,11.6,2.7c2,2,2.6,4.5,0.7,6.6c-8.4,10-13,22.1-18.5,33.7
		c-2.8,6-6.8,11.1-12.1,15.1c-3.7,2.7-7.2,5.7-10.5,8.9c-3.8,3.6-6.4,7.9-7.5,13.1c-0.2,1.1-1.3,2.3-2.3,3
		c-4.8,3.3-10.2,4.7-15.9,5.2c-9.8,0.9-19.5,0.1-28.7-4c-1-0.4-1.9-0.9-2.9-1.4c-3.7-2-6.4-4-5.7-9.3c0.6-4.2-0.8-8.7-1.5-13
		c-0.3-1.5-1-3.2-2.1-4.2c-5-4.9-5.9-11.3-6.5-17.7c-0.7-8.2-1-16.5-1.1-24.8c-0.1-10.4,6.3-16,16.7-15c0.7,0.1,1.6-0.2,2.1-0.6
		c4.8-4.9,10.6-5.8,17.1-4.2c0.6,0.2,1.7,0,2-0.4c3.6-4.1,8-4.4,12.8-3C143.8,109.1,144.1,109.1,144.7,109.1z"/>
	<path class="st1" d="M134.5,209.8c-8.7,0-16.3-1.5-23.1-4.6c-1.1-0.5-2.1-1-3-1.5c-2.9-1.5-8.3-4.4-7.2-12.3c0.4-2.7-0.3-5.8-0.9-9
		c-0.2-1-0.4-2-0.6-3.1c-0.2-1-0.7-2-1.2-2.6c-5.7-5.5-6.8-12.7-7.4-19.6c-0.8-9.2-1-18.2-1.1-25c-0.1-5.9,1.7-10.7,5.2-13.9
		c3.6-3.3,8.6-4.7,14.7-4.1c5.1-5,11.6-6.7,19.3-4.8c3.4-3.5,7.7-4.8,13-3.8l0.1-0.9c0.4-3,0.7-6,1.1-8.9l0.5-4.5
		c0.9-7.9,1.9-16,2.8-24c0.5-4.4,3.1-7.8,7-9.3c3.8-1.4,8-0.7,10.8,1.9c2.1,1.9,3.5,5,3.7,7.7c0.5,9.7,0.8,19.5,1.1,29
		c0.2,5.2,0.4,10.3,0.6,15.5c0.1,3.5,0.4,7.1,0.7,10.6l0.2,3c0,0.2,0.2,0.6,0.3,0.9c0.9,2.5,1.5,3.5,2.5,3.8c0.5,0.1,0.7,0,2.1-1.8
		c0.2-0.3,0.4-0.5,0.6-0.8c5.9-7.2,11.9-11.1,19.2-12.3c3.9-0.7,9.6-1,14.2,3.6c3.3,3.2,3.6,7.4,0.9,10.7
		c-6.7,7.9-10.8,17.1-15.2,26.8c-1,2.1-1.9,4.2-2.9,6.3c-3.1,6.7-7.4,12-13,16.2c-3.5,2.6-7,5.5-10.2,8.6c-3.6,3.4-5.7,7.1-6.6,11.5
		c-0.5,2.6-2.9,4.4-3.6,4.8c-4.7,3.3-10.4,5.1-17.3,5.7C139.2,209.7,136.8,209.8,134.5,209.8z M107.2,120c-3.4,0-6.1,0.9-8,2.6
		c-2.2,2-3.4,5.3-3.3,9.4c0.1,6.7,0.3,15.6,1.1,24.6c0.6,6.2,1.4,11.7,5.6,15.8c1.5,1.4,2.6,3.6,3,5.8c0.2,1,0.4,1.9,0.6,2.9
		c0.7,3.6,1.5,7.3,1,11c-0.5,3.3,0.6,4.4,4.1,6.2c0.8,0.4,1.7,0.9,2.7,1.3c7.8,3.5,16.5,4.7,27.2,3.8c5.9-0.5,10.6-2,14.4-4.7
		c0.6-0.4,1-1,1.1-1.1c1.1-5.5,3.9-10.4,8.4-14.6c3.5-3.3,7.1-6.3,10.8-9.1c4.8-3.6,8.5-8.2,11.2-13.9c1-2.1,1.9-4.2,2.9-6.2
		c4.4-9.6,8.9-19.6,16.1-28.1c0.4-0.4,0.9-1.1-0.5-2.6c-2.1-2.1-4.8-2.6-9-1.9c-5.7,1-10.7,4.2-15.5,10.2c-0.2,0.2-0.4,0.4-0.5,0.7
		c-1.4,1.8-3.8,4.9-8,4c-4.5-0.9-6-5-6.9-7.5c-0.3-0.8-0.6-1.6-0.7-2.6l-0.2-2.9c-0.3-3.5-0.5-7.2-0.7-10.9
		c-0.2-5.2-0.4-10.3-0.6-15.5c-0.3-9.5-0.7-19.3-1.1-28.9c-0.1-1.1-0.9-2.8-1.8-3.6c-1.1-1-3-1.3-4.6-0.7c-1,0.4-2.8,1.5-3.1,4.3
		c-0.9,8-1.9,16.2-2.8,24.1l-0.5,4.5c-0.4,3-0.7,6-1.1,9l-0.5,4.1c-0.1,0.8-0.5,1.5-1.1,2c-0.6,0.5-1.4,0.7-2.2,0.6
		c-0.2,0-0.3,0-0.5-0.1c-0.3,0-0.7-0.1-1.1-0.2c-4.4-1.3-7.3-0.7-9.7,2.1c-1.3,1.4-3.5,1.7-5,1.3c-5.9-1.5-10.4-0.4-14.2,3.4
		c-1.2,1.2-3.1,1.6-4.5,1.5C108.6,120,107.9,120,107.2,120z"/>
</g>
</svg>
