<?xml version="1.0" encoding="utf-8"?>
<!-- Generator: Adobe Illustrator 19.1.0, SVG Export Plug-In . SVG Version: 6.00 Build 0)  -->
<svg version="1.1" id="Layer_1" xmlns="http://www.w3.org/2000/svg" xmlns:xlink="http://www.w3.org/1999/xlink" x="0px" y="0px"
	 viewBox="0 0 288 288" style="enable-background:new 0 0 288 288;" xml:space="preserve">
<style type="text/css">
	.st0{fill:url(#SVGID_1_);}
	.st1{fill:#595A5C;}
	.st2{fill:url(#SVGID_2_);}
	.st3{fill:url(#SVGID_3_);}
	.st4{fill:url(#SVGID_4_);}
	.st5{fill:url(#SVGID_5_);}
	.st6{fill:url(#SVGID_6_);}
	.st7{fill:url(#SVGID_7_);}
	.st8{fill:url(#SVGID_8_);}
	.st9{fill:#FFFFFF;}
	.st10{fill:url(#SVGID_9_);}
	.st11{fill:url(#SVGID_10_);}
	.st12{fill:url(#SVGID_11_);}
	.st13{fill:url(#SVGID_12_);}
	.st14{fill:url(#SVGID_13_);}
	.st15{fill:url(#SVGID_14_);}
	.st16{fill:url(#SVGID_15_);}
	.st17{fill:url(#SVGID_16_);}
	.st18{fill:url(#SVGID_17_);}
	.st19{fill:url(#SVGID_18_);}
	.st20{fill:url(#SVGID_19_);}
	.st21{fill:url(#SVGID_20_);}
	.st22{fill:url(#SVGID_21_);}
	.st23{fill:url(#SVGID_22_);}
	.st24{fill:url(#SVGID_23_);}
	.st25{fill:url(#SVGID_24_);}
	.st26{fill:url(#SVGID_25_);}
	.st27{fill:#BCBEC0;}
	.st28{fill:url(#SVGID_26_);}
	.st29{fill:url(#SVGID_27_);}
	.st30{fill:url(#SVGID_28_);}
	.st31{fill:url(#SVGID_29_);}
	.st32{fill:url(#SVGID_30_);}
	.st33{fill:url(#SVGID_31_);}
	.st34{fill:url(#SVGID_32_);}
	.st35{fill:url(#SVGID_33_);}
	.st36{fill:url(#SVGID_34_);}
	.st37{fill:url(#SVGID_35_);}
	.st38{fill:url(#SVGID_36_);}
	.st39{fill:url(#SVGID_37_);}
	.st40{fill:url(#SVGID_38_);}
	.st41{fill:url(#SVGID_39_);}
	.st42{fill:url(#SVGID_40_);}
	.st43{fill:url(#SVGID_41_);}
	.st44{fill:url(#SVGID_42_);}
	.st45{fill:url(#SVGID_43_);}
	.st46{fill:url(#SVGID_44_);}
	.st47{fill:url(#SVGID_45_);}
	.st48{fill:url(#SVGID_46_);}
	.st49{fill:url(#SVGID_47_);}
	.st50{fill:url(#SVGID_48_);}
	.st51{fill:url(#SVGID_49_);}
	.st52{fill:url(#SVGID_50_);}
	.st53{fill:url(#SVGID_51_);}
	.st54{fill:url(#SVGID_52_);}
	.st55{fill:url(#SVGID_53_);}
	.st56{fill:url(#SVGID_54_);}
	.st57{fill:#9FBEE4;}
	.st58{fill:url(#SVGID_55_);}
	.st59{fill:url(#SVGID_56_);}
	.st60{fill:url(#SVGID_57_);}
	.st61{fill:url(#SVGID_58_);}
	.st62{fill:url(#SVGID_59_);}
	.st63{fill:url(#SVGID_60_);}
	.st64{fill:url(#SVGID_61_);}
	.st65{fill:url(#SVGID_62_);}
	.st66{fill:url(#SVGID_63_);}
	.st67{fill:url(#SVGID_64_);}
	.st68{fill:#A7A9AC;}
	.st69{fill:#58595B;}
	.st70{fill:#F1F2F2;}
	.st71{fill:#702FB7;}
	.st72{fill:#939598;}
	.st73{fill:#010101;}
	.st74{fill:url(#SVGID_65_);}
	.st75{fill:url(#SVGID_66_);}
	.st76{opacity:0.39;fill:url(#SVGID_67_);}
	.st77{fill:url(#SVGID_68_);}
	.st78{fill:url(#SVGID_69_);}
	.st79{fill:url(#SVGID_70_);}
	.st80{opacity:0.39;fill:url(#SVGID_71_);}
	.st81{fill:url(#SVGID_72_);}
	.st82{fill:url(#SVGID_73_);}
	.st83{opacity:0.5;fill:url(#SVGID_74_);}
	.st84{fill:url(#SVGID_75_);}
	.st85{fill:url(#SVGID_76_);}
	.st86{opacity:0.5;fill:url(#SVGID_77_);}
	.st87{fill:url(#SVGID_78_);}
	.st88{fill:url(#SVGID_79_);}
	.st89{opacity:0.5;fill:url(#SVGID_80_);}
	.st90{fill:url(#SVGID_81_);}
	.st91{fill:url(#SVGID_82_);}
	.st92{fill:url(#SVGID_83_);}
	.st93{fill:url(#SVGID_84_);}
	.st94{fill:url(#XMLID_10_);}
	.st95{fill:url(#SVGID_85_);}
	.st96{fill:url(#SVGID_86_);}
	.st97{fill:url(#SVGID_87_);}
	.st98{fill:url(#SVGID_88_);}
	.st99{fill:url(#SVGID_89_);}
	.st100{fill:url(#SVGID_90_);}
	.st101{fill:url(#SVGID_91_);}
	.st102{fill:url(#SVGID_92_);}
	.st103{fill:url(#SVGID_93_);}
	.st104{fill:url(#SVGID_94_);}
</style>
<g>
	<linearGradient id="SVGID_1_" gradientUnits="userSpaceOnUse" x1="144.5256" y1="30.7588" x2="144.5256" y2="120.9126">
		<stop  offset="0" style="stop-color:#FECB7D"/>
		<stop  offset="1" style="stop-color:#C49A6C"/>
	</linearGradient>
	<path class="st0" d="M145.1,120.9c-0.4,0-0.8-0.1-1.1-0.2L37.3,76.5c-1.1-0.5-1.9-1.6-1.9-2.8c0-1.2,0.8-2.3,1.9-2.8L142.9,31
		c0.3-0.1,0.7-0.2,1.1-0.2c0.4,0,0.7,0.1,1.1,0.2l106.6,39.9c1.2,0.4,1.9,1.5,1.9,2.8c0,1.2-0.7,2.3-1.8,2.8l-105.5,44.2
		C145.8,120.8,145.5,120.9,145.1,120.9z"/>
	<path class="st1" d="M144,33.8l106.6,39.9l-105.5,44.2L38.5,73.7L144,33.8 M144,27.8c-0.7,0-1.4,0.1-2.1,0.4L36.3,68.1
		c-2.3,0.9-3.8,3.1-3.9,5.5c0,2.5,1.4,4.7,3.7,5.6l106.6,44.2c0.7,0.3,1.5,0.5,2.3,0.5c0.8,0,1.6-0.2,2.3-0.5l105.5-44.2
		c2.3-1,3.7-3.2,3.7-5.6c0-2.5-1.6-4.6-3.9-5.5L146.1,28.1C145.4,27.9,144.7,27.8,144,27.8L144,27.8z"/>
</g>
<g>
	<g>
		<linearGradient id="SVGID_2_" gradientUnits="userSpaceOnUse" x1="89.5587" y1="75.4885" x2="89.5587" y2="237.4154">
			<stop  offset="0" style="stop-color:#FECB7D"/>
			<stop  offset="1" style="stop-color:#C49A6C"/>
		</linearGradient>
		<polygon class="st2" points="35.8,75.5 35,184.9 144.1,237.4 144.1,121 		"/>
		<path class="st1" d="M144.1,240.4c-0.4,0-0.9-0.1-1.3-0.3L33.7,187.6c-1-0.5-1.7-1.6-1.7-2.7l0.7-109.4c0-1,0.5-1.9,1.3-2.5
			c0.8-0.6,1.9-0.6,2.8-0.3l108.3,45.5c1.1,0.5,1.8,1.6,1.8,2.8v116.4c0,1-0.5,2-1.4,2.5C145.2,240.3,144.6,240.4,144.1,240.4z
			 M38,183l103,49.6V123L38.7,80L38,183z"/>
	</g>
	<g>
		<linearGradient id="SVGID_3_" gradientUnits="userSpaceOnUse" x1="199.8287" y1="75.4885" x2="199.8287" y2="237.4154">
			<stop  offset="0" style="stop-color:#FECB7D"/>
			<stop  offset="1" style="stop-color:#C49A6C"/>
		</linearGradient>
		<polygon class="st3" points="253.6,75.5 254.4,184.9 145.3,237.4 145.3,121 		"/>
		<path class="st1" d="M145.3,240.4c-0.6,0-1.1-0.2-1.6-0.5c-0.9-0.5-1.4-1.5-1.4-2.5V121c0-1.2,0.7-2.3,1.8-2.8l108.3-45.5
			c0.9-0.4,2-0.3,2.8,0.3c0.8,0.6,1.3,1.5,1.3,2.5l0.7,109.4c0,1.2-0.7,2.2-1.7,2.7l-109.1,52.5
			C146.2,240.3,145.7,240.4,145.3,240.4z M148.3,123v109.6l103-49.6l-0.7-103L148.3,123z"/>
	</g>
</g>
<g id="XMLID_19_">
	
		<linearGradient id="SVGID_4_" gradientUnits="userSpaceOnUse" x1="143.3859" y1="209.0495" x2="143.3859" y2="61.7262" gradientTransform="matrix(-1 0 0 -1 286.772 270.776)">
		<stop  offset="0" style="stop-color:#39B54A"/>
		<stop  offset="1" style="stop-color:#2F9E41"/>
	</linearGradient>
	<path class="st4" d="M143.4,209c-2.6,0-5-1-6.9-2.8c0,0-0.1-0.1-0.1-0.2l-52.2-60c-2.8-2.8-3.5-6.8-2-10.5c1.5-3.7,5-6,9-6h26.6V74
		c0-6.8,5.5-12.3,12.3-12.3h26.8c6.8,0,12.3,5.5,12.3,12.3v55.6h26.6c4,0,7.4,2.3,9,6c1.5,3.7,0.7,7.7-2,10.5l-52.2,60
		c0,0.1-0.1,0.1-0.1,0.2C148.4,208,146,209,143.4,209z"/>
	
		<linearGradient id="SVGID_5_" gradientUnits="userSpaceOnUse" x1="143.3859" y1="209.0495" x2="143.3859" y2="61.7262" gradientTransform="matrix(-1 0 0 -1 286.772 270.776)">
		<stop  offset="0" style="stop-color:#FFFFFF;stop-opacity:0.75"/>
		<stop  offset="1" style="stop-color:#FFFFFF;stop-opacity:0"/>
	</linearGradient>
	<path class="st5" d="M143.4,209c-2.6,0-5-1-6.9-2.8c0,0-0.1-0.1-0.1-0.2l-52.2-60c-2.8-2.8-3.5-6.8-2-10.5c1.5-3.7,5-6,9-6h26.6V74
		c0-6.8,5.5-12.3,12.3-12.3h26.8c6.8,0,12.3,5.5,12.3,12.3v55.6h26.6c4,0,7.4,2.3,9,6c1.5,3.7,0.7,7.7-2,10.5l-52.2,60
		c0,0.1-0.1,0.1-0.1,0.2C148.4,208,146,209,143.4,209z"/>
	<path class="st1" d="M156.8,64.7c5.1,0,9.3,4.2,9.3,9.3v56.3c0,0.8-0.1,1.6-0.3,2.3h29.9c6,0,8.9,7.2,4.7,11.4l-52.3,60
		c-1.3,1.3-3,2-4.7,2s-3.4-0.7-4.7-2l-52.3-60c-4.2-4.2-1.2-11.4,4.7-11.4H121c-0.2-0.7-0.3-1.5-0.3-2.3V74c0-5.1,4.2-9.3,9.3-9.3
		H156.8 M156.8,58.7H130c-8.4,0-15.3,6.9-15.3,15.3v52.6H91.1c-5.2,0-9.8,3.1-11.7,7.8c-1.9,4.7-0.9,10,2.6,13.7l52.2,59.9
		c0.1,0.1,0.2,0.2,0.3,0.3c2.4,2.4,5.6,3.7,9,3.7s6.6-1.3,9-3.7c0.1-0.1,0.2-0.2,0.3-0.3l52.2-59.9c3.5-3.6,4.5-9,2.6-13.7
		c-2-4.8-6.6-7.8-11.7-7.8h-23.6V74C172.1,65.6,165.2,58.7,156.8,58.7L156.8,58.7z"/>
	<linearGradient id="SVGID_6_" gradientUnits="userSpaceOnUse" x1="143.386" y1="64.7265" x2="143.386" y2="206.0495">
		<stop  offset="0" style="stop-color:#39B54A"/>
		<stop  offset="1" style="stop-color:#2F9E41"/>
	</linearGradient>
	<path class="st6" d="M156.8,70.7c1.8,0,3.3,1.5,3.3,3.3v56.3c0,0.3,0,0.5-0.1,0.8c-0.5,1.8-0.1,3.7,1.1,5.2
		c1.1,1.5,2.9,2.3,4.7,2.3h29.9c0.2,0,0.5,0,0.6,0.4c0.2,0.4,0,0.6-0.1,0.8c-0.1,0.1-0.2,0.2-0.3,0.3l-52.1,59.8
		c-0.1,0.1-0.3,0.1-0.4,0.1s-0.3,0-0.4-0.1l-52.1-59.8c-0.1-0.1-0.2-0.2-0.3-0.3c-0.1-0.1-0.3-0.3-0.1-0.8c0.2-0.4,0.5-0.4,0.6-0.4
		H121c1.9,0,3.6-0.9,4.7-2.3s1.5-3.4,1.1-5.2c-0.1-0.3-0.1-0.6-0.1-0.8V74c0-1.8,1.5-3.3,3.3-3.3H156.8 M156.8,64.7H130
		c-5.1,0-9.3,4.2-9.3,9.3v56.3c0,0.8,0.1,1.6,0.3,2.3H91.1c-6,0-8.9,7.2-4.7,11.4l52.3,60c1.3,1.3,3,2,4.7,2s3.4-0.7,4.7-2l52.3-60
		c4.2-4.2,1.2-11.4-4.7-11.4h-29.9c0.2-0.7,0.3-1.5,0.3-2.3V74C166.1,68.9,161.9,64.7,156.8,64.7L156.8,64.7z"/>
</g>
</svg>
