<?xml version="1.0" encoding="utf-8"?>
<!-- Generator: Adobe Illustrator 19.1.0, SVG Export Plug-In . SVG Version: 6.00 Build 0)  -->
<svg version="1.1" id="Layer_1" xmlns="http://www.w3.org/2000/svg" xmlns:xlink="http://www.w3.org/1999/xlink" x="0px" y="0px"
	 viewBox="0 0 288 288" style="enable-background:new 0 0 288 288;" xml:space="preserve">
<style type="text/css">
	.st0{fill:url(#SVGID_1_);}
	.st1{fill:#595A5C;}
	.st2{fill:url(#SVGID_2_);}
	.st3{fill:url(#SVGID_3_);}
	.st4{fill:url(#SVGID_4_);}
	.st5{fill:url(#SVGID_5_);}
	.st6{fill:url(#SVGID_6_);}
	.st7{fill:url(#SVGID_7_);}
	.st8{fill:url(#SVGID_8_);}
	.st9{fill:#FFFFFF;}
	.st10{fill:url(#SVGID_9_);}
	.st11{fill:url(#SVGID_10_);}
	.st12{fill:url(#SVGID_11_);}
	.st13{fill:url(#SVGID_12_);}
	.st14{fill:url(#SVGID_13_);}
	.st15{fill:url(#SVGID_14_);}
	.st16{fill:url(#SVGID_15_);}
	.st17{fill:url(#SVGID_16_);}
	.st18{fill:url(#SVGID_17_);}
	.st19{fill:url(#SVGID_18_);}
	.st20{fill:url(#SVGID_19_);}
	.st21{fill:url(#SVGID_20_);}
	.st22{fill:url(#SVGID_21_);}
	.st23{fill:url(#SVGID_22_);}
	.st24{fill:url(#SVGID_23_);}
	.st25{fill:url(#SVGID_24_);}
	.st26{fill:url(#SVGID_25_);}
	.st27{fill:#BCBEC0;}
	.st28{fill:url(#SVGID_26_);}
	.st29{fill:url(#SVGID_27_);}
	.st30{fill:url(#SVGID_28_);}
	.st31{fill:url(#SVGID_29_);}
	.st32{fill:url(#SVGID_30_);}
	.st33{fill:url(#SVGID_31_);}
	.st34{fill:url(#SVGID_32_);}
	.st35{fill:url(#SVGID_33_);}
	.st36{fill:url(#SVGID_34_);}
	.st37{fill:url(#SVGID_35_);}
	.st38{fill:url(#SVGID_36_);}
	.st39{fill:url(#SVGID_37_);}
	.st40{fill:url(#SVGID_38_);}
	.st41{fill:url(#SVGID_39_);}
	.st42{fill:url(#SVGID_40_);}
	.st43{fill:url(#SVGID_41_);}
	.st44{fill:url(#SVGID_42_);}
	.st45{fill:url(#SVGID_43_);}
	.st46{fill:url(#SVGID_44_);}
	.st47{fill:url(#SVGID_45_);}
	.st48{fill:url(#SVGID_46_);}
	.st49{fill:url(#SVGID_47_);}
	.st50{fill:url(#SVGID_48_);}
	.st51{fill:url(#SVGID_49_);}
	.st52{fill:url(#SVGID_50_);}
	.st53{fill:url(#SVGID_51_);}
	.st54{fill:url(#SVGID_52_);}
	.st55{fill:url(#SVGID_53_);}
	.st56{fill:url(#SVGID_54_);}
	.st57{fill:#9FBEE4;}
	.st58{fill:url(#SVGID_55_);}
	.st59{fill:url(#SVGID_56_);}
	.st60{fill:url(#SVGID_57_);}
	.st61{fill:url(#SVGID_58_);}
	.st62{fill:url(#SVGID_59_);}
	.st63{fill:url(#SVGID_60_);}
	.st64{fill:url(#SVGID_61_);}
	.st65{fill:url(#SVGID_62_);}
	.st66{fill:url(#SVGID_63_);}
	.st67{fill:url(#SVGID_64_);}
	.st68{fill:#A7A9AC;}
	.st69{fill:#58595B;}
	.st70{fill:#F1F2F2;}
	.st71{fill:#702FB7;}
	.st72{fill:#939598;}
	.st73{fill:#010101;}
	.st74{fill:url(#SVGID_65_);}
	.st75{fill:url(#SVGID_66_);}
	.st76{opacity:0.39;fill:url(#SVGID_67_);}
	.st77{fill:url(#SVGID_68_);}
	.st78{fill:url(#SVGID_69_);}
	.st79{fill:url(#SVGID_70_);}
	.st80{opacity:0.39;fill:url(#SVGID_71_);}
	.st81{fill:url(#SVGID_72_);}
	.st82{fill:url(#SVGID_73_);}
	.st83{opacity:0.5;fill:url(#SVGID_74_);}
	.st84{fill:url(#SVGID_75_);}
	.st85{fill:url(#SVGID_76_);}
	.st86{opacity:0.5;fill:url(#SVGID_77_);}
	.st87{fill:url(#SVGID_78_);}
	.st88{fill:url(#SVGID_79_);}
	.st89{opacity:0.5;fill:url(#SVGID_80_);}
	.st90{fill:url(#SVGID_81_);}
	.st91{fill:url(#SVGID_82_);}
	.st92{fill:url(#SVGID_83_);}
	.st93{fill:url(#SVGID_84_);}
	.st94{fill:url(#XMLID_10_);}
	.st95{fill:url(#SVGID_85_);}
	.st96{fill:url(#SVGID_86_);}
	.st97{fill:url(#SVGID_87_);}
	.st98{fill:url(#SVGID_88_);}
	.st99{fill:url(#SVGID_89_);}
	.st100{fill:url(#SVGID_90_);}
	.st101{fill:url(#SVGID_91_);}
	.st102{fill:url(#SVGID_92_);}
	.st103{fill:url(#SVGID_93_);}
	.st104{fill:url(#SVGID_94_);}
</style>
<g>
	<linearGradient id="SVGID_1_" gradientUnits="userSpaceOnUse" x1="143.3984" y1="30.1432" x2="143.3984" y2="240.6329">
		<stop  offset="0" style="stop-color:#702FB7"/>
		<stop  offset="1" style="stop-color:#5E3A88"/>
	</linearGradient>
	<path class="st0" d="M229.6,240.6H57.2c-10.3,0-18.7-8.4-18.7-18.7v-173c0-10.3,8.4-18.7,18.7-18.7h172.5
		c10.3,0,18.7,8.4,18.7,18.7v173C248.4,232.2,240,240.6,229.6,240.6z"/>
	<path class="st1" d="M229.6,243.6H57.2c-12,0-21.7-9.8-21.7-21.7v-173c0-12,9.8-21.7,21.7-21.7h172.5c12,0,21.7,9.8,21.7,21.7v173
		C251.4,233.9,241.6,243.6,229.6,243.6z M57.2,33.1c-8.7,0-15.7,7.1-15.7,15.7v173c0,8.7,7.1,15.7,15.7,15.7h172.5
		c8.7,0,15.7-7.1,15.7-15.7v-173c0-8.7-7.1-15.7-15.7-15.7H57.2z"/>
</g>
<linearGradient id="SVGID_2_" gradientUnits="userSpaceOnUse" x1="143.3984" y1="40.2677" x2="143.3984" y2="230.5084">
	<stop  offset="0" style="stop-color:#FFFFFF;stop-opacity:0.75"/>
	<stop  offset="1" style="stop-color:#FFFFFF;stop-opacity:0"/>
</linearGradient>
<path class="st2" d="M218.8,230.5H68c-10.3,0-18.7-8.4-18.7-18.7V59c0-10.3,8.4-18.7,18.7-18.7h150.7c10.3,0,18.7,8.4,18.7,18.7
	v152.7C237.5,222.1,229.1,230.5,218.8,230.5z"/>
<g id="XMLID_25_">
	<path class="st9" d="M130.6,193c-2.4,0-4.7-1-6.5-2.7l-57.2-49.8c-0.1,0-0.1-0.1-0.2-0.1c-3.7-3.7-3.7-9.6,0-13.3
		c0,0,0.1-0.1,0.2-0.1l57.2-49.8c1.8-1.7,4.1-2.7,6.5-2.7c5.2,0,9.4,4.2,9.4,9.4v25.2c20.1,0.1,39.9,5.5,54.3,14.9
		c17.5,11.3,26.7,27.6,26.7,47.1c0,10-3.8,16.7-9.4,16.7c-2.2,0-5.5-1.1-8.7-6.4c-12.3-20.6-33.1-23.2-49.8-23.2
		c-2.8,0-5.4,0.1-7.9,0.1c-1.8,0-3.6,0.1-5.2,0.1v25.2C140,188.8,135.8,193,130.6,193z"/>
	
		<linearGradient id="SVGID_3_" gradientUnits="userSpaceOnUse" x1="137.2431" y1="-60.2725" x2="137.2431" y2="96.7149" gradientTransform="matrix(4.489659e-11 -1 1 4.489659e-11 124.2608 271.0368)">
		<stop  offset="0" style="stop-color:#FFFFFF;stop-opacity:0.75"/>
		<stop  offset="1" style="stop-color:#FFFFFF;stop-opacity:0"/>
	</linearGradient>
	<path class="st3" d="M130.6,193c-2.4,0-4.7-1-6.5-2.7l-57.2-49.8c-0.1,0-0.1-0.1-0.2-0.1c-3.7-3.7-3.7-9.6,0-13.3
		c0,0,0.1-0.1,0.2-0.1l57.2-49.8c1.8-1.7,4.1-2.7,6.5-2.7c5.2,0,9.4,4.2,9.4,9.4v25.2c20.1,0.1,39.9,5.5,54.3,14.9
		c17.5,11.3,26.7,27.6,26.7,47.1c0,10-3.8,16.7-9.4,16.7c-2.2,0-5.5-1.1-8.7-6.4c-12.3-20.6-33.1-23.2-49.8-23.2
		c-2.8,0-5.4,0.1-7.9,0.1c-1.8,0-3.6,0.1-5.2,0.1v25.2C140,188.8,135.8,193,130.6,193z"/>
	<path class="st1" d="M130.6,77.6c3.3,0,6.4,2.5,6.4,6.4v28.5c0.7-0.2,1.5-0.3,2.2-0.3c37.5,0,78.8,18.7,78.8,59
		c0,8-2.8,13.7-6.4,13.7c-1.9,0-4-1.5-6.1-5c-13.2-22.1-35.3-24.7-52.3-24.7c-5.3,0-10,0.2-13.9,0.2c-0.8,0-1.5-0.1-2.2-0.3v28.5
		c0,3.8-3.1,6.4-6.4,6.4c-1.6,0-3.2-0.6-4.5-1.9l-57.3-49.8c-2.5-2.5-2.5-6.5,0-9l57.3-49.8C127.4,78.1,129,77.6,130.6,77.6
		 M130.6,71.6c-3.2,0-6.2,1.2-8.5,3.5l-57.1,49.7c-0.1,0.1-0.2,0.2-0.3,0.3c-2.3,2.3-3.6,5.4-3.6,8.8s1.3,6.4,3.6,8.8
		c0.1,0.1,0.2,0.2,0.3,0.3l57.1,49.7c2.3,2.2,5.3,3.5,8.5,3.5c6.9,0,12.4-5.6,12.4-12.4v-22.3c0.8,0,1.5,0,2.3-0.1
		c2.5-0.1,5.1-0.1,7.8-0.1c16.9,0,35.7,2.6,47.2,21.7c3.9,6.5,8.3,7.9,11.2,7.9c6.2,0,12.4-6.1,12.4-19.7c0-20.6-9.7-37.8-28.1-49.7
		c-14.2-9.2-33.3-14.7-52.9-15.3V83.9C143,77.1,137.4,71.6,130.6,71.6L130.6,71.6z"/>
	<g>
		<path class="st1" d="M130.6,193c-2.4,0-4.7-0.9-6.5-2.7l-57.2-49.8c-0.1,0-0.1-0.1-0.2-0.1c-3.7-3.7-3.7-9.6,0-13.3
			c0,0,0.1-0.1,0.2-0.1l57.2-49.8c2.7-2.7,6.6-3.4,10.1-2c3.6,1.5,5.8,4.8,5.8,8.7v25.2c20.1,0.1,39.9,5.5,54.3,14.9
			c17.5,11.3,26.7,27.6,26.7,47.1c0,8.7-3,15.1-7.7,16.4c-2.1,0.6-6.3,0.6-10.4-6.2c-14.5-24.2-40.5-23.5-57.7-23.1
			c-1.8,0-3.6,0.1-5.2,0.1v25.2c0,3.9-2.2,7.2-5.8,8.7C133,192.8,131.8,193,130.6,193z M70.9,136.1l57.2,49.8c0.1,0,0.1,0.1,0.2,0.1
			c1.5,1.5,3.2,0.9,3.7,0.7c0.5-0.2,2.1-1,2.1-3.1v-28.5c0-0.9,0.4-1.8,1.2-2.4c0.7-0.6,1.7-0.8,2.6-0.5c0.5,0.1,1,0.2,1.5,0.2
			c1.8,0,3.7-0.1,5.8-0.1c17.5-0.5,46.7-1.2,63,26c1.7,2.8,3.1,3.7,3.6,3.5c1.1-0.3,3.3-3.8,3.3-10.6c0-22-13-35-23.9-42.1
			c-13.7-8.8-32.5-13.9-51.8-13.9c-0.5,0-1,0.1-1.5,0.2c-0.9,0.2-1.9,0-2.6-0.5c-0.7-0.6-1.2-1.4-1.2-2.4V83.9
			c0-2.1-1.6-2.9-2.1-3.1c-0.5-0.2-2.2-0.8-3.7,0.7c0,0-0.1,0.1-0.2,0.1l-57.2,49.8C69.7,132.8,69.7,134.8,70.9,136.1z"/>
	</g>
</g>
</svg>
