<?xml version="1.0" encoding="utf-8"?>
<!-- Generator: Adobe Illustrator 19.1.0, SVG Export Plug-In . SVG Version: 6.00 Build 0)  -->
<svg version="1.1" id="Layer_1" xmlns="http://www.w3.org/2000/svg" xmlns:xlink="http://www.w3.org/1999/xlink" x="0px" y="0px"
	 viewBox="0 0 288 288" style="enable-background:new 0 0 288 288;" xml:space="preserve">
<style type="text/css">
	.st0{fill:url(#SVGID_1_);}
	.st1{fill:#595A5C;}
	.st2{fill:url(#SVGID_2_);}
	.st3{fill:url(#SVGID_3_);}
	.st4{fill:url(#SVGID_4_);}
	.st5{fill:url(#SVGID_5_);}
	.st6{fill:url(#SVGID_6_);}
	.st7{fill:url(#SVGID_7_);}
	.st8{fill:url(#SVGID_8_);}
	.st9{fill:#FFFFFF;}
	.st10{fill:url(#SVGID_9_);}
	.st11{fill:url(#SVGID_10_);}
	.st12{fill:url(#SVGID_11_);}
	.st13{fill:url(#SVGID_12_);}
	.st14{fill:url(#SVGID_13_);}
	.st15{fill:url(#SVGID_14_);}
	.st16{fill:url(#SVGID_15_);}
	.st17{fill:url(#SVGID_16_);}
	.st18{fill:url(#SVGID_17_);}
	.st19{fill:url(#SVGID_18_);}
	.st20{fill:url(#SVGID_19_);}
	.st21{fill:url(#SVGID_20_);}
	.st22{fill:url(#SVGID_21_);}
	.st23{fill:url(#SVGID_22_);}
	.st24{fill:url(#SVGID_23_);}
	.st25{fill:url(#SVGID_24_);}
	.st26{fill:url(#SVGID_25_);}
	.st27{fill:#BCBEC0;}
	.st28{fill:url(#SVGID_26_);}
	.st29{fill:url(#SVGID_27_);}
	.st30{fill:url(#SVGID_28_);}
	.st31{fill:url(#SVGID_29_);}
	.st32{fill:url(#SVGID_30_);}
	.st33{fill:url(#SVGID_31_);}
	.st34{fill:url(#SVGID_32_);}
	.st35{fill:url(#SVGID_33_);}
	.st36{fill:url(#SVGID_34_);}
	.st37{fill:url(#SVGID_35_);}
	.st38{fill:url(#SVGID_36_);}
	.st39{fill:url(#SVGID_37_);}
	.st40{fill:url(#SVGID_38_);}
	.st41{fill:url(#SVGID_39_);}
	.st42{fill:url(#SVGID_40_);}
	.st43{fill:url(#SVGID_41_);}
	.st44{fill:url(#SVGID_42_);}
	.st45{fill:url(#SVGID_43_);}
	.st46{fill:url(#SVGID_44_);}
	.st47{fill:url(#SVGID_45_);}
	.st48{fill:url(#SVGID_46_);}
	.st49{fill:url(#SVGID_47_);}
	.st50{fill:url(#SVGID_48_);}
	.st51{fill:url(#SVGID_49_);}
	.st52{fill:url(#SVGID_50_);}
	.st53{fill:url(#SVGID_51_);}
	.st54{fill:url(#SVGID_52_);}
	.st55{fill:url(#SVGID_53_);}
	.st56{fill:url(#SVGID_54_);}
	.st57{fill:#9FBEE4;}
	.st58{fill:url(#SVGID_55_);}
	.st59{fill:url(#SVGID_56_);}
	.st60{fill:url(#SVGID_57_);}
	.st61{fill:url(#SVGID_58_);}
	.st62{fill:url(#SVGID_59_);}
	.st63{fill:url(#SVGID_60_);}
	.st64{fill:url(#SVGID_61_);}
	.st65{fill:url(#SVGID_62_);}
	.st66{fill:url(#SVGID_63_);}
	.st67{fill:url(#SVGID_64_);}
	.st68{fill:#A7A9AC;}
	.st69{fill:#58595B;}
	.st70{fill:#F1F2F2;}
	.st71{fill:#702FB7;}
	.st72{fill:#939598;}
	.st73{fill:#010101;}
	.st74{fill:url(#SVGID_65_);}
	.st75{fill:url(#SVGID_66_);}
	.st76{opacity:0.39;fill:url(#SVGID_67_);}
	.st77{fill:url(#SVGID_68_);}
	.st78{fill:url(#SVGID_69_);}
	.st79{fill:url(#SVGID_70_);}
	.st80{opacity:0.39;fill:url(#SVGID_71_);}
	.st81{fill:url(#SVGID_72_);}
	.st82{fill:url(#SVGID_73_);}
	.st83{opacity:0.5;fill:url(#SVGID_74_);}
	.st84{fill:url(#SVGID_75_);}
	.st85{fill:url(#SVGID_76_);}
	.st86{opacity:0.5;fill:url(#SVGID_77_);}
	.st87{fill:url(#SVGID_78_);}
	.st88{fill:url(#SVGID_79_);}
	.st89{opacity:0.5;fill:url(#SVGID_80_);}
	.st90{fill:url(#SVGID_81_);}
	.st91{fill:url(#SVGID_82_);}
	.st92{fill:url(#SVGID_83_);}
	.st93{fill:url(#SVGID_84_);}
	.st94{fill:url(#XMLID_10_);}
	.st95{fill:url(#SVGID_85_);}
	.st96{fill:url(#SVGID_86_);}
	.st97{fill:url(#SVGID_87_);}
	.st98{fill:url(#SVGID_88_);}
	.st99{fill:url(#SVGID_89_);}
	.st100{fill:url(#SVGID_90_);}
	.st101{fill:url(#SVGID_91_);}
	.st102{fill:url(#SVGID_92_);}
	.st103{fill:url(#SVGID_93_);}
	.st104{fill:url(#SVGID_94_);}
</style>
<g>
	<linearGradient id="SVGID_1_" gradientUnits="userSpaceOnUse" x1="143.3859" y1="30.1431" x2="143.3859" y2="240.6329">
		<stop  offset="0" style="stop-color:#39B54A"/>
		<stop  offset="1" style="stop-color:#2F9E41"/>
	</linearGradient>
	<path class="st0" d="M229.6,240.6H57.1c-10.3,0-18.7-8.4-18.7-18.7v-173c0-10.3,8.4-18.7,18.7-18.7h172.5
		c10.3,0,18.7,8.4,18.7,18.7v173C248.4,232.2,239.9,240.6,229.6,240.6z"/>
	<path class="st1" d="M229.6,243.6H57.1c-12,0-21.7-9.8-21.7-21.7v-173c0-12,9.8-21.7,21.7-21.7h172.5c12,0,21.7,9.8,21.7,21.7v173
		C251.4,233.9,241.6,243.6,229.6,243.6z M57.1,33.1c-8.7,0-15.7,7.1-15.7,15.7v173c0,8.7,7.1,15.7,15.7,15.7h172.5
		c8.7,0,15.7-7.1,15.7-15.7v-173c0-8.7-7.1-15.7-15.7-15.7H57.1z"/>
</g>
<linearGradient id="SVGID_2_" gradientUnits="userSpaceOnUse" x1="143.3859" y1="40.2676" x2="143.3859" y2="230.5084">
	<stop  offset="0" style="stop-color:#FFFFFF;stop-opacity:0.75"/>
	<stop  offset="1" style="stop-color:#FFFFFF;stop-opacity:0"/>
</linearGradient>
<path class="st2" d="M218.8,230.5H68c-10.3,0-18.7-8.4-18.7-18.7V59c0-10.3,8.4-18.7,18.7-18.7h150.7c10.3,0,18.7,8.4,18.7,18.7
	v152.7C237.5,222.1,229.1,230.5,218.8,230.5z"/>
<g id="XMLID_2_">
	<path class="st9" d="M143.4,209c-2.6,0-5-1-6.9-2.8l-0.1-0.1l-52.3-60c-2.8-2.8-3.5-6.8-2-10.5c1.5-3.7,5-6,9-6h26.6V74
		c0-6.8,5.5-12.3,12.3-12.3h26.8c6.8,0,12.3,5.5,12.3,12.3v55.6h26.6c4,0,7.4,2.3,9,6c1.5,3.7,0.7,7.7-2,10.5l-52.3,60l-0.1,0.1
		C148.4,208,146,209,143.4,209z"/>
	<path class="st1" d="M156.8,64.7c5.1,0,9.3,4.2,9.3,9.3v56.3c0,0.8-0.1,1.6-0.3,2.3h29.9c6,0,8.9,7.2,4.7,11.4l-52.3,60
		c-1.3,1.3-3,2-4.7,2c-1.7,0-3.4-0.7-4.7-2l-52.3-60c-4.2-4.2-1.2-11.4,4.7-11.4H121c-0.2-0.7-0.3-1.5-0.3-2.3V74
		c0-5.1,4.2-9.3,9.3-9.3H156.8 M156.8,58.7H130c-8.4,0-15.3,6.9-15.3,15.3v52.6H91.1c-5.2,0-9.8,3.1-11.7,7.8
		c-1.9,4.7-0.9,10,2.6,13.7l52.2,59.9l0.1,0.2l0.1,0.1c2.4,2.4,5.6,3.7,9,3.7c3.4,0,6.6-1.3,9-3.7l0.1-0.1l0.1-0.2l52.2-59.9
		c3.5-3.6,4.5-9,2.6-13.7c-2-4.8-6.6-7.8-11.7-7.8h-23.6V74C172.1,65.6,165.2,58.7,156.8,58.7L156.8,58.7z"/>
</g>
</svg>
