<?xml version="1.0" encoding="utf-8"?>
<!-- Generator: Adobe Illustrator 19.1.0, SVG Export Plug-In . SVG Version: 6.00 Build 0)  -->
<svg version="1.1" id="Layer_1" xmlns="http://www.w3.org/2000/svg" xmlns:xlink="http://www.w3.org/1999/xlink" x="0px" y="0px"
	 viewBox="0 0 288 288" style="enable-background:new 0 0 288 288;" xml:space="preserve">
<style type="text/css">
	.st0{fill:url(#SVGID_1_);}
	.st1{fill:#595A5C;}
	.st2{fill:url(#SVGID_2_);}
	.st3{fill:url(#SVGID_3_);}
	.st4{fill:url(#SVGID_4_);}
	.st5{fill:url(#SVGID_5_);}
	.st6{fill:url(#SVGID_6_);}
	.st7{fill:url(#SVGID_7_);}
	.st8{fill:url(#SVGID_8_);}
	.st9{fill:#FFFFFF;}
	.st10{fill:url(#SVGID_9_);}
	.st11{fill:url(#SVGID_10_);}
	.st12{fill:url(#SVGID_11_);}
	.st13{fill:url(#SVGID_12_);}
	.st14{fill:url(#SVGID_13_);}
	.st15{fill:url(#SVGID_14_);}
	.st16{fill:url(#SVGID_15_);}
	.st17{fill:url(#SVGID_16_);}
	.st18{fill:url(#SVGID_17_);}
	.st19{fill:url(#SVGID_18_);}
	.st20{fill:url(#SVGID_19_);}
	.st21{fill:url(#SVGID_20_);}
	.st22{fill:url(#SVGID_21_);}
	.st23{fill:url(#SVGID_22_);}
	.st24{fill:url(#SVGID_23_);}
	.st25{fill:url(#SVGID_24_);}
	.st26{fill:url(#SVGID_25_);}
	.st27{fill:#BCBEC0;}
	.st28{fill:url(#SVGID_26_);}
	.st29{fill:url(#SVGID_27_);}
	.st30{fill:url(#SVGID_28_);}
	.st31{fill:url(#SVGID_29_);}
	.st32{fill:url(#SVGID_30_);}
	.st33{fill:url(#SVGID_31_);}
	.st34{fill:url(#SVGID_32_);}
	.st35{fill:url(#SVGID_33_);}
	.st36{fill:url(#SVGID_34_);}
	.st37{fill:url(#SVGID_35_);}
	.st38{fill:url(#SVGID_36_);}
	.st39{fill:url(#SVGID_37_);}
	.st40{fill:url(#SVGID_38_);}
	.st41{fill:url(#SVGID_39_);}
	.st42{fill:url(#SVGID_40_);}
	.st43{fill:url(#SVGID_41_);}
	.st44{fill:url(#SVGID_42_);}
	.st45{fill:url(#SVGID_43_);}
	.st46{fill:url(#SVGID_44_);}
	.st47{fill:url(#SVGID_45_);}
	.st48{fill:url(#SVGID_46_);}
	.st49{fill:url(#SVGID_47_);}
	.st50{fill:url(#SVGID_48_);}
	.st51{fill:url(#SVGID_49_);}
	.st52{fill:url(#SVGID_50_);}
	.st53{fill:url(#SVGID_51_);}
	.st54{fill:url(#SVGID_52_);}
	.st55{fill:url(#SVGID_53_);}
	.st56{fill:url(#SVGID_54_);}
	.st57{fill:#9FBEE4;}
	.st58{fill:url(#SVGID_55_);}
	.st59{fill:url(#SVGID_56_);}
	.st60{fill:url(#SVGID_57_);}
	.st61{fill:url(#SVGID_58_);}
	.st62{fill:url(#SVGID_59_);}
	.st63{fill:url(#SVGID_60_);}
	.st64{fill:url(#SVGID_61_);}
	.st65{fill:url(#SVGID_62_);}
	.st66{fill:url(#SVGID_63_);}
	.st67{fill:url(#SVGID_64_);}
	.st68{fill:#A7A9AC;}
	.st69{fill:#58595B;}
	.st70{fill:#F1F2F2;}
	.st71{fill:#702FB7;}
	.st72{fill:#939598;}
	.st73{fill:#010101;}
	.st74{fill:url(#SVGID_65_);}
	.st75{fill:url(#SVGID_66_);}
	.st76{opacity:0.39;fill:url(#SVGID_67_);}
	.st77{fill:url(#SVGID_68_);}
	.st78{fill:url(#SVGID_69_);}
	.st79{fill:url(#SVGID_70_);}
	.st80{opacity:0.39;fill:url(#SVGID_71_);}
	.st81{fill:url(#SVGID_72_);}
	.st82{fill:url(#SVGID_73_);}
	.st83{opacity:0.5;fill:url(#SVGID_74_);}
	.st84{fill:url(#SVGID_75_);}
	.st85{fill:url(#SVGID_76_);}
	.st86{opacity:0.5;fill:url(#SVGID_77_);}
	.st87{fill:url(#SVGID_78_);}
	.st88{fill:url(#SVGID_79_);}
	.st89{opacity:0.5;fill:url(#SVGID_80_);}
	.st90{fill:url(#SVGID_81_);}
	.st91{fill:url(#SVGID_82_);}
	.st92{fill:url(#SVGID_83_);}
	.st93{fill:url(#SVGID_84_);}
	.st94{fill:url(#XMLID_10_);}
	.st95{fill:url(#SVGID_85_);}
	.st96{fill:url(#SVGID_86_);}
	.st97{fill:url(#SVGID_87_);}
	.st98{fill:url(#SVGID_88_);}
	.st99{fill:url(#SVGID_89_);}
	.st100{fill:url(#SVGID_90_);}
	.st101{fill:url(#SVGID_91_);}
	.st102{fill:url(#SVGID_92_);}
	.st103{fill:url(#SVGID_93_);}
	.st104{fill:url(#SVGID_94_);}
</style>
<g>
	<linearGradient id="SVGID_1_" gradientUnits="userSpaceOnUse" x1="144.8267" y1="30.1431" x2="144.8267" y2="240.6329">
		<stop  offset="0" style="stop-color:#A7A9AC"/>
		<stop  offset="1" style="stop-color:#595A5C"/>
	</linearGradient>
	<path class="st0" d="M231.1,240.6H58.6c-10.3,0-18.7-8.4-18.7-18.7v-173c0-10.3,8.4-18.7,18.7-18.7h172.5
		c10.3,0,18.7,8.4,18.7,18.7v173C249.8,232.2,241.4,240.6,231.1,240.6z"/>
	<path class="st1" d="M231.1,243.6H58.6c-12,0-21.7-9.8-21.7-21.7v-173c0-12,9.8-21.7,21.7-21.7h172.5c12,0,21.7,9.8,21.7,21.7v173
		C252.8,233.9,243.1,243.6,231.1,243.6z M58.6,33.1c-8.7,0-15.7,7.1-15.7,15.7v173c0,8.7,7.1,15.7,15.7,15.7h172.5
		c8.7,0,15.7-7.1,15.7-15.7v-173c0-8.7-7.1-15.7-15.7-15.7H58.6z"/>
</g>
<linearGradient id="SVGID_2_" gradientUnits="userSpaceOnUse" x1="144.8267" y1="40.2676" x2="144.8267" y2="230.5084">
	<stop  offset="0" style="stop-color:#FFFFFF;stop-opacity:0.75"/>
	<stop  offset="1" style="stop-color:#FFFFFF;stop-opacity:0"/>
</linearGradient>
<path class="st2" d="M220.2,230.5H69.5c-10.3,0-18.7-8.4-18.7-18.7V59c0-10.3,8.4-18.7,18.7-18.7h150.7c10.3,0,18.7,8.4,18.7,18.7
	v152.7C238.9,222.1,230.5,230.5,220.2,230.5z"/>
<g>
	<g id="XMLID_28_">
		<polygon class="st68" points="200.6,95 165.3,59.8 144.9,75.5 149.5,110.2 194.5,114.7 		"/>
		<path class="st69" d="M196.6,117.9l-49.8-5l-5.1-38.7l23.8-18.4L204,94.2L196.6,117.9z M152.1,107.4l40.2,4l4.9-15.6L165,63.7
			l-16.9,13.1L152.1,107.4z"/>
	</g>
	<g id="XMLID_13_">
		<g id="XMLID_27_">
			<polygon class="st70" points="163.2,96.4 163.2,59.2 88.7,59.2 88.7,210.6 201,210.6 200.9,96.4 			"/>
			<path class="st69" d="M204,213.6H85.7V56.2h80.5v37.2h37.6L204,213.6z M91.7,207.6H198l-0.1-108.2h-37.7V62.2H91.7V207.6z"/>
		</g>
	</g>
	<g id="XMLID_3_">
		<rect x="88.9" y="59.1" class="st71" width="74.2" height="26.1"/>
		<path class="st69" d="M166.1,88.2H85.9V56.1h80.2V88.2z M91.9,82.2h68.2V62.1H91.9V82.2z"/>
	</g>
</g>
<g>
	<rect x="120.3" y="189.4" class="st1" width="61.5" height="2"/>
</g>
<linearGradient id="SVGID_3_" gradientUnits="userSpaceOnUse" x1="95.9799" y1="72.0291" x2="159.5331" y2="72.0291">
	<stop  offset="0" style="stop-color:#FFFFFF;stop-opacity:0.75"/>
	<stop  offset="1" style="stop-color:#FFFFFF;stop-opacity:0"/>
</linearGradient>
<rect x="96" y="65.7" style="opacity:0.5;fill:url(#SVGID_3_);" width="63.6" height="12.7"/>
<g id="XMLID_616_">
	<linearGradient id="XMLID_10_" gradientUnits="userSpaceOnUse" x1="136.3401" y1="134.0121" x2="150.7575" y2="150.4892">
		<stop  offset="0" style="stop-color:#702FB7"/>
		<stop  offset="1" style="stop-color:#5E3A88"/>
	</linearGradient>
	<path id="XMLID_348_" class="st94" d="M136.6,134.8l13.4,15.8c-16.5,13.7-32.1,23-39.5,24l-4.1-4.9
		C108.6,162.6,120.4,148.8,136.6,134.8z M176.6,108.1c-8.4,3-22,11.6-36.2,23.5l13.4,15.8c14.1-12.1,24.9-24.1,29.2-31.8
		L176.6,108.1z M184,113.6c1.2-2.6,1.4-4.6,0.5-5.7c-0.9-1.1-2.9-1.2-5.7-0.5L184,113.6z M105.2,172.2c-2,1.7-2.3,4.6-2.3,4.6
		s2.9,0.2,5-1.5L105.2,172.2z M153.9,157c9.2-5.6,26.4-22.8,28-26.4c1.7-3.6-0.5-8.8-0.5-8.8l-5.2,6.5l0.5,1.7
		c0,0-6.3,10.5-17.3,19.9C155.1,148.4,153.9,157,153.9,157z"/>
</g>
<g>
	<linearGradient id="SVGID_4_" gradientUnits="userSpaceOnUse" x1="107.1367" y1="181.8569" x2="107.1367" y2="198.9903">
		<stop  offset="0" style="stop-color:#ED1C24"/>
		<stop  offset="1" style="stop-color:#CE181E"/>
	</linearGradient>
	<path class="st4" d="M115.8,199h-4.2l-4.4-6l-4.4,6h-4.2l6.5-8.9l-6.1-8.3h4.2l4,5.4l3.9-5.4h4.2l-6,8.3L115.8,199z"/>
</g>
</svg>
