<?xml version="1.0" encoding="utf-8"?>
<!-- Generator: Adobe Illustrator 19.1.0, SVG Export Plug-In . SVG Version: 6.00 Build 0)  -->
<svg version="1.1" id="Layer_1" xmlns="http://www.w3.org/2000/svg" xmlns:xlink="http://www.w3.org/1999/xlink" x="0px" y="0px"
	 viewBox="0 0 288 288" style="enable-background:new 0 0 288 288;" xml:space="preserve">
<style type="text/css">
	.st0{fill:url(#SVGID_1_);}
	.st1{fill:#595A5C;}
	.st2{fill:url(#SVGID_2_);}
	.st3{fill:url(#SVGID_3_);}
	.st4{fill:url(#SVGID_4_);}
	.st5{fill:url(#SVGID_5_);}
	.st6{fill:url(#SVGID_6_);}
	.st7{fill:url(#SVGID_7_);}
	.st8{fill:url(#SVGID_8_);}
	.st9{fill:#FFFFFF;}
	.st10{fill:url(#SVGID_9_);}
	.st11{fill:url(#SVGID_10_);}
	.st12{fill:url(#SVGID_11_);}
	.st13{fill:url(#SVGID_12_);}
	.st14{fill:url(#SVGID_13_);}
	.st15{fill:url(#SVGID_14_);}
	.st16{fill:url(#SVGID_15_);}
	.st17{fill:url(#SVGID_16_);}
	.st18{fill:url(#SVGID_17_);}
	.st19{fill:url(#SVGID_18_);}
	.st20{fill:url(#SVGID_19_);}
	.st21{fill:url(#SVGID_20_);}
	.st22{fill:url(#SVGID_21_);}
	.st23{fill:url(#SVGID_22_);}
	.st24{fill:url(#SVGID_23_);}
	.st25{fill:url(#SVGID_24_);}
	.st26{fill:url(#SVGID_25_);}
	.st27{fill:#BCBEC0;}
	.st28{fill:url(#SVGID_26_);}
	.st29{fill:url(#SVGID_27_);}
	.st30{fill:url(#SVGID_28_);}
	.st31{fill:url(#SVGID_29_);}
	.st32{fill:url(#SVGID_30_);}
	.st33{fill:url(#SVGID_31_);}
	.st34{fill:url(#SVGID_32_);}
	.st35{fill:url(#SVGID_33_);}
	.st36{fill:url(#SVGID_34_);}
	.st37{fill:url(#SVGID_35_);}
	.st38{fill:url(#SVGID_36_);}
	.st39{fill:url(#SVGID_37_);}
	.st40{fill:url(#SVGID_38_);}
	.st41{fill:url(#SVGID_39_);}
	.st42{fill:url(#SVGID_40_);}
	.st43{fill:url(#SVGID_41_);}
	.st44{fill:url(#SVGID_42_);}
	.st45{fill:url(#SVGID_43_);}
	.st46{fill:url(#SVGID_44_);}
	.st47{fill:url(#SVGID_45_);}
	.st48{fill:url(#SVGID_46_);}
	.st49{fill:url(#SVGID_47_);}
	.st50{fill:url(#SVGID_48_);}
	.st51{fill:url(#SVGID_49_);}
	.st52{fill:url(#SVGID_50_);}
	.st53{fill:url(#SVGID_51_);}
	.st54{fill:url(#SVGID_52_);}
	.st55{fill:url(#SVGID_53_);}
	.st56{fill:url(#SVGID_54_);}
	.st57{fill:#9FBEE4;}
	.st58{fill:url(#SVGID_55_);}
	.st59{fill:url(#SVGID_56_);}
	.st60{fill:url(#SVGID_57_);}
	.st61{fill:url(#SVGID_58_);}
	.st62{fill:url(#SVGID_59_);}
	.st63{fill:url(#SVGID_60_);}
	.st64{fill:url(#SVGID_61_);}
	.st65{fill:url(#SVGID_62_);}
	.st66{fill:url(#SVGID_63_);}
	.st67{fill:url(#SVGID_64_);}
	.st68{fill:#A7A9AC;}
	.st69{fill:#58595B;}
	.st70{fill:#F1F2F2;}
	.st71{fill:#702FB7;}
	.st72{fill:#939598;}
	.st73{fill:#010101;}
	.st74{fill:url(#SVGID_65_);}
	.st75{fill:url(#SVGID_66_);}
	.st76{opacity:0.39;fill:url(#SVGID_67_);}
	.st77{fill:url(#SVGID_68_);}
	.st78{fill:url(#SVGID_69_);}
	.st79{fill:url(#SVGID_70_);}
	.st80{opacity:0.39;fill:url(#SVGID_71_);}
	.st81{fill:url(#SVGID_72_);}
	.st82{fill:url(#SVGID_73_);}
	.st83{opacity:0.5;fill:url(#SVGID_74_);}
	.st84{fill:url(#SVGID_75_);}
	.st85{fill:url(#SVGID_76_);}
	.st86{opacity:0.5;fill:url(#SVGID_77_);}
	.st87{fill:url(#SVGID_78_);}
	.st88{fill:url(#SVGID_79_);}
	.st89{opacity:0.5;fill:url(#SVGID_80_);}
	.st90{fill:url(#SVGID_81_);}
	.st91{fill:url(#SVGID_82_);}
	.st92{fill:url(#SVGID_83_);}
	.st93{fill:url(#SVGID_84_);}
	.st94{fill:url(#XMLID_10_);}
	.st95{fill:url(#SVGID_85_);}
	.st96{fill:url(#SVGID_86_);}
	.st97{fill:url(#SVGID_87_);}
	.st98{fill:url(#SVGID_88_);}
	.st99{fill:url(#SVGID_89_);}
	.st100{fill:url(#SVGID_90_);}
	.st101{fill:url(#SVGID_91_);}
	.st102{fill:url(#SVGID_92_);}
	.st103{fill:url(#SVGID_93_);}
	.st104{fill:url(#SVGID_94_);}
</style>
<g>
	<linearGradient id="SVGID_1_" gradientUnits="userSpaceOnUse" x1="144.4957" y1="30.1615" x2="144.4957" y2="239.1615">
		<stop  offset="0" style="stop-color:#FBB040"/>
		<stop  offset="1" style="stop-color:#F7941E"/>
	</linearGradient>
	<circle class="st0" cx="144.5" cy="134.7" r="104.5"/>
	<path class="st1" d="M144.5,242.2C85.2,242.2,37,193.9,37,134.7S85.2,27.2,144.5,27.2S252,75.4,252,134.7S203.8,242.2,144.5,242.2z
		 M144.5,33.2C88.5,33.2,43,78.7,43,134.7s45.5,101.5,101.5,101.5S246,190.6,246,134.7S200.5,33.2,144.5,33.2z"/>
</g>
<linearGradient id="SVGID_2_" gradientUnits="userSpaceOnUse" x1="144.4955" y1="39.1615" x2="144.4955" y2="230.1615">
	<stop  offset="0" style="stop-color:#FFFFFF;stop-opacity:0.75"/>
	<stop  offset="1" style="stop-color:#FFFFFF;stop-opacity:0"/>
</linearGradient>
<circle class="st2" cx="144.5" cy="134.7" r="95.5"/>
<g>
	<polygon class="st1" points="107.4,92.3 134,102.3 190.4,148.5 191,162.6 157.3,184.6 109,169.6 71.9,134 70.8,121.4 85.5,104.3 	
		"/>
	<g id="CLuL2V_4_">
		<g>
			<g>
				<path class="st9" d="M170,180c0.8,0.2,1.4,0.3,2.1,0.4c3.4,0.7,6.4-0.2,8.8-2.8c1.7-1.8,2.8-4,3.3-6.4c0.3-1.3,0.9-1.7,2.1-1.8
					c4.5-0.5,7.5-3.3,8.3-7.8c0.5-2.6-0.2-5.1-1.9-7.2c-1-1.2-2.5-1.4-3.6-0.5c-1.1,0.8-1.3,2.1-0.6,3.5c0.2,0.3,0.4,0.6,0.6,1
					c1.2,2.4,0.2,4.8-2.4,5.7c-1.7,0.6-3.2,0.3-4.6-0.9c-10.6-9.1-21.2-18.1-31.8-27.1c-0.6-0.5-1.1-1-1.7-1.4
					c-1.2-0.8-2.7-0.6-3.5,0.5c-0.9,1.1-0.8,2.2,0.2,3.4c0.5,0.5,1,0.9,1.5,1.4c10.3,8.8,20.6,17.5,30.8,26.3
					c2.2,1.9,2.4,2.7,1.3,5.3c-0.3,0.7-0.7,1.3-1.1,1.9c-1.1,1.8-2.9,2.3-4.9,1.9c-0.9-0.2-1.8-0.8-2.5-1.5c-7.8-7-15.5-14-23.2-21
					c-1.7-1.5-3.4-3.1-5.1-4.6c-0.7-0.6-1.5-1.3-2.7-1c-2,0.5-2.7,2.7-1.3,4.2c0.9,1,1.9,1.9,2.9,2.9c7.5,7.1,15.1,14.1,22.7,21.1
					c1.3,1.2,1.6,2.4,1,4c-0.6,1.6-1.6,2.9-3.5,2.9c-1.5,0.1-2.9-0.4-4-1.6c-7-6.8-14-13.5-21-20.2c-0.4-0.4-0.9-0.9-1.4-1.2
					c-1.1-0.7-2.4-0.5-3.2,0.3c-0.9,1-1,2.2-0.2,3.4c0.3,0.4,0.8,0.8,1.1,1.2c5.1,5.2,10.2,10.4,15.3,15.5c1,1,1.7,2.1,1.4,3.6
					c-0.4,2.6-4.1,4.7-6.9,3.7c-1.1-0.4-2.2-1.1-3.3-1.8c-0.5-0.3-1-0.8-1.5-1.1c-1.2-0.7-2.6-0.4-3.3,0.7c-0.8,1-0.8,2.2,0.2,3.2
					c2.5,2.4,5.4,4.3,9,4.5c4.5,0.3,7.7-2,10.1-5.6c0.3-0.4,0.6-0.9,0.8-1.4C160.9,189.1,167.3,187.8,170,180z M105.9,157.7
					c-0.2-0.6-0.3-0.9-0.4-1.2c-1.5-4.8-6.3-6.3-10.1-3c-1.8,1.6-3.5,3.1-5.3,4.7c-1.8,1.7-2.3,3.8-1.6,6.1c0.7,2.3,2.3,3.7,4.7,4
					c1.3,0.2,2.3,0.8,3,1.9c0.7,1,1.3,1.9,2.1,2.9c1.3,1.7,2.8,2.9,5.1,3.1c0.9,0.1,1.7,0.7,2.4,1.2c1.2,1,2.2,2.2,3.5,3.1
					c0.9,0.7,2,1.3,3.1,1.5c1.3,0.2,2.4,0.7,3.3,1.5c1.3,1.1,2.6,2.3,4,3.3c2.7,2,5.9,1.6,8-0.9c1.2-1.4,2.2-2.8,3.1-4.4
					c2-3.4,0.2-7.5-3.6-8.6c-1-0.3-2-0.3-3.2-0.4c1.1-2.4,1.6-4.7,0-7.1c-1.6-2.4-4.1-2.8-6.8-2.5c0-0.6,0-0.9,0.1-1.3
					c0.5-2.8-0.6-5.4-3-6.6c-2.5-1.3-5-0.8-7.1,1.3C106.8,156.9,106.4,157.2,105.9,157.7z M110.8,100.2c-0.4-0.3-0.7-0.5-1-0.6
					c-4.1-1.5-8.2-3-12.2-4.5c-4.6-1.7-8.7-0.7-12.6,2.3c-7.8,5.9-13.7,13.3-17.5,22.3c-1.4,3.4-2.1,6.9-1.9,10.5
					c0.1,1.5,0.5,2.9,1.4,4.2c5.5,7.1,12.1,13.2,19.7,18.1c0.5,0.3,1,0.5,1.4,0.7c1.6-1.8,3.2-3.5,4.8-5.2c-0.1-0.1-0.4-0.3-0.7-0.5
					c-3.2-2.4-6.6-4.7-9.7-7.3c-3.2-2.8-6-5.9-9-9c-0.9-0.9-1.3-2.1-1-3.3c0.5-2,0.9-4,1.6-5.9c2.1-5.1,5.3-9.4,9-13.4
					c2.3-2.5,4.7-4.8,7.6-6.5c1.2-0.7,2.4-1.1,3.9-0.5c2.8,1,5.6,1.9,8.5,2.9c0.6,0.2,1.4,0.4,1.7,0.2
					C106.8,103.2,108.7,101.8,110.8,100.2z M181.6,97.2c-2.5,1.2-5.2,2.1-7.7,3.2c-3.9,1.8-7.8,1.8-11.9,0.4
					c-5.5-1.9-11.1-3.7-16.6-5.5c-1-0.3-2-0.5-2.9-0.7c-0.9,0.1-1.7,0.2-2.4,0.4c-8.8,2.4-17.3,5.8-25.4,10.1
					c-1.1,0.6-2.1,1.3-3.1,2.1c-1.5,1.2-1.8,2.6-0.7,4.2c0.7,1,1.5,2,2.5,2.7c4.7,3.3,9.8,4.8,15.5,3.3c3.4-0.9,6.7-1.8,10-2.8
					c1.5-0.4,2.8-0.2,4,0.8c0.5,0.4,1,0.8,1.4,1.2c8.4,7.2,16.8,14.4,25.3,21.5c5.2,4.3,10.6,8.3,16.4,11.7c2.3,1.4,4.6,1.4,6.8,0
					c1.8-1.2,3.5-2.6,5-4.2c4.8-5.1,8.2-11.2,11.8-17.2c4.2-3.5,12.8-11.4,12.8-11.4c1-0.8,1.2-1.7,0.9-2.8
					c-2.9-12.9-10.7-21.7-22.7-27c-1.7-0.8-3.3-0.9-4.8,0.4C191.9,90.6,181.6,97.2,181.6,97.2z"/>
				<path class="st1" d="M144,195.6c-0.3,0-0.6,0-0.9,0c-3.8-0.2-7.4-2-10.9-5.3c-0.9-0.9-1.5-1.9-1.6-3c-0.2,0.2-0.4,0.5-0.6,0.7
					c-3.2,3.7-8.1,4.3-12.1,1.4c-1-0.8-2-1.6-2.9-2.4c-0.4-0.3-0.8-0.7-1.2-1c-0.5-0.4-1.1-0.7-1.9-0.8c-1.4-0.2-2.9-0.9-4.4-2
					c-0.8-0.6-1.5-1.3-2.2-1.9c-0.5-0.5-0.9-0.9-1.4-1.2c-0.7-0.5-0.9-0.6-1-0.6c-2.8-0.3-5.1-1.7-7.1-4.3c-0.8-1-1.5-2-2.1-3
					c-0.4-0.5-0.6-0.6-0.9-0.6c-3.6-0.4-6.2-2.7-7.2-6.1c-1-3.5-0.2-6.7,2.3-9c-0.4,0-0.8-0.1-1.2-0.3c-0.1-0.1-0.3-0.1-0.4-0.2
					c-0.4-0.2-0.8-0.4-1.3-0.7c-7.7-4.9-14.6-11.2-20.5-18.8c-1.2-1.6-1.9-3.5-2.1-5.8c-0.3-4,0.5-8,2.1-11.9
					c3.9-9.3,10.1-17.2,18.5-23.6c4.9-3.7,10.1-4.6,15.4-2.7c2.2,0.8,4.4,1.6,6.6,2.4c1.9,0.7,3.7,1.4,5.6,2.1
					c0.5,0.2,1,0.5,1.3,0.7c0.1,0.1,0.2,0.1,0.3,0.2c0.9,0.5,1.4,1.4,1.4,2.4s-0.4,2-1.2,2.5c-0.3,0.3-0.7,0.5-1,0.8
					c0.6-0.4,1.2-0.7,1.8-1.1c8.4-4.4,17.1-7.9,26-10.3c0.7-0.2,1.3-0.3,1.9-0.3c0.3,0,0.5-0.1,0.8-0.1c0.4-0.1,0.8,0,1.2,0.1
					c0.2,0.1,0.5,0.1,0.8,0.2c0.7,0.2,1.5,0.4,2.3,0.6l3.5,1.1c4.3,1.4,8.8,2.9,13.2,4.4c3.5,1.2,6.5,1.1,9.7-0.3
					c1.3-0.6,2.6-1.1,3.8-1.6c1.3-0.5,2.5-1,3.7-1.6c1.3-0.8,10.2-6.6,13.8-9.5c2.2-1.9,4.9-2.2,8-0.8c13.2,5.9,21.4,15.7,24.4,29.1
					c0.6,2.9-0.6,4.7-1.9,5.7c-0.8,0.7-8.3,7.6-12.5,11.2c-0.4,0.7-0.9,1.4-1.3,2.2c-3.1,5.2-6.3,10.5-10.6,15.1
					c-1.5,1.6-3.4,3.2-5.5,4.6c0,0,0,0,0,0c0.2,0.2,0.4,0.4,0.5,0.6c2.3,2.8,3.1,6.1,2.5,9.6c-1,5.6-4.9,9.4-10.6,10.2
					c-0.7,2.7-2,5.2-3.9,7.3c-3,3.3-6.9,4.6-11.3,3.8c-1.9,3.7-4.5,5.5-6.6,6.2c-3,1.2-6.4,1.1-9.9-0.3
					C152.3,193.5,148.5,195.6,144,195.6z M99.7,154.7c-0.8,0-1.6,0.4-2.4,1c-1.8,1.6-3.6,3.2-5.2,4.7c-0.6,0.6-1.2,1.4-0.7,3.1
					c0.3,1.1,1,1.7,2.2,1.8c2.1,0.3,3.9,1.3,5.2,3.2c0.6,0.9,1.3,1.9,2,2.8c0.9,1.2,1.8,1.8,3,1.9c1.7,0.2,3,1.2,3.9,1.9
					c0.7,0.5,1.3,1.1,1.8,1.6c0.5,0.5,1.1,1,1.6,1.4c1,0.7,1.6,0.9,1.8,0.9c1.9,0.3,3.4,1,4.8,2.1c0.4,0.4,0.9,0.7,1.3,1.1
					c0.9,0.8,1.7,1.5,2.6,2.1c1.4,1,2.8,0.9,3.9-0.4c1.1-1.3,2-2.6,2.8-4c0.5-0.8,0.5-1.7,0.2-2.5c-0.3-0.8-1.1-1.4-2-1.7
					c-0.4-0.1-1-0.2-1.6-0.2c-0.4,0-0.8-0.1-1.2-0.1c-1-0.1-1.8-0.7-2.3-1.5c-0.5-0.8-0.5-1.8-0.1-2.7c1-2.2,0.9-3.2,0.3-4.1
					c-0.5-0.8-1.3-1.5-4-1.2c-0.9,0.1-1.8-0.2-2.4-0.8c-0.6-0.6-1-1.5-0.9-2.4c0-0.2,0-0.3,0-0.5c0-0.4,0-0.7,0.1-1.1
					c0.3-1.5-0.2-2.8-1.5-3.4c-0.9-0.5-2.1-0.8-3.6,0.7c-0.3,0.3-0.6,0.5-0.9,0.8l-0.5,0.5c-0.8,0.7-1.8,1-2.8,0.7
					c-1-0.3-1.8-1-2.1-2l-0.4-1.2c-0.4-1.3-1.2-2.2-2.2-2.5C100.2,154.8,100,154.7,99.7,154.7z M136.2,180.9c0.9,0,1.9,0.2,2.8,0.7
					c0.5,0.3,0.9,0.6,1.3,0.9c0.1,0.1,0.2,0.2,0.4,0.3c0.3,0.2,0.5,0.3,0.8,0.5c0.7,0.4,1.4,0.8,2,1.1c0.5,0.2,1.4,0.1,2-0.4
					c0.6-0.3,0.8-0.7,0.8-0.9c0-0.2,0.1-0.4-0.6-1.1c-3.9-3.9-7.8-7.9-11.6-11.8l-4-4c-0.4-0.4-0.8-0.8-1.2-1.3
					c-1.7-2.3-1.6-5.2,0.4-7.3c1.8-1.9,4.8-2.2,7-0.7c0.7,0.5,1.3,1,1.8,1.5l4.2,4c5.5,5.3,11.3,10.8,16.9,16.3
					c0.6,0.6,1.1,0.8,1.8,0.7c0.2,0,0.4,0,0.8-1c0.1-0.2,0.1-0.3,0.1-0.4c0,0-0.1-0.1-0.3-0.3c-6.2-5.8-12.5-11.6-18.7-17.4
					l-4.6-4.3c-0.8-0.8-1.7-1.6-2.5-2.5c-1.3-1.5-1.8-3.5-1.2-5.3c0.6-1.8,2.1-3.3,4-3.8c2.7-0.7,4.6,0.9,5.4,1.6
					c1.2,1,2.3,2.1,3.5,3.2c0.6,0.5,1.1,1,1.7,1.5l4.6,4.2c6.2,5.6,12.4,11.3,18.6,16.9c0.5,0.5,1,0.7,1.2,0.8
					c1,0.2,1.3-0.1,1.6-0.5c0.4-0.6,0.7-1.1,0.9-1.6c0.2-0.5,0.3-0.8,0.4-1c-0.1-0.1-0.4-0.4-0.8-0.8c-10.3-8.7-20.6-17.5-30.8-26.3
					l-0.1-0.1c-0.5-0.4-1.1-1-1.7-1.6c-2-2.2-2.1-5-0.3-7.2c1.8-2.3,5-2.7,7.5-1.1c0.7,0.4,1.2,0.9,1.7,1.3l7,6
					c8.4,7.1,16.8,14.2,25.1,21.4c0.6,0.5,1,0.6,1.7,0.4c0.4-0.1,0.7-0.4,0.8-0.6c0.1-0.3,0-0.7-0.1-0.9c0-0.1-0.1-0.2-0.1-0.2
					c-0.1-0.2-0.2-0.4-0.4-0.6c-1.1-2.1-1.1-4.3,0.1-6c-0.5-0.2-1-0.4-1.5-0.7c-5.5-3.2-10.9-7.1-16.8-12c-6-5-12-10.1-17.8-15
					c-2.5-2.2-5-4.3-7.6-6.5c-0.4-0.3-0.8-0.7-1.2-1l-0.2-0.2c-0.4-0.4-0.7-0.4-1.3-0.2c-3.8,1.1-7.1,2-10.1,2.9
					c-6.1,1.6-12.2,0.4-18-3.7c-1.2-0.8-2.3-2-3.3-3.5c-1.9-2.8-1.5-5.7,0.9-8c-1,0.7-1.9,1.4-2.9,2c-1.6,1.1-3.5,0.5-4.3,0.2
					c-2.7-0.9-5.7-1.8-8.6-2.9c-0.3-0.1-0.5-0.2-1.3,0.3c-2.4,1.4-4.6,3.3-7,6c-4.2,4.6-6.8,8.5-8.4,12.5c-0.6,1.4-1,3.1-1.3,4.8
					l-0.1,0.6c0,0.1-0.1,0.2,0.2,0.5c0.9,0.9,1.7,1.7,2.5,2.6c2.1,2.2,4.1,4.3,6.3,6.2c2,1.7,4.2,3.3,6.5,4.9c1,0.7,2,1.5,3,2.2
					l0.7,0.5c0.7,0.5,1.1,1.3,1.2,2.1c0.1,0.8-0.2,1.7-0.8,2.3l-0.1,0.1c2.2-1.4,4.8-1.7,7.2-1.1c2,0.6,3.8,1.9,5,3.7
					c2.7-1.6,5.8-1.7,8.7-0.2c2.9,1.5,4.6,4.3,4.7,7.6c2,0.3,4.4,1.2,6.1,3.8c1.5,2.2,1.7,4.4,1.4,6.2c0,0,0,0,0,0
					c2.7,0.7,4.9,2.6,6,5.2c0.8,1.9,0.9,3.9,0.3,5.8C134.9,181,135.5,180.9,136.2,180.9z M151.1,179.1c0.7,1,1.3,2.4,1.1,4.3
					c0.7-0.6,1.6-0.9,2.5-0.8C153.5,181.4,152.3,180.3,151.1,179.1z M166.9,174.8c0.6,1,0.9,2,0.9,3.1c0.5-0.5,1.1-0.8,1.8-0.9
					c-0.5-0.3-0.9-0.7-1.3-1C167.8,175.6,167.4,175.2,166.9,174.8z M181.9,166.7c0.3,0.5,0.4,1,0.5,1.6c0.3-0.4,0.7-0.7,1.1-1
					C183,167.1,182.4,166.9,181.9,166.7z M93.1,97.3c-2.1,0-4.2,0.8-6.3,2.5c-7.5,5.7-13.1,12.8-16.6,21.1c-1.3,3.1-1.9,6.1-1.7,9.2
					c0.1,1.1,0.3,1.9,0.8,2.5c5.2,6.8,11.4,12.4,18.2,16.9l0.9-1c-0.3-0.2-0.7-0.5-1-0.7c-2.3-1.7-4.7-3.4-6.9-5.3
					c-2.4-2.1-4.5-4.3-6.6-6.5c-0.8-0.9-1.6-1.7-2.5-2.6c-1.6-1.7-2.3-3.8-1.8-6l0.1-0.6c0.4-1.9,0.9-3.8,1.6-5.7
					c1.9-4.8,4.9-9.2,9.5-14.3c2.7-3,5.5-5.3,8.3-7.1c2.1-1.3,4.3-1.6,6.5-0.8c2.8,1,5.6,1.9,8.3,2.8c0.3-0.2,0.5-0.4,0.8-0.6
					c-0.5-0.2-1.1-0.4-1.6-0.6c-2.2-0.8-4.4-1.6-6.6-2.4C95.3,97.5,94.2,97.3,93.1,97.3z M140.3,111.2c1.6,0,3.2,0.6,4.5,1.7
					l0.2,0.2c0.4,0.3,0.8,0.7,1.3,1c2.5,2.2,5.1,4.3,7.6,6.5c5.8,4.9,11.8,10.1,17.7,15c5.6,4.6,10.8,8.4,16,11.4
					c1.8,1,2.8,0.6,3.6,0.1c1.7-1.2,3.2-2.4,4.5-3.7c3.9-4.1,6.8-9,9.9-14.1c0.5-0.9,1-1.7,1.6-2.6c0.2-0.3,0.4-0.5,0.6-0.7
					c4-3.4,12.4-11.1,12.7-11.4c-2.6-11.6-9.5-19.7-21-24.9c-1.1-0.5-1.3-0.3-1.6-0.1c0,0-0.1,0-0.1,0.1c-4.1,3.4-14.2,9.8-14.6,10
					c-0.1,0.1-0.2,0.1-0.3,0.2c-1.4,0.7-2.8,1.2-4.2,1.8c-1.2,0.5-2.4,1-3.5,1.5c-4.5,2.1-9.2,2.3-14.2,0.5c-4.3-1.5-8.8-3-13-4.4
					l-3.5-1.1c-0.6-0.2-1.2-0.3-1.8-0.5c-0.1,0-0.2,0-0.3-0.1c-0.1,0-0.2,0-0.3,0c-0.5,0.1-0.9,0.1-1.1,0.2
					c-8.5,2.3-16.8,5.6-24.8,9.8c-0.9,0.5-1.8,1.1-2.6,1.8c-0.1,0-0.1,0.1-0.1,0.1c0,0,0,0.1,0.1,0.1c0.6,0.9,1.2,1.5,1.8,1.9
					c4.4,3.1,8.6,4,13,2.8c3-0.8,6.2-1.7,10-2.8C138.9,111.3,139.6,111.2,140.3,111.2z"/>
			</g>
			<g>
				<path class="st9" d="M144,195.6c-0.3,0-0.6,0-0.9,0c-3.8-0.2-7.4-2-10.9-5.3c-2.1-2-2.3-4.8-0.5-7.2c1.1-1.4,2.7-2.2,4.4-2.2
					c0.9,0,1.9,0.2,2.8,0.7c0.5,0.3,0.9,0.6,1.3,0.9c0.1,0.1,0.2,0.2,0.4,0.3c0.3,0.2,0.5,0.3,0.8,0.5c0.7,0.4,1.4,0.8,2,1.1
					c0.2,0.1,0.3,0.1,0.6,0.1c1.2,0,2.3-0.9,2.3-1.4c0-0.2,0.1-0.4-0.6-1.1c-3.9-3.9-7.8-7.9-11.6-11.8l-3.7-3.8l-0.2-0.2
					c-0.4-0.4-0.8-0.8-1.2-1.3c-1.7-2.3-1.6-5.2,0.4-7.3c1-1,2.5-1.7,4-1.7c1.1,0,2.2,0.3,3.1,0.9c0.7,0.5,1.3,1,1.8,1.5l4.2,4
					c5.5,5.3,11.3,10.8,16.9,16.3c0.5,0.5,1,0.7,1.7,0.7l0.1,0c0.2,0,0.4,0,0.8-1c0.1-0.2,0.1-0.3,0.1-0.4c0,0-0.1-0.1-0.3-0.3
					c-6.1-5.7-12.3-11.4-18.4-17.1l-4.3-4l-0.6-0.6c-0.8-0.8-1.7-1.6-2.5-2.5c-1.3-1.5-1.8-3.5-1.2-5.3c0.6-1.8,2.1-3.3,4-3.8
					c0.5-0.1,0.9-0.2,1.4-0.2c2,0,3.3,1.2,4.1,1.8c1.2,1,2.3,2.1,3.5,3.2c0.6,0.5,1.1,1,1.7,1.5l4.6,4.2
					c6.2,5.6,12.4,11.3,18.6,16.9c0.5,0.5,1,0.7,1.2,0.8c0.2,0.1,0.4,0.1,0.6,0.1c0.3,0,0.6,0,1-0.6l0.1-0.1c0.3-0.5,0.6-1,0.8-1.5
					c0.2-0.5,0.3-0.8,0.4-1c-0.1-0.1-0.4-0.4-0.8-0.8c-10.3-8.7-20.5-17.5-30.8-26.2l-0.1-0.1c-0.5-0.4-1.1-1-1.7-1.6
					c-2-2.2-2.1-5-0.3-7.2c1-1.3,2.6-2.1,4.3-2.1c1.1,0,2.2,0.3,3.2,1c0.7,0.4,1.2,0.9,1.7,1.4l7,6c8.4,7.1,16.8,14.2,25.1,21.4
					c0.6,0.5,0.9,0.5,1,0.5c0.2,0,0.4,0,0.7-0.1c0.4-0.1,0.7-0.4,0.8-0.6c0.1-0.3,0-0.7-0.1-0.9c0-0.1-0.1-0.2-0.1-0.2
					c-0.1-0.2-0.2-0.4-0.4-0.6c-1.5-2.7-0.9-5.6,1.4-7.3c1-0.7,2.2-1.1,3.4-1.1c1.7,0,3.3,0.8,4.4,2.2c2.3,2.8,3.1,6.1,2.5,9.6
					c-1,5.6-4.9,9.4-10.6,10.2c-0.7,2.7-2,5.1-3.9,7.3c-2.4,2.7-5.4,4-8.8,4c-0.8,0-1.7-0.1-2.5-0.2c-2.3,4.5-6.2,7-10.9,7
					c-1.8,0-3.7-0.4-5.6-1.1C152.3,193.5,148.5,195.6,144,195.6z"/>
				<path class="st1" d="M146.9,134.2c0.5,0,1.1,0.2,1.6,0.5c0.6,0.4,1.2,0.9,1.7,1.4c10.6,9,21.2,18,31.8,27.1c1,0.8,1.9,1.2,3,1.2
					c0.5,0,1.1-0.1,1.7-0.3c2.5-0.9,3.6-3.2,2.4-5.7c-0.2-0.3-0.4-0.6-0.6-1c-0.7-1.3-0.5-2.7,0.6-3.5c0.5-0.4,1-0.5,1.6-0.5
					c0.7,0,1.5,0.4,2.1,1.1c1.7,2.1,2.4,4.5,1.9,7.2c-0.8,4.5-3.8,7.3-8.3,7.8c-1.2,0.1-1.9,0.5-2.1,1.8c-0.5,2.4-1.6,4.6-3.3,6.4
					c-1.9,2-4.1,3-6.6,3c-0.7,0-1.5-0.1-2.2-0.2c-0.7-0.1-1.3-0.3-2.1-0.4c-1.8,5.1-5.1,7.5-9.1,7.5c-2.1,0-4.4-0.7-6.7-1.9
					c-0.3,0.5-0.5,0.9-0.8,1.4c-2.3,3.4-5.3,5.6-9.4,5.6c-0.2,0-0.5,0-0.7,0c-3.6-0.2-6.5-2.1-9-4.5c-1-1-1-2.2-0.2-3.2
					c0.5-0.7,1.2-1,2-1c0.4,0,0.9,0.1,1.3,0.3c0.5,0.3,1,0.8,1.5,1.1c1.1,0.6,2.1,1.4,3.3,1.8c0.5,0.2,1,0.3,1.6,0.3
					c2.5,0,5-1.8,5.3-3.9c0.2-1.5-0.4-2.6-1.4-3.6c-5.1-5.2-10.2-10.4-15.3-15.5c-0.4-0.4-0.8-0.8-1.1-1.2c-0.9-1.1-0.8-2.4,0.2-3.4
					c0.5-0.5,1.1-0.7,1.8-0.7c0.5,0,1,0.1,1.4,0.4c0.5,0.3,1,0.8,1.4,1.2c7,6.7,14,13.4,21,20.2c1.1,1.1,2.3,1.6,3.8,1.6
					c0.1,0,0.2,0,0.3,0c1.9-0.1,2.8-1.3,3.5-2.9c0.6-1.6,0.3-2.8-1-4c-7.6-7-15.1-14.1-22.7-21.1c-1-0.9-2-1.8-2.9-2.9
					c-1.4-1.6-0.7-3.7,1.3-4.2c0.2-0.1,0.4-0.1,0.6-0.1c0.8,0,1.5,0.5,2.1,1.1c1.7,1.5,3.4,3.1,5.1,4.6c7.7,7,15.5,14.1,23.2,21
					c0.7,0.6,1.6,1.2,2.5,1.5c0.5,0.1,0.9,0.2,1.3,0.2c1.4,0,2.6-0.6,3.5-2c0.4-0.6,0.8-1.3,1.1-1.9c1.1-2.6,0.9-3.4-1.3-5.3
					c-10.3-8.7-20.6-17.5-30.8-26.3c-0.5-0.4-1.1-0.9-1.5-1.4c-1-1.1-1.1-2.3-0.2-3.4C145.4,134.5,146.1,134.2,146.9,134.2
					 M146.9,128.2c-2.6,0-5,1.2-6.7,3.2c-2.3,2.9-2.5,6.6-0.7,9.6c-0.6,0-1.3,0.1-1.9,0.3c-3,0.8-5.2,3-6.1,5.8
					c-0.6,1.9-0.4,4,0.3,5.8c-1.8,0.3-3.6,1.1-4.9,2.5c-3,3.1-3.3,7.7-0.6,11.2c0.5,0.7,1,1.2,1.4,1.6l0.2,0.2l3.7,3.7
					c1.9,1.9,3.8,3.9,5.7,5.8c-0.4-0.1-0.9-0.1-1.3-0.1c-2.7,0-5.2,1.2-6.8,3.4c-2.7,3.6-2.3,8.1,0.8,11.2c4,3.9,8.2,5.9,12.8,6.1
					c0.4,0,0.7,0,1,0c3.5,0,8.2-1.1,12.4-5.7c1.5,0.4,3,0.6,4.5,0.6c5.2,0,9.6-2.4,12.5-6.8c0.3,0,0.6,0,0.9,0c4.2,0,8-1.7,11-5
					c1.8-2,3.2-4.2,4-6.7c6-1.5,10.1-5.9,11.2-12.2c0.8-4.3-0.3-8.4-3.2-12c-1.7-2.1-4.2-3.3-6.7-3.3c-1.8,0-3.6,0.6-5.1,1.7
					c-2.1,1.5-3.3,3.8-3.4,6.2c-7.2-6.1-14.4-12.3-21.5-18.3l-6.5-5.5l-0.3-0.3c-0.5-0.5-1.2-1-2-1.6
					C150.3,128.7,148.6,128.2,146.9,128.2L146.9,128.2z"/>
			</g>
			<g>
				<path class="st9" d="M123.4,191.2c-1.9,0-3.8-0.6-5.4-1.9c-1-0.8-2-1.6-2.9-2.4c-0.4-0.3-0.8-0.7-1.2-1
					c-0.5-0.4-1.1-0.7-1.9-0.8c-1.4-0.2-2.9-0.9-4.4-2c-0.8-0.6-1.5-1.3-2.2-1.9c-0.5-0.5-0.9-0.9-1.4-1.2c-0.7-0.5-0.9-0.6-1-0.6
					c-2.8-0.3-5.1-1.7-7.1-4.3c-0.8-1-1.5-2-2.1-3c-0.4-0.5-0.6-0.6-0.9-0.6c-3.6-0.4-6.2-2.7-7.2-6.1c-1-3.5-0.2-6.8,2.5-9.2
					c1.7-1.5,3.5-3.2,5.3-4.8c1.9-1.6,4.1-2.5,6.3-2.5c3,0,5.6,1.5,7.3,4c1.4-0.9,2.9-1.3,4.5-1.3c1.4,0,2.8,0.4,4.2,1.1
					c2.9,1.5,4.6,4.3,4.7,7.6c2.6,0.4,4.7,1.6,6.1,3.8c1.5,2.2,1.7,4.4,1.4,6.2c0,0,0,0,0,0c2.7,0.7,4.9,2.6,6,5.2
					c1.1,2.5,0.9,5.4-0.5,7.8c-1,1.7-2.1,3.3-3.4,4.8C128.3,190,125.9,191.2,123.4,191.2z"/>
				<path class="st1" d="M99.8,151.7c2.5,0,4.8,1.7,5.7,4.7c0.1,0.3,0.2,0.7,0.4,1.2c0.5-0.5,0.9-0.9,1.3-1.3c1.3-1.3,2.8-2,4.4-2
					c0.9,0,1.9,0.2,2.8,0.7c2.4,1.2,3.5,3.8,3,6.6c-0.1,0.3-0.1,0.7-0.1,1.3c0.5-0.1,1-0.1,1.5-0.1c2.1,0,4,0.6,5.3,2.6
					c1.6,2.3,1.1,4.7,0,7.1c1.2,0.1,2.2,0.1,3.2,0.4c3.8,1,5.6,5.2,3.6,8.6c-0.9,1.6-2,3-3.1,4.4c-1.2,1.4-2.8,2.2-4.4,2.2
					c-1.2,0-2.5-0.4-3.6-1.3c-1.4-1-2.7-2.2-4-3.3c-1-0.8-2-1.3-3.3-1.5c-1.1-0.2-2.2-0.8-3.1-1.5c-1.2-0.9-2.3-2.1-3.5-3.1
					c-0.7-0.6-1.6-1.1-2.4-1.2c-2.2-0.3-3.8-1.4-5.1-3.1c-0.7-0.9-1.4-1.9-2.1-2.9c-0.7-1.1-1.7-1.7-3-1.9c-2.4-0.3-4-1.7-4.7-4
					c-0.7-2.3-0.2-4.4,1.6-6.1c1.7-1.6,3.5-3.2,5.3-4.7C96.8,152.3,98.3,151.7,99.8,151.7 M99.8,145.7
					C99.8,145.7,99.8,145.7,99.8,145.7c-3,0-5.9,1.2-8.3,3.3c-1.9,1.6-3.7,3.3-5.4,4.8c-3.5,3.2-4.7,7.6-3.3,12.2
					c1.3,4.3,4.6,7.3,8.9,8.1c0.6,0.8,1.2,1.7,1.9,2.6c2.3,3,5.1,4.8,8.5,5.4c0,0,0.1,0.1,0.1,0.1c0.3,0.3,0.7,0.7,1.2,1.1
					c0.7,0.7,1.5,1.4,2.5,2.2c1.9,1.4,3.8,2.2,5.7,2.6c0.3,0.1,0.4,0.1,0.5,0.2c0.4,0.3,0.8,0.7,1.2,1c1,0.8,2,1.7,3.1,2.6
					c2.2,1.6,4.7,2.4,7.2,2.4c3.4,0,6.6-1.5,9-4.3c1.4-1.7,2.7-3.5,3.7-5.3c1.9-3.2,2.1-7,0.7-10.4c-1.1-2.7-3.1-4.8-5.7-6.1
					c-0.1-2.1-0.8-4-2-5.9c-1.1-1.7-3-3.6-5.9-4.6c-0.8-3.3-2.9-6.1-6-7.8c-1.8-0.9-3.7-1.4-5.6-1.4c-1.3,0-2.5,0.2-3.7,0.6
					C105.7,147,102.9,145.7,99.8,145.7L99.8,145.7z"/>
			</g>
			<g>
				<path class="st9" d="M88.1,156.2c-0.5,0-0.9-0.1-1.4-0.3c-0.1-0.1-0.3-0.1-0.4-0.2c-0.4-0.2-0.8-0.4-1.3-0.7
					c-7.7-4.9-14.6-11.2-20.5-18.8c-1.2-1.6-1.9-3.5-2.1-5.8c-0.3-4,0.5-8,2.1-11.9c3.9-9.3,10.1-17.2,18.5-23.6
					c3.2-2.5,6.6-3.7,10-3.7c1.8,0,3.6,0.3,5.4,1c2.2,0.8,4.4,1.6,6.6,2.4c1.9,0.7,3.7,1.4,5.6,2.1c0.5,0.2,1,0.5,1.3,0.7
					c0.1,0.1,0.2,0.1,0.3,0.2c0.9,0.5,1.4,1.4,1.4,2.4c0,1-0.4,2-1.2,2.5c-0.5,0.4-1.1,0.8-1.6,1.2c-1.5,1.1-3,2.2-4.5,3.2
					c-0.6,0.4-1.3,0.6-2.1,0.6c-0.8,0-1.6-0.2-2.2-0.4c-2.7-0.9-5.7-1.8-8.6-2.9c-0.1-0.1-0.3-0.1-0.4-0.1c-0.2,0-0.5,0.1-0.9,0.4
					c-2.4,1.4-4.6,3.3-7,6c-4.2,4.6-6.8,8.5-8.4,12.5c-0.6,1.4-1,3.1-1.3,4.8l-0.1,0.6c0,0.1-0.1,0.2,0.2,0.5
					c0.9,0.9,1.7,1.7,2.5,2.6c2.1,2.2,4.1,4.3,6.3,6.2c2,1.7,4.2,3.3,6.5,4.9c1,0.7,2,1.5,3,2.2l0.7,0.5c0.7,0.5,1.1,1.3,1.2,2.1
					c0.1,0.8-0.2,1.7-0.8,2.3l-4.8,5.2C89.7,155.9,88.9,156.2,88.1,156.2z"/>
				<path class="st1" d="M93.1,94.3c1.4,0,2.9,0.3,4.4,0.8c4.1,1.5,8.2,3,12.2,4.5c0.3,0.1,0.6,0.4,1,0.6c-2.1,1.5-4,3-6,4.4
					c-0.1,0.1-0.3,0.1-0.5,0.1c-0.4,0-0.9-0.1-1.3-0.3c-2.8-0.9-5.7-1.9-8.5-2.9c-0.5-0.2-0.9-0.3-1.4-0.3c-0.9,0-1.7,0.3-2.5,0.8
					c-2.9,1.8-5.4,4-7.6,6.5c-3.7,4-6.9,8.3-9,13.4c-0.8,1.9-1.2,3.9-1.6,5.9c-0.3,1.2,0.1,2.4,1,3.3c3,3,5.8,6.2,9,9
					c3,2.7,6.4,4.9,9.7,7.3c0.3,0.2,0.6,0.4,0.7,0.5c-1.6,1.7-3.1,3.4-4.8,5.2c-0.5-0.2-1-0.5-1.4-0.7c-7.7-4.8-14.2-10.9-19.7-18.1
					c-1-1.2-1.3-2.6-1.4-4.2c-0.2-3.7,0.5-7.2,1.9-10.5c3.8-9,9.7-16.4,17.5-22.3C87.5,95.4,90.2,94.3,93.1,94.3 M93.1,88.3
					L93.1,88.3c-4.1,0-8,1.5-11.8,4.3c-8.8,6.7-15.3,15-19.4,24.8c-1.8,4.4-2.6,8.8-2.3,13.3c0.2,2.9,1.1,5.4,2.7,7.4
					c6.1,7.9,13.2,14.4,21.2,19.5c0.6,0.4,1.2,0.7,1.6,0.8c0.1,0.1,0.2,0.1,0.3,0.2c0.9,0.4,1.8,0.7,2.7,0.7c1.6,0,3.3-0.7,4.4-1.9
					l2.9-3.1l1.9-2.1c1.1-1.3,1.7-2.9,1.5-4.6c-0.2-1.7-1-3.2-2.4-4.2l-0.2-0.1l-0.5-0.4c-1-0.8-2.1-1.5-3.1-2.2
					c-2.2-1.6-4.3-3.1-6.2-4.8c-2.1-1.8-4-3.8-6.1-6c-0.6-0.6-1.1-1.2-1.7-1.7c0.3-1.3,0.6-2.6,1-3.6c1.5-3.7,3.9-7.3,7.9-11.6
					c2-2.2,3.9-3.9,5.9-5.1c2.7,1,5.3,1.8,7.8,2.6c0.8,0.3,1.9,0.6,3.1,0.6c1.4,0,2.7-0.4,3.8-1.1c1.6-1.1,3.2-2.2,4.6-3.4
					c0.5-0.4,1-0.8,1.6-1.2c1.6-1.2,2.5-3.1,2.4-5.1c-0.1-2-1.2-3.8-2.9-4.9c-0.1,0-0.1-0.1-0.2-0.1c-0.4-0.3-1-0.7-1.9-1
					c-1.9-0.7-3.8-1.4-5.6-2.1c-2.2-0.8-4.4-1.6-6.6-2.4C97.4,88.7,95.3,88.3,93.1,88.3L93.1,88.3z"/>
			</g>
		</g>
	</g>
</g>
</svg>
