<?xml version="1.0" encoding="utf-8"?>
<!-- Generator: Adobe Illustrator 19.1.0, SVG Export Plug-In . SVG Version: 6.00 Build 0)  -->
<svg version="1.1" id="Layer_1" xmlns="http://www.w3.org/2000/svg" xmlns:xlink="http://www.w3.org/1999/xlink" x="0px" y="0px"
	 viewBox="0 0 288 288" style="enable-background:new 0 0 288 288;" xml:space="preserve">
<style type="text/css">
	.st0{fill:url(#SVGID_1_);}
	.st1{fill:#595A5C;}
	.st2{fill:url(#SVGID_2_);}
	.st3{fill:url(#SVGID_3_);}
	.st4{fill:url(#SVGID_4_);}
	.st5{fill:url(#SVGID_5_);}
	.st6{fill:url(#SVGID_6_);}
	.st7{fill:url(#SVGID_7_);}
	.st8{fill:url(#SVGID_8_);}
	.st9{fill:#FFFFFF;}
	.st10{fill:url(#SVGID_9_);}
	.st11{fill:url(#SVGID_10_);}
	.st12{fill:url(#SVGID_11_);}
	.st13{fill:url(#SVGID_12_);}
	.st14{fill:url(#SVGID_13_);}
	.st15{fill:url(#SVGID_14_);}
	.st16{fill:url(#SVGID_15_);}
	.st17{fill:url(#SVGID_16_);}
	.st18{fill:url(#SVGID_17_);}
	.st19{fill:url(#SVGID_18_);}
	.st20{fill:url(#SVGID_19_);}
	.st21{fill:url(#SVGID_20_);}
	.st22{fill:url(#SVGID_21_);}
	.st23{fill:url(#SVGID_22_);}
	.st24{fill:url(#SVGID_23_);}
	.st25{fill:url(#SVGID_24_);}
	.st26{fill:url(#SVGID_25_);}
	.st27{fill:#BCBEC0;}
	.st28{fill:url(#SVGID_26_);}
	.st29{fill:url(#SVGID_27_);}
	.st30{fill:url(#SVGID_28_);}
	.st31{fill:url(#SVGID_29_);}
	.st32{fill:url(#SVGID_30_);}
	.st33{fill:url(#SVGID_31_);}
	.st34{fill:url(#SVGID_32_);}
	.st35{fill:url(#SVGID_33_);}
	.st36{fill:url(#SVGID_34_);}
	.st37{fill:url(#SVGID_35_);}
	.st38{fill:url(#SVGID_36_);}
	.st39{fill:url(#SVGID_37_);}
	.st40{fill:url(#SVGID_38_);}
	.st41{fill:url(#SVGID_39_);}
	.st42{fill:url(#SVGID_40_);}
	.st43{fill:url(#SVGID_41_);}
	.st44{fill:url(#SVGID_42_);}
	.st45{fill:url(#SVGID_43_);}
	.st46{fill:url(#SVGID_44_);}
	.st47{fill:url(#SVGID_45_);}
	.st48{fill:url(#SVGID_46_);}
	.st49{fill:url(#SVGID_47_);}
	.st50{fill:url(#SVGID_48_);}
	.st51{fill:url(#SVGID_49_);}
	.st52{fill:url(#SVGID_50_);}
	.st53{fill:url(#SVGID_51_);}
	.st54{fill:url(#SVGID_52_);}
	.st55{fill:url(#SVGID_53_);}
	.st56{fill:url(#SVGID_54_);}
	.st57{fill:#9FBEE4;}
	.st58{fill:url(#SVGID_55_);}
	.st59{fill:url(#SVGID_56_);}
	.st60{fill:url(#SVGID_57_);}
	.st61{fill:url(#SVGID_58_);}
	.st62{fill:url(#SVGID_59_);}
	.st63{fill:url(#SVGID_60_);}
	.st64{fill:url(#SVGID_61_);}
	.st65{fill:url(#SVGID_62_);}
	.st66{fill:url(#SVGID_63_);}
	.st67{fill:url(#SVGID_64_);}
	.st68{fill:#A7A9AC;}
	.st69{fill:#58595B;}
	.st70{fill:#F1F2F2;}
	.st71{fill:#702FB7;}
	.st72{fill:#939598;}
	.st73{fill:#010101;}
	.st74{fill:url(#SVGID_65_);}
	.st75{fill:url(#SVGID_66_);}
	.st76{opacity:0.39;fill:url(#SVGID_67_);}
	.st77{fill:url(#SVGID_68_);}
	.st78{fill:url(#SVGID_69_);}
	.st79{fill:url(#SVGID_70_);}
	.st80{opacity:0.39;fill:url(#SVGID_71_);}
	.st81{fill:url(#SVGID_72_);}
	.st82{fill:url(#SVGID_73_);}
	.st83{opacity:0.5;fill:url(#SVGID_74_);}
	.st84{fill:url(#SVGID_75_);}
	.st85{fill:url(#SVGID_76_);}
	.st86{opacity:0.5;fill:url(#SVGID_77_);}
	.st87{fill:url(#SVGID_78_);}
	.st88{fill:url(#SVGID_79_);}
	.st89{opacity:0.5;fill:url(#SVGID_80_);}
	.st90{fill:url(#SVGID_81_);}
	.st91{fill:url(#SVGID_82_);}
	.st92{fill:url(#SVGID_83_);}
	.st93{fill:url(#SVGID_84_);}
	.st94{fill:url(#XMLID_10_);}
	.st95{fill:url(#SVGID_85_);}
	.st96{fill:url(#SVGID_86_);}
	.st97{fill:url(#SVGID_87_);}
	.st98{fill:url(#SVGID_88_);}
	.st99{fill:url(#SVGID_89_);}
	.st100{fill:url(#SVGID_90_);}
	.st101{fill:url(#SVGID_91_);}
	.st102{fill:url(#SVGID_92_);}
	.st103{fill:url(#SVGID_93_);}
	.st104{fill:url(#SVGID_94_);}
</style>
<g>
	<path class="st72" d="M231,242.9H58.5c-10.3,0-18.7-8.4-18.7-18.7v-173c0-10.3,8.4-18.7,18.7-18.7H231c10.3,0,18.7,8.4,18.7,18.7
		v173C249.8,234.5,241.3,242.9,231,242.9z"/>
	<path class="st1" d="M231,245.9H58.5c-12,0-21.7-9.8-21.7-21.7v-173c0-12,9.8-21.7,21.7-21.7H231c12,0,21.7,9.8,21.7,21.7v173
		C252.8,236.1,243,245.9,231,245.9z M58.5,35.4c-8.7,0-15.7,7.1-15.7,15.7v173c0,8.7,7.1,15.7,15.7,15.7H231
		c8.7,0,15.7-7.1,15.7-15.7v-173c0-8.7-7.1-15.7-15.7-15.7H58.5z"/>
</g>
<g>
	<path d="M80.1,227.3c-1.6,0-3.1-0.4-4.5-1.1c-1.4-0.8-2.7-1.8-3.8-3.2c-1-1.4-1.8-2.9-2.4-4.7c-0.6-1.8-0.9-3.7-0.9-5.7v-4.1
		c0-2.2,0.3-4.3,0.8-6.1c0.6-1.8,1.3-3.4,2.3-4.8c1-1.4,2.2-2.4,3.7-3.1c1.4-0.7,3-1.1,4.8-1.1c1.7,0,3.3,0.4,4.7,1.1
		c1.4,0.7,2.7,1.8,3.7,3.1c1,1.3,1.8,2.9,2.4,4.8c0.6,1.8,0.9,3.9,0.9,6.1v4.1c0,2.1-0.3,4.1-0.9,5.9c-0.6,1.8-1.4,3.3-2.4,4.7
		c-1.1,1.3-2.3,2.4-3.7,3.1C83.3,226.9,81.8,227.3,80.1,227.3z M73.3,212.5c0,1.5,0.2,2.9,0.6,4.2c0.4,1.3,0.9,2.4,1.6,3.4
		c0.6,0.8,1.3,1.4,2.1,1.9c0.8,0.5,1.6,0.7,2.5,0.7c1,0,2-0.2,2.8-0.7c0.8-0.5,1.6-1.2,2.2-2.1c0.6-0.9,1.1-1.9,1.4-3.2
		c0.3-1.2,0.5-2.6,0.5-4.1v-4.1c0-3.5-0.7-6.3-2.1-8.2c-1.2-1.6-2.8-2.3-4.8-2.3c-2,0-3.6,0.8-4.8,2.4c-1.4,1.8-2.1,4.5-2.1,8.1
		V212.5z"/>
	<path d="M102,198.2h-4.4v-4.4h9.3v33H102V198.2z"/>
	<path d="M114.6,226.8v-3.3l9.5-10.8c1.4-1.7,2.6-3,3.4-4c0.8-1,1.5-1.7,1.9-2.3c0.4-0.6,0.7-1.1,0.8-1.5c0.1-0.4,0.2-1,0.2-1.7
		c0-1.7-0.5-3.1-1.5-3.9c-1-0.9-2.3-1.3-3.7-1.3c-0.7,0-1.4,0.1-2.1,0.4c-0.6,0.3-1.2,0.7-1.7,1.2c-0.5,0.5-0.9,1.1-1.1,1.7
		c-0.3,0.6-0.4,1.3-0.4,2h-4.8c0-1.3,0.3-2.6,0.8-3.8c0.5-1.2,1.3-2.2,2.2-3.1c0.9-0.9,2-1.6,3.2-2.1c1.2-0.5,2.5-0.8,3.9-0.8
		s2.7,0.3,3.9,0.8c1.2,0.5,2.3,1.2,3.2,2.1c0.9,0.9,1.6,2,2.1,3.1c0.5,1.2,0.8,2.5,0.8,3.8c0,1-0.1,2-0.4,2.9
		c-0.3,0.9-0.7,1.8-1.3,2.5l-11.7,13.7h14.1v4.5H114.6z"/>
	<path d="M159.6,206.3c1,0.6,1.9,1.4,2.6,2.4c0.7,0.9,1.2,2,1.5,3.2c0.3,1.2,0.5,2.4,0.5,3.7c0,1.6-0.3,3-0.9,4.5
		c-0.6,1.4-1.4,2.7-2.4,3.7c-1,1.1-2.2,1.9-3.6,2.6c-1.4,0.7-2.8,1-4.4,1c-1.3,0-2.5-0.2-3.6-0.6c-1.2-0.4-2.2-1-3.1-1.7
		c-0.9-0.7-1.8-1.6-2.5-2.6c-0.7-1-1.3-2.1-1.6-3.2l4.3-1.6c0.2,0.7,0.5,1.4,1,2c0.4,0.6,1,1.2,1.6,1.7c0.6,0.5,1.3,0.8,2,1.1
		c0.7,0.2,1.5,0.4,2.3,0.3c0.9,0,1.7-0.2,2.5-0.6c0.8-0.4,1.5-0.9,2-1.5c0.6-0.6,1-1.4,1.4-2.1c0.4-0.8,0.6-1.6,0.6-2.5
		c0-0.9-0.1-1.8-0.4-2.7c-0.3-0.8-0.8-1.6-1.4-2.2c-0.6-0.6-1.3-1.1-2.1-1.5c-0.8-0.4-1.7-0.6-2.6-0.6c-0.3,0-0.6,0-0.9,0.1
		c-0.3,0.1-0.6,0.1-0.9,0.2l-1.8-2.3l5.8-8.6h-10v-4.4h16.2v3.1c-1,1.6-2,2.9-2.8,4.1c-0.3,0.5-0.7,1-1,1.5
		c-0.3,0.5-0.6,0.9-0.9,1.3c-0.2,0.4-0.5,0.8-0.8,1.3C157.3,205.3,158.6,205.7,159.6,206.3z"/>
	<path d="M171.5,220.8l-1.5-2.4l17.3-24.6h3.9v22.6h5.3v4.4h-5.3v6.1h-4.9v-6.1H171.5z M177,216.4h9.2v-13.3L177,216.4z"/>
	<path d="M211.6,222.6c0.9,0,1.8-0.2,2.6-0.5c0.8-0.4,1.5-0.8,2.2-1.5c0.6-0.6,1.1-1.3,1.5-2.2c0.4-0.8,0.5-1.7,0.5-2.6
		c0-1.2-0.3-2.3-0.8-3.3c-0.5-1-1.2-1.8-2.1-2.4c-0.4-0.3-0.8-0.5-1.4-0.7c-0.5-0.2-1.1-0.3-1.8-0.4c-0.6-0.1-1.3-0.1-2,0
		c-0.7,0.1-1.3,0.2-1.9,0.5c-0.7,0.3-1.3,0.7-1.8,1.2l-2.8-1.9l1.7-15.1H220v4.4h-10.4l-0.7,7.1c1.6-0.5,3.3-0.7,5-0.5
		c1.7,0.2,3.1,0.7,4.2,1.6c1.5,1.1,2.7,2.4,3.5,4.1c0.8,1.7,1.2,3.5,1.2,5.4c0,1.6-0.3,3.1-0.9,4.5c-0.6,1.4-1.4,2.6-2.4,3.6
		c-1,1-2.2,1.9-3.6,2.5c-1.4,0.6-2.9,0.9-4.5,0.9c-1.8,0-3.5-0.4-5-1.2c-1.5-0.8-2.8-1.9-3.9-3.2c-0.6-0.7-1.1-1.6-1.5-2.6l4-2.3
		c0.2,0.7,0.6,1.4,1.1,2c0.6,0.8,1.4,1.4,2.3,1.9C209.5,222.4,210.5,222.6,211.6,222.6z"/>
</g>
<g>
	<g>
		<rect x="68.3" y="58.6" class="st73" width="6" height="127.6"/>
	</g>
	<g>
		<path class="st73" d="M89.3,186.2h-3V58.6h3V186.2z M80.3,186.2h-3V58.6h3V186.2z"/>
	</g>
	<g>
		<rect x="101.3" y="58.6" class="st73" width="12" height="127.6"/>
	</g>
	<g>
		<rect x="116.3" y="58.6" class="st73" width="3" height="127.6"/>
	</g>
	<g>
		<rect x="122.3" y="58.6" class="st73" width="9" height="127.6"/>
	</g>
	<g>
		<rect x="134.3" y="58.6" class="st73" width="6" height="127.6"/>
	</g>
	<g>
		<path class="st73" d="M179.3,186.2h-3V58.6h3V186.2z M170.3,186.2h-3V58.6h3V186.2z M158.3,186.2h-3V58.6h3V186.2z M146.3,186.2
			h-3V58.6h3V186.2z"/>
	</g>
	<g>
		<rect x="182.3" y="58.6" class="st73" width="6" height="127.6"/>
	</g>
	<g>
		<rect x="200.3" y="58.6" class="st73" width="3" height="127.6"/>
	</g>
	<g>
		<rect x="209.3" y="58.6" class="st73" width="12" height="127.6"/>
	</g>
</g>
<linearGradient id="SVGID_1_" gradientUnits="userSpaceOnUse" x1="144.7622" y1="42.5306" x2="144.7622" y2="232.7713">
	<stop  offset="0" style="stop-color:#FFFFFF;stop-opacity:0.75"/>
	<stop  offset="1" style="stop-color:#FFFFFF;stop-opacity:0"/>
</linearGradient>
<path class="st0" d="M220.1,232.8H69.4c-10.3,0-18.7-8.4-18.7-18.7V61.3c0-10.3,8.4-18.7,18.7-18.7h150.7c10.3,0,18.7,8.4,18.7,18.7
	V214C238.9,224.3,230.4,232.8,220.1,232.8z"/>
</svg>
