<?xml version="1.0" encoding="utf-8"?>
<!-- Generator: Adobe Illustrator 19.1.0, SVG Export Plug-In . SVG Version: 6.00 Build 0)  -->
<svg version="1.1" id="Layer_1" xmlns="http://www.w3.org/2000/svg" xmlns:xlink="http://www.w3.org/1999/xlink" x="0px" y="0px"
	 viewBox="0 0 288 288" style="enable-background:new 0 0 288 288;" xml:space="preserve">
<style type="text/css">
	.st0{fill:url(#SVGID_1_);}
	.st1{fill:#595A5C;}
	.st2{fill:url(#SVGID_2_);}
	.st3{fill:url(#SVGID_3_);}
	.st4{fill:url(#SVGID_4_);}
	.st5{fill:url(#SVGID_5_);}
	.st6{fill:url(#SVGID_6_);}
	.st7{fill:url(#SVGID_7_);}
	.st8{fill:url(#SVGID_8_);}
	.st9{fill:#FFFFFF;}
	.st10{fill:url(#SVGID_9_);}
	.st11{fill:url(#SVGID_10_);}
	.st12{fill:url(#SVGID_11_);}
	.st13{fill:url(#SVGID_12_);}
	.st14{fill:url(#SVGID_13_);}
	.st15{fill:url(#SVGID_14_);}
	.st16{fill:url(#SVGID_15_);}
	.st17{fill:url(#SVGID_16_);}
	.st18{fill:url(#SVGID_17_);}
	.st19{fill:url(#SVGID_18_);}
	.st20{fill:url(#SVGID_19_);}
	.st21{fill:url(#SVGID_20_);}
	.st22{fill:url(#SVGID_21_);}
	.st23{fill:url(#SVGID_22_);}
	.st24{fill:url(#SVGID_23_);}
	.st25{fill:url(#SVGID_24_);}
	.st26{fill:url(#SVGID_25_);}
	.st27{fill:#BCBEC0;}
	.st28{fill:url(#SVGID_26_);}
	.st29{fill:url(#SVGID_27_);}
	.st30{fill:url(#SVGID_28_);}
	.st31{fill:url(#SVGID_29_);}
	.st32{fill:url(#SVGID_30_);}
	.st33{fill:url(#SVGID_31_);}
	.st34{fill:url(#SVGID_32_);}
	.st35{fill:url(#SVGID_33_);}
	.st36{fill:url(#SVGID_34_);}
	.st37{fill:url(#SVGID_35_);}
	.st38{fill:url(#SVGID_36_);}
	.st39{fill:url(#SVGID_37_);}
	.st40{fill:url(#SVGID_38_);}
	.st41{fill:url(#SVGID_39_);}
	.st42{fill:url(#SVGID_40_);}
	.st43{fill:url(#SVGID_41_);}
	.st44{fill:url(#SVGID_42_);}
	.st45{fill:url(#SVGID_43_);}
	.st46{fill:url(#SVGID_44_);}
	.st47{fill:url(#SVGID_45_);}
	.st48{fill:url(#SVGID_46_);}
	.st49{fill:url(#SVGID_47_);}
	.st50{fill:url(#SVGID_48_);}
	.st51{fill:url(#SVGID_49_);}
	.st52{fill:url(#SVGID_50_);}
	.st53{fill:url(#SVGID_51_);}
	.st54{fill:url(#SVGID_52_);}
	.st55{fill:url(#SVGID_53_);}
	.st56{fill:url(#SVGID_54_);}
	.st57{fill:#9FBEE4;}
	.st58{fill:url(#SVGID_55_);}
	.st59{fill:url(#SVGID_56_);}
	.st60{fill:url(#SVGID_57_);}
	.st61{fill:url(#SVGID_58_);}
	.st62{fill:url(#SVGID_59_);}
	.st63{fill:url(#SVGID_60_);}
	.st64{fill:url(#SVGID_61_);}
	.st65{fill:url(#SVGID_62_);}
	.st66{fill:url(#SVGID_63_);}
	.st67{fill:url(#SVGID_64_);}
	.st68{fill:#A7A9AC;}
	.st69{fill:#58595B;}
	.st70{fill:#F1F2F2;}
	.st71{fill:#702FB7;}
	.st72{fill:#939598;}
	.st73{fill:#010101;}
	.st74{fill:url(#SVGID_65_);}
	.st75{fill:url(#SVGID_66_);}
	.st76{opacity:0.39;fill:url(#SVGID_67_);}
	.st77{fill:url(#SVGID_68_);}
	.st78{fill:url(#SVGID_69_);}
	.st79{fill:url(#SVGID_70_);}
	.st80{opacity:0.39;fill:url(#SVGID_71_);}
	.st81{fill:url(#SVGID_72_);}
	.st82{fill:url(#SVGID_73_);}
	.st83{opacity:0.5;fill:url(#SVGID_74_);}
	.st84{fill:url(#SVGID_75_);}
	.st85{fill:url(#SVGID_76_);}
	.st86{opacity:0.5;fill:url(#SVGID_77_);}
	.st87{fill:url(#SVGID_78_);}
	.st88{fill:url(#SVGID_79_);}
	.st89{opacity:0.5;fill:url(#SVGID_80_);}
	.st90{fill:url(#SVGID_81_);}
	.st91{fill:url(#SVGID_82_);}
	.st92{fill:url(#SVGID_83_);}
	.st93{fill:url(#SVGID_84_);}
	.st94{fill:url(#XMLID_10_);}
	.st95{fill:url(#SVGID_85_);}
	.st96{fill:url(#SVGID_86_);}
	.st97{fill:url(#SVGID_87_);}
	.st98{fill:url(#SVGID_88_);}
	.st99{fill:url(#SVGID_89_);}
	.st100{fill:url(#SVGID_90_);}
	.st101{fill:url(#SVGID_91_);}
	.st102{fill:url(#SVGID_92_);}
	.st103{fill:url(#SVGID_93_);}
	.st104{fill:url(#SVGID_94_);}
</style>
<g>
	<linearGradient id="SVGID_1_" gradientUnits="userSpaceOnUse" x1="146.5636" y1="30.1615" x2="146.5636" y2="239.1615">
		<stop  offset="0" style="stop-color:#702FB7"/>
		<stop  offset="1" style="stop-color:#5E3A88"/>
	</linearGradient>
	<circle class="st0" cx="146.6" cy="134.7" r="104.5"/>
	<path class="st1" d="M146.6,242.2c-59.3,0-107.5-48.2-107.5-107.5S87.3,27.2,146.6,27.2s107.5,48.2,107.5,107.5
		S205.8,242.2,146.6,242.2z M146.6,33.2c-56,0-101.5,45.5-101.5,101.5s45.5,101.5,101.5,101.5s101.5-45.5,101.5-101.5
		S202.5,33.2,146.6,33.2z"/>
</g>
<linearGradient id="SVGID_2_" gradientUnits="userSpaceOnUse" x1="146.5636" y1="39.1615" x2="146.5636" y2="230.1615">
	<stop  offset="0" style="stop-color:#FFFFFF;stop-opacity:0.75"/>
	<stop  offset="1" style="stop-color:#FFFFFF;stop-opacity:0"/>
</linearGradient>
<circle class="st2" cx="146.6" cy="134.7" r="95.5"/>
<g>
	<g>
		<path class="st9" d="M137.7,199.4c-1.4,0-2.8-0.5-3.9-1.4c-1.2-0.9-1.9-2.2-2-3.7l-1.9-12.9c-1.4-0.5-2.8-1.1-4.1-1.7l-9.7,7.4
			c-1.1,0.9-2.4,1.4-3.9,1.4c-1.5,0-2.9-0.6-4.1-1.7c-6.9-6.3-11.3-10.8-13.5-13.9c-0.7-1.1-1.1-2.3-1.1-3.6c0-1.3,0.4-2.5,1.2-3.6
			c0.8-1.2,2.2-2.9,4.1-5.4c1.3-1.6,2.3-3,3.1-4.1c-0.8-1.7-1.5-3.3-2.1-5l-12.7-1.9c-1.5-0.2-2.7-1-3.6-2.2
			c-0.8-1.1-1.2-2.4-1.2-3.7v-17.8c0-1.3,0.4-2.5,1.2-3.6c1.1-1.5,2.5-2.1,3.4-2.2l13.1-2c0.5-1.5,1.2-3,1.9-4.5
			c-1.9-2.7-4.4-5.9-7.3-9.4c-1-1.2-1.5-2.5-1.5-3.8c0-1.2,0.4-2.3,1.2-3.5c1.5-2.1,4.2-5.1,8.2-9.1c5.5-5.5,7.8-6.6,9.6-6.6
			c1.4,0,2.7,0.5,3.9,1.4l9.5,7.4c1.4-0.6,2.7-1.2,4.1-1.7c0.8-6.5,1.5-10.9,2.2-13.5c0.7-2.8,2.9-4.5,5.8-4.5h17.7
			c1.4,0,2.8,0.5,3.8,1.4c1.2,0.9,1.9,2.2,2,3.7l1.9,12.9c1.4,0.5,2.8,1.1,4.1,1.7l9.7-7.4c1-0.9,2.4-1.4,3.9-1.4
			c1.4,0,2.7,0.5,3.9,1.5l0.1,0.1c7,6.5,11.4,11.1,13.5,14c0.6,0.7,1.2,1.9,1.2,3.6c0,1.3-0.4,2.5-1.2,3.6c-0.8,1.2-2.2,2.9-4.1,5.4
			c-1.3,1.6-2.3,3-3.2,4.1c0.8,1.6,1.5,3.3,2,4.9l12.8,2c1.5,0.2,2.7,1,3.6,2.2c0.8,1.1,1.2,2.4,1.2,3.7v17.8c0,1.3-0.4,2.5-1.2,3.6
			c-0.9,1.2-2.1,2-3.5,2.2l-13,2c-0.6,1.6-1.2,3-1.8,4.4c1.8,2.5,4.2,5.6,7.4,9.5c1,1.2,1.5,2.5,1.5,3.9c0,1.4-0.5,2.7-1.4,3.7
			c-1.6,2.1-4.2,5-8.1,8.9c-5.5,5.5-7.8,6.6-9.6,6.6c-1.2,0-2.5-0.4-3.7-1.2l-0.1-0.1l-9.6-7.6c-1.3,0.6-2.7,1.2-4.1,1.7
			c-0.8,6.5-1.5,10.9-2.2,13.5c-0.7,2.8-2.9,4.5-5.8,4.5H137.7z M146.6,117.1c-4.8,0-8.9,1.7-12.3,5.1c-3.4,3.5-5.1,7.5-5.1,12.4
			s1.7,9,5.1,12.4c3.4,3.5,7.4,5.1,12.3,5.1s8.9-1.7,12.3-5.1c3.4-3.5,5.1-7.5,5.1-12.4s-1.7-9-5.1-12.4
			C155.4,118.8,151.4,117.1,146.6,117.1z"/>
	</g>
	<g>
		<path class="st1" d="M155.4,72.9c0.7,0,1.4,0.2,2,0.7c0.6,0.5,0.9,1,0.9,1.7l2.2,14.8c2.6,0.9,5,1.8,7.2,3l11.3-8.6
			c0.5-0.5,1.1-0.7,1.9-0.7c0.7,0,1.4,0.3,2,0.8c6.8,6.4,11.2,10.9,13.1,13.7c0.4,0.4,0.6,1,0.6,1.8c0,0.6-0.2,1.3-0.6,1.8
			c-0.8,1.1-2.1,2.9-4.1,5.3c-1.9,2.4-3.3,4.3-4.3,5.7c1.4,2.7,2.5,5.3,3.3,7.9l14.6,2.2c0.7,0.1,1.2,0.4,1.7,1s0.6,1.2,0.6,1.9
			v17.8c0,0.6-0.2,1.3-0.6,1.8c-0.4,0.6-1,0.9-1.6,1l-14.7,2.2c-1,2.9-2,5.3-3.1,7.3c1.9,2.7,4.7,6.4,8.5,11.1
			c0.5,0.6,0.8,1.3,0.8,2c0,0.7-0.2,1.3-0.7,1.8c-1.4,2-4.1,4.9-7.9,8.7c-3.8,3.8-6.3,5.7-7.5,5.7c-0.6,0-1.3-0.2-2.1-0.7l-11-8.7
			c-2.3,1.2-4.7,2.2-7.2,3.1c-0.8,7.3-1.6,12.3-2.3,14.9c-0.4,1.5-1.3,2.2-2.9,2.2h-17.7c-0.7,0-1.4-0.2-2-0.7
			c-0.6-0.5-0.9-1-0.9-1.7l-2.2-14.8c-2.6-0.9-5-1.8-7.2-3l-11.2,8.6c-0.5,0.5-1.2,0.7-2,0.7c-0.7,0-1.4-0.3-2-0.9
			c-6.7-6.1-11.1-10.6-13.1-13.5c-0.4-0.5-0.6-1.2-0.6-1.8c0-0.6,0.2-1.3,0.6-1.8c0.8-1.1,2.1-2.9,4.1-5.3c1.9-2.4,3.3-4.3,4.3-5.7
			c-1.4-2.7-2.5-5.3-3.3-8l-14.6-2.2c-0.7-0.1-1.2-0.4-1.7-1s-0.6-1.2-0.6-1.9v-17.8c0-0.6,0.2-1.3,0.6-1.8c0.4-0.6,0.9-0.9,1.5-1
			l14.8-2.2c0.7-2.5,1.8-4.9,3.1-7.4c-2.1-3.1-5-6.8-8.5-11.1c-0.5-0.6-0.8-1.3-0.8-1.9c0-0.5,0.2-1.2,0.7-1.8
			c1.4-1.9,4-4.8,7.8-8.6c3.8-3.8,6.4-5.7,7.5-5.7c0.7,0,1.4,0.3,2.1,0.8l11,8.6c2.3-1.2,4.7-2.2,7.2-3.1c0.8-7.3,1.6-12.3,2.3-14.9
			c0.4-1.5,1.3-2.2,2.9-2.2H155.4 M146.6,155.2c5.6,0,10.4-2,14.4-6s6-8.9,6-14.5c0-5.7-2-10.5-6-14.5c-4-4-8.8-6-14.4-6
			c-5.6,0-10.4,2-14.4,6s-6,8.9-6,14.5c0,5.7,2,10.5,6,14.5C136.1,153.2,140.9,155.2,146.6,155.2 M155.4,66.9h-17.7
			c-4.3,0-7.6,2.6-8.7,6.8c-0.6,2.5-1.3,6.4-2,12.1c-0.3,0.1-0.6,0.3-1,0.4l-8.1-6.3c-1.8-1.4-3.7-2.1-5.8-2.1
			c-3.2,0-6.1,1.9-11.8,7.5c-4.1,4.1-6.9,7.2-8.5,9.4l0,0l0,0c-1.2,1.7-1.8,3.5-1.8,5.2c0,1.4,0.4,3.6,2.2,5.7
			c2.4,2.9,4.5,5.5,6.2,7.9c-0.2,0.5-0.4,0.9-0.6,1.4l-11.3,1.7l-0.1,0l-0.1,0c-2.1,0.4-4,1.6-5.3,3.4c-1.2,1.6-1.8,3.5-1.8,5.4
			v17.8c0,2,0.6,3.9,1.8,5.5c1.4,1.8,3.3,3,5.5,3.3l11,1.6c0.2,0.6,0.5,1.3,0.8,1.9c-0.6,0.8-1.3,1.7-2,2.6c-2,2.5-3.4,4.3-4.2,5.6
			c-1.1,1.6-1.7,3.4-1.7,5.3c0,1.9,0.6,3.7,1.6,5.3l0,0l0,0c2.3,3.3,6.9,8,13.9,14.4c1.7,1.6,3.8,2.5,6.1,2.5c2.2,0,4.2-0.7,5.8-2.1
			l8.2-6.3c0.3,0.1,0.7,0.3,1,0.4l1.7,11.1c0.2,2.2,1.3,4.2,3.1,5.6c1.6,1.3,3.6,2,5.7,2h17.7c4.3,0,7.6-2.6,8.7-6.8
			c0.6-2.5,1.3-6.4,2-12.1c0.3-0.1,0.6-0.3,0.9-0.4l8.1,6.4l0.2,0.2l0.2,0.2c1.7,1.1,3.5,1.7,5.3,1.7c3.2,0,6.1-1.9,11.7-7.5
			c4-4,6.7-7,8.4-9.2c1.3-1.6,2-3.5,2-5.6c0-2.1-0.7-4.1-2.1-5.8c-2.5-3.1-4.6-5.7-6.2-7.9c0.2-0.4,0.4-0.8,0.5-1.3l11.3-1.7l0,0
			l0,0c2.2-0.4,4.1-1.6,5.5-3.5c1.2-1.6,1.8-3.5,1.8-5.4v-17.8c0-2-0.6-3.9-1.8-5.5c-1.4-1.8-3.3-3-5.5-3.3l-11-1.7
			c-0.2-0.6-0.5-1.2-0.8-1.8c0.6-0.8,1.3-1.7,2.1-2.6c2-2.5,3.4-4.3,4.2-5.6c1.1-1.6,1.8-3.4,1.8-5.3c0-2.5-0.9-4.3-1.8-5.4
			c-2.2-3.1-6.7-7.7-13.8-14.4l-0.1-0.1l-0.1-0.1c-1.7-1.4-3.7-2.2-5.9-2.2c-2.2,0-4.2,0.7-5.8,2.1l-8.2,6.2c-0.3-0.1-0.7-0.3-1-0.4
			l-1.7-11.1c-0.2-2.2-1.3-4.2-3.1-5.6C159.5,67.7,157.5,66.9,155.4,66.9L155.4,66.9z M146.6,149.2c-4.1,0-7.3-1.4-10.1-4.2
			c-2.8-2.9-4.2-6.3-4.2-10.3s1.4-7.4,4.2-10.3c2.9-2.9,6.1-4.2,10.1-4.2s7.3,1.4,10.1,4.2c2.8,2.9,4.2,6.3,4.2,10.3
			s-1.4,7.4-4.2,10.3C153.8,147.9,150.6,149.2,146.6,149.2L146.6,149.2z"/>
	</g>
</g>
</svg>
