<?xml version="1.0" encoding="utf-8"?>
<!-- Generator: Adobe Illustrator 19.1.0, SVG Export Plug-In . SVG Version: 6.00 Build 0)  -->
<svg version="1.1" id="Layer_1" xmlns="http://www.w3.org/2000/svg" xmlns:xlink="http://www.w3.org/1999/xlink" x="0px" y="0px"
	 viewBox="0 0 288 288" style="enable-background:new 0 0 288 288;" xml:space="preserve">
<style type="text/css">
	.st0{fill:url(#SVGID_1_);}
	.st1{fill:#595A5C;}
	.st2{fill:url(#SVGID_2_);}
	.st3{fill:url(#SVGID_3_);}
	.st4{fill:url(#SVGID_4_);}
	.st5{fill:url(#SVGID_5_);}
	.st6{fill:url(#SVGID_6_);}
	.st7{fill:url(#SVGID_7_);}
	.st8{fill:url(#SVGID_8_);}
	.st9{fill:#FFFFFF;}
	.st10{fill:url(#SVGID_9_);}
	.st11{fill:url(#SVGID_10_);}
	.st12{fill:url(#SVGID_11_);}
	.st13{fill:url(#SVGID_12_);}
	.st14{fill:url(#SVGID_13_);}
	.st15{fill:url(#SVGID_14_);}
	.st16{fill:url(#SVGID_15_);}
	.st17{fill:url(#SVGID_16_);}
	.st18{fill:url(#SVGID_17_);}
	.st19{fill:url(#SVGID_18_);}
	.st20{fill:url(#SVGID_19_);}
	.st21{fill:url(#SVGID_20_);}
	.st22{fill:url(#SVGID_21_);}
	.st23{fill:url(#SVGID_22_);}
	.st24{fill:url(#SVGID_23_);}
	.st25{fill:url(#SVGID_24_);}
	.st26{fill:url(#SVGID_25_);}
	.st27{fill:#BCBEC0;}
	.st28{fill:url(#SVGID_26_);}
	.st29{fill:url(#SVGID_27_);}
	.st30{fill:url(#SVGID_28_);}
	.st31{fill:url(#SVGID_29_);}
	.st32{fill:url(#SVGID_30_);}
	.st33{fill:url(#SVGID_31_);}
	.st34{fill:url(#SVGID_32_);}
	.st35{fill:url(#SVGID_33_);}
	.st36{fill:url(#SVGID_34_);}
	.st37{fill:url(#SVGID_35_);}
	.st38{fill:url(#SVGID_36_);}
	.st39{fill:url(#SVGID_37_);}
	.st40{fill:url(#SVGID_38_);}
	.st41{fill:url(#SVGID_39_);}
	.st42{fill:url(#SVGID_40_);}
	.st43{fill:url(#SVGID_41_);}
	.st44{fill:url(#SVGID_42_);}
	.st45{fill:url(#SVGID_43_);}
	.st46{fill:url(#SVGID_44_);}
	.st47{fill:url(#SVGID_45_);}
	.st48{fill:url(#SVGID_46_);}
	.st49{fill:url(#SVGID_47_);}
	.st50{fill:url(#SVGID_48_);}
	.st51{fill:url(#SVGID_49_);}
	.st52{fill:url(#SVGID_50_);}
	.st53{fill:url(#SVGID_51_);}
	.st54{fill:url(#SVGID_52_);}
	.st55{fill:url(#SVGID_53_);}
	.st56{fill:url(#SVGID_54_);}
	.st57{fill:#9FBEE4;}
	.st58{fill:url(#SVGID_55_);}
	.st59{fill:url(#SVGID_56_);}
	.st60{fill:url(#SVGID_57_);}
	.st61{fill:url(#SVGID_58_);}
	.st62{fill:url(#SVGID_59_);}
	.st63{fill:url(#SVGID_60_);}
	.st64{fill:url(#SVGID_61_);}
	.st65{fill:url(#SVGID_62_);}
	.st66{fill:url(#SVGID_63_);}
	.st67{fill:url(#SVGID_64_);}
	.st68{fill:#A7A9AC;}
	.st69{fill:#58595B;}
	.st70{fill:#F1F2F2;}
	.st71{fill:#702FB7;}
	.st72{fill:#939598;}
	.st73{fill:#010101;}
	.st74{fill:url(#SVGID_65_);}
	.st75{fill:url(#SVGID_66_);}
	.st76{opacity:0.39;fill:url(#SVGID_67_);}
	.st77{fill:url(#SVGID_68_);}
	.st78{fill:url(#SVGID_69_);}
	.st79{fill:url(#SVGID_70_);}
	.st80{opacity:0.39;fill:url(#SVGID_71_);}
	.st81{fill:url(#SVGID_72_);}
	.st82{fill:url(#SVGID_73_);}
	.st83{opacity:0.5;fill:url(#SVGID_74_);}
	.st84{fill:url(#SVGID_75_);}
	.st85{fill:url(#SVGID_76_);}
	.st86{opacity:0.5;fill:url(#SVGID_77_);}
	.st87{fill:url(#SVGID_78_);}
	.st88{fill:url(#SVGID_79_);}
	.st89{opacity:0.5;fill:url(#SVGID_80_);}
	.st90{fill:url(#SVGID_81_);}
	.st91{fill:url(#SVGID_82_);}
	.st92{fill:url(#SVGID_83_);}
	.st93{fill:url(#SVGID_84_);}
	.st94{fill:url(#XMLID_10_);}
	.st95{fill:url(#SVGID_85_);}
	.st96{fill:url(#SVGID_86_);}
	.st97{fill:url(#SVGID_87_);}
	.st98{fill:url(#SVGID_88_);}
	.st99{fill:url(#SVGID_89_);}
	.st100{fill:url(#SVGID_90_);}
	.st101{fill:url(#SVGID_91_);}
	.st102{fill:url(#SVGID_92_);}
	.st103{fill:url(#SVGID_93_);}
	.st104{fill:url(#SVGID_94_);}
</style>
<g>
	<linearGradient id="SVGID_1_" gradientUnits="userSpaceOnUse" x1="140.2484" y1="31.2546" x2="140.2484" y2="240.2546">
		<stop  offset="0" style="stop-color:#702FB7"/>
		<stop  offset="1" style="stop-color:#5E3A88"/>
	</linearGradient>
	<circle class="st0" cx="140.2" cy="135.8" r="104.5"/>
	<path class="st1" d="M140.2,243.3C81,243.3,32.7,195,32.7,135.8S81,28.3,140.2,28.3s107.5,48.2,107.5,107.5
		S199.5,243.3,140.2,243.3z M140.2,34.3c-56,0-101.5,45.5-101.5,101.5s45.5,101.5,101.5,101.5s101.5-45.5,101.5-101.5
		S196.2,34.3,140.2,34.3z"/>
</g>
<linearGradient id="SVGID_2_" gradientUnits="userSpaceOnUse" x1="140.2484" y1="40.2546" x2="140.2484" y2="231.2546">
	<stop  offset="0" style="stop-color:#FFFFFF;stop-opacity:0.75"/>
	<stop  offset="1" style="stop-color:#FFFFFF;stop-opacity:0"/>
</linearGradient>
<circle class="st2" cx="140.2" cy="135.8" r="95.5"/>
<g>
	<g>
		<path class="st9" d="M140.5,128.2c-0.4,0-0.8-0.1-1.2-0.2l-62.2-26.4c-1.1-0.5-1.8-1.6-1.8-2.8c0-1.2,0.8-2.3,1.9-2.8l61.6-23.8
			c0.3-0.1,0.7-0.2,1.1-0.2c0.4,0,0.7,0.1,1.1,0.2L203.2,96c1.1,0.4,1.9,1.5,1.9,2.7c0,1.2-0.7,2.3-1.8,2.8L141.7,128
			C141.3,128.1,140.9,128.2,140.5,128.2z"/>
		<path class="st1" d="M139.9,75l62.2,23.8l-61.5,26.4L78.4,98.8L139.9,75 M139.9,69c-0.7,0-1.5,0.1-2.2,0.4L76.2,93.2
			c-2.3,0.9-3.8,3.1-3.8,5.5c0,2.4,1.4,4.7,3.7,5.6l62.2,26.4c0.7,0.3,1.5,0.5,2.3,0.5c0.8,0,1.6-0.2,2.4-0.5l61.5-26.4
			c2.2-1,3.7-3.2,3.6-5.6c0-2.4-1.6-4.6-3.9-5.5l-62.2-23.8C141.4,69.1,140.7,69,139.9,69L139.9,69z"/>
	</g>
	<g>
		<g>
			<polygon class="st9" points="75.3,99.9 74.8,165.2 139.9,196.5 139.9,127.1 			"/>
			<path class="st1" d="M139.9,199.5c-0.4,0-0.9-0.1-1.3-0.3l-65.1-31.3c-1-0.5-1.7-1.6-1.7-2.7l0.4-65.3c0-1,0.5-1.9,1.3-2.5
				c0.8-0.6,1.9-0.6,2.8-0.3l64.6,27.2c1.1,0.5,1.8,1.6,1.8,2.8v69.4c0,1-0.5,2-1.4,2.5C141,199.3,140.4,199.5,139.9,199.5z
				 M77.8,163.3l59,28.4v-62.7l-58.7-24.7L77.8,163.3z"/>
		</g>
		<g>
			<polygon class="st9" points="205.2,99.9 205.7,165.2 140.6,196.5 140.6,127.1 			"/>
			<path class="st1" d="M140.6,199.5c-0.6,0-1.1-0.2-1.6-0.5c-0.9-0.5-1.4-1.5-1.4-2.5v-69.4c0-1.2,0.7-2.3,1.8-2.8l64.6-27.2
				c0.9-0.4,2-0.3,2.8,0.3c0.8,0.6,1.3,1.5,1.3,2.5l0.4,65.3c0,1.2-0.7,2.2-1.7,2.7l-65.1,31.3C141.5,199.4,141.1,199.5,140.6,199.5
				z M143.6,129.1v62.7l59-28.4l-0.4-58.9L143.6,129.1z"/>
		</g>
	</g>
</g>
</svg>
