<?xml version="1.0" encoding="utf-8"?>
<!-- Generator: Adobe Illustrator 19.1.0, SVG Export Plug-In . SVG Version: 6.00 Build 0)  -->
<svg version="1.1" id="Layer_1" xmlns="http://www.w3.org/2000/svg" xmlns:xlink="http://www.w3.org/1999/xlink" x="0px" y="0px"
	 viewBox="0 0 288 288" style="enable-background:new 0 0 288 288;" xml:space="preserve">
<style type="text/css">
	.st0{fill:url(#SVGID_1_);}
	.st1{fill:#595A5C;}
	.st2{fill:url(#SVGID_2_);}
	.st3{fill:url(#SVGID_3_);}
	.st4{fill:url(#SVGID_4_);}
	.st5{fill:url(#SVGID_5_);}
	.st6{fill:url(#SVGID_6_);}
	.st7{fill:url(#SVGID_7_);}
	.st8{fill:url(#SVGID_8_);}
	.st9{fill:#FFFFFF;}
	.st10{fill:url(#SVGID_9_);}
	.st11{fill:url(#SVGID_10_);}
	.st12{fill:url(#SVGID_11_);}
	.st13{fill:url(#SVGID_12_);}
	.st14{fill:url(#SVGID_13_);}
	.st15{fill:url(#SVGID_14_);}
	.st16{fill:url(#SVGID_15_);}
	.st17{fill:url(#SVGID_16_);}
	.st18{fill:url(#SVGID_17_);}
	.st19{fill:url(#SVGID_18_);}
	.st20{fill:url(#SVGID_19_);}
	.st21{fill:url(#SVGID_20_);}
	.st22{fill:url(#SVGID_21_);}
	.st23{fill:url(#SVGID_22_);}
	.st24{fill:url(#SVGID_23_);}
	.st25{fill:url(#SVGID_24_);}
	.st26{fill:url(#SVGID_25_);}
	.st27{fill:#BCBEC0;}
	.st28{fill:url(#SVGID_26_);}
	.st29{fill:url(#SVGID_27_);}
	.st30{fill:url(#SVGID_28_);}
	.st31{fill:url(#SVGID_29_);}
	.st32{fill:url(#SVGID_30_);}
	.st33{fill:url(#SVGID_31_);}
	.st34{fill:url(#SVGID_32_);}
	.st35{fill:url(#SVGID_33_);}
	.st36{fill:url(#SVGID_34_);}
	.st37{fill:url(#SVGID_35_);}
	.st38{fill:url(#SVGID_36_);}
	.st39{fill:url(#SVGID_37_);}
	.st40{fill:url(#SVGID_38_);}
	.st41{fill:url(#SVGID_39_);}
	.st42{fill:url(#SVGID_40_);}
	.st43{fill:url(#SVGID_41_);}
	.st44{fill:url(#SVGID_42_);}
	.st45{fill:url(#SVGID_43_);}
	.st46{fill:url(#SVGID_44_);}
	.st47{fill:url(#SVGID_45_);}
	.st48{fill:url(#SVGID_46_);}
	.st49{fill:url(#SVGID_47_);}
	.st50{fill:url(#SVGID_48_);}
	.st51{fill:url(#SVGID_49_);}
	.st52{fill:url(#SVGID_50_);}
	.st53{fill:url(#SVGID_51_);}
	.st54{fill:url(#SVGID_52_);}
	.st55{fill:url(#SVGID_53_);}
	.st56{fill:url(#SVGID_54_);}
	.st57{fill:#9FBEE4;}
	.st58{fill:url(#SVGID_55_);}
	.st59{fill:url(#SVGID_56_);}
	.st60{fill:url(#SVGID_57_);}
	.st61{fill:url(#SVGID_58_);}
	.st62{fill:url(#SVGID_59_);}
	.st63{fill:url(#SVGID_60_);}
	.st64{fill:url(#SVGID_61_);}
	.st65{fill:url(#SVGID_62_);}
	.st66{fill:url(#SVGID_63_);}
	.st67{fill:url(#SVGID_64_);}
	.st68{fill:#A7A9AC;}
	.st69{fill:#58595B;}
	.st70{fill:#F1F2F2;}
	.st71{fill:#702FB7;}
	.st72{fill:#939598;}
	.st73{fill:#010101;}
	.st74{fill:url(#SVGID_65_);}
	.st75{fill:url(#SVGID_66_);}
	.st76{opacity:0.39;fill:url(#SVGID_67_);}
	.st77{fill:url(#SVGID_68_);}
	.st78{fill:url(#SVGID_69_);}
	.st79{fill:url(#SVGID_70_);}
	.st80{opacity:0.39;fill:url(#SVGID_71_);}
	.st81{fill:url(#SVGID_72_);}
	.st82{fill:url(#SVGID_73_);}
	.st83{opacity:0.5;fill:url(#SVGID_74_);}
	.st84{fill:url(#SVGID_75_);}
	.st85{fill:url(#SVGID_76_);}
	.st86{opacity:0.5;fill:url(#SVGID_77_);}
	.st87{fill:url(#SVGID_78_);}
	.st88{fill:url(#SVGID_79_);}
	.st89{opacity:0.5;fill:url(#SVGID_80_);}
	.st90{fill:url(#SVGID_81_);}
	.st91{fill:url(#SVGID_82_);}
	.st92{fill:url(#SVGID_83_);}
	.st93{fill:url(#SVGID_84_);}
	.st94{fill:url(#XMLID_10_);}
	.st95{fill:url(#SVGID_85_);}
	.st96{fill:url(#SVGID_86_);}
	.st97{fill:url(#SVGID_87_);}
	.st98{fill:url(#SVGID_88_);}
	.st99{fill:url(#SVGID_89_);}
	.st100{fill:url(#SVGID_90_);}
	.st101{fill:url(#SVGID_91_);}
	.st102{fill:url(#SVGID_92_);}
	.st103{fill:url(#SVGID_93_);}
	.st104{fill:url(#SVGID_94_);}
</style>
<g>
	<linearGradient id="SVGID_1_" gradientUnits="userSpaceOnUse" x1="143.3999" y1="29.0946" x2="143.3999" y2="238.0946">
		<stop  offset="0" style="stop-color:#A7A9AC"/>
		<stop  offset="1" style="stop-color:#595A5C"/>
	</linearGradient>
	<circle class="st0" cx="143.4" cy="133.6" r="104.5"/>
	<path class="st1" d="M143.4,241.1c-59.3,0-107.5-48.2-107.5-107.5c0-59.3,48.2-107.5,107.5-107.5s107.5,48.2,107.5,107.5
		C250.9,192.9,202.7,241.1,143.4,241.1z M143.4,32.1c-56,0-101.5,45.5-101.5,101.5c0,56,45.5,101.5,101.5,101.5
		s101.5-45.5,101.5-101.5C244.9,77.6,199.4,32.1,143.4,32.1z"/>
</g>
<linearGradient id="SVGID_2_" gradientUnits="userSpaceOnUse" x1="143.3999" y1="38.0946" x2="143.3999" y2="229.0946">
	<stop  offset="0" style="stop-color:#FFFFFF;stop-opacity:0.75"/>
	<stop  offset="1" style="stop-color:#FFFFFF;stop-opacity:0"/>
</linearGradient>
<circle class="st2" cx="143.4" cy="133.6" r="95.5"/>
<linearGradient id="SVGID_3_" gradientUnits="userSpaceOnUse" x1="143.3999" y1="216.3065" x2="143.3999" y2="50.9867">
	<stop  offset="0" style="stop-color:#2767B2;stop-opacity:0.75"/>
	<stop  offset="1" style="stop-color:#2767B2;stop-opacity:0.1"/>
</linearGradient>
<path class="st3" d="M225.8,123.8c-0.9-10.5-4.4-20.3-9.3-29.6c-3.2-5.9-7-11.4-11.7-16.4c-5.4-5.7-11.2-10.8-17.9-14.9
	c-6.4-3.9-13.1-6.9-20.3-9c-1.2-0.3-2.4-0.7-3.5-1c-13.3-2.9-27.1-2.1-34.9-0.9c-8.4,1.5-16.4,4.6-24,8.6c-5.9,3.2-11.4,7-16.4,11.7
	C82,77.7,76.9,83.6,72.8,90.3c-3.9,6.4-6.9,13.1-9,20.3c-0.6,2.2-1.3,4.4-1.7,6.6l0-0.4c-1.2,5.9-3.2,21-0.2,33.5l0-0.6
	c1.4,8.2,4.8,15.9,8.7,23.4c3.2,5.9,7,11.4,11.7,16.4c5.4,5.7,11.2,10.8,17.9,14.9c6.4,3.9,13.1,6.9,20.3,9c2.3,0.7,4.7,1.3,7,1.8
	c2.3,0.4,4.7,0.7,7,0.9c0.2,0,0.4,0,0.6,0c0.1,0,0.1,0,0.2,0c5.7,0.4,11.2,0.4,15.8,0c0.1,0,0.1-0.1,0.2-0.1
	c11.3-0.5,21.8-4.2,31.7-9.5c5.9-3.2,11.4-7,16.4-11.7c5.7-5.4,10.8-11.2,14.9-17.9c3.9-6.4,6.9-13.1,9-20.3
	c0.7-2.2,1.3-4.5,1.7-6.7l0,0.3C227,141.3,226.6,131,225.8,123.8z M133.5,60.4c1.9-1.3,4-2.2,6.6-2.6c0,11.9,0,23.7,0,35.7
	c-8.9,0.2-17.6-0.8-26.6-2.8c2.6-7.6,5.8-14.5,10.3-20.8C126.5,66.2,129.7,63,133.5,60.4z M140.1,100.6c0,9.9,0,19.7,0,29.6
	c-10.9,0-21.7,0-32.6,0c-1-5.9,1.4-24.7,4.3-33.1C121.2,99.4,130.6,99.8,140.1,100.6z M122.5,60.5c-3.4,4.3-6.7,8.6-9.1,13.5
	c-2.4,4.8-4.5,9.8-6.8,15c-6.4-1.5-12.7-3.9-19.2-7.1C97.3,71.3,108.9,64.4,122.5,60.5z M83.1,87c7,3.9,14.4,6.6,21.9,8.6
	c-2.6,11.4-4.6,22.8-4.4,34.6c-11.5,0-22.5,0-33.3,0C68.1,114.1,73.5,99.9,83.1,87z M83.2,180.2c-4.9-6.1-8.6-13-11.3-20.3
	c-2.7-7.3-4.2-14.8-4.4-22.6c2.1-0.4,28.1-0.6,32.8-0.1c0.1,0.5,0.4,1.1,0.4,1.7c0.1,1.2,0,2.4,0,3.6c0,4.1,0.8,8,1.2,12.1
	c0.4,4.3,1.4,8.4,2.1,12.5c0.3,1.6,0.7,3.1,1,4.7C97.6,173.6,90.3,176.4,83.2,180.2z M87.6,185.5c1.8-1.7,4.2-2,6.2-3.1
	c1.9-1,4.1-1.6,6.2-2.3c2.2-0.7,4.4-1.5,6.8-2.3c3.6,10.6,8.3,20.4,15.6,28.8C109,202.9,97.4,195.9,87.6,185.5z M140.2,209.2
	c-1.3,0.6-2.5-0.3-3.5-0.8c-2.2-1.1-4.3-2.4-6.1-4c-7.6-6.4-12.1-14.9-15.5-24.1c-0.4-1.2-0.9-2.3-1.6-3.8c8.9-2,17.7-3.1,26.7-2.8
	C140.2,185.7,140.2,197.4,140.2,209.2z M140,166.6c-9.3,0.8-18.8,1.2-28.2,3.5c-1.6-5.5-2.6-10.9-3.3-16.3c-0.7-5.5-1.4-11-1.2-16.9
	c11,0,21.8,0,32.6,0C140.4,139.2,140.5,161.8,140,166.6z M203.9,87c4.9,6.1,8.6,13,11.3,20.3c2.7,7.3,4.2,14.8,4.4,22.6
	c-2.2,0.4-28.6,0.5-33,0.1c-0.3-3.8-0.5-7.7-0.8-11.6c-0.4-3.8-0.9-7.6-1.5-11.4c-0.6-3.8-1.5-7.6-2.2-11.5
	C189.5,93.6,196.8,90.8,203.9,87z M199.3,81.9c-6.1,3.2-12.5,5.5-19.3,7.2c-3.6-10.5-8.3-20.2-15.8-28.6
	C173.2,61.7,191.2,71.8,199.3,81.9z M146.9,57.8c3.6,0.5,6.5,2.2,9.1,4.4c5.3,4.4,9.2,9.9,12.3,16.1c2,3.9,3.6,7.9,5.2,12.3
	c-4.4,1.3-8.7,1.7-13,2.3c-4.5,0.6-8.9,0.7-13.6,0.6C146.9,81.5,146.9,69.7,146.9,57.8z M146.8,100.7c2.1-0.2,4.1-0.6,6.2-0.7
	c4.3-0.1,8.5-0.6,12.7-1.2c2.7-0.4,5.4-0.8,8.1-1.4c0.4-0.1,0.8,0,1.6,0c2.8,10.8,4.3,21.6,4.4,32.8c-11,0-21.9,0-33,0
	C146.8,120.3,146.8,110.6,146.8,100.7z M179.8,137c0,11.1-1.6,22-4.3,32.8c-4.9-0.7-9.6-1.4-14.3-1.9c-4.7-0.5-9.3-0.9-14.3-1.4
	c0-9.9,0-19.7,0-29.6C157.8,137,168.7,137,179.8,137z M146.9,209.4c0-12,0-23.7,0-35.4c6.1-0.9,20.6,0.6,26.6,2.8
	c-0.8,2.3-1.6,4.6-2.5,6.8c-2.7,6.4-6,12.5-10.8,17.6C156.7,204.9,152.7,208.6,146.9,209.4z M164.5,206.6c3.3-4.9,5.9-4.8,15.8-28.5
	c6.5,1.6,12.8,4,19.1,7.1C191.4,195.3,173.4,205.4,164.5,206.6z M203.9,180.2c-6.9-3.7-14.3-6.5-21.9-8.5c0.8-3.9,1.6-7.6,2.2-11.5
	c0.6-3.8,0.7-7.6,1.5-11.4c0.8-3.9-0.1-7.9,0.8-11.8c11.2,0,22.2,0,33,0C219,153.1,213.6,167.3,203.9,180.2z"/>
<g>
	<g>
		<g>
			<path class="st9" d="M190,98.6h-7.4c-1.6-7-7.9-12.3-15.4-12.3h-47.4c-7.5,0-13.8,5.3-15.4,12.3h-7.4c-8.7,0-15.8,7.1-15.8,15.8
				v42.7c0,8.7,7.1,15.8,15.8,15.8H190c8.7,0,15.8-7.1,15.8-15.8v-42.7C205.8,105.7,198.6,98.6,190,98.6z M143.4,160.1
				c-14.4,0-26.1-11.7-26.1-26.1S129,108,143.4,108s26.1,11.7,26.1,26.1S157.8,160.1,143.4,160.1z"/>
			<path class="st1" d="M190,176H96.8c-10.4,0-18.8-8.4-18.8-18.8v-42.7c0-10.4,8.4-18.8,18.8-18.8h5.2c2.7-7.2,9.8-12.3,17.6-12.3
				h47.4c7.9,0,14.9,5,17.6,12.3h5.2c10.4,0,18.8,8.4,18.8,18.8v42.7C208.8,167.6,200.3,176,190,176z M96.8,101.6
				c-7.1,0-12.8,5.7-12.8,12.8v42.7c0,7.1,5.7,12.8,12.8,12.8H190c7.1,0,12.8-5.7,12.8-12.8v-42.7c0-7.1-5.7-12.8-12.8-12.8h-7.4
				c-1.4,0-2.6-1-2.9-2.3c-1.3-5.8-6.6-10-12.5-10h-47.4c-5.9,0-11.2,4.2-12.5,10c-0.3,1.4-1.5,2.3-2.9,2.3H96.8z M143.4,163.1
				c-16,0-29.1-13-29.1-29.1c0-16,13-29.1,29.1-29.1s29.1,13,29.1,29.1C172.5,150.1,159.4,163.1,143.4,163.1z M143.4,111
				c-12.7,0-23.1,10.3-23.1,23.1c0,12.7,10.3,23.1,23.1,23.1s23.1-10.3,23.1-23.1C166.5,121.3,156.1,111,143.4,111z"/>
		</g>
		<g>
			<path class="st9" d="M143.4,158.3c-13.2,0-23.9-10.7-23.9-23.9c0-13.2,10.7-23.9,23.9-23.9s23.9,10.7,23.9,23.9
				C167.3,147.5,156.6,158.3,143.4,158.3z"/>
			<path class="st1" d="M143.4,114.4c11,0,19.9,8.9,19.9,19.9c0,11-8.9,19.9-19.9,19.9c-11,0-19.9-8.9-19.9-19.9
				C123.5,123.4,132.4,114.4,143.4,114.4 M143.4,106.4c-15.4,0-27.9,12.5-27.9,27.9c0,15.4,12.5,27.9,27.9,27.9s27.9-12.5,27.9-27.9
				C171.3,119,158.8,106.4,143.4,106.4L143.4,106.4z"/>
		</g>
	</g>
	<circle class="st1" cx="190.4" cy="113.7" r="5.3"/>
</g>
</svg>
