<?xml version="1.0" encoding="utf-8"?>
<!-- Generator: Adobe Illustrator 19.1.0, SVG Export Plug-In . SVG Version: 6.00 Build 0)  -->
<svg version="1.1" id="Layer_1" xmlns="http://www.w3.org/2000/svg" xmlns:xlink="http://www.w3.org/1999/xlink" x="0px" y="0px"
	 viewBox="0 0 288 288" style="enable-background:new 0 0 288 288;" xml:space="preserve">
<style type="text/css">
	.st0{fill:url(#SVGID_1_);}
	.st1{fill:#595A5C;}
	.st2{fill:url(#SVGID_2_);}
	.st3{fill:url(#SVGID_3_);}
	.st4{fill:url(#SVGID_4_);}
	.st5{fill:url(#SVGID_5_);}
	.st6{fill:url(#SVGID_6_);}
	.st7{fill:url(#SVGID_7_);}
	.st8{fill:url(#SVGID_8_);}
	.st9{fill:#FFFFFF;}
	.st10{fill:url(#SVGID_9_);}
	.st11{fill:url(#SVGID_10_);}
	.st12{fill:url(#SVGID_11_);}
	.st13{fill:url(#SVGID_12_);}
	.st14{fill:url(#SVGID_13_);}
	.st15{fill:url(#SVGID_14_);}
	.st16{fill:url(#SVGID_15_);}
	.st17{fill:url(#SVGID_16_);}
	.st18{fill:url(#SVGID_17_);}
	.st19{fill:url(#SVGID_18_);}
	.st20{fill:url(#SVGID_19_);}
	.st21{fill:url(#SVGID_20_);}
	.st22{fill:url(#SVGID_21_);}
	.st23{fill:url(#SVGID_22_);}
	.st24{fill:url(#SVGID_23_);}
	.st25{fill:url(#SVGID_24_);}
	.st26{fill:url(#SVGID_25_);}
	.st27{fill:#BCBEC0;}
	.st28{fill:url(#SVGID_26_);}
	.st29{fill:url(#SVGID_27_);}
	.st30{fill:url(#SVGID_28_);}
	.st31{fill:url(#SVGID_29_);}
	.st32{fill:url(#SVGID_30_);}
	.st33{fill:url(#SVGID_31_);}
	.st34{fill:url(#SVGID_32_);}
	.st35{fill:url(#SVGID_33_);}
	.st36{fill:url(#SVGID_34_);}
	.st37{fill:url(#SVGID_35_);}
	.st38{fill:url(#SVGID_36_);}
	.st39{fill:url(#SVGID_37_);}
	.st40{fill:url(#SVGID_38_);}
	.st41{fill:url(#SVGID_39_);}
	.st42{fill:url(#SVGID_40_);}
	.st43{fill:url(#SVGID_41_);}
	.st44{fill:url(#SVGID_42_);}
	.st45{fill:url(#SVGID_43_);}
	.st46{fill:url(#SVGID_44_);}
	.st47{fill:url(#SVGID_45_);}
	.st48{fill:url(#SVGID_46_);}
	.st49{fill:url(#SVGID_47_);}
	.st50{fill:url(#SVGID_48_);}
	.st51{fill:url(#SVGID_49_);}
	.st52{fill:url(#SVGID_50_);}
	.st53{fill:url(#SVGID_51_);}
	.st54{fill:url(#SVGID_52_);}
	.st55{fill:url(#SVGID_53_);}
	.st56{fill:url(#SVGID_54_);}
	.st57{fill:#9FBEE4;}
	.st58{fill:url(#SVGID_55_);}
	.st59{fill:url(#SVGID_56_);}
	.st60{fill:url(#SVGID_57_);}
	.st61{fill:url(#SVGID_58_);}
	.st62{fill:url(#SVGID_59_);}
	.st63{fill:url(#SVGID_60_);}
	.st64{fill:url(#SVGID_61_);}
	.st65{fill:url(#SVGID_62_);}
	.st66{fill:url(#SVGID_63_);}
	.st67{fill:url(#SVGID_64_);}
	.st68{fill:#A7A9AC;}
	.st69{fill:#58595B;}
	.st70{fill:#F1F2F2;}
	.st71{fill:#702FB7;}
	.st72{fill:#939598;}
	.st73{fill:#010101;}
	.st74{fill:url(#SVGID_65_);}
	.st75{fill:url(#SVGID_66_);}
	.st76{opacity:0.39;fill:url(#SVGID_67_);}
	.st77{fill:url(#SVGID_68_);}
	.st78{fill:url(#SVGID_69_);}
	.st79{fill:url(#SVGID_70_);}
	.st80{opacity:0.39;fill:url(#SVGID_71_);}
	.st81{fill:url(#SVGID_72_);}
	.st82{fill:url(#SVGID_73_);}
	.st83{opacity:0.5;fill:url(#SVGID_74_);}
	.st84{fill:url(#SVGID_75_);}
	.st85{fill:url(#SVGID_76_);}
	.st86{opacity:0.5;fill:url(#SVGID_77_);}
	.st87{fill:url(#SVGID_78_);}
	.st88{fill:url(#SVGID_79_);}
	.st89{opacity:0.5;fill:url(#SVGID_80_);}
	.st90{fill:url(#SVGID_81_);}
	.st91{fill:url(#SVGID_82_);}
	.st92{fill:url(#SVGID_83_);}
	.st93{fill:url(#SVGID_84_);}
	.st94{fill:url(#XMLID_10_);}
	.st95{fill:url(#SVGID_85_);}
	.st96{fill:url(#SVGID_86_);}
	.st97{fill:url(#SVGID_87_);}
	.st98{fill:url(#SVGID_88_);}
	.st99{fill:url(#SVGID_89_);}
	.st100{fill:url(#SVGID_90_);}
	.st101{fill:url(#SVGID_91_);}
	.st102{fill:url(#SVGID_92_);}
	.st103{fill:url(#SVGID_93_);}
	.st104{fill:url(#SVGID_94_);}
</style>
<g>
	<linearGradient id="SVGID_1_" gradientUnits="userSpaceOnUse" x1="144.7321" y1="30.1432" x2="144.7321" y2="240.6329">
		<stop  offset="0" style="stop-color:#FBB040"/>
		<stop  offset="1" style="stop-color:#F7941E"/>
	</linearGradient>
	<path class="st0" d="M231,240.6H58.5c-10.3,0-18.7-8.4-18.7-18.7v-173c0-10.3,8.4-18.7,18.7-18.7H231c10.3,0,18.7,8.4,18.7,18.7
		v173C249.7,232.2,241.3,240.6,231,240.6z"/>
	<path class="st1" d="M231,243.6H58.5c-12,0-21.7-9.8-21.7-21.7v-173c0-12,9.8-21.7,21.7-21.7H231c12,0,21.7,9.8,21.7,21.7v173
		C252.7,233.9,243,243.6,231,243.6z M58.5,33.1c-8.7,0-15.7,7.1-15.7,15.7v173c0,8.7,7.1,15.7,15.7,15.7H231
		c8.7,0,15.7-7.1,15.7-15.7v-173c0-8.7-7.1-15.7-15.7-15.7H58.5z"/>
</g>
<linearGradient id="SVGID_2_" gradientUnits="userSpaceOnUse" x1="144.7321" y1="40.2676" x2="144.7321" y2="230.5084">
	<stop  offset="0" style="stop-color:#FFFFFF;stop-opacity:0.75"/>
	<stop  offset="1" style="stop-color:#FFFFFF;stop-opacity:0"/>
</linearGradient>
<path class="st2" d="M220.1,230.5H69.4c-10.3,0-18.7-8.4-18.7-18.7V59c0-10.3,8.4-18.7,18.7-18.7h150.7c10.3,0,18.7,8.4,18.7,18.7
	v152.7C238.9,222.1,230.4,230.5,220.1,230.5z"/>
<g>
	<polygon class="st1" points="87.3,125.1 145,149.6 202.1,125.1 144.4,103 	"/>
	<g>
		<g>
			<polygon class="st9" points="88.7,127.7 88.3,183.9 144.4,210.9 144.4,151.1 			"/>
			<path class="st1" d="M144.4,213.9c-0.4,0-0.9-0.1-1.3-0.3l-56-27c-1-0.5-1.7-1.6-1.7-2.7l0.4-56.2c0-1,0.5-1.9,1.3-2.5
				c0.8-0.6,1.9-0.6,2.8-0.3l55.7,23.4c1.1,0.5,1.8,1.6,1.8,2.8v59.8c0,1-0.5,2-1.4,2.5C145.5,213.8,144.9,213.9,144.4,213.9z
				 M91.4,182.1l50,24.1v-53l-49.7-20.9L91.4,182.1z"/>
		</g>
		<g>
			<polygon class="st9" points="200.7,127.7 201,183.9 145,210.9 145,151.1 			"/>
			<path class="st1" d="M145,213.9c-0.6,0-1.1-0.2-1.6-0.5c-0.9-0.5-1.4-1.5-1.4-2.5v-59.8c0-1.2,0.7-2.3,1.8-2.8l55.7-23.4
				c0.9-0.4,2-0.3,2.8,0.3c0.8,0.6,1.3,1.5,1.3,2.5l0.4,56.2c0,1.2-0.7,2.2-1.7,2.7l-56,27C145.9,213.8,145.5,213.9,145,213.9z
				 M148,153.1v53l50-24.1l-0.3-49.8L148,153.1z"/>
		</g>
	</g>
</g>
<g id="XMLID_14_">
	<path class="st9" d="M144.6,135.8c-1.7,0-3.3-0.7-4.5-1.9l-0.1-0.1l-26.6-30.5c-1.8-1.8-2.3-4.5-1.3-6.9c1-2.4,3.3-3.9,5.9-3.9h12
		V65.8c0-4.3,3.5-7.7,7.7-7.7h13.6c4.3,0,7.7,3.5,7.7,7.7v26.8h12c2.6,0,4.9,1.6,5.9,3.9c1,2.4,0.5,5.1-1.3,6.9l-26.6,30.5l-0.1,0.1
		C147.9,135.2,146.3,135.8,144.6,135.8z"/>
	<path class="st1" d="M151.4,61.1c2.6,0,4.7,2.1,4.7,4.7v28.6c0,0.4-0.1,0.8-0.2,1.2h15.2c3,0,4.5,3.7,2.4,5.8L147,131.8
		c-0.7,0.7-1.5,1-2.4,1s-1.7-0.3-2.4-1l-26.5-30.5c-2.1-2.1-0.6-5.8,2.4-5.8h15.2c-0.1-0.4-0.2-0.8-0.2-1.2V65.8
		c0-2.6,2.1-4.7,4.7-4.7H151.4 M151.4,55.1h-13.6c-5.9,0-10.7,4.8-10.7,10.7v23.8h-9c-3.8,0-7.2,2.3-8.7,5.8
		c-1.4,3.4-0.7,7.4,1.9,10.1l26.4,30.4l0.1,0.2l0.1,0.1c1.8,1.8,4.1,2.8,6.6,2.8c2.5,0,4.9-1,6.6-2.8l0.1-0.1l0.1-0.2l26.4-30.4
		c2.6-2.7,3.3-6.6,1.9-10.1c-1.5-3.5-4.9-5.8-8.7-5.8h-9V65.8C162.1,59.9,157.3,55.1,151.4,55.1L151.4,55.1z"/>
</g>
</svg>
