<?xml version="1.0" encoding="utf-8"?>
<!-- Generator: Adobe Illustrator 19.1.0, SVG Export Plug-In . SVG Version: 6.00 Build 0)  -->
<svg version="1.1" id="Layer_1" xmlns="http://www.w3.org/2000/svg" xmlns:xlink="http://www.w3.org/1999/xlink" x="0px" y="0px"
	 viewBox="0 0 288 288" style="enable-background:new 0 0 288 288;" xml:space="preserve">
<style type="text/css">
	.st0{fill:url(#SVGID_1_);}
	.st1{fill:#595A5C;}
	.st2{fill:url(#SVGID_2_);}
	.st3{fill:url(#SVGID_3_);}
	.st4{fill:url(#SVGID_4_);}
	.st5{fill:url(#SVGID_5_);}
	.st6{fill:url(#SVGID_6_);}
	.st7{fill:url(#SVGID_7_);}
	.st8{fill:url(#SVGID_8_);}
	.st9{fill:#FFFFFF;}
	.st10{fill:url(#SVGID_9_);}
	.st11{fill:url(#SVGID_10_);}
	.st12{fill:url(#SVGID_11_);}
	.st13{fill:url(#SVGID_12_);}
	.st14{fill:url(#SVGID_13_);}
	.st15{fill:url(#SVGID_14_);}
	.st16{fill:url(#SVGID_15_);}
	.st17{fill:url(#SVGID_16_);}
	.st18{fill:url(#SVGID_17_);}
	.st19{fill:url(#SVGID_18_);}
	.st20{fill:url(#SVGID_19_);}
	.st21{fill:url(#SVGID_20_);}
	.st22{fill:url(#SVGID_21_);}
	.st23{fill:url(#SVGID_22_);}
	.st24{fill:url(#SVGID_23_);}
	.st25{fill:url(#SVGID_24_);}
	.st26{fill:url(#SVGID_25_);}
	.st27{fill:#BCBEC0;}
	.st28{fill:url(#SVGID_26_);}
	.st29{fill:url(#SVGID_27_);}
	.st30{fill:url(#SVGID_28_);}
	.st31{fill:url(#SVGID_29_);}
	.st32{fill:url(#SVGID_30_);}
	.st33{fill:url(#SVGID_31_);}
	.st34{fill:url(#SVGID_32_);}
	.st35{fill:url(#SVGID_33_);}
	.st36{fill:url(#SVGID_34_);}
	.st37{fill:url(#SVGID_35_);}
	.st38{fill:url(#SVGID_36_);}
	.st39{fill:url(#SVGID_37_);}
	.st40{fill:url(#SVGID_38_);}
	.st41{fill:url(#SVGID_39_);}
	.st42{fill:url(#SVGID_40_);}
	.st43{fill:url(#SVGID_41_);}
	.st44{fill:url(#SVGID_42_);}
	.st45{fill:url(#SVGID_43_);}
	.st46{fill:url(#SVGID_44_);}
	.st47{fill:url(#SVGID_45_);}
	.st48{fill:url(#SVGID_46_);}
	.st49{fill:url(#SVGID_47_);}
	.st50{fill:url(#SVGID_48_);}
	.st51{fill:url(#SVGID_49_);}
	.st52{fill:url(#SVGID_50_);}
	.st53{fill:url(#SVGID_51_);}
	.st54{fill:url(#SVGID_52_);}
	.st55{fill:url(#SVGID_53_);}
	.st56{fill:url(#SVGID_54_);}
	.st57{fill:#9FBEE4;}
	.st58{fill:url(#SVGID_55_);}
	.st59{fill:url(#SVGID_56_);}
	.st60{fill:url(#SVGID_57_);}
	.st61{fill:url(#SVGID_58_);}
	.st62{fill:url(#SVGID_59_);}
	.st63{fill:url(#SVGID_60_);}
	.st64{fill:url(#SVGID_61_);}
	.st65{fill:url(#SVGID_62_);}
	.st66{fill:url(#SVGID_63_);}
	.st67{fill:url(#SVGID_64_);}
	.st68{fill:#A7A9AC;}
	.st69{fill:#58595B;}
	.st70{fill:#F1F2F2;}
	.st71{fill:#702FB7;}
	.st72{fill:#939598;}
	.st73{fill:#010101;}
	.st74{fill:url(#SVGID_65_);}
	.st75{fill:url(#SVGID_66_);}
	.st76{opacity:0.39;fill:url(#SVGID_67_);}
	.st77{fill:url(#SVGID_68_);}
	.st78{fill:url(#SVGID_69_);}
	.st79{fill:url(#SVGID_70_);}
	.st80{opacity:0.39;fill:url(#SVGID_71_);}
	.st81{fill:url(#SVGID_72_);}
	.st82{fill:url(#SVGID_73_);}
	.st83{opacity:0.5;fill:url(#SVGID_74_);}
	.st84{fill:url(#SVGID_75_);}
	.st85{fill:url(#SVGID_76_);}
	.st86{opacity:0.5;fill:url(#SVGID_77_);}
	.st87{fill:url(#SVGID_78_);}
	.st88{fill:url(#SVGID_79_);}
	.st89{opacity:0.5;fill:url(#SVGID_80_);}
	.st90{fill:url(#SVGID_81_);}
	.st91{fill:url(#SVGID_82_);}
	.st92{fill:url(#SVGID_83_);}
	.st93{fill:url(#SVGID_84_);}
	.st94{fill:url(#XMLID_10_);}
	.st95{fill:url(#SVGID_85_);}
	.st96{fill:url(#SVGID_86_);}
	.st97{fill:url(#SVGID_87_);}
	.st98{fill:url(#SVGID_88_);}
	.st99{fill:url(#SVGID_89_);}
	.st100{fill:url(#SVGID_90_);}
	.st101{fill:url(#SVGID_91_);}
	.st102{fill:url(#SVGID_92_);}
	.st103{fill:url(#SVGID_93_);}
	.st104{fill:url(#SVGID_94_);}
</style>
<g>
	<linearGradient id="SVGID_1_" gradientUnits="userSpaceOnUse" x1="140.3802" y1="30.0268" x2="140.3802" y2="239.0268">
		<stop  offset="0" style="stop-color:#39B54A"/>
		<stop  offset="1" style="stop-color:#2F9E41"/>
	</linearGradient>
	<circle class="st0" cx="140.4" cy="134.5" r="104.5"/>
	<path class="st1" d="M140.4,242c-59.3,0-107.5-48.2-107.5-107.5S81.1,27,140.4,27s107.5,48.2,107.5,107.5S199.7,242,140.4,242z
		 M140.4,33c-56,0-101.5,45.5-101.5,101.5S84.4,236,140.4,236s101.5-45.5,101.5-101.5S196.3,33,140.4,33z"/>
</g>
<linearGradient id="SVGID_2_" gradientUnits="userSpaceOnUse" x1="140.3802" y1="39.0268" x2="140.3802" y2="230.0268">
	<stop  offset="0" style="stop-color:#FFFFFF;stop-opacity:0.75"/>
	<stop  offset="1" style="stop-color:#FFFFFF;stop-opacity:0"/>
</linearGradient>
<circle class="st2" cx="140.4" cy="134.5" r="95.5"/>
<g id="XMLID_8_">
	<path class="st9" d="M111.5,152.3c5.4-8.7,10.6-17.4,16.2-25.9c18.2-27.3,39.6-51.3,68.2-68.1c2.8-1.7,5.7-3.2,8.7-4.8
		c10.6-5.5,22.2-3.7,30.5,4.9c4.2,4.3,3.9,7.1-1.5,9.7c-48.1,23.7-79,63.5-102.7,109.9c-2.4,4.7-4.7,9.5-7,14.3
		c-3.4,7.2-8.5,9.7-16,7.5c-7.3-2.1-12.4-6.2-14-14.4c-4.3-22-14.1-41.5-27.5-59.3c-1.9-2.5-3.9-7.7-2.8-9c2.1-2.5,6.4-4,9.9-4.3
		c8-0.7,14.6,2.6,19,9.6C98.7,132.3,104.9,141.9,111.5,152.3z"/>
	<path class="st1" d="M112.8,203.7c-1.8,0-3.7-0.3-5.7-0.9c-9.2-2.7-14.5-8.2-16.1-16.7c-4-20.3-12.8-39.3-26.9-58.1
		c-1.2-1.7-5.7-9.1-2.7-12.7c2.9-3.5,8.2-5.1,11.9-5.4c9.2-0.8,16.8,3,21.8,11c4.2,6.8,8.5,13.4,13,20.4c1.1,1.8,2.3,3.5,3.4,5.3
		c0.8-1.4,1.7-2.8,2.5-4.1c3.6-5.9,7.3-11.9,11.2-17.8c21.2-31.9,43.2-53.8,69.2-69c2.6-1.5,5.4-3.1,8.8-4.8
		c11.7-6.1,24.8-4.1,34.1,5.4c1.8,1.9,4.2,4.8,3.7,8.2c-0.6,3.4-3.7,5.2-5.9,6.4c-41.8,20.6-74,55.1-101.3,108.6
		c-2.3,4.5-4.5,9.1-6.9,14.2C123.6,200.3,118.9,203.7,112.8,203.7z M66.4,118.7c0.1,1.2,1.2,4,2.5,5.7c14.7,19.5,23.9,39.3,28,60.5
		c1.2,6.3,4.9,10,12,12.1c6,1.8,9.7,0,12.5-5.9c2.4-5.2,4.6-9.8,7-14.4c28-54.7,61-90.1,104-111.3c2.5-1.2,2.7-2,2.7-2
		c0,0,0.1-0.8-2-3c-7.5-7.6-17.6-9.2-27-4.3c-3.3,1.7-6,3.2-8.5,4.7C172.3,75.7,151,97,130.2,128.1c-3.8,5.8-7.5,11.8-11.1,17.6
		c-1.7,2.7-3.4,5.5-5.1,8.2l-2.5,4l-2.6-4c-2-3.2-4-6.3-6-9.3c-4.5-7-8.8-13.7-13-20.5c-3.8-6.1-9.2-8.8-16.2-8.2
		C70.9,116.1,67.9,117.3,66.4,118.7z"/>
</g>
</svg>
