<?xml version="1.0" encoding="UTF-8" standalone="no"?>
<!-- Created with Inkscape (http://www.inkscape.org/) -->
<svg
   xmlns:dc="http://purl.org/dc/elements/1.1/"
   xmlns:cc="http://creativecommons.org/ns#"
   xmlns:rdf="http://www.w3.org/1999/02/22-rdf-syntax-ns#"
   xmlns:svg="http://www.w3.org/2000/svg"
   xmlns="http://www.w3.org/2000/svg"
   xmlns:xlink="http://www.w3.org/1999/xlink"
   xmlns:sodipodi="http://sodipodi.sourceforge.net/DTD/sodipodi-0.dtd"
   xmlns:inkscape="http://www.inkscape.org/namespaces/inkscape"
   width="602.45612"
   height="638.59406"
   id="svg2"
   version="1.0"
   inkscape:version="0.46"
   sodipodi:docname="Fragile_01.svg"
   sodipodi:version="0.32"
   inkscape:output_extension="org.inkscape.output.svg.inkscape">
  <defs
     id="defs4">
    <inkscape:perspective
       sodipodi:type="inkscape:persp3d"
       inkscape:vp_x="0 : 526.18109 : 1"
       inkscape:vp_y="0 : 1000 : 0"
       inkscape:vp_z="744.09448 : 526.18109 : 1"
       inkscape:persp3d-origin="372.04724 : 350.78739 : 1"
       id="perspective10" />
    <inkscape:perspective
       id="perspective2884"
       inkscape:persp3d-origin="0.5 : 0.33333333 : 1"
       inkscape:vp_z="1 : 0.5 : 1"
       inkscape:vp_y="0 : 1000 : 0"
       inkscape:vp_x="0 : 0.5 : 1"
       sodipodi:type="inkscape:persp3d" />
  </defs>
  <sodipodi:namedview
     id="base"
     pagecolor="#ffffff"
     bordercolor="#666666"
     borderopacity="1.0"
     inkscape:pageopacity="0.0"
     inkscape:pageshadow="2"
     inkscape:zoom="0.39066916"
     inkscape:cx="238.93492"
     inkscape:cy="807.73728"
     inkscape:document-units="px"
     inkscape:current-layer="layer2"
     showgrid="false"
     inkscape:window-width="1280"
     inkscape:window-height="996"
     inkscape:window-x="0"
     inkscape:window-y="0"
     inkscape:window-maximized="1"
     showguides="true"
     inkscape:guide-bbox="true" />
  <metadata
     id="metadata7">
    <rdf:RDF>
      <cc:Work
         rdf:about="">
        <dc:format>image/svg+xml</dc:format>
        <dc:type
           rdf:resource="http://purl.org/dc/dcmitype/StillImage" />
        <dc:title />
      </cc:Work>
    </rdf:RDF>
  </metadata>
  <g
     inkscape:label="fond"
     inkscape:groupmode="layer"
     id="layer1"
     style="opacity:0.45692887;display:none"
     sodipodi:insensitive="true"
     transform="translate(-51.40625,-205.68718)">
    <image
       y="180.36218"
       x="25"
       id="image2886"
       height="704"
       width="700"
       xlink:href="file:///home/gaston/GNU/manutentionnaire_c.jpg" />
  </g>
  <g
     inkscape:groupmode="layer"
     id="layer2"
     inkscape:label="Calque"
     transform="translate(-51.40625,-205.68718)">
    <path
       style="fill:#000000;fill-opacity:1;stroke:#000000;stroke-width:1;stroke-linecap:round;stroke-linejoin:round;stroke-miterlimit:4;stroke-dasharray:none;stroke-opacity:1"
       d="M 313.53125,206.1875 C 284.75524,206.0948 260.3698,226.21066 261.24303,247.95801 C 261.52834,255.06346 257.61529,269.53942 266.25,283.4375 C 270.83603,290.81898 266.4372,300.52659 255.3125,297.46875 C 244.31954,294.44712 231.76134,298.2617 219.125,300.75 C 207.06053,303.12569 192.58943,332.91344 185.5,350.71875 C 176.81778,376.83251 168.20595,403.04598 168.375,439.78125 C 165.39506,455.38192 162.41744,471.4662 159.4375,486.25 C 159.60371,488.0141 161.10355,489.54457 169.15625,493.9375 L 176.84375,494.90625 L 175.875,504.5 L 158.5,541.84375 C 153.21744,558.06669 150.26507,573.79097 141.21875,589 C 117.14063,642.95941 92.353296,691.54817 65.34375,741.90625 C 58.213733,759.13885 59.450781,744.05168 51.90625,768.03125 C 53.561299,773.51238 67.60315,778.34603 80.15625,789.84375 C 85.646078,785.46969 90.571049,785.13542 95.15625,787.09375 L 115.34375,807.28125 L 126.875,810.15625 C 143.32802,811.45769 164.48734,819.37131 176.21875,814.0625 C 179.97774,813.32547 183.06588,811.20016 179.71875,802.46875 C 177.18178,796.4395 170.87355,789.6673 145.03125,779.15625 L 139.125,764.59375 L 132.625,764.03125 C 125.29574,763.78548 121.57351,762.0027 126.875,756.34375 L 144.875,757.90625 C 147.74927,757.57539 151.15911,754.99239 152.8125,751.125 C 186.57901,677.14985 222.93459,607.11376 242.84375,519.28125 C 244.5012,511.96913 248.9736,521.35316 248.9375,527.59375 L 235.40625,566.34375 L 298.0625,654.34375 C 315.24948,684.76386 327.80107,713.93181 342.15625,748.65625 L 353.3125,747.0625 C 357.55873,749.98693 359.84545,758.73805 362.34375,766.90625 C 371.25347,768.0199 379.07241,765.89525 387.125,764.4375 C 393.79143,763.60994 390.04597,762.30095 388.3125,756.34375 C 390.79189,752.55441 393.55408,750.89867 396.9375,753.4375 C 403.71575,754.29813 412.67996,751.48792 420.34236,750.58022 C 421.81651,749.13949 428.39697,754.29593 426.65814,744.82275 L 421.29339,729.0415 C 422.20079,721.13946 415.87291,724.59142 411.375,727.5 C 404.9763,727.84861 399.39431,725.75831 392.15625,728.625 C 391.75363,725.10082 381.42181,724.30543 391.1875,720.78125 L 396.9375,716.9375 C 402.60081,713.62772 396.7629,707.41634 396,702.5 C 379.13014,666.95637 364.83127,629.70039 343.96875,597.5 C 327.65955,572.32747 312.80208,546.58727 295.0625,523.75 C 289.27036,516.26984 292.04953,515.51052 298.90625,517.96875 L 307.0625,518.65625 C 307.69164,518.37074 312.45866,516.47513 314.28125,511.25 L 329.5,412.34375 C 331.34838,408.39891 333.71443,407.4779 336.46875,408.96875 C 350.16275,429.14049 363.09167,445.06365 373.875,473.75 L 431.5625,756.34375 C 431.66431,759.52004 428.35912,765.10162 434.1875,764.1875 C 448.52467,769.48592 468.3269,771.1761 475.1875,804.90625 C 474.46574,808.5086 475.2363,811.6929 480.71875,811.75 C 507.72419,806.92614 531.6485,808.26598 557.03125,806.6875 L 557.90625,801.65625 C 567.75523,794.54217 573.43728,786.86989 584,781.0625 C 588.40548,778.64037 592.88416,779.65258 598.78125,776.5 L 650.6875,774.59375 C 654.19609,776.29885 653.5656,771.3511 652.625,765.9375 C 635.31072,641.00973 616.33843,518.56341 600.71875,391.09375 L 596,387.1875 C 596.37904,380.62131 592.40606,381.71892 591.3125,383.34375 C 582.55365,383.52458 578.00574,383.00518 576.5,403.75 L 577.65625,424.75 L 558.4375,430.5 L 550.71875,418 C 545.58188,415.90716 539.76868,416.62809 535.4375,411.3125 L 522.59375,405.6875 C 516.90752,403.5876 511.57049,388.34593 530.9375,399.90625 L 550.71875,412.25 C 555.00777,414.92279 553.71516,408.33959 552.65625,404.5625 C 548.17526,390.43931 557.14693,397.17876 557.46875,400.71875 L 559.375,421.84375 C 560.24002,423.44353 563.41028,422.7812 565.96875,422.6875 L 569.90625,414.21875 C 573.23931,413.65905 568.2679,408.41773 570.40625,403.6875 C 573.09467,397.74045 575.99956,391.58812 572.78125,384.9375 C 572.78125,384.9375 554.70114,371.13541 543.46875,371.25 C 538.46503,371.301 529.59375,376.6875 529.59375,376.6875 L 531.6875,366.53125 C 531.51162,364.77725 528.14291,362.47448 527.15625,361.53125 C 394.58218,339.42236 329.89624,333.80189 305.31389,315.80971 L 308.53125,306.53543 C 307.9768,301.61152 310.31348,305.15711 314.28125,307.46875 C 327.45831,311.4392 332.25359,317.68785 342.40625,299.25 C 342.54569,296.02574 347.51876,300.42889 350.49254,296.26632 C 347.34815,288.00679 346.78989,280.3918 346.48182,275.18671 C 346.30473,272.19477 348.61975,269.78949 349.59963,268.05953 C 361.90061,273.58011 368.03631,274.89168 371.84375,277.625 C 376.44553,273.56329 370.37572,274.39409 357.23368,261.0196 C 357.58234,259.84184 357.9188,263.76966 357.53125,244.03125 C 349.58041,216.42583 331.97741,206.24691 313.53125,206.1875 L 313.53125,206.1875 z M 257.95633,308.60498 C 261.32496,307.30879 261.17637,301.77065 264.49881,303.97126 L 287.8238,333.7876 C 285.21855,336.0848 287.59402,335.68449 282.72628,339.80008 C 282.25205,333.72609 282.00225,338.3324 257.95633,308.60498 L 257.95633,308.60498 z M 326.21875,351.90625 C 328.92266,351.81775 333.33117,352.34596 342.5625,353.6875 C 345.08568,354.05418 347.16619,356.24964 348.9375,358.1875 L 356.8125,370 C 359.83726,373.06254 360.44512,378.05531 366.3125,378.84375 C 417.37609,384.28513 456.61651,394.50993 504.28125,398.375 C 509.23125,398.77639 512.23439,399.28921 510.0625,402.625 L 502.25,406.71875 C 481.68857,413.85091 464.00298,421.95037 441.25,429.15625 C 432.08787,431.6055 432.41781,435.6651 433.59375,436.625 C 449.73527,551.42576 467.28409,666.23049 482.03125,781.03125 C 482.8875,782.99336 482.57385,785.85136 485,784.71875 C 506.49678,783.402 536.6245,783.48075 553.125,784.09375 C 559.7215,783.21442 560.50305,784.98284 555.25,790.03125 C 536.03046,793.386 515.92925,792.3188 496.125,792.75 C 482.87191,793.88355 475.3461,779.72258 465.53125,771.6875 C 457.44657,760.66471 455.93885,746.3457 452.625,732.9375 C 438.29305,660.59142 422.26255,572.57174 410.53125,518.21875 L 403.65625,486.4375 C 399.55353,467.42891 397.06656,460.56082 390.78125,452.9375 C 385.22117,444.54253 378.02282,438.46803 372.9375,428.8125 C 371.18034,425.47618 368.4034,423.36062 365.09375,421.25 C 357.93665,416.6858 353.77739,403.45096 347.0625,398.5 C 347.0625,398.5 353.03831,385.93387 354.53125,383.5625 C 358.08954,371.90526 346.16547,369.30263 339.96875,362.90625 C 339.20883,359.59149 331.46569,359.9493 325.25,359.8125 C 322.08586,359.7429 301.75,376.8125 301.75,376.8125 C 297.23951,377.99033 295.80835,376.64949 298.34375,372.0625 L 317.59375,354.9375 C 322.09263,353.16849 322.74229,352.02003 326.21875,351.90625 L 326.21875,351.90625 z M 241.25,354.375 C 242.59537,354.48586 244.27345,356.35514 246.0625,358.90625 L 251.8125,389.65625 C 253.79246,393.68791 253.49972,400.46147 261.4375,397.34375 L 285.46875,387.25 C 291.10909,387.66882 290.50055,391.8376 287.375,393.5 C 277.41549,398.57066 268.64126,402.60534 256.15625,402.625 C 246.30114,407.8346 248.45839,400.06213 245.5625,398.3125 L 238.375,360.34375 C 238.89362,355.90747 239.90463,354.26414 241.25,354.375 L 241.25,354.375 z M 204.75,364.09375 C 205.36322,364.01815 205.95112,364.33625 206.5,365.40625 C 215.6608,430.08406 202.47547,476.64277 280.53125,431.96875 C 286.01153,429.4725 294.30156,429.9759 284.15625,439.03125 C 284.15625,439.03125 256.64525,456.65782 240.96875,459.5 C 205.3114,465.96475 198.54419,430.33828 199.53125,405.6875 C 200.16077,389.96586 199.10298,375.081 200.46875,367.1875 C 201.92217,366.43305 203.40092,364.26003 204.75,364.09375 z M 335.6875,384.5625 C 337.14137,384.5844 338.44371,385.68999 338.1875,389.0625 C 337.7135,395.30189 334.14717,395.30379 331.125,393.75 C 329.45203,392.88987 326.369,389.00416 329.90625,387.125 C 331.80311,386.11727 333.57172,384.92888 335.6875,384.5625 z M 295.8125,392.09375 C 297.06675,392.03375 298.53382,392.6734 300,394.46875 L 302.75,399.28125 C 303.40553,400.36673 303.2275,402.44638 306.59375,400.21875 L 309.96875,396.875 C 317.99645,391.7298 317.94944,402.35468 315.25,404.0625 C 311.90744,405.47593 309.18147,406.69957 308.15625,410.4375 C 308.03526,412.67475 310.4375,415.5 310.4375,415.5 C 310.427,421.24927 308.56324,424.21683 303.125,421.96875 C 300.41428,414.16261 296.53093,406.05807 292.5625,397.9375 C 291.29672,395.74661 293.05316,392.22584 295.8125,392.09375 z M 524.625,424.875 C 526.25213,424.97675 527.38544,425.71482 527.65625,427.625 C 545.70592,536.14446 561.32247,645.47108 578.125,754.40625 C 577.67215,755.86876 578.79307,758.49578 576.6875,758.71875 L 572.5,760.875 C 569.67472,763.88046 568.12557,758.69889 566.125,756.34375 C 552.84894,647.73478 534.39008,539.10897 518.53125,430.5 C 518.49635,428.01527 518.40951,425.49621 521.90625,425.21875 L 524.625,424.875 z"
       id="path2912"
       sodipodi:nodetypes="cssssccccccccccccccccccccccscccccccccccccccccscccccccccccccscccccccccccccccccccscsccccccccscccccccccccscccsccccccccccccccsscccscccccccccccccccccccscccsscccccccccccccccccccccccccc" />
    <path
       style="fill:#000000;fill-opacity:1;stroke:#262626;stroke-width:1;stroke-linecap:round;stroke-linejoin:round;stroke-miterlimit:4;stroke-dasharray:none;stroke-opacity:1"
       d="M 431.03125,772.5625 C 411.64609,772.5625 395.9375,788.52083 395.9375,808.1875 C 395.9375,827.85417 411.64609,843.78125 431.03125,843.78125 C 450.41641,843.78125 466.15625,827.85417 466.15625,808.1875 C 466.15625,788.52083 450.41641,772.5625 431.03125,772.5625 z M 434.28125,799.6875 C 439.26667,799.6875 443.3125,803.73333 443.3125,808.71875 C 443.3125,813.70417 439.26667,817.75 434.28125,817.75 C 429.29583,817.75 425.25,813.70417 425.25,808.71875 C 425.25,803.73333 429.29583,799.6875 434.28125,799.6875 z"
       id="path3727" />
    <path
       style="fill:#000000;fill-opacity:1;stroke:#000000;stroke-width:1;stroke-linecap:round;stroke-linejoin:round;stroke-miterlimit:4;stroke-dasharray:none;stroke-opacity:1"
       d="M 484.57588,816.53072 L 538.94625,814.15202 C 544.12335,813.71563 542.69915,817.48096 542.62591,818.88881 C 543.38974,829.05985 503.71533,859.91634 482.87681,821.62794 C 482.00301,819.06477 481.03656,816.44601 484.57588,816.53072 L 484.57588,816.53072 z"
       id="path3732"
       sodipodi:nodetypes="ccccc" />
    <path
       style="fill:#000000;fill-opacity:1;stroke:#000000;stroke-width:1;stroke-linecap:round;stroke-linejoin:round;stroke-miterlimit:4;stroke-dasharray:none;stroke-opacity:1"
       d="M 563.94969,809.55385 C 562.32316,809.46855 560.64171,807.23907 560.70584,807.39128 C 560.79914,807.61272 561.0938,804.5731 562.02741,803.90714 C 573.89013,795.44518 583.58806,785.24996 600.59321,782.88217 C 600.59321,782.88217 603.97364,784.16679 604.07734,785.64546 C 604.69192,794.40846 604.95672,792.54931 603.23635,802.22514 C 603.19485,802.45855 599.98894,806.42615 597.22921,806.79057 C 581.66846,808.84537 573.5644,810.05804 563.94969,809.55385 L 563.94969,809.55385 z"
       id="path3734"
       sodipodi:nodetypes="csssssss" />
    <path
       style="fill:#000000;fill-opacity:1;stroke:#000000;stroke-width:1;stroke-linecap:round;stroke-linejoin:round;stroke-miterlimit:4;stroke-dasharray:none;stroke-opacity:1"
       d="M 424.38691,443.24416 C 422.54902,440.16581 421.32378,439.67628 420.09789,437.96492 C 409.55994,423.25377 399.86362,414.56231 389.26225,401.951 C 383.31708,384.31634 397.76211,386.65371 403.67937,390.13579 C 420.65766,407.71119 426.37421,414.02838 431.55247,417.7686 C 432.56327,419.52667 434.61004,421.26398 433.7115,423.31579 C 430.78921,423.96998 428.5277,424.0498 425.60541,425.51781 C 425.35496,430.32191 428.68288,438.07484 428.43243,442.06876 C 428.05239,444.24365 425.26558,444.71588 424.38691,443.24416 L 424.38691,443.24416 z"
       id="path3736"
       sodipodi:nodetypes="csccccccs" />
    <path
       style="fill:#000000;fill-opacity:1;stroke:#000000;stroke-width:1px;stroke-linecap:round;stroke-linejoin:round;stroke-opacity:1"
       d="M 384.62261,439.68099 L 395.03004,452.80341 C 403.02284,445.70771 410.73724,441.74496 419.91739,440.58598 L 411.31994,430.17855 C 401.87832,431.47766 392.88671,433.67181 384.62261,439.68099 z"
       id="path2820"
       sodipodi:nodetypes="ccccc" />
  </g>
</svg>
