<?xml version="1.0" encoding="UTF-8" standalone="no"?>
<!-- Created with Inkscape (http://www.inkscape.org/) -->

<svg
   xmlns:dc="http://purl.org/dc/elements/1.1/"
   xmlns:cc="http://creativecommons.org/ns#"
   xmlns:rdf="http://www.w3.org/1999/02/22-rdf-syntax-ns#"
   xmlns:svg="http://www.w3.org/2000/svg"
   xmlns="http://www.w3.org/2000/svg"
   xmlns:sodipodi="http://sodipodi.sourceforge.net/DTD/sodipodi-0.dtd"
   xmlns:inkscape="http://www.inkscape.org/namespaces/inkscape"
   width="128"
   height="128"
   id="svg2"
   version="1.1"
   inkscape:version="0.48.2 r9819"
   sodipodi:docname="iphone-camera.svg"
   inkscape:export-filename="C:\project\RentalWorks\Web\RentalWorksQuikScan\theme\images\icons\128\iphone-camera.002.png"
   inkscape:export-xdpi="90"
   inkscape:export-ydpi="90">
  <defs
     id="defs4" />
  <sodipodi:namedview
     id="base"
     pagecolor="#ffffff"
     bordercolor="#cc00c6"
     borderopacity="1"
     inkscape:pageopacity="0.0"
     inkscape:pageshadow="2"
     inkscape:zoom="2.8"
     inkscape:cx="9.9645993"
     inkscape:cy="41.963576"
     inkscape:document-units="px"
     inkscape:current-layer="layer1"
     showgrid="false"
     inkscape:showpageshadow="false"
     showborder="true"
     inkscape:window-width="1858"
     inkscape:window-height="993"
     inkscape:window-x="54"
     inkscape:window-y="-8"
     inkscape:window-maximized="1" />
  <metadata
     id="metadata7">
    <rdf:RDF>
      <cc:Work
         rdf:about="">
        <dc:format>image/svg+xml</dc:format>
        <dc:type
           rdf:resource="http://purl.org/dc/dcmitype/StillImage" />
        <dc:title></dc:title>
      </cc:Work>
    </rdf:RDF>
  </metadata>
  <g
     inkscape:label="Layer 1"
     inkscape:groupmode="layer"
     id="layer1"
     transform="translate(0,-924.36218)">
    <path
       style="fill:#eeeeec;fill-opacity:1;stroke:none"
       d="M 38.09375 11.5625 C 30.279097 11.5625 23.693218 16.492468 21.15625 23.40625 L 13.75 23.40625 C 7.5163989 23.40625 2.5 28.422649 2.5 34.65625 L 2.5 102.5625 C 2.5 108.7961 7.5163989 113.8125 13.75 113.8125 L 114.625 113.8125 C 120.8586 113.8125 125.875 108.7961 125.875 102.5625 L 125.875 34.65625 C 125.875 28.422649 120.8586 23.40625 114.625 23.40625 L 105.6875 23.40625 C 103.15053 16.492468 96.564653 11.5625 88.75 11.5625 L 38.09375 11.5625 z M 64.78125 34.65625 C 82.314455 34.65625 96.53125 48.873045 96.53125 66.40625 C 96.53125 83.939455 82.314455 98.15625 64.78125 98.15625 C 47.248045 98.15625 33.03125 83.939455 33.03125 66.40625 C 33.03125 48.873045 47.248045 34.65625 64.78125 34.65625 z "
       transform="translate(0,924.36218)"
       id="rect2987" />
    <path
       sodipodi:type="arc"
       style="fill:#eeeeec;fill-opacity:1;stroke:none"
       id="path3778-7"
       sodipodi:cx="65"
       sodipodi:cy="81.928574"
       sodipodi:rx="28.214285"
       sodipodi:ry="28.214285"
       d="m 93.214285,81.928574 a 28.214285,28.214285 0 1 1 -56.42857,0 28.214285,28.214285 0 1 1 56.42857,0 z"
       transform="matrix(0.77624466,0,0,0.77624466,14.532811,927.36874)" />
  </g>
</svg>
