<?xml version="1.0" encoding="UTF-8" standalone="no"?>
<!-- Created with Inkscape (http://www.inkscape.org/) -->

<svg
   xmlns:dc="http://purl.org/dc/elements/1.1/"
   xmlns:cc="http://creativecommons.org/ns#"
   xmlns:rdf="http://www.w3.org/1999/02/22-rdf-syntax-ns#"
   xmlns:svg="http://www.w3.org/2000/svg"
   xmlns="http://www.w3.org/2000/svg"
   xmlns:xlink="http://www.w3.org/1999/xlink"
   xmlns:sodipodi="http://sodipodi.sourceforge.net/DTD/sodipodi-0.dtd"
   xmlns:inkscape="http://www.inkscape.org/namespaces/inkscape"
   width="48.000000px"
   height="48.000000px"
   id="svg2327"
   sodipodi:version="0.32"
   inkscape:version="0.48.3.1 r9886"
   sodipodi:docname="logoff.svg"
   inkscape:output_extension="org.inkscape.output.svg.inkscape"
   version="1.1"
   inkscape:export-filename="C:\project\RentalWorks\Web\RentalWorksQuikScan\theme\images\icons\128\logoff.png"
   inkscape:export-xdpi="240"
   inkscape:export-ydpi="240">
  <defs
     id="defs3">
    <inkscape:perspective
       sodipodi:type="inkscape:persp3d"
       inkscape:vp_x="0 : 24 : 1"
       inkscape:vp_y="0 : 1000 : 0"
       inkscape:vp_z="48 : 24 : 1"
       inkscape:persp3d-origin="24 : 16 : 1"
       id="perspective105" />
    <linearGradient
       inkscape:collect="always"
       id="linearGradient12071">
      <stop
         style="stop-color:#ffffff;stop-opacity:1;"
         offset="0"
         id="stop12073" />
      <stop
         style="stop-color:#ffffff;stop-opacity:0;"
         offset="1"
         id="stop12075" />
    </linearGradient>
    <linearGradient
       id="linearGradient9845">
      <stop
         style="stop-color:#ffffff;stop-opacity:1;"
         offset="0"
         id="stop9847" />
      <stop
         style="stop-color:#ffffff;stop-opacity:0.49484536;"
         offset="1.0000000"
         id="stop9849" />
    </linearGradient>
    <linearGradient
       id="linearGradient11327">
      <stop
         style="stop-color:#7d6400;stop-opacity:1;"
         offset="0"
         id="stop11329" />
      <stop
         style="stop-color:#be9700;stop-opacity:1.0000000;"
         offset="1.0000000"
         id="stop11331" />
    </linearGradient>
    <linearGradient
       id="linearGradient2092">
      <stop
         id="stop2094"
         offset="0"
         style="stop-color:#fff7b0;stop-opacity:1;" />
      <stop
         style="stop-color:#ffec41;stop-opacity:1.0000000;"
         offset="0.20999999"
         id="stop2098" />
      <stop
         id="stop2293"
         offset="0.83999997"
         style="stop-color:#e2cc00;stop-opacity:1;" />
      <stop
         id="stop2100"
         offset="1"
         style="stop-color:#c3af00;stop-opacity:1;" />
    </linearGradient>
    <linearGradient
       id="linearGradient11335">
      <stop
         style="stop-color:#6f716d;stop-opacity:1;"
         offset="0"
         id="stop11337" />
      <stop
         style="stop-color:#9ea09c;stop-opacity:1.0000000;"
         offset="1.0000000"
         id="stop11339" />
    </linearGradient>
    <linearGradient
       id="linearGradient10591">
      <stop
         style="stop-color:#cad0c6;stop-opacity:1.0000000;"
         offset="0.0000000"
         id="stop10593" />
      <stop
         id="stop10599"
         offset="0.50000000"
         style="stop-color:#eaece9;stop-opacity:1.0000000;" />
      <stop
         style="stop-color:#c5cbc0;stop-opacity:1.0000000;"
         offset="1.0000000"
         id="stop10595" />
    </linearGradient>
    <linearGradient
       id="linearGradient2329">
      <stop
         id="stop2331"
         offset="0.0000000"
         style="stop-color:#ffffff;stop-opacity:1.0000000;" />
      <stop
         id="stop2333"
         offset="1.0000000"
         style="stop-color:#ffffff;stop-opacity:0.0000000;" />
    </linearGradient>
    <linearGradient
       id="linearGradient2321"
       inkscape:collect="always">
      <stop
         id="stop2323"
         offset="0"
         style="stop-color:#7b7f7a;stop-opacity:1;" />
      <stop
         id="stop2325"
         offset="1"
         style="stop-color:#7b7f7a;stop-opacity:0;" />
    </linearGradient>
    <linearGradient
       id="linearGradient2711">
      <stop
         id="stop2713"
         offset="0.0000000"
         style="stop-color:#909090;stop-opacity:1.0000000;" />
      <stop
         id="stop2715"
         offset="1.0000000"
         style="stop-color:#bebebe;stop-opacity:0.0000000;" />
    </linearGradient>
    <linearGradient
       id="linearGradient2701">
      <stop
         id="stop2703"
         offset="0.0000000"
         style="stop-color:#585956;stop-opacity:1.0000000;" />
      <stop
         id="stop2705"
         offset="1.0000000"
         style="stop-color:#bbbeb8;stop-opacity:1.0000000;" />
    </linearGradient>
    <linearGradient
       id="linearGradient2683"
       inkscape:collect="always">
      <stop
         id="stop2685"
         offset="0"
         style="stop-color:#000000;stop-opacity:1;" />
      <stop
         id="stop2687"
         offset="1"
         style="stop-color:#000000;stop-opacity:0;" />
    </linearGradient>
    <linearGradient
       id="linearGradient2675">
      <stop
         id="stop2677"
         offset="0.0000000"
         style="stop-color:#5b5b97;stop-opacity:1.0000000;" />
      <stop
         id="stop2679"
         offset="1.0000000"
         style="stop-color:#1b1b43;stop-opacity:1.0000000;" />
    </linearGradient>
    <linearGradient
       id="linearGradient2667">
      <stop
         id="stop2669"
         offset="0.0000000"
         style="stop-color:#ffffff;stop-opacity:1.0000000;" />
      <stop
         id="stop2671"
         offset="1.0000000"
         style="stop-color:#fcfcff;stop-opacity:0.0000000;" />
    </linearGradient>
    <linearGradient
       inkscape:collect="always"
       id="linearGradient2454">
      <stop
         style="stop-color:#000000;stop-opacity:1;"
         offset="0"
         id="stop2456" />
      <stop
         style="stop-color:#000000;stop-opacity:0;"
         offset="1"
         id="stop2458" />
    </linearGradient>
    <linearGradient
       inkscape:collect="always"
       id="linearGradient2415">
      <stop
         style="stop-color:#ffffff;stop-opacity:1;"
         offset="0"
         id="stop2417" />
      <stop
         style="stop-color:#ffffff;stop-opacity:0;"
         offset="1"
         id="stop2419" />
    </linearGradient>
    <linearGradient
       id="linearGradient2253">
      <stop
         style="stop-color:#8f8f8f;stop-opacity:1.0000000;"
         offset="0.0000000"
         id="stop2255" />
      <stop
         style="stop-color:#494949;stop-opacity:1.0000000;"
         offset="1.0000000"
         id="stop2257" />
    </linearGradient>
    <linearGradient
       id="linearGradient2245">
      <stop
         style="stop-color:#dde1d9;stop-opacity:1.0000000;"
         offset="0.0000000"
         id="stop2247" />
      <stop
         style="stop-color:#cacdc6;stop-opacity:1.0000000;"
         offset="1.0000000"
         id="stop2249" />
    </linearGradient>
    <linearGradient
       inkscape:collect="always"
       xlink:href="#linearGradient2245"
       id="linearGradient2251"
       gradientTransform="matrix(1.129863,0,0,0.885063,124.375,-4.679372)"
       x1="8.6116238"
       y1="7.2293582"
       x2="34.784473"
       y2="33.339787"
       gradientUnits="userSpaceOnUse" />
    <linearGradient
       inkscape:collect="always"
       xlink:href="#linearGradient2415"
       id="linearGradient2421"
       gradientTransform="matrix(1.108069,0,0,0.902471,127,-2.375)"
       x1="17.698339"
       y1="13.004725"
       x2="34.974548"
       y2="55.200756"
       gradientUnits="userSpaceOnUse" />
    <radialGradient
       inkscape:collect="always"
       xlink:href="#linearGradient2454"
       id="radialGradient2460"
       gradientTransform="scale(1.925808,0.519262)"
       cx="12.575710"
       cy="67.501709"
       fx="12.575710"
       fy="67.501709"
       r="8.7662794"
       gradientUnits="userSpaceOnUse" />
    <linearGradient
       gradientUnits="userSpaceOnUse"
       y2="26.729263"
       x2="17.199417"
       y1="1.6537577"
       x1="11.492236"
       gradientTransform="matrix(1.238977,0,0,0.895955,126.59055,-4.706524)"
       id="linearGradient2673"
       xlink:href="#linearGradient2667"
       inkscape:collect="always" />
    <linearGradient
       gradientUnits="userSpaceOnUse"
       y2="8.8666229"
       x2="16.315819"
       y1="32.622238"
       x1="19.150396"
       gradientTransform="matrix(1.174139,0,0,0.945431,126.72183,-4.706524)"
       id="linearGradient2681"
       xlink:href="#linearGradient2675"
       inkscape:collect="always" />
    <linearGradient
       gradientUnits="userSpaceOnUse"
       y2="162.45061"
       x2="3.7069974"
       y1="171.29134"
       x1="3.7069976"
       gradientTransform="matrix(5.705159,0,0,0.17528,127,-4.054373)"
       id="linearGradient2689"
       xlink:href="#linearGradient2683"
       inkscape:collect="always" />
    <linearGradient
       gradientUnits="userSpaceOnUse"
       y2="64.892525"
       x2="12.127711"
       y1="53.535141"
       x1="12.206709"
       gradientTransform="matrix(1.816345,0,0,1.278927,124,-46.49508)"
       id="linearGradient2707"
       xlink:href="#linearGradient2701"
       inkscape:collect="always" />
    <linearGradient
       gradientUnits="userSpaceOnUse"
       y2="3.8451097"
       x2="35.520542"
       y1="3.9384086"
       x1="34.300991"
       id="linearGradient2717"
       xlink:href="#linearGradient2711"
       inkscape:collect="always" />
    <linearGradient
       y2="3.8451097"
       x2="35.520542"
       y1="3.9384086"
       x1="34.300991"
       gradientUnits="userSpaceOnUse"
       id="linearGradient2721"
       xlink:href="#linearGradient2711"
       inkscape:collect="always" />
    <linearGradient
       y2="3.8451097"
       x2="35.520542"
       y1="3.9384086"
       x1="34.300991"
       gradientUnits="userSpaceOnUse"
       id="linearGradient2725"
       xlink:href="#linearGradient2711"
       inkscape:collect="always" />
    <linearGradient
       y2="3.8451097"
       x2="35.520542"
       y1="3.9384086"
       x1="34.300991"
       gradientUnits="userSpaceOnUse"
       id="linearGradient2729"
       xlink:href="#linearGradient2711"
       inkscape:collect="always" />
    <linearGradient
       y2="3.8451097"
       x2="35.520542"
       y1="3.9384086"
       x1="34.300991"
       gradientUnits="userSpaceOnUse"
       id="linearGradient2733"
       xlink:href="#linearGradient2711"
       inkscape:collect="always" />
    <linearGradient
       y2="31.246054"
       x2="32.536823"
       y1="5.3817744"
       x1="10.390738"
       gradientTransform="matrix(1.104397,0,0,0.905471,126,-3.375)"
       gradientUnits="userSpaceOnUse"
       id="linearGradient1561"
       xlink:href="#linearGradient2253"
       inkscape:collect="always" />
    <linearGradient
       gradientUnits="userSpaceOnUse"
       y2="28.205938"
       x2="-35.658386"
       y1="33.416473"
       x1="-35.658386"
       id="linearGradient2327"
       xlink:href="#linearGradient2321"
       inkscape:collect="always" />
    <linearGradient
       gradientUnits="userSpaceOnUse"
       y2="30.962345"
       x2="-35.074745"
       y1="34.242237"
       x1="-35.122688"
       id="linearGradient2337"
       xlink:href="#linearGradient2329"
       inkscape:collect="always" />
    <linearGradient
       inkscape:collect="always"
       xlink:href="#linearGradient10591"
       id="linearGradient3929"
       gradientUnits="userSpaceOnUse"
       gradientTransform="matrix(0.480246,0,0,0.497322,29.22711,23.01153)"
       x1="12.886660"
       y1="4.3602757"
       x2="20.087339"
       y2="18.414022" />
    <linearGradient
       inkscape:collect="always"
       xlink:href="#linearGradient11335"
       id="linearGradient3931"
       gradientUnits="userSpaceOnUse"
       gradientTransform="matrix(0.480246,0,0,0.497322,29.22711,23.01153)"
       x1="19.250618"
       y1="9.6635771"
       x2="16.198252"
       y2="6.0396547" />
    <linearGradient
       inkscape:collect="always"
       xlink:href="#linearGradient2092"
       id="linearGradient3933"
       gradientUnits="userSpaceOnUse"
       gradientTransform="matrix(0.490236,0,0,0.534297,29.28263,21.67589)"
       x1="6.7268200"
       y1="32.161697"
       x2="40.938126"
       y2="32.161697" />
    <linearGradient
       inkscape:collect="always"
       xlink:href="#linearGradient11327"
       id="linearGradient3935"
       gradientUnits="userSpaceOnUse"
       gradientTransform="matrix(0.490236,0,0,0.534297,29.28263,22.22637)"
       x1="31.630468"
       y1="41.791817"
       x2="8.6713638"
       y2="25.793524" />
    <linearGradient
       inkscape:collect="always"
       xlink:href="#linearGradient9845"
       id="linearGradient3937"
       gradientUnits="userSpaceOnUse"
       gradientTransform="matrix(0.453445,0,0,0.470026,30.17248,24.3894)"
       x1="10.907269"
       y1="25.002281"
       x2="30.875446"
       y2="36.127281" />
    <linearGradient
       inkscape:collect="always"
       xlink:href="#linearGradient12071"
       id="linearGradient3939"
       gradientUnits="userSpaceOnUse"
       gradientTransform="matrix(0.980472,0,0,0.461806,23.89003,23.47875)"
       x1="14.217941"
       y1="6.8795347"
       x2="17.859085"
       y2="3.9566603" />
    <linearGradient
       inkscape:collect="always"
       xlink:href="#linearGradient12071"
       id="linearGradient3941"
       gradientUnits="userSpaceOnUse"
       gradientTransform="matrix(0.980472,0,0,0.490236,34.67523,22.83397)"
       x1="11.500000"
       y1="20.579729"
       x2="11.779029"
       y2="14.259961" />
  </defs>
  <sodipodi:namedview
     id="base"
     pagecolor="#ffffff"
     bordercolor="#666666"
     borderopacity="0.12156863"
     inkscape:pageopacity="0.0"
     inkscape:pageshadow="2"
     inkscape:zoom="2.8284271"
     inkscape:cx="31.717133"
     inkscape:cy="26.282241"
     inkscape:current-layer="layer1"
     showgrid="false"
     inkscape:grid-bbox="true"
     inkscape:document-units="px"
     inkscape:window-width="1920"
     inkscape:window-height="914"
     inkscape:window-x="-8"
     inkscape:window-y="32"
     inkscape:showpageshadow="false"
     inkscape:window-maximized="1" />
  <metadata
     id="metadata4">
    <rdf:RDF>
      <cc:Work
         rdf:about="">
        <dc:format>image/svg+xml</dc:format>
        <dc:type
           rdf:resource="http://purl.org/dc/dcmitype/StillImage" />
        <dc:title>Lock Screen</dc:title>
        <dc:date />
        <dc:creator>
          <cc:Agent>
            <dc:title>Jakub Steiner</dc:title>
          </cc:Agent>
        </dc:creator>
        <dc:subject>
          <rdf:Bag>
            <rdf:li>video</rdf:li>
            <rdf:li>display</rdf:li>
            <rdf:li>lock</rdf:li>
            <rdf:li>screen</rdf:li>
            <rdf:li>password</rdf:li>
            <rdf:li>session</rdf:li>
            <rdf:li>screensaver</rdf:li>
          </rdf:Bag>
        </dc:subject>
        <cc:license
           rdf:resource="http://creativecommons.org/licenses/publicdomain/" />
        <dc:source>http://jimmac.musichall.cz/</dc:source>
      </cc:Work>
      <cc:License
         rdf:about="http://creativecommons.org/licenses/publicdomain/">
        <cc:permits
           rdf:resource="http://creativecommons.org/ns#Reproduction" />
        <cc:permits
           rdf:resource="http://creativecommons.org/ns#Distribution" />
        <cc:permits
           rdf:resource="http://creativecommons.org/ns#DerivativeWorks" />
      </cc:License>
    </rdf:RDF>
  </metadata>
  <g
     id="layer1"
     inkscape:label="Layer 1"
     inkscape:groupmode="layer">
    <path
       sodipodi:type="arc"
       style="opacity:0.50857143;color:#000000;fill:url(#radialGradient2460);fill-opacity:1;fill-rule:evenodd;stroke:none;stroke-width:1;marker:none;visibility:visible;display:inline;overflow:visible"
       id="path2452"
       sodipodi:cx="24.218407"
       sodipodi:cy="35.051105"
       sodipodi:rx="16.882174"
       sodipodi:ry="4.552"
       d="m 41.10058,35.051105 a 16.882174,4.552 0 1 1 -33.7643469,0 16.882174,4.552 0 1 1 33.7643469,0 z"
       transform="matrix(1.050251,0,0,1.867888,120.55444,-34.35611)" />
    <path
       sodipodi:type="arc"
       style="color:#000000;fill:#adb0aa;fill-opacity:1;fill-rule:evenodd;stroke:#4b4d4a;stroke-width:1;stroke-linecap:butt;stroke-linejoin:miter;stroke-miterlimit:4;stroke-opacity:1;stroke-dashoffset:0;marker:none;visibility:visible;display:inline;overflow:visible"
       id="path2407"
       sodipodi:cx="-35.658386"
       sodipodi:cy="29.716238"
       sodipodi:rx="9.3944187"
       sodipodi:ry="3.939595"
       d="m -26.263968,29.716238 a 9.3944187,3.939595 0 1 1 -18.788837,0 9.3944187,3.939595 0 1 1 18.788837,0 z"
       transform="translate(181.53339,1.82843)" />
    <path
       transform="matrix(0.902373,0,0,0.82765,178.05215,6.61792)"
       d="m -26.263968,29.716238 a 9.3944187,3.939595 0 1 1 -18.788837,0 9.3944187,3.939595 0 1 1 18.788837,0 z"
       sodipodi:ry="3.939595"
       sodipodi:rx="9.3944187"
       sodipodi:cy="29.716238"
       sodipodi:cx="-35.658386"
       id="path1825"
       style="color:#000000;fill:none;stroke:url(#linearGradient2327);stroke-width:1.15713382;stroke-linecap:butt;stroke-linejoin:miter;stroke-miterlimit:4;stroke-opacity:1;stroke-dasharray:none;stroke-dashoffset:0;marker:none;visibility:visible;display:inline;overflow:visible"
       sodipodi:type="arc" />
    <path
       sodipodi:type="arc"
       style="color:#000000;fill:none;stroke:url(#linearGradient2337);stroke-width:1.18333709;stroke-linecap:butt;stroke-linejoin:miter;stroke-miterlimit:4;stroke-opacity:1;stroke-dasharray:none;stroke-dashoffset:0;marker:none;visibility:visible;display:inline;overflow:visible"
       id="path2983"
       sodipodi:cx="-35.658386"
       sodipodi:cy="29.716238"
       sodipodi:rx="9.3944187"
       sodipodi:ry="3.939595"
       d="m -26.263968,29.716238 a 9.3944187,3.939595 0 1 1 -18.788837,0 9.3944187,3.939595 0 1 1 18.788837,0 z"
       transform="matrix(0.837548,0,0,0.852655,175.67811,4.75615)" />
    <rect
       y="24.828613"
       x="141.4724"
       height="6.3650389"
       width="9.0396729"
       id="rect2699"
       style="color:#000000;fill:url(#linearGradient2707);fill-opacity:1;fill-rule:evenodd;stroke:none;stroke-width:0.60872948;marker:none;visibility:visible;display:inline;overflow:visible" />
    <path
       style="color:#000000;fill:url(#linearGradient2251);fill-opacity:1;fill-rule:evenodd;stroke:url(#linearGradient1561);stroke-width:1;stroke-linecap:butt;stroke-linejoin:miter;stroke-miterlimit:4;stroke-opacity:1;stroke-dashoffset:0;marker:none;visibility:visible;display:inline;overflow:visible"
       d="m 129.0809,-1.6793779 33.5882,0 c 0.91134,0 1.62414,0.5834818 1.66675,1.40158699 l 1.33204,25.57811391 c 0.0582,1.117735 -0.90105,2.020305 -2.0203,2.020305 l -35.54518,0 c -1.11925,0 -2.07851,-0.90257 -2.0203,-2.020305 l 1.33204,-25.57811391 c 0.0403,-0.77353459 0.5475,-1.40158699 1.66675,-1.40158699 z"
       id="rect2404"
       sodipodi:nodetypes="cssssssss"
       inkscape:connector-curvature="0" />
    <path
       sodipodi:nodetypes="ccccc"
       id="path2377"
       d="m 130.41054,0.93082699 -1.2422,22.04531701 31.65039,0 -1.33502,-21.951888 -29.07317,-0.093429 z"
       style="fill:url(#linearGradient2681);fill-opacity:1;fill-rule:evenodd;stroke:#000079;stroke-width:0.5;stroke-linecap:butt;stroke-linejoin:round;stroke-miterlimit:4;stroke-opacity:1;stroke-dasharray:none"
       inkscape:connector-curvature="0" />
    <path
       sodipodi:nodetypes="cc"
       style="fill:none;stroke:url(#linearGradient2689);stroke-width:0.99618119;stroke-linecap:round;stroke-linejoin:miter;stroke-miterlimit:4;stroke-opacity:0.24840764"
       d="m 128.17743,25.360789 35.42848,0"
       id="path2393"
       inkscape:connector-curvature="0" />
    <path
       sodipodi:nodetypes="cssssssss"
       id="path2397"
       d="m 128.9146,-0.66866041 33.8455,-0.0378013 c 0.2837,-3.169e-4 0.5593,0.2372498 0.58211,0.6525437 L 164.7041,24.74933 c 0.058,1.057031 -0.53975,1.785871 -1.59837,1.785871 l -34.52397,0 c -1.05862,0 -1.59302,-0.728791 -1.53587,-1.785871 l 1.32409,-24.49416701 c 0.0387,-0.7158304 0.16638,-0.923401 0.54462,-0.9238234 z"
       style="color:#000000;fill:none;stroke:url(#linearGradient2421);stroke-width:0.99999964;stroke-linecap:butt;stroke-linejoin:miter;stroke-miterlimit:4;stroke-opacity:0.70063692;stroke-dashoffset:0;marker:none;visibility:visible;display:inline;overflow:visible"
       inkscape:connector-curvature="0" />
    <path
       sodipodi:nodetypes="ccccc"
       style="opacity:0.53142856;fill:url(#linearGradient2673);fill-opacity:1;fill-rule:evenodd;stroke:none"
       d="m 130.71154,1.371363 -0.80253,17.87033 c 11.04464,-2.40063 15.42146,-10.492199 29.15403,-13.14675 L 158.90157,1.437427 130.71154,1.371363 z"
       id="path2443"
       inkscape:connector-curvature="0" />
    <path
       transform="matrix(1.331237,0,0,0.658449,115.58067,-0.52113401)"
       d="m 35.620504,3.9384086 a 0.83968931,0.83968931 0 1 1 -1.679378,0 0.83968931,0.83968931 0 1 1 1.679378,0 z"
       sodipodi:ry="0.83968931"
       sodipodi:rx="0.83968931"
       sodipodi:cy="3.9384086"
       sodipodi:cx="34.780815"
       id="path2709"
       style="color:#000000;fill:url(#linearGradient2717);fill-opacity:1;fill-rule:evenodd;stroke:none;stroke-width:0.5;marker:none;visibility:visible;display:inline;overflow:visible"
       sodipodi:type="arc" />
    <path
       sodipodi:type="arc"
       style="color:#000000;fill:url(#linearGradient2721);fill-opacity:1;fill-rule:evenodd;stroke:none;stroke-width:0.5;marker:none;visibility:visible;display:inline;overflow:visible"
       id="path2719"
       sodipodi:cx="34.780815"
       sodipodi:cy="3.9384086"
       sodipodi:rx="0.83968931"
       sodipodi:ry="0.83968931"
       d="m 35.620504,3.9384086 a 0.83968931,0.83968931 0 1 1 -1.679378,0 0.83968931,0.83968931 0 1 1 1.679378,0 z"
       transform="matrix(1.331237,0,0,0.658449,115.69427,1.58465)" />
    <path
       transform="matrix(1.331237,0,0,0.658449,115.80787,3.58465)"
       d="m 35.620504,3.9384086 a 0.83968931,0.83968931 0 1 1 -1.679378,0 0.83968931,0.83968931 0 1 1 1.679378,0 z"
       sodipodi:ry="0.83968931"
       sodipodi:rx="0.83968931"
       sodipodi:cy="3.9384086"
       sodipodi:cx="34.780815"
       id="path2723"
       style="color:#000000;fill:url(#linearGradient2725);fill-opacity:1;fill-rule:evenodd;stroke:none;stroke-width:0.5;marker:none;visibility:visible;display:inline;overflow:visible"
       sodipodi:type="arc" />
    <path
       sodipodi:type="arc"
       style="color:#000000;fill:url(#linearGradient2729);fill-opacity:1;fill-rule:evenodd;stroke:none;stroke-width:0.5;marker:none;visibility:visible;display:inline;overflow:visible"
       id="path2727"
       sodipodi:cx="34.780815"
       sodipodi:cy="3.9384086"
       sodipodi:rx="0.83968931"
       sodipodi:ry="0.83968931"
       d="m 35.620504,3.9384086 a 0.83968931,0.83968931 0 1 1 -1.679378,0 0.83968931,0.83968931 0 1 1 1.679378,0 z"
       transform="matrix(1.331237,0,0,0.658449,115.92147,5.58465)" />
    <path
       transform="matrix(1.331237,0,0,0.658449,116.03507,7.58465)"
       d="m 35.620504,3.9384086 a 0.83968931,0.83968931 0 1 1 -1.679378,0 0.83968931,0.83968931 0 1 1 1.679378,0 z"
       sodipodi:ry="0.83968931"
       sodipodi:rx="0.83968931"
       sodipodi:cy="3.9384086"
       sodipodi:cx="34.780815"
       id="path2731"
       style="color:#000000;fill:url(#linearGradient2733);fill-opacity:1;fill-rule:evenodd;stroke:none;stroke-width:0.5;marker:none;visibility:visible;display:inline;overflow:visible"
       sodipodi:type="arc" />
    <path
       id="text2735"
       d="m 144,23.942666 0.28172,0 c 0.0838,1e-6 0.14798,0.01866 0.19266,0.05599 0.045,0.03703 0.0675,0.08994 0.0675,0.158714 0,0.06907 -0.0225,0.122268 -0.0675,0.159595 -0.0447,0.03703 -0.1089,0.05555 -0.19266,0.05555 l -0.11198,0 0,0.22837 -0.16974,0 0,-0.658219 m 0.16974,0.123003 0,0.183843 0.0939,0 c 0.0329,0 0.0583,-0.0079 0.0763,-0.02381 0.0179,-0.01617 0.0269,-0.03894 0.0269,-0.06834 0,-0.02939 -0.009,-0.05202 -0.0269,-0.06789 -0.0179,-0.01587 -0.0434,-0.02381 -0.0763,-0.02381 l -0.0939,0 m 0.79224,-0.0119 c -0.0517,1e-6 -0.0919,0.01911 -0.12036,0.05731 -0.0285,0.03821 -0.0428,0.092 -0.0428,0.161359 0,0.06907 0.0143,0.122709 0.0428,0.160918 0.0285,0.03821 0.0686,0.05731 0.12036,0.05731 0.052,0 0.0923,-0.0191 0.1208,-0.05731 0.0285,-0.03821 0.0428,-0.09185 0.0428,-0.160918 0,-0.06936 -0.0143,-0.123149 -0.0428,-0.161359 -0.0285,-0.03821 -0.0688,-0.05731 -0.1208,-0.05731 m 0,-0.123003 c 0.10581,10e-7 0.18869,0.03027 0.24865,0.09082 0.06,0.06055 0.0899,0.144165 0.0899,0.250855 0,0.106397 -0.03,0.189868 -0.0899,0.250414 -0.06,0.06055 -0.14284,0.09082 -0.24865,0.09082 -0.10552,0 -0.1884,-0.03027 -0.24865,-0.09082 -0.06,-0.06055 -0.0899,-0.144017 -0.0899,-0.250414 0,-0.10669 0.03,-0.190309 0.0899,-0.250855 0.0602,-0.06055 0.14313,-0.09082 0.24865,-0.09082 m 0.46644,0.0119 0.18957,0 0.2394,0.451451 0,-0.451451 0.16092,0 0,0.658219 -0.18958,0 -0.23939,-0.451451 0,0.451451 -0.16092,0 0,-0.658219 m 0.66307,0 0.18561,0 0.14989,0.234543 0.1499,-0.234543 0.18605,0 -0.25086,0.380912 0,0.277307 -0.16974,0 0,-0.277307 -0.25085,-0.380912"
       style="font-size:0.9029026px;font-style:normal;font-variant:normal;font-weight:bold;font-stretch:normal;writing-mode:lr-tb;text-anchor:start;fill:#4a4a4a;fill-opacity:1;stroke:none;font-family:Bitstream Vera Sans"
       inkscape:connector-curvature="0" />
    <path
       sodipodi:type="arc"
       style="fill:#888a85;fill-opacity:1;stroke:#2e3436;stroke-width:2.06299996000000000;stroke-miterlimit:10;stroke-opacity:1;stroke-dasharray:none"
       id="path3081"
       sodipodi:cx="49.125"
       sodipodi:cy="84.625"
       sodipodi:rx="24.875"
       sodipodi:ry="24.875"
       d="m 74,84.625 a 24.875,24.875 0 1 1 -49.75,0 24.875,24.875 0 1 1 49.75,0 z"
       transform="matrix(0.86489877,0,0,0.86489877,-18.363152,-49.567058)" />
    <path
       style="opacity:0.75000000000000000;fill:#ffffff;fill-opacity:1;stroke:none"
       d="m 44.637088,23.123866 c 0,11.267518 -8.724045,-0.717647 -19.991563,-0.717647 -11.267518,0 -20.81173,11.985165 -20.81173,0.717647 0,-11.267518 9.134128,-20.401647 20.401647,-20.401647 11.267518,0 20.401646,9.134129 20.401646,20.401647 z"
       id="path3862"
       inkscape:connector-curvature="0"
       sodipodi:nodetypes="sssss" />
    <g
       id="g3873"
       transform="matrix(1.4225934,0,0,1.4225934,-84.438371,-33.496623)">
      <g
         transform="matrix(0.844217,0,0,0.844217,41.749625,9.5565902)"
         id="g1879">
        <path
           inkscape:connector-curvature="0"
           style="fill:url(#linearGradient3929);fill-opacity:1;fill-rule:evenodd;stroke:url(#linearGradient3931);stroke-width:1.1845268;stroke-linecap:butt;stroke-linejoin:miter;stroke-miterlimit:4;stroke-opacity:1;stroke-dasharray:none"
           d="m 34.238513,34.181365 0,-3.821697 c 0,-3.913993 2.623362,-5.698381 6.524122,-5.649501 3.921984,0.04888 6.511377,1.751779 6.511377,5.711818 l -0.0065,3.75938 -2.392896,0 0,-2.775166 c -0.06424,-0.963324 0.267,-4.190097 -4.084521,-4.190097 -4.381536,0 -4.123994,3.238432 -4.108293,4.209276 l 0,2.755987 -2.443305,0 z"
           id="path2086"
           sodipodi:nodetypes="cczcccczccc" />
        <rect
           style="fill:url(#linearGradient3933);fill-opacity:1;fill-rule:evenodd;stroke:url(#linearGradient3935);stroke-width:1.18452692;stroke-linecap:round;stroke-linejoin:round;stroke-miterlimit:4;stroke-opacity:1;stroke-dasharray:none;stroke-dashoffset:0"
           id="rect1314"
           width="17.156261"
           height="11.769073"
           x="32.468109"
           y="34.231865"
           rx="2.6473897"
           ry="2.3033772" />
        <rect
           style="fill:none;stroke:url(#linearGradient3937);stroke-width:1.18452799;stroke-linecap:round;stroke-linejoin:round;stroke-miterlimit:4;stroke-opacity:0.60109289;stroke-dasharray:none;stroke-dashoffset:0"
           id="rect6903"
           width="14.977587"
           height="9.4392996"
           x="33.559612"
           y="35.387321"
           rx="1.4387794"
           ry="1.4387805" />
        <path
           inkscape:connector-curvature="0"
           style="fill:url(#linearGradient3939);fill-opacity:1;fill-rule:evenodd;stroke:none"
           d="m 34.675226,30.571517 c 0.129993,-2.898098 0.935711,-5.080544 6.310203,-5.265559 -3.480033,0.490442 -5.372914,1.506529 -5.372914,4.536413 0,0 -0.08681,3.755294 -0.08681,3.755294 l -0.850479,0 0,-3.026148 z"
           id="rect11343"
           sodipodi:nodetypes="ccsccc" />
        <rect
           style="fill:url(#linearGradient3941);fill-opacity:1;fill-rule:evenodd;stroke:none"
           id="rect1345"
           width="0.98047203"
           height="4.90236"
           x="45.460419"
           y="28.716803"
           rx="0"
           ry="0" />
      </g>
    </g>
  </g>
</svg>
