<?xml version="1.0" encoding="UTF-8" standalone="no"?>
<!-- Created with Inkscape (http://www.inkscape.org/) -->

<svg
   xmlns:dc="http://purl.org/dc/elements/1.1/"
   xmlns:cc="http://creativecommons.org/ns#"
   xmlns:rdf="http://www.w3.org/1999/02/22-rdf-syntax-ns#"
   xmlns:svg="http://www.w3.org/2000/svg"
   xmlns="http://www.w3.org/2000/svg"
   xmlns:sodipodi="http://sodipodi.sourceforge.net/DTD/sodipodi-0.dtd"
   xmlns:inkscape="http://www.inkscape.org/namespaces/inkscape"
   width="128mm"
   height="128mm"
   viewBox="0 0 453.54331 453.54331"
   id="svg2"
   version="1.1"
   inkscape:version="0.91 r13725"
   sodipodi:docname="rfid.svg"
   inkscape:export-filename="C:\project\RentalWorks\Web\RentalWorksQuikScan\theme\images\icons\128\rfid.png"
   inkscape:export-xdpi="25.4"
   inkscape:export-ydpi="25.4">
  <defs
     id="defs4" />
  <sodipodi:namedview
     id="base"
     pagecolor="#000000"
     bordercolor="#666666"
     borderopacity="1.0"
     inkscape:pageopacity="0"
     inkscape:pageshadow="2"
     inkscape:zoom="0.98994949"
     inkscape:cx="-83.921706"
     inkscape:cy="245.0736"
     inkscape:document-units="px"
     inkscape:current-layer="layer1"
     showgrid="false"
     inkscape:window-width="1920"
     inkscape:window-height="934"
     inkscape:window-x="-8"
     inkscape:window-y="-8"
     inkscape:window-maximized="1" />
  <metadata
     id="metadata7">
    <rdf:RDF>
      <cc:Work
         rdf:about="">
        <dc:format>image/svg+xml</dc:format>
        <dc:type
           rdf:resource="http://purl.org/dc/dcmitype/StillImage" />
        <dc:title></dc:title>
      </cc:Work>
    </rdf:RDF>
  </metadata>
  <g
     inkscape:label="Layer 1"
     inkscape:groupmode="layer"
     id="layer1"
     transform="translate(0,-598.8189)">
    <g
       id="g4269"
       transform="translate(-111.42857,351.91394)">
      <path
         inkscape:connector-curvature="0"
         id="path4136"
         d="m 377.14285,478.07648 a 42.857143,42.857143 0 0 1 -42.85714,42.85714 42.857143,42.857143 0 0 1 -42.85715,-42.85714 42.857143,42.857143 0 0 1 42.85715,-42.85715 42.857143,42.857143 0 0 1 42.85714,42.85715 z"
         style="fill:#ffffff;fill-opacity:1;stroke:none;stroke-width:20.29400063;stroke-linecap:round;stroke-miterlimit:4;stroke-dasharray:none;stroke-opacity:1" />
      <path
         inkscape:connector-curvature="0"
         id="path4267"
         d="M 247.38186,594.32716 A 147.14285,147.14285 0 0 1 188.57141,476.64792 147.14285,147.14285 0 0 1 248.0891,358.44111"
         style="fill:none;fill-opacity:1;stroke:#ffffff;stroke-width:28.54199982;stroke-linecap:round;stroke-miterlimit:4;stroke-dasharray:none;stroke-opacity:1" />
      <path
         inkscape:connector-curvature="0"
         id="path4263"
         d="m 421.43674,357.05412 a 147.14285,147.14285 0 0 1 61.42038,119.5938 l 0,0 a 147.14285,147.14285 0 0 1 -60.32656,118.80215"
         style="fill:none;fill-opacity:1;stroke:#ffffff;stroke-width:28.54199982;stroke-linecap:round;stroke-miterlimit:4;stroke-dasharray:none;stroke-opacity:1" />
      <path
         inkscape:connector-curvature="0"
         id="path4261"
         d="m 293.03777,556.19622 a 88.340714,88.340714 0 0 1 -47.09278,-78.11971 88.340714,88.340714 0 0 1 50.07516,-79.62305"
         style="fill:none;fill-opacity:1;stroke:#ffffff;stroke-width:28.54199982;stroke-linecap:round;stroke-miterlimit:4;stroke-dasharray:none;stroke-opacity:1" />
      <path
         inkscape:connector-curvature="0"
         id="path4257"
         d="m 372.07741,398.22747 a 88.340714,88.340714 0 0 1 50.54901,79.84904 88.340714,88.340714 0 0 1 -47.09397,78.12034"
         style="fill:none;fill-opacity:1;stroke:#ffffff;stroke-width:28.54199982;stroke-linecap:round;stroke-miterlimit:4;stroke-dasharray:none;stroke-opacity:1" />
      <path
         inkscape:connector-curvature="0"
         id="path4255"
         d="M 202.51986,631.73014 A 206.9473,206.9473 0 0 1 130.5527,474.86221 206.9473,206.9473 0 0 1 201.10044,319.22693"
         style="fill:none;fill-opacity:1;stroke:#ffffff;stroke-width:28.54199982;stroke-linecap:round;stroke-miterlimit:4;stroke-dasharray:none;stroke-opacity:1" />
      <path
         inkscape:connector-curvature="0"
         id="path4231"
         d="M 470.39628,316.22502 A 206.9473,206.9473 0 0 1 544.4473,474.86221 206.9473,206.9473 0 0 1 469.26981,634.43633"
         style="fill:none;fill-opacity:1;stroke:#ffffff;stroke-width:28.54199982;stroke-linecap:round;stroke-miterlimit:4;stroke-dasharray:none;stroke-opacity:1" />
    </g>
    <g
       id="g4312"
       transform="translate(-690.94434,-203.04066)">
      <rect
         transform="matrix(0.70710678,-0.70710678,0.70710678,0.70710678,0,0)"
         y="735.50891"
         x="-668.81201"
         height="40.818428"
         width="455.78787"
         id="rect4280"
         style="fill:#ffffff;fill-opacity:1;stroke:none;stroke-width:28.54199982;stroke-linecap:round;stroke-miterlimit:4;stroke-dasharray:none;stroke-opacity:1" />
      <rect
         transform="matrix(-0.70710678,-0.70710678,-0.70710678,0.70710678,0,0)"
         y="420.15179"
         x="-984.16925"
         height="40.818428"
         width="455.78787"
         id="rect4280-5"
         style="fill:#ffffff;fill-opacity:1;stroke:none;stroke-width:28.54199982;stroke-linecap:round;stroke-miterlimit:4;stroke-dasharray:none;stroke-opacity:1" />
    </g>
  </g>
</svg>
