<?xml version="1.0" encoding="UTF-8" standalone="no"?>
<!-- Created with Inkscape (http://www.inkscape.org/) -->
<svg
   xmlns:dc="http://purl.org/dc/elements/1.1/"
   xmlns:cc="http://creativecommons.org/ns#"
   xmlns:rdf="http://www.w3.org/1999/02/22-rdf-syntax-ns#"
   xmlns:svg="http://www.w3.org/2000/svg"
   xmlns="http://www.w3.org/2000/svg"
   xmlns:sodipodi="http://sodipodi.sourceforge.net/DTD/sodipodi-0.dtd"
   xmlns:inkscape="http://www.inkscape.org/namespaces/inkscape"
   width="504.36252"
   height="640.25757"
   id="svg2"
   version="1.0"
   inkscape:version="0.46"
   sodipodi:docname="Fragile_02.svg"
   style="display:inline"
   sodipodi:version="0.32"
   inkscape:output_extension="org.inkscape.output.svg.inkscape">
  <defs
     id="defs4">
    <inkscape:perspective
       sodipodi:type="inkscape:persp3d"
       inkscape:vp_x="0 : 526.18109 : 1"
       inkscape:vp_y="0 : 1000 : 0"
       inkscape:vp_z="744.09448 : 526.18109 : 1"
       inkscape:persp3d-origin="372.04724 : 350.78739 : 1"
       id="perspective10" />
    <inkscape:perspective
       id="perspective2895"
       inkscape:persp3d-origin="0.5 : 0.33333333 : 1"
       inkscape:vp_z="1 : 0.5 : 1"
       inkscape:vp_y="0 : 1000 : 0"
       inkscape:vp_x="0 : 0.5 : 1"
       sodipodi:type="inkscape:persp3d" />
    <inkscape:perspective
       id="perspective3753"
       inkscape:persp3d-origin="0.5 : 0.33333333 : 1"
       inkscape:vp_z="1 : 0.5 : 1"
       inkscape:vp_y="0 : 1000 : 0"
       inkscape:vp_x="0 : 0.5 : 1"
       sodipodi:type="inkscape:persp3d" />
  </defs>
  <sodipodi:namedview
     id="base"
     pagecolor="#ffffff"
     bordercolor="#666666"
     borderopacity="1.0"
     inkscape:pageopacity="0.0"
     inkscape:pageshadow="2"
     inkscape:zoom="0.3877215"
     inkscape:cx="236.55817"
     inkscape:cy="514.56545"
     inkscape:document-units="px"
     inkscape:current-layer="svg2"
     showgrid="false"
     inkscape:window-width="1280"
     inkscape:window-height="996"
     inkscape:window-x="0"
     inkscape:window-y="0"
     inkscape:window-maximized="1" />
  <metadata
     id="metadata7">
    <rdf:RDF>
      <cc:Work
         rdf:about="">
        <dc:format>image/svg+xml</dc:format>
        <dc:type
           rdf:resource="http://purl.org/dc/dcmitype/StillImage" />
        <dc:title />
      </cc:Work>
    </rdf:RDF>
  </metadata>
  <g
     inkscape:groupmode="layer"
     id="layer2"
     inkscape:label="dessin"
     sodipodi:insensitive="true"
     transform="translate(-100.25914,-214.99244)" />
  <path
     style="fill:#000000;fill-opacity:1;stroke:#000000;stroke-width:1px;stroke-linecap:butt;stroke-linejoin:miter;stroke-opacity:1"
     d="M 254.52211,0.50756266 C 252.36192,0.54006266 250.23588,0.67996266 248.11586,0.97631266 C 217.83363,3.4276827 244.14711,36.101313 244.14711,36.101313 C 244.14711,36.101313 246.14269,36.075913 247.99086,36.663813 C 248.16556,37.716713 248.29108,38.390183 248.36586,41.695063 C 247.5471,42.884823 245.07769,43.842783 244.45961,44.320063 L 226.30336,69.070063 L 176.89711,50.570063 C 174.70764,49.749613 170.49426,50.360963 168.67836,50.757563 C 159.12906,52.843183 149.16037,57.250603 137.30336,61.163813 C 135.26175,61.837613 131.22346,60.879353 129.14711,61.570063 C 90.936693,74.280913 92.493613,73.279373 50.084613,91.726313 C 42.210193,95.151503 34.329493,101.26442 40.240863,114.07006 C 55.606783,130.9854 87.898063,162.44446 108.27085,178.90443 C 108.27085,178.90443 80.499493,157.28431 75.433983,157.62694 C 73.453073,157.76093 70.995083,160.48624 69.553363,161.85131 C 7.5278934,220.57853 16.345963,314.69868 25.022113,401.82006 C 27.316303,424.85709 33.991693,444.38004 37.272113,458.91381 C 14.033183,498.3974 9.9465534,547.44485 2.2408634,594.69506 C 2.1534634,596.43418 -2.0846886,598.81773 2.9908634,599.53881 C 4.4113834,599.74062 3.7011534,602.25172 3.9908634,603.47631 L 8.3658634,602.60131 C 8.3827634,604.90474 12.284313,609.02654 8.5221134,609.10131 C 7.6163834,609.11931 7.5182434,611.80675 7.4283634,613.00756 C 10.167253,618.87334 9.2632234,624.21481 9.3033634,629.69506 L 33.772113,628.00756 C 34.696653,625.27289 34.966583,622.67341 34.240863,620.35131 L 39.178363,619.13256 L 54.522113,627.94506 C 54.756823,629.48616 54.438213,630.62811 56.022113,630.82006 L 105.61586,634.13256 C 120.29436,635.107 115.73386,627.07464 112.61586,624.47631 C 112.61586,624.47631 106.64026,616.30658 102.11586,615.72631 C 83.182883,613.2981 61.500163,595.90376 61.772113,595.66381 C 75.994483,557.97194 82.604213,522.22867 92.459613,483.44506 C 94.760843,472.3484 98.364233,461.26047 95.115863,450.16381 L 102.11586,343.28881 L 82.834613,325.75756 C 105.20782,341.09159 129.02456,354.37673 149.89711,371.94506 C 158.50052,377.87416 166.69918,386.20814 175.70961,389.69506 C 177.53158,451.3996 184.0989,532.11587 185.89711,570.78881 C 185.96961,572.34808 188.62837,568.12687 189.67836,566.25756 C 199.3007,549.1268 231.00706,538.0409 246.24086,539.32006 C 251.05799,542.30982 251.84341,538.40843 251.92836,538.63256 C 251.93836,538.65896 251.95256,538.65976 251.95956,538.66376 C 252.50501,536.39792 230.89706,360.78876 230.89706,360.78876 C 230.27821,355.45553 227.73518,354.58574 226.67831,353.41376 C 209.47418,335.35624 195.1868,319.99098 178.77206,301.53876 C 168.6617,285.42726 156.99154,271.49219 144.11581,259.72626 C 154.09425,241.20921 166.94947,228.46127 182.70956,221.50751 L 184.45956,192.60126 L 182.70956,189.97626 L 180.95956,214.50751 C 178.91544,215.40747 176.87868,215.91913 174.83456,214.50751 C 173.18162,214.35877 172.40478,212.87409 173.08456,209.22626 L 172.83456,185.38251 C 171.73949,181.60225 170.64837,184.20874 169.55331,185.38251 L 169.11581,209.22626 C 167.7716,210.85044 162.51031,210.53841 163.42831,207.47626 C 161.95104,206.92659 162.96503,203.37578 162.55331,200.69501 L 162.55331,183.82001 C 162.55331,180.20832 157.11747,177.19407 157.30331,182.94501 C 157.56308,190.984 157.54774,198.47693 156.64706,204.19501 C 153.85611,204.4757 153.46381,205.00063 151.83456,203.53876 C 150.51168,196.38434 152.33394,183.66551 150.30331,182.07001 L 144.14706,177.25751 C 142.93204,176.30286 144.30513,172.64188 145.74081,171.38251 L 154.02206,164.13251 C 162.24301,156.92115 164.85675,160.10793 168.67831,162.82001 C 176.67211,168.49303 184.68451,175.748 192.67831,179.82001 C 195.52137,182.99169 195.39273,183.82556 195.39706,184.72626 C 194.75671,197.72545 191.99936,214.22645 192.83456,220.41376 L 193.64706,226.44501 C 193.84178,225.94762 196.50314,226.33517 198.14706,226.60126 C 202.10515,227.24187 207.39359,229.80454 209.86581,232.00751 C 221.38638,241.48396 231.61257,250.9234 242.02206,259.28876 L 243.89706,263.13251 L 244.49081,273.50751 L 289.58456,615.72626 C 289.86443,621.05821 291.06715,620.81738 292.74081,621.03876 L 452.05331,637.16376 C 454.73904,637.22316 454.86813,635.24854 455.61581,633.75751 L 489.74086,347.28881 C 490.79829,347.07653 491.74856,345.46984 492.42836,345.25756 L 495.08461,344.60131 C 496.64948,344.22775 497.13661,343.0547 497.05336,341.44506 C 499.76242,331.34765 501.71099,320.63483 503.49086,310.38256 C 504.50361,307.84534 503.23125,306.12149 502.24086,304.82006 L 476.89711,278.60131 C 475.04772,278.91516 474.00222,278.00621 473.17836,278.32006 L 458.95961,282.35131 L 254.74086,120.53881 C 256.53348,119.7279 260.136,114.70232 264.11586,113.19506 C 264.85392,114.35763 266.53404,114.1302 267.27211,114.75756 L 282.58461,127.75756 C 284.91492,129.97975 286.69108,131.16432 289.83461,128.91381 L 304.20961,113.53881 L 309.74086,115.50756 C 317.43559,120.18743 316.80161,114.73836 319.58461,88.007563 C 320.06466,83.396683 321.70312,79.784723 323.17836,77.663813 L 334.27211,83.101313 C 337.38582,82.606453 341.46959,83.521333 338.64711,74.320063 L 332.27211,59.476313 L 331.99086,52.976313 L 343.42836,35.101313 C 347.43704,23.999143 335.39856,18.884613 330.77211,15.632563 C 317.09435,11.241503 304.5053,4.3265227 289.49086,2.5388127 C 287.08104,2.2518827 284.64275,2.1416727 282.17836,2.1638127 C 273.50164,2.2417127 263.88292,0.36668266 254.52211,0.50756266 L 254.52211,0.50756266 z M 312.50527,64.123363 C 312.50527,64.123363 310.51805,67.106473 310.51805,67.106473 C 310.51805,67.106473 272.11394,47.705083 258.88877,40.408603 L 312.50527,64.123363 L 312.50527,64.123363 z M 156.92836,94.132563 L 106.27211,113.78881 C 111.3983,118.58403 153.92758,154.54993 132.99086,139.78881 C 119.84607,130.5354 93.106393,114.17214 93.522113,113.35131 L 95.522113,109.41381 C 109.77962,104.07467 144.10859,94.448143 156.92836,94.132563 L 156.92836,94.132563 z M 226.80336,179.50756 L 371.77211,276.75756 L 344.52211,275.50756 C 338.60011,274.79453 336.95932,277.37722 335.83461,281.10131 L 296.80336,574.72631 L 257.17836,256.94506 C 256.37914,250.84032 253.20386,247.78042 249.11586,243.32006 L 213.17836,215.41381 L 214.42836,208.60131 L 207.61586,199.32006 L 205.14711,192.50756 L 226.80336,179.50756 L 226.80336,179.50756 z M 351.64711,287.66381 L 444.05336,298.78881 C 449.86705,298.96096 448.44745,301.06849 449.99086,301.85131 C 452.28852,308.38556 461.21832,316.43584 468.55336,324.13256 C 472.40581,327.32968 482.72909,327.81341 478.30336,317.00756 L 475.67836,312.53881 C 476.0248,310.10493 475.66056,309.04128 477.24086,308.66381 C 482.53869,310.93749 484.84953,312.99059 484.36586,314.85131 L 446.86586,617.00756 C 446.66858,621.62493 444.87124,623.95732 443.02211,624.44506 C 396.56236,621.30771 376.74158,618.49296 306.42836,612.94506 C 304.36636,612.78237 303.13976,608.33624 303.17836,604.28881 L 346.33461,291.60131 C 347.82087,287.46423 349.76351,287.82744 351.64711,287.66381 z"
     id="path2902"
     sodipodi:nodetypes="ccccccccssssccsssccsccscccccccccscccccccsscscccccccccccccccccsccccccsccccsccccccccccccccccccccccccscccccccsscccccccccccccccccccccccccccccccccsccc" />
  <path
     style="fill:#000000;fill-opacity:1;stroke:#262626;stroke-width:1;stroke-linecap:round;stroke-linejoin:miter;stroke-miterlimit:4;stroke-dasharray:none;stroke-opacity:1"
     d="M 236.11586,550.57006 C 211.48324,550.57006 191.52211,570.53119 191.52211,595.16381 C 191.52211,619.79643 211.48324,639.75756 236.11586,639.75756 C 260.74848,639.75756 280.70961,619.79643 280.70961,595.16381 C 280.70961,570.53119 260.74848,550.57006 236.11586,550.57006 z M 236.74086,578.75756 C 246.48901,578.75756 254.36586,586.38278 254.36586,595.78881 C 254.36586,605.19484 246.48901,612.82006 236.74086,612.82006 C 226.99271,612.82006 219.08461,605.19484 219.08461,595.78881 C 219.08461,586.38278 226.99271,578.75756 236.74086,578.75756 z"
     id="path3730" />
</svg>
